<svg width="33" height="33" viewBox="0 0 33 33" fill="none" xmlns="http://www.w3.org/2000/svg">
<rect width="32.2" height="33.005" transform="translate(0.200195)" fill="white"/>
<path d="M19.5559 5.40802C19.5559 7.2503 18.0991 8.74377 16.3021 8.74377C14.5051 8.74377 13.0484 7.2503 13.0484 5.40802C13.0484 3.56573 14.5051 2.07227 16.3021 2.07227C18.0991 2.07227 19.5559 3.56573 19.5559 5.40802Z" fill="#008CD6"/>
<path d="M12.1787 15.2235C12.1787 14.0567 13.1016 13.1107 14.24 13.1107C15.3784 13.1107 16.3013 14.0567 16.3013 15.2235V30.2152C16.3013 31.3821 15.3784 32.328 14.24 32.328C13.1016 32.328 12.1787 31.3821 12.1787 30.2152V15.2235Z" fill="#008CD6"/>
<path d="M16.5756 15.2235C16.5756 14.0567 17.4985 13.1107 18.6369 13.1107C19.7753 13.1107 20.6982 14.0567 20.6982 15.2235V30.2152C20.6982 31.3821 19.7753 32.328 18.6369 32.328C17.4985 32.328 16.5756 31.3821 16.5756 30.2152V15.2235Z" fill="#008CD6"/>
<path d="M10.3087 11.9867C10.541 11.0704 11.4541 10.5207 12.348 10.759C13.242 10.9972 13.7783 11.9332 13.546 12.8495L11.7007 20.1266C11.4683 21.0429 10.5553 21.5926 9.6613 21.3543C8.76734 21.1161 8.23101 20.1801 8.46337 19.2637L10.3087 11.9867Z" fill="#008CD6"/>
<path d="M22.2944 11.9867C22.062 11.0704 21.149 10.5207 20.255 10.759C19.3611 10.9972 18.8247 11.9332 19.0571 12.8495L20.9024 20.1266C21.1347 21.0429 22.0478 21.5926 22.9418 21.3543C23.8357 21.1161 24.372 20.1801 24.1397 19.2637L22.2944 11.9867Z" fill="#008CD6"/>
<path d="M10.3562 12.2735C10.3562 10.7545 11.5575 9.5231 13.0395 9.5231H19.5696C21.0516 9.5231 22.253 10.7545 22.253 12.2735V15.0136C22.253 16.5326 21.0516 17.764 19.5696 17.764H13.0395C11.5575 17.764 10.3562 16.5326 10.3562 15.0136V12.2735Z" fill="#008CD6"/>
<path d="M14.9828 16.0527H17.9705V21.4845H14.9828V16.0527Z" fill="#008CD6"/>
</svg>
