<svg width="33" height="33" viewBox="0 0 33 33" fill="none" xmlns="http://www.w3.org/2000/svg">
<path d="M19.7556 5.40802C19.7556 7.2503 18.2988 8.74377 16.5018 8.74377C14.7048 8.74377 13.2481 7.2503 13.2481 5.40802C13.2481 3.56573 14.7048 2.07227 16.5018 2.07227C18.2988 2.07227 19.7556 3.56573 19.7556 5.40802Z" fill="#D9D9D9"/>
<path d="M12.3785 15.2235C12.3785 14.0567 13.3013 13.1107 14.4397 13.1107C15.5781 13.1107 16.501 14.0567 16.501 15.2235V30.2152C16.501 31.3821 15.5781 32.328 14.4397 32.328C13.3013 32.328 12.3785 31.3821 12.3785 30.2152V15.2235Z" fill="#D9D9D9"/>
<path d="M16.7753 15.2235C16.7753 14.0567 17.6982 13.1107 18.8366 13.1107C19.975 13.1107 20.8979 14.0567 20.8979 15.2235V30.2152C20.8979 31.3821 19.975 32.328 18.8366 32.328C17.6982 32.328 16.7753 31.3821 16.7753 30.2152V15.2235Z" fill="#D9D9D9"/>
<path d="M10.5084 11.9867C10.7407 11.0704 11.6538 10.5207 12.5477 10.759C13.4417 10.9972 13.978 11.9332 13.7457 12.8495L11.9004 20.1266C11.668 21.0429 10.755 21.5926 9.86101 21.3543C8.96705 21.1161 8.43072 20.1801 8.66308 19.2637L10.5084 11.9867Z" fill="#D9D9D9"/>
<path d="M22.4941 11.9867C22.2617 11.0704 21.3487 10.5207 20.4547 10.759C19.5608 10.9972 19.0244 11.9332 19.2568 12.8495L21.1021 20.1266C21.3344 21.0429 22.2475 21.5926 23.1415 21.3543C24.0354 21.1161 24.5718 20.1801 24.3394 19.2637L22.4941 11.9867Z" fill="#D9D9D9"/>
<path d="M10.5559 12.2735C10.5559 10.7545 11.7572 9.5231 13.2392 9.5231H19.7694C21.2513 9.5231 22.4527 10.7545 22.4527 12.2735V15.0136C22.4527 16.5326 21.2513 17.764 19.7694 17.764H13.2392C11.7572 17.764 10.5559 16.5326 10.5559 15.0136V12.2735Z" fill="#D9D9D9"/>
<path d="M15.1825 16.0527H18.1702V21.4845H15.1825V16.0527Z" fill="#D9D9D9"/>
</svg>
