<svg version="1.1" id="Layer_1" xmlns="http://www.w3.org/2000/svg" xmlns:xlink="http://www.w3.org/1999/xlink" x="0px" y="0px"
	 width="100%" viewBox="0 0 1007 115" enable-background="new 0 0 1007 115" xml:space="preserve">
<path fill="#FFFFFF" opacity="1.000000" stroke="none" 
	d="
M460.126404,115.592117 
	C308.464508,116.000000 156.929031,115.980202 5.393660,116.108841 
	C1.417065,116.112213 0.853757,114.964539 0.910509,111.399925 
	C1.130502,97.582085 1.000000,83.758659 1.000000,69.468658 
	C2.581407,67.872032 3.529619,69.006134 4.273694,70.086113 
	C11.750079,80.937675 29.822229,78.630241 37.185226,72.361580 
	C40.227562,69.771431 43.286118,67.257645 46.657093,65.058235 
	C51.438107,61.938843 52.006550,55.700005 47.863068,51.098663 
	C43.314510,46.047482 37.993649,42.268013 30.677401,42.144241 
	C25.834389,42.062309 20.999744,41.844875 16.311024,43.152054 
	C10.619528,44.738800 5.922383,47.651653 4.022504,53.741802 
	C3.663555,54.892429 2.964917,55.816822 1.361836,56.091312 
	C1.000000,38.736526 1.084909,21.472219 0.915093,4.210417 
	C0.887305,1.385699 1.556408,0.897869 4.264935,0.922976 
	C20.862997,1.076840 37.463196,1.000000 54.531342,1.000000 
	C54.815922,3.716620 52.413731,3.099979 50.899361,3.557888 
	C42.775448,6.014366 39.657928,9.540586 38.757996,18.017639 
	C38.318398,22.158539 38.512390,26.342295 39.320042,30.424187 
	C40.662659,37.209831 46.031914,41.956188 53.177658,42.794853 
	C51.655743,37.707108 50.239014,32.538689 55.768574,28.972240 
	C59.039829,26.862350 63.216099,27.945763 66.547432,31.386036 
	C69.656517,34.596786 69.740486,36.778305 66.720741,42.020298 
	C70.265907,40.808914 72.799110,38.794876 74.939880,36.231888 
	C76.332794,34.564255 77.850258,33.060287 79.608963,31.763840 
	C85.244568,27.609497 86.484024,21.519365 82.590210,15.715036 
	C78.718903,9.944268 74.010483,5.099543 66.739815,3.670223 
	C65.314888,3.390101 63.747936,3.142514 62.932621,1.344733 
	C296.354218,1.000000 529.708435,1.000000 763.531372,1.000000 
	C763.136902,7.940359 763.552490,14.917422 763.380066,21.877893 
	C763.318665,24.355972 763.497253,27.249334 760.274475,27.929979 
	C756.869629,28.649078 753.245728,29.220421 750.138306,27.067305 
	C748.461853,25.905741 748.820068,23.771683 749.090820,21.950991 
	C749.583008,18.641483 749.747498,15.325113 749.414612,11.998373 
	C749.299316,10.846205 749.104797,9.440354 747.663818,9.327684 
	C745.795715,9.181621 745.652344,10.841963 745.557861,12.114405 
	C745.200439,16.926718 744.645813,21.724205 744.100769,26.509758 
	C743.214844,34.288193 741.538818,41.930080 738.953491,49.360046 
	C738.354858,51.080486 736.968994,53.623997 739.748901,54.454502 
	C742.192871,55.184647 742.983765,52.620674 743.676025,50.800648 
	C745.395996,46.278255 746.410217,41.552841 747.451477,36.837410 
	C748.543945,31.889828 750.419495,31.134953 757.885620,31.589607 
	C762.367065,31.862505 763.413391,34.400936 763.408936,38.209972 
	C763.400391,45.532856 763.344238,52.856930 763.431580,60.178387 
	C763.478699,64.127045 761.794800,66.806557 758.430847,68.678627 
	C754.645447,70.785156 750.802246,72.762070 746.796326,74.415344 
	C744.641113,75.304825 742.494141,76.219315 740.501526,77.437645 
	C739.527649,78.033104 738.172058,78.701920 738.593262,80.020088 
	C739.094482,81.588692 740.730591,81.470291 742.015198,81.204704 
	C745.794983,80.423264 749.168701,78.535530 752.684021,77.041954 
	C754.673401,76.196686 756.545898,75.092766 758.566040,74.303871 
	C761.528687,73.146942 762.986450,74.293358 763.267273,77.313049 
	C763.328979,77.976440 763.391663,78.639824 763.390991,79.305397 
	C763.378906,91.283165 763.541687,103.261200 763.170410,115.619347 
	C663.312439,116.000000 563.624878,116.000000 463.468658,116.000000 
	C464.932159,110.732315 464.558289,105.243507 464.557251,99.789810 
	C464.555054,88.293953 464.756378,76.793808 464.509491,65.303261 
	C464.143738,48.280704 464.419220,31.351236 468.870514,14.753005 
	C469.428497,12.672279 469.728912,10.492834 469.289673,8.316163 
	C469.086395,7.308802 468.707520,6.328713 467.531128,6.148822 
	C466.100952,5.930120 465.436371,6.879747 465.004089,8.051661 
	C464.595520,9.159320 464.548065,10.332079 464.414642,11.489717 
	C462.519623,27.931744 457.867279,43.437496 448.802765,57.444439 
	C448.350067,58.143986 447.893494,58.849392 447.601562,59.630939 
	C447.135590,60.878437 446.498077,62.249660 447.846802,63.281326 
	C449.387878,64.460167 450.656189,63.476002 451.803345,62.432411 
	C452.295105,61.985065 452.630554,61.389118 453.059052,60.881641 
	C454.398682,59.295231 455.399780,56.343006 457.817627,57.336887 
	C459.917816,58.200191 459.404663,61.135418 459.414185,63.266548 
	C459.475128,76.928116 459.467621,90.590019 459.422668,104.251579 
	C459.410583,107.927216 459.567139,111.570824 460.126404,115.592117 
z"/>
<path fill="#FFFFFF" opacity="1.000000" stroke="none" 
	d="
M1007.648682,56.869797 
	C1008.000000,75.140053 1007.893433,93.281265 1008.090637,111.419174 
	C1008.129578,115.008835 1007.533264,116.115784 1003.592834,116.108459 
	C925.374512,115.963005 847.155884,116.000000 768.468628,116.000000 
	C769.058350,102.571327 768.513184,89.117676 768.493103,75.677269 
	C768.485657,70.730675 769.899231,66.970871 774.153198,64.290581 
	C776.112610,63.056034 777.986023,61.609543 779.452454,59.773296 
	C780.364746,58.630829 781.640930,57.271473 780.328247,55.825993 
	C779.171997,54.552769 777.890442,55.772285 776.765503,56.373749 
	C776.033936,56.764851 775.420776,57.351830 774.729004,57.811657 
	C770.495422,60.625477 768.871338,59.856533 768.650208,54.655888 
	C768.410034,49.006516 768.606140,43.345173 768.586792,37.689426 
	C768.572632,33.552719 770.460510,31.559896 774.631287,31.580013 
	C776.540283,31.589222 778.590881,31.796907 780.521118,30.105833 
	C778.902710,28.066525 776.823303,28.569115 775.004944,28.421370 
	C769.628784,27.984543 768.789795,27.155302 768.590149,21.701542 
	C768.347290,15.067000 769.118835,8.389957 767.873779,1.401514 
	C846.549438,1.000000 925.098938,1.020752 1003.648315,0.927680 
	C1006.951172,0.923767 1008.203979,1.219718 1008.129822,5.138152 
	C1007.821350,21.441311 1008.000000,37.753689 1008.000000,54.531342 
	C998.694031,51.887585 989.944824,47.538212 981.291016,42.977268 
	C978.914368,41.724709 978.191895,40.073921 980.029602,37.785271 
	C984.113037,32.699944 987.521973,27.185495 990.461060,21.371172 
	C991.716248,18.887882 993.793823,17.795649 996.540466,17.745884 
	C998.195557,17.715897 999.882568,17.847681 1001.485962,17.255955 
	C1002.327820,16.945292 1002.937866,16.371851 1002.930115,15.443251 
	C1002.922119,14.491203 1002.227417,13.969335 1001.403137,13.689208 
	C999.791870,13.141628 998.108276,13.293910 996.448792,13.291732 
	C984.957092,13.276648 973.465149,13.324048 961.973694,13.267392 
	C956.112610,13.238496 956.094543,13.175422 955.997131,7.257413 
	C955.974243,5.867915 956.002808,4.364432 954.319702,4.091310 
	C952.098450,3.730846 951.537170,5.601541 951.097900,7.180143 
	C949.011536,14.677615 945.653137,21.457737 940.407227,27.286318 
	C938.834961,29.033209 936.956726,30.420622 935.369202,32.120853 
	C934.220276,33.351280 932.879272,34.889439 934.273804,36.477688 
	C935.704224,38.106831 937.408630,36.965225 938.656860,35.836456 
	C941.867615,32.933052 944.931396,29.891750 947.565247,26.415878 
	C950.503967,22.537460 951.944885,22.501575 954.735657,26.440548 
	C957.264893,30.010481 960.395569,32.976830 963.397034,36.090252 
	C968.180847,41.052567 967.953796,43.045315 962.074951,46.305069 
	C957.116394,49.054543 952.016235,51.513321 946.485962,52.944649 
	C945.358582,53.236431 944.216797,53.498695 943.146484,53.971775 
	C942.223877,54.379616 941.107910,54.872669 941.274536,56.014229 
	C941.487061,57.470226 942.866028,57.514095 944.034973,57.542362 
	C945.377136,57.574818 946.682251,57.249157 947.968201,56.900394 
	C955.251038,54.925110 962.306824,52.276863 968.347778,47.721848 
	C972.174866,44.836159 975.301331,44.986038 979.215515,47.428040 
	C984.434631,50.684139 990.092102,53.190781 995.697266,55.762787 
	C999.514404,57.514301 1003.287903,58.096214 1007.648682,56.869797 
z"/>
<path fill="#474443" opacity="1.000000" stroke="none" 
	d="
M767.600037,1.000000 
	C769.522034,2.815742 770.155823,4.803513 770.063843,7.268648 
	C769.859436,12.744540 770.136353,18.238157 769.941711,23.714760 
	C769.848022,26.350594 770.652649,27.294989 773.287476,27.041428 
	C775.427734,26.835474 777.604248,27.027853 779.763855,26.994726 
	C781.704285,26.964962 783.234009,27.667721 782.881897,29.785912 
	C782.606873,31.440556 782.052612,33.453323 779.485718,33.005825 
	C779.163269,32.949612 778.822205,32.992386 778.490051,33.000813 
	C770.000000,33.216259 770.000000,33.216526 770.000000,41.545547 
	C770.000000,47.281570 770.000000,53.017593 770.000000,59.644497 
	C772.917786,57.469891 775.155579,55.968529 777.193787,54.232788 
	C778.969421,52.720722 780.934998,52.130325 782.344971,54.031219 
	C783.648987,55.789345 783.624146,58.128834 781.694458,59.824562 
	C778.988525,62.202503 776.459473,64.923828 773.395081,66.709465 
	C770.660400,68.303009 769.927429,70.139740 769.953430,73.048828 
	C770.063293,85.344246 769.996887,97.641205 770.003235,109.937607 
	C770.004272,111.907700 770.369080,113.983780 768.124573,115.623459 
	C766.611084,116.000000 765.222229,116.000000 763.416626,116.000000 
	C761.699463,114.266190 762.001099,112.250908 762.000854,110.290375 
	C761.999207,98.464485 762.000000,86.638596 762.000000,74.306419 
	C756.544312,76.751831 751.328308,79.083565 746.119629,81.431526 
	C745.379761,81.765015 744.712830,82.368118 743.947693,82.518417 
	C741.256958,83.047020 737.816772,84.388359 736.321167,81.399872 
	C734.507568,77.775864 738.209106,77.009384 740.632080,75.714691 
	C746.771179,72.434296 753.532410,70.468040 759.346313,66.427757 
	C761.264709,65.094589 762.059143,64.019127 762.035828,61.800877 
	C761.946594,53.306301 761.903748,44.808502 762.057129,36.315765 
	C762.104004,33.718147 761.389160,32.969162 758.733032,32.924431 
	C749.848389,32.774807 749.944336,32.672375 747.959290,41.056591 
	C746.994568,45.131580 745.725037,49.147472 744.362366,53.110657 
	C743.441406,55.789398 741.675110,58.034019 738.465332,56.689484 
	C735.592651,55.486145 735.933960,53.130024 736.950317,50.507023 
	C741.835815,37.898434 743.252869,24.632521 743.963928,11.266897 
	C744.089417,8.907655 744.120728,7.027070 747.296875,6.945089 
	C750.658569,6.858316 751.237061,8.676586 750.996338,11.364474 
	C750.645386,15.283593 751.641907,19.238903 750.138489,23.166346 
	C749.307800,25.336443 749.837036,27.061008 753.176392,27.098833 
	C762.002197,27.198797 762.000000,27.392797 762.000000,18.745354 
	C762.000000,14.247730 761.975525,9.749894 762.014648,5.252610 
	C762.026672,3.871379 761.426147,2.113301 763.838989,1.382637 
	C765.066711,1.000000 766.133362,1.000000 767.600037,1.000000 
z"/>
<path fill="#474443" opacity="1.000000" stroke="none" 
	d="
M1008.000000,56.666668 
	C1003.130920,61.379360 998.365601,58.375813 993.974609,56.345676 
	C988.105042,53.631935 982.088135,51.119030 976.724426,47.364285 
	C974.804260,46.020138 973.102844,45.612808 970.669617,47.608776 
	C963.422607,53.553627 954.659363,56.603241 945.682922,58.897865 
	C944.002869,59.327328 942.012634,59.030167 940.280945,58.601746 
	C939.097290,58.308933 938.915710,56.898678 938.997009,55.653214 
	C939.117554,53.806465 940.210022,53.308071 941.886108,52.920147 
	C949.011719,51.270908 955.732910,48.495075 962.121521,44.960617 
	C967.178650,42.162815 967.159973,41.754086 963.211670,37.699387 
	C959.437622,33.823734 955.186279,30.375444 952.685486,25.364956 
	C951.880676,23.752474 950.886108,23.439625 949.664124,25.605806 
	C947.126221,30.104538 942.973328,33.294167 939.505737,37.045204 
	C937.507019,39.207355 935.001404,40.081894 933.027283,38.264404 
	C930.725464,36.145229 931.633850,33.434059 934.044739,31.480516 
	C942.536194,24.600140 947.986389,15.916910 950.102173,5.113270 
	C950.559814,2.776453 952.606445,1.316699 954.992859,2.146199 
	C956.946960,2.825464 958.833557,4.153211 957.533508,7.030026 
	C956.876282,8.484449 956.799377,10.201126 956.417542,12.000001 
	C970.266296,12.000001 984.074097,11.999637 997.881897,12.000656 
	C999.047241,12.000742 1000.244751,11.840010 1001.370728,12.053067 
	C1003.292419,12.416647 1005.102234,12.846800 1005.061401,15.604879 
	C1005.019287,18.450336 1002.888489,19.191374 1001.192505,18.875340 
	C994.011719,17.537247 991.297485,21.499201 988.685547,27.325205 
	C986.533325,32.125999 983.351990,36.675747 979.005310,40.460979 
	C987.467896,44.652943 995.460754,49.102879 1004.153748,52.106659 
	C1005.367371,52.526016 1007.116882,52.869663 1007.650879,54.880394 
	C1008.000000,55.444447 1008.000000,55.888889 1008.000000,56.666668 
z"/>
<path fill="#008FD7" opacity="1.000000" stroke="none" 
	d="
M1.000000,56.416664 
	C1.609334,55.489101 2.542900,55.096596 2.779190,54.449482 
	C6.130177,45.272400 11.953481,41.271400 21.729225,40.945164 
	C29.166838,40.696960 36.574589,40.003986 42.971684,44.990372 
	C46.652050,47.859127 50.530323,50.536579 51.778870,55.466732 
	C52.821453,59.583576 50.708485,64.788849 46.790176,66.561455 
	C44.081367,67.786903 41.948326,69.685570 39.934673,71.647438 
	C31.192791,80.164536 17.011349,81.236275 6.500658,74.893654 
	C4.082985,73.434715 4.198455,70.246307 1.368844,69.008148 
	C1.000000,68.555557 1.000000,68.111107 1.000000,67.333328 
	C2.040581,65.254349 1.341990,63.368862 1.219205,61.273647 
	C1.000000,59.611111 1.000000,58.222221 1.000000,56.416664 
z"/>
<path fill="#90C42F" opacity="1.000000" stroke="none" 
	d="
M62.555836,1.000000 
	C68.423363,3.276942 74.595154,3.905737 78.753365,8.903831 
	C82.352844,13.230346 86.400009,17.120691 86.057030,23.472471 
	C85.849045,27.324453 84.868683,30.500944 81.190430,32.281845 
	C76.151154,34.721714 74.392738,41.087925 68.688675,42.696972 
	C67.333717,43.079189 66.254517,44.605915 64.494514,43.677807 
	C64.704544,40.458443 69.288506,38.922531 67.942360,35.110321 
	C67.186340,32.969315 65.376335,31.601683 63.687439,30.387022 
	C60.684551,28.227339 57.399246,28.368345 54.677479,30.945843 
	C51.904572,33.571766 52.488304,38.722744 55.834766,44.056526 
	C51.655113,45.367447 46.452370,43.530365 42.079376,38.486603 
	C35.214966,30.569260 36.451118,21.019030 38.675568,12.146549 
	C40.535545,4.727800 47.465603,2.377288 54.829876,1.354155 
	C57.370556,1.000000 59.741116,1.000000 62.555836,1.000000 
z"/>
<path fill="#474443" opacity="1.000000" stroke="none" 
	d="
M460.375000,116.000000 
	C458.469666,114.181305 457.918884,112.175606 457.937805,109.718422 
	C458.059509,93.899849 458.000000,78.079887 458.000000,62.260376 
	C458.000000,60.689442 458.000000,59.118507 458.000000,57.547569 
	C457.716156,57.458561 457.432312,57.369553 457.148438,57.280544 
	C455.981415,59.123775 454.776611,60.944382 453.656158,62.815495 
	C451.922272,65.710953 449.672028,67.134689 446.478943,65.117340 
	C443.236023,63.068520 445.078125,60.247375 446.348541,58.435905 
	C452.290466,49.963364 456.273956,40.690338 459.112366,30.791859 
	C461.092194,23.887568 462.380127,16.912167 463.055939,9.776602 
	C463.275543,7.457995 462.618805,4.317481 466.503235,3.987101 
	C469.538239,3.728969 471.194153,4.578510 471.048279,8.077480 
	C470.734039,15.616914 469.018646,22.907743 467.306213,30.181139 
	C466.588928,33.227665 465.956116,36.176491 465.964813,39.331448 
	C466.029633,62.810753 465.999054,86.290314 466.001465,109.769798 
	C466.001709,112.056541 466.533813,114.596115 463.140076,115.633774 
	C462.250000,116.000000 461.500000,116.000000 460.375000,116.000000 
z"/>
<path fill="#FFFFFF" opacity="1.000000" stroke="none" 
	d="
M1.000000,61.428463 
	C2.941315,62.683041 1.818895,64.752373 1.358894,66.846466 
	C1.000000,65.285645 1.000000,63.571285 1.000000,61.428463 
z"/>
<path fill="#474443" opacity="1.000000" stroke="none" 
	d="
M655.000000,90.993027 
	C654.999939,83.829620 654.858398,77.160522 655.065369,70.502266 
	C655.155457,67.606453 654.179077,66.901077 651.413391,66.940285 
	C640.918640,67.089043 630.420410,67.009537 619.923523,66.992485 
	C617.649109,66.988792 615.073853,67.555199 614.969055,63.857052 
	C614.864807,60.179409 617.326111,60.025887 619.875061,60.016357 
	C630.205200,59.977737 640.537476,59.890465 650.864685,60.066639 
	C653.969299,60.119602 655.192444,59.498077 655.094482,56.049389 
	C654.894348,49.006447 655.115356,49.000095 647.971741,49.000015 
	C636.475159,48.999893 624.978516,48.993584 613.481934,49.005276 
	C611.256348,49.007538 608.944885,49.216850 609.008118,45.919483 
	C609.072144,42.581654 611.498840,43.003983 613.642883,43.002972 
	C626.139221,42.997066 638.640686,42.796116 651.128967,43.113369 
	C655.351196,43.220634 655.025085,41.123604 655.064026,38.290783 
	C655.103027,35.449860 654.953613,33.789719 651.208557,33.897446 
	C640.886841,34.194344 630.550903,33.995045 620.220642,34.003689 
	C618.069092,34.005486 615.686340,34.000275 615.096191,31.471140 
	C614.400757,28.491531 615.600830,26.889303 619.078918,26.942427 
	C629.573364,27.102715 640.074036,26.879169 650.567383,27.071844 
	C653.819702,27.131559 655.686951,26.660496 655.023010,22.869474 
	C654.507629,19.926510 656.580994,19.145424 658.846313,19.056734 
	C661.382324,18.957445 663.183716,20.493601 662.902405,22.969862 
	C662.450562,26.948441 664.433411,27.120567 667.518738,27.058764 
	C676.012817,26.888605 684.512695,26.968845 693.010010,27.009348 
	C700.539185,27.045238 703.410706,29.581802 702.857361,37.061234 
	C702.463440,42.384895 704.367798,43.702980 709.152588,43.057552 
	C711.409912,42.753063 714.134766,42.514919 713.983276,46.207775 
	C713.845825,49.559330 711.262878,49.255306 709.238831,48.935215 
	C703.924927,48.094860 702.653259,50.257591 702.875671,55.352112 
	C703.302002,65.117531 701.090454,66.999008 691.092651,66.999847 
	C682.267761,67.000587 673.442810,67.000000 664.310913,67.000000 
	C667.202637,74.815247 672.700500,80.372986 678.311157,85.883888 
	C679.624939,87.174301 680.042236,86.121315 681.012451,85.564613 
	C687.293457,81.960419 692.715271,77.267593 698.042542,72.442192 
	C698.659058,71.883797 699.196350,71.235153 699.830322,70.699280 
	C701.770752,69.059105 703.800537,68.695175 705.886108,70.444748 
	C708.375000,72.532692 706.562927,74.679535 705.327576,75.991524 
	C701.398010,80.164627 696.903809,83.771057 692.128235,86.958977 
	C685.513794,91.374352 685.524292,91.235909 691.934875,95.495384 
	C697.923096,99.474243 704.631470,102.033058 710.908386,105.435005 
	C712.467651,106.280098 714.726074,106.866631 713.854736,109.233742 
	C713.143555,111.166199 711.467224,112.305038 709.110168,112.031349 
	C707.808411,111.880196 706.635742,111.720314 705.362854,111.147690 
	C691.059753,104.713318 677.880798,96.693710 667.345398,84.837532 
	C666.079651,83.413071 664.910156,81.903000 663.000000,79.589615 
	C663.000000,87.031082 663.000000,93.573044 663.000000,100.115005 
	C663.000000,113.286835 658.990479,116.812004 645.739990,114.932854 
	C642.407837,114.460289 639.164429,113.323814 635.900635,112.419014 
	C633.395691,111.724602 632.192688,109.979698 633.260376,107.561531 
	C634.203125,105.426460 636.096191,104.364510 638.586304,105.236702 
	C642.259338,106.523285 645.864075,107.993927 649.872498,108.028198 
	C653.378479,108.058174 655.102600,106.588722 655.019592,102.987907 
	C654.931274,99.157738 654.999939,95.323952 655.000000,90.993027 
z"/>
<path fill="#474443" opacity="1.000000" stroke="none" 
	d="
M541.125305,70.000000 
	C534.037048,68.931992 536.499939,73.878166 535.976196,76.934181 
	C535.307861,80.833549 537.382874,81.151718 540.519897,81.060959 
	C547.343628,80.863533 554.177979,81.062973 561.006165,80.968452 
	C563.613342,80.932358 565.062927,81.606224 565.050964,84.573509 
	C565.038452,87.654701 563.345276,88.051971 560.859741,88.026100 
	C553.697876,87.951561 546.532837,88.096146 539.373230,87.948509 
	C536.863892,87.896767 535.737000,88.449722 535.945557,91.215569 
	C536.182800,94.362488 535.957397,97.541885 536.011292,100.705833 
	C536.050171,102.990250 535.054016,104.241684 532.740234,103.957207 
	C530.769592,103.714928 528.748840,103.275993 528.997925,100.505371 
	C529.027649,100.174950 529.007629,99.839279 528.999207,99.506325 
	C528.907715,95.867523 530.228394,90.916557 528.371033,88.914352 
	C525.919312,86.271378 520.858521,88.284996 516.930481,88.027802 
	C514.608398,87.875763 512.262756,88.100624 509.937714,87.973022 
	C507.371857,87.832214 503.886444,89.206779 503.967041,84.370110 
	C504.041718,79.887192 507.275574,81.085098 509.695801,81.033577 
	C514.857239,80.923729 520.031921,80.813576 525.182922,81.070198 
	C528.243164,81.222656 529.494507,80.372231 529.036438,77.227890 
	C528.822510,75.759842 528.873901,74.221886 529.027893,72.738762 
	C529.263489,70.468910 528.259094,69.908226 526.153259,69.961960 
	C521.325745,70.085121 516.492798,69.971268 511.662506,70.012032 
	C509.214081,70.032700 506.980316,70.167221 506.943634,66.596642 
	C506.908356,63.161949 508.864777,62.928856 511.470795,62.975391 
	C516.299866,63.061619 521.140808,62.812904 525.959473,63.052822 
	C530.566650,63.282211 528.870605,59.984615 528.911194,57.956150 
	C528.952576,55.882919 530.427979,52.685177 525.874573,52.937801 
	C520.892700,53.214203 515.883240,53.039867 510.886627,52.982986 
	C508.347870,52.954090 505.868683,52.848812 505.967712,49.156467 
	C506.066803,45.462761 508.627228,46.016903 510.908234,46.006638 
	C515.738770,45.984901 520.575500,45.854626 525.397705,46.056087 
	C528.144348,46.170834 529.411865,45.439041 529.033081,42.514999 
	C528.842102,41.040550 528.867310,39.506596 529.029053,38.025112 
	C529.294434,35.593494 528.311462,34.903687 525.939636,34.951820 
	C519.112976,35.090355 512.281616,34.991684 505.452148,35.004681 
	C503.227997,35.008911 500.816010,35.201916 501.036621,31.906939 
	C501.225464,29.086870 502.983551,27.965734 505.727905,27.985268 
	C512.390442,28.032688 519.063904,27.773415 525.713196,28.074211 
	C530.644714,28.297302 528.755615,24.881285 528.941162,22.698818 
	C529.137268,20.392721 529.909851,17.630844 525.618408,17.918930 
	C520.477844,18.264025 515.295349,17.938974 510.133057,18.026028 
	C507.640747,18.068056 505.951813,17.643925 505.951996,14.566694 
	C505.952179,11.491647 507.998383,11.095645 510.163849,11.042027 
	C515.157959,10.918369 520.165527,10.827210 525.151306,11.065329 
	C528.125427,11.207372 529.497375,10.511511 529.040588,7.282925 
	C528.711365,4.955419 529.082642,3.031271 532.276245,2.945059 
	C535.620911,2.854770 536.375977,4.653381 535.963989,7.338547 
	C535.452515,10.672879 537.037231,11.197991 539.903687,11.055811 
	C544.223999,10.841521 548.564941,10.911629 552.893188,11.020518 
	C559.769653,11.193518 563.039490,14.475463 562.966736,21.230970 
	C562.925659,25.039522 562.099304,28.967592 568.273682,28.255720 
	C569.935059,28.064178 571.298340,29.661663 571.059509,32.009068 
	C570.811890,34.443546 569.542603,35.316765 567.437683,34.959560 
	C563.485779,34.288933 562.429626,36.082466 562.977112,39.628258 
	C563.127808,40.604427 563.004333,41.623619 562.999268,42.623032 
	C562.964355,49.453575 559.847778,52.776379 553.038269,52.973904 
	C548.378113,53.109077 543.700989,53.190311 539.049683,52.947174 
	C534.448120,52.706642 536.120605,56.001453 536.088745,58.034359 
	C536.056396,60.102398 534.557373,63.272327 539.115906,63.065842 
	C545.100281,62.794765 551.106506,62.962467 557.102600,63.018154 
	C559.632690,63.041645 562.128113,63.127514 562.033264,66.832756 
	C561.938904,70.524216 559.388794,69.985428 557.102600,69.993935 
	C551.938843,70.013153 546.774963,69.999992 541.125305,70.000000 
z"/>
<path fill="#474443" opacity="1.000000" stroke="none" 
	d="
M413.986450,65.531616 
	C419.186066,69.759514 417.378296,75.233353 416.448425,79.682343 
	C415.623749,83.627991 411.029236,84.036453 407.107086,84.025581 
	C387.117950,83.970154 367.128540,83.999344 347.139252,84.001450 
	C345.806824,84.001595 344.440277,83.836815 343.149323,84.073936 
	C340.718964,84.520340 339.856537,85.991386 339.907440,88.596382 
	C339.968933,91.746063 342.001099,90.978592 343.647217,90.980644 
	C366.468292,91.009079 389.289398,90.996262 412.110504,91.002037 
	C419.898010,91.004005 421.739838,93.534286 420.044525,101.355629 
	C417.822113,111.608429 416.547638,114.503113 403.056641,115.016449 
	C388.612427,115.566055 374.231781,113.957283 359.801636,113.749084 
	C351.331665,113.626884 342.746521,112.937355 334.253754,111.992149 
	C332.107452,111.753281 330.019897,111.614365 329.957458,108.521370 
	C329.876495,104.508514 332.846375,106.017212 334.507050,106.076439 
	C354.848511,106.801773 375.145813,108.583893 395.541840,108.140556 
	C399.684113,108.050522 403.735077,109.600235 408.083832,108.189331 
	C410.735046,107.329185 411.905518,105.609451 412.700958,103.572327 
	C414.424591,99.158157 412.814758,97.011833 408.065338,97.008179 
	C384.744507,96.990219 361.423615,96.988045 338.102844,97.018166 
	C335.726166,97.021233 333.371216,97.216843 332.625122,94.193649 
	C331.395203,89.209991 333.375763,84.506187 334.811676,80.076103 
	C335.718048,77.279816 339.947449,77.989159 342.912628,77.991554 
	C362.901917,78.007744 382.891205,78.000626 402.880493,77.998596 
	C404.212952,77.998459 405.583496,78.173615 406.869232,77.922997 
	C408.967346,77.514030 410.334351,76.478302 410.050507,73.885384 
	C409.779236,71.407028 408.402832,70.979019 406.324951,70.984772 
	C394.331482,71.017952 382.337830,71.000282 370.344269,71.000038 
	C359.683319,70.999817 349.022003,70.954109 338.361633,71.031517 
	C335.655304,71.051170 333.866974,70.629395 333.949951,67.284767 
	C334.040588,63.631351 336.676514,65.062408 338.246429,65.061455 
	C363.392365,65.046112 388.538422,65.143524 413.986450,65.531616 
z"/>
<path fill="#474443" opacity="1.000000" stroke="none" 
	d="
M491.971008,72.710571 
	C492.462372,67.543510 492.709106,62.781036 493.477112,58.104172 
	C493.987396,54.996700 492.970245,53.912128 490.039825,53.989204 
	C487.875916,54.046120 485.701294,53.881866 483.545685,54.027340 
	C480.200043,54.253128 476.937225,53.647598 475.408020,50.592979 
	C474.079926,47.940060 476.028900,45.394611 477.435638,42.986992 
	C481.917603,35.316170 486.965515,27.980026 490.198608,19.581858 
	C491.573395,16.010839 491.285431,14.762920 487.308258,14.965219 
	C483.985474,15.134234 480.645813,14.939076 477.316193,15.015735 
	C474.615173,15.077920 474.018402,13.629707 473.950928,11.241737 
	C473.871338,8.426383 475.749847,9.022889 477.292725,9.012962 
	C482.456207,8.979738 487.621124,8.933366 492.783417,9.018671 
	C498.145630,9.107282 499.860077,11.682902 498.477753,17.080154 
	C496.033203,26.624632 491.058746,34.965660 486.154663,43.347496 
	C485.515503,44.439960 484.893158,45.542301 484.056427,47.000069 
	C486.192963,47.000069 487.826050,46.971653 489.457855,47.004734 
	C499.148315,47.201187 502.759216,51.787834 500.975159,61.152298 
	C499.067719,71.164246 498.638794,81.505074 494.440613,90.988022 
	C493.593658,92.901085 494.901154,93.491089 495.764801,94.189293 
	C503.830597,100.710014 513.330017,103.594505 523.429138,105.018623 
	C537.481262,107.000175 551.600769,105.509209 565.678284,106.024406 
	C567.791626,106.101746 570.841309,105.018646 570.934814,108.727264 
	C571.021423,112.161949 568.725464,113.052055 565.641724,113.025414 
	C551.550781,112.903671 537.404541,113.708046 523.400146,111.894623 
	C511.997986,110.418167 500.521698,108.514557 491.623474,100.077057 
	C489.579926,98.139282 488.982758,100.500717 488.384064,101.299263 
	C485.832947,104.701958 483.399414,108.193153 480.305756,111.135635 
	C479.379028,112.017075 478.267853,112.770744 477.120544,113.339523 
	C475.104828,114.338829 472.804962,114.863312 471.387512,112.647438 
	C470.122101,110.669258 471.322418,108.963623 472.964661,107.512169 
	C474.707550,105.971756 476.293457,104.250298 477.912048,102.573303 
	C484.414001,95.836746 484.621490,94.972633 480.619812,87.192772 
	C477.535156,81.195702 476.509979,74.622795 475.064819,68.174286 
	C474.612488,66.156113 474.934235,64.094933 477.872711,63.989643 
	C480.764099,63.886036 482.744568,64.856926 482.988251,68.009468 
	C483.443176,73.894463 485.294891,79.331528 488.012207,84.949020 
	C490.647797,81.110703 490.459045,76.848579 491.971008,72.710571 
z"/>
<path fill="#474443" opacity="1.000000" stroke="none" 
	d="
M233.999985,63.000000 
	C241.162155,63.000034 247.825851,62.912022 254.486084,63.025829 
	C260.661285,63.131351 264.441101,66.747154 264.141907,72.651749 
	C263.628448,82.785568 263.793671,92.969803 264.067932,103.122223 
	C264.272552,110.697800 261.208374,112.651550 254.693237,112.789787 
	C230.220718,113.309029 205.729980,113.090172 181.247498,112.929993 
	C175.469772,112.892197 172.115891,109.081367 172.036438,103.095306 
	C171.903839,93.103790 171.915909,83.108269 172.030045,73.116295 
	C172.105255,66.531868 175.764511,63.043018 182.534378,63.019550 
	C199.522736,62.960663 216.511444,63.000034 233.999985,63.000000 
z"/>
<path fill="#474443" opacity="1.000000" stroke="none" 
	d="
M186.187256,44.315769 
	C185.629456,45.432011 182.624466,46.851925 186.195068,46.946110 
	C198.089645,47.259857 209.922760,46.448662 221.773636,45.245205 
	C228.781647,44.533539 235.826721,44.175510 242.792542,43.006859 
	C247.370346,42.238842 251.958084,41.529865 256.788727,40.754761 
	C252.378815,34.691978 246.178848,30.953226 241.323395,25.829603 
	C239.571762,23.981226 236.907959,22.023026 239.423370,19.402874 
	C241.720612,17.009960 244.320633,18.280863 246.748581,20.187658 
	C257.796661,28.864347 267.767609,38.572872 276.345398,49.735149 
	C278.098450,52.016369 279.030121,54.148830 277.042664,56.272079 
	C274.581909,58.900955 272.438690,57.018787 270.548584,55.047432 
	C269.741516,54.205635 268.573242,53.541424 268.129822,52.546589 
	C264.837250,45.159344 259.215912,46.899914 253.282700,48.240257 
	C244.370239,50.253643 235.287140,51.223686 226.170715,52.103828 
	C209.336807,53.729061 192.489059,53.927406 175.609451,54.161251 
	C170.096085,54.237633 164.647507,55.783607 159.075851,54.133636 
	C157.258026,53.595322 156.000305,53.172504 155.990982,51.040947 
	C155.981812,48.947117 157.011307,48.059803 159.014862,47.917141 
	C159.612778,47.874569 160.211807,47.106941 160.756546,47.166153 
	C178.371719,49.081059 184.642639,34.341942 194.180145,24.429333 
	C199.871017,18.514654 204.057785,11.534985 208.162872,4.492340 
	C209.941132,1.441542 212.632965,1.301496 215.338898,3.103283 
	C218.270203,5.055144 216.759369,6.931920 215.373627,9.343271 
	C207.742264,22.622587 197.369797,33.553799 186.187256,44.315769 
z"/>
<path fill="#474443" opacity="1.000000" stroke="none" 
	d="
M605.000000,70.054649 
	C604.857056,83.672958 602.603333,96.499664 599.380310,109.190636 
	C598.626465,112.159164 597.333557,114.937912 593.831604,113.804192 
	C590.974854,112.879349 590.995056,110.529808 591.661865,107.342926 
	C594.230896,95.064346 596.472168,82.773087 597.278137,70.114830 
	C598.326172,53.654190 597.505066,37.242626 597.971924,20.818800 
	C598.156250,14.333891 601.279724,11.028399 607.877563,11.011167 
	C621.876587,10.974603 635.876587,10.918143 649.874146,11.063871 
	C652.947083,11.095864 654.515076,10.552109 654.049255,7.064972 
	C653.667786,4.209579 654.885193,2.108173 658.065063,2.041710 
	C661.638611,1.967020 662.465393,4.273108 661.978699,7.282432 
	C661.456360,10.512430 662.901611,11.099229 665.858215,11.066955 
	C679.689026,10.915977 693.522583,10.957824 707.354553,11.042887 
	C709.573181,11.056531 712.864319,9.810852 712.952942,13.919467 
	C713.041931,18.044189 709.780762,16.964384 707.517395,16.967955 
	C677.186096,17.015812 646.854736,16.999952 616.523376,17.000168 
	C615.356812,17.000175 614.180420,16.904768 613.025208,17.020082 
	C606.323547,17.689070 606.000793,18.064823 606.000183,24.794680 
	C605.999329,33.960751 605.751892,43.135971 606.089600,52.289589 
	C606.304932,58.126637 604.860535,63.785419 605.000000,70.054649 
z"/>
<path fill="#008FD7" opacity="1.000000" stroke="none" 
	d="
M44.829269,108.311974 
	C38.654949,102.243889 37.850773,94.850159 39.383179,87.474525 
	C42.304649,73.413170 58.651894,67.133316 71.328438,74.923393 
	C77.960312,78.998863 84.208519,83.540596 84.019463,92.640648 
	C83.943993,96.273636 83.153236,99.525208 79.458626,100.995171 
	C75.522636,102.561172 74.564232,107.025276 71.056435,109.028427 
	C62.262886,114.050049 53.670933,113.208839 44.829269,108.311974 
z"/>
<path fill="#008FD7" opacity="1.000000" stroke="none" 
	d="
M103.411987,39.186546 
	C113.746452,42.794003 114.429489,45.281551 114.673615,57.444706 
	C114.845795,66.023186 111.468719,71.626038 104.209717,74.040039 
	C94.473457,77.277870 84.350586,78.753220 76.408287,69.224426 
	C75.220734,67.799660 73.151070,67.128693 71.539246,66.035622 
	C66.109810,62.353584 65.692123,55.714550 69.838547,50.566345 
	C77.329414,41.265686 86.907623,37.781860 98.523216,38.979271 
	C100.007385,39.132267 101.517769,39.030849 103.411987,39.186546 
z"/>
<path fill="#474443" opacity="1.000000" stroke="none" 
	d="
M345.581665,58.707268 
	C346.415436,61.756428 345.386627,63.000137 342.484314,63.043110 
	C339.447174,63.088074 338.919678,61.460659 338.972504,58.928471 
	C339.069733,54.269180 338.759430,49.589828 339.079102,44.950542 
	C339.317291,41.493889 337.976868,40.636532 334.862762,40.957695 
	C332.721344,41.178543 330.538757,41.000660 328.374573,40.999538 
	C326.373138,40.998501 324.155792,41.286480 324.021667,38.320320 
	C323.878418,35.153778 326.315033,35.133949 328.401886,35.049026 
	C330.267639,34.973091 331.718842,34.654488 333.297791,33.337566 
	C336.247528,30.877329 337.284058,28.651423 334.288574,25.136372 
	C337.785278,23.464281 338.162933,26.881653 340.144958,28.600895 
	C341.031708,27.104761 339.708557,25.559927 340.794922,24.127604 
	C344.151642,21.439140 345.710144,17.858484 347.713074,14.625363 
	C349.924469,11.055843 353.048645,10.751564 354.882416,14.350069 
	C355.500458,15.562844 355.562134,15.470935 356.675385,15.160710 
	C365.931366,12.581367 375.517914,13.565644 384.687134,14.582918 
	C388.047638,14.955748 391.962952,13.114578 395.326050,15.377580 
	C395.492920,15.489850 397.844330,12.609792 398.969360,10.978781 
	C400.340363,8.991253 401.422974,6.806716 402.755463,4.790084 
	C403.881653,3.085757 405.769257,2.199007 407.428619,3.341201 
	C408.796143,4.282525 409.181793,5.986460 408.087616,7.975679 
	C405.969360,11.826697 404.044098,15.753435 400.428558,18.909863 
	C398.257751,20.083933 396.633209,21.312777 396.196716,23.896151 
	C391.606506,19.536602 385.995850,19.854147 380.355499,19.966707 
	C373.383118,20.105846 366.405762,19.976927 359.430786,20.013580 
	C357.269226,20.024940 355.106384,20.202675 354.682098,16.476200 
	C352.254852,20.396513 350.320831,23.520231 348.371124,26.669300 
	C353.511505,27.244967 359.798798,35.874058 358.990204,41.175278 
	C358.916931,41.655682 358.911926,42.472355 358.674530,42.554768 
	C350.206696,45.494335 357.464386,51.001484 356.722748,55.184280 
	C356.379211,57.121864 357.988129,59.656841 355.338745,60.769901 
	C352.960083,61.769238 350.619812,61.039982 350.158966,58.169449 
	C349.538696,54.306076 349.378052,50.369659 348.995117,46.467049 
	C348.853455,45.023308 349.238525,43.310890 350.550690,43.223396 
	C352.908081,43.066208 352.322815,42.121601 352.064789,40.593857 
	C351.492889,37.208149 349.939178,40.111809 348.888092,39.985722 
	C348.234924,39.907375 347.562012,39.993507 346.502686,40.027283 
	C344.675842,40.820065 343.322205,40.287365 341.695618,39.603996 
	C341.188904,39.191269 340.960083,38.967793 340.738983,38.736454 
	C340.923706,38.969528 341.146637,39.166317 341.585327,39.639282 
	C344.055145,43.004303 344.319153,46.563259 344.394928,50.238411 
	C344.451324,52.973354 343.724182,55.842369 345.581665,58.707268 
z"/>
<path fill="#474443" opacity="1.000000" stroke="none" 
	d="
M396.093201,24.431831 
	C395.930603,21.667618 394.124176,18.052250 399.710693,19.029694 
	C400.497772,20.609892 402.051483,21.213181 402.886169,22.401848 
	C404.693390,24.975630 406.243469,23.725660 407.477020,21.959314 
	C409.228943,19.450644 410.684479,16.736479 412.400940,14.201043 
	C413.717133,12.256847 415.642059,11.000972 417.846008,12.508453 
	C419.894653,13.909726 419.100037,15.894416 418.073608,17.755291 
	C416.420776,20.751726 414.276398,23.370911 411.642639,25.977694 
	C417.452454,25.916887 425.296844,34.544510 424.992249,40.156952 
	C424.789978,43.884197 421.964539,42.816837 419.438568,42.987999 
	C418.410278,41.491531 418.796844,38.523510 416.005981,39.649456 
	C413.427155,40.689838 407.942749,37.531796 408.882782,44.473656 
	C409.502258,49.048347 408.906677,53.777519 409.034973,58.432568 
	C409.111694,61.216091 408.511688,63.703979 405.442200,63.875290 
	C402.076294,64.063148 401.891632,61.440556 401.962341,58.748047 
	C402.093384,53.760159 401.902069,48.763599 402.043396,43.776276 
	C402.105896,41.570400 401.359161,40.845097 399.194458,40.963394 
	C396.374481,41.117496 393.536530,41.079899 390.712463,40.968697 
	C389.136536,40.906643 386.974670,41.912151 386.922180,38.690331 
	C386.876984,35.914845 388.572144,35.319492 390.533020,35.064774 
	C393.074371,34.734650 395.413025,35.119213 397.790436,32.948307 
	C402.278259,28.850298 398.428802,27.128227 396.093201,24.431831 
z"/>
<path fill="#474443" opacity="1.000000" stroke="none" 
	d="
M317.747375,95.635124 
	C314.685516,101.026978 311.792908,106.071167 308.987335,111.163300 
	C307.455078,113.944336 304.950653,115.040421 302.415985,113.572075 
	C299.755127,112.030624 300.688141,109.184082 302.021027,107.049347 
	C309.062927,95.771278 314.929718,83.947968 319.008759,71.273361 
	C320.057129,68.015785 322.630859,67.255714 325.267273,68.231018 
	C327.904907,69.206772 326.780365,71.396774 326.199402,73.643417 
	C324.247040,81.193726 320.557465,88.036415 317.747375,95.635124 
z"/>
<path fill="#474443" opacity="1.000000" stroke="none" 
	d="
M633.225037,90.269180 
	C637.276001,87.218781 641.215332,84.608742 644.787109,81.567139 
	C646.624451,80.002487 648.086792,79.540535 649.936401,81.020897 
	C651.865906,82.565201 651.227722,84.472229 650.289795,86.187164 
	C648.011780,90.352692 643.728149,92.403709 640.069458,94.857826 
	C631.612061,100.530678 622.572510,105.263802 613.054871,109.000664 
	C611.852478,109.472755 610.769775,110.162666 609.344971,110.035614 
	C607.554688,109.875954 605.537903,110.340935 605.041260,107.808548 
	C604.576660,105.439865 605.903137,103.865013 607.821533,103.102249 
	C616.565796,99.625572 624.835876,95.229622 633.225037,90.269180 
z"/>
<path fill="#474443" opacity="1.000000" stroke="none" 
	d="
M383.631653,43.153584 
	C386.422211,47.801735 386.486115,52.238182 385.186279,57.067173 
	C384.581879,59.312428 383.083282,60.524296 381.680450,60.619865 
	C375.632172,61.031918 369.221558,62.497948 363.600952,59.827908 
	C357.910461,57.124657 362.167114,51.269264 361.063141,46.969311 
	C360.448364,44.574814 361.853149,42.160500 364.143555,42.173233 
	C370.527252,42.208733 376.991333,40.973934 383.631653,43.153584 
z"/>
<path fill="#474443" opacity="1.000000" stroke="none" 
	d="
M316.815491,53.304558 
	C313.365570,49.466076 309.261932,47.012516 305.444275,44.229446 
	C304.544159,43.573250 303.589600,42.958149 302.715393,42.229603 
	C300.977753,40.781410 300.153809,38.948326 301.579529,37.068489 
	C302.993561,35.204010 305.351227,35.477863 306.958313,36.595142 
	C311.894531,40.026878 317.168762,43.001995 321.252075,47.632217 
	C322.916992,49.520164 323.821075,51.650105 322.630157,53.325481 
	C321.513550,54.896259 319.008759,54.907135 316.815491,53.304558 
z"/>
<path fill="#474443" opacity="1.000000" stroke="none" 
	d="
M313.748352,18.251411 
	C310.294067,15.460571 307.059967,12.972950 303.920471,10.371181 
	C302.520172,9.210746 300.814514,7.749235 302.746368,5.880902 
	C304.064148,4.606421 305.596252,3.578551 307.878601,4.911599 
	C313.633453,8.272842 318.377991,12.739944 323.000580,17.439810 
	C324.845734,19.315781 323.857025,21.025093 322.820648,22.241556 
	C321.557098,23.724710 319.465942,23.430624 317.944458,22.319099 
	C316.483612,21.251902 315.308014,19.794233 313.748352,18.251411 
z"/>
<path fill="#474443" opacity="1.000000" stroke="none" 
	d="
M617.761475,80.255295 
	C616.217957,78.990356 615.333740,77.609871 613.722839,76.862839 
	C611.188843,75.687729 611.355042,73.018448 612.533997,71.395714 
	C613.437134,70.152672 615.356201,69.491776 617.682861,70.972534 
	C622.901917,74.294159 627.066406,78.660889 631.424744,82.887070 
	C633.054688,84.467545 633.936340,86.327103 632.285828,88.040184 
	C630.644165,89.744087 628.428528,89.586029 626.515259,87.994743 
	C623.613708,85.581444 621.633789,82.121712 617.761475,80.255295 
z"/>
<path fill="#474443" opacity="1.000000" stroke="none" 
	d="
M333.965454,25.031799 
	C330.997833,24.164537 329.301300,21.573500 326.938965,19.887024 
	C324.966064,18.478580 326.566284,13.617785 328.549683,14.296375 
	C333.827454,16.102077 334.045044,11.397466 335.826508,9.221895 
	C338.092346,6.454779 339.022675,0.500051 343.735626,3.751639 
	C347.517365,6.360778 342.450043,9.880555 341.370728,12.933441 
	C340.605682,15.097260 338.516388,16.792873 336.925446,18.995678 
	C334.057770,20.055431 335.402863,22.722685 334.297241,24.624317 
	C334.099518,24.900784 334.010254,24.988243 333.965454,25.031799 
z"/>
<path fill="#474443" opacity="1.000000" stroke="none" 
	d="
M377.827515,10.000000 
	C372.520233,9.999777 367.688324,10.030175 362.857361,9.977456 
	C361.673218,9.964534 360.025970,10.548460 359.998657,8.324817 
	C359.978058,6.644526 359.749359,4.792425 362.011871,4.494395 
	C368.943176,3.581360 375.906281,3.744600 382.837524,4.429092 
	C384.201385,4.563782 385.434662,5.712766 384.998016,7.641595 
	C384.654053,9.160997 383.868225,9.974217 382.301544,9.984964 
	C380.968811,9.994106 379.635986,9.995293 377.827515,10.000000 
z"/>
<path fill="#474443" opacity="1.000000" stroke="none" 
	d="
M418.991760,42.933548 
	C420.076508,47.944286 423.320740,52.325523 423.116364,57.831558 
	C423.022430,60.363419 422.039001,61.533367 419.951019,61.902424 
	C417.830139,62.277298 417.427490,60.735523 416.866333,58.934952 
	C415.671082,55.100033 415.219604,51.092205 413.315765,47.380169 
	C411.686340,44.203167 413.870697,42.729389 418.734863,43.324566 
	C419.060211,42.987572 419.002808,42.962784 418.991760,42.933548 
z"/>
<path fill="#474443" opacity="1.000000" stroke="none" 
	d="
M334.999695,48.849514 
	C334.326569,52.442005 333.752716,55.607971 332.952332,58.715603 
	C332.188385,61.681774 329.834503,62.628799 327.207611,61.885960 
	C324.184570,61.031078 325.646667,58.458366 326.146973,56.749847 
	C326.962952,53.963322 327.972351,51.271645 328.026550,48.306442 
	C328.076935,45.550655 328.980072,43.851513 332.381897,43.901592 
	C336.332275,43.959747 334.601959,46.649139 334.999695,48.849514 
z"/>
<path fill="#474443" opacity="1.000000" stroke="none" 
	d="
M376.925598,38.000000 
	C372.121613,37.999012 367.801727,37.920097 363.486755,38.031944 
	C361.511993,38.083130 360.961029,37.354527 360.942444,35.440819 
	C360.922455,33.388279 361.781952,32.950714 363.605774,32.973721 
	C369.583435,33.049122 375.562958,33.036793 381.541107,32.984043 
	C383.738068,32.964657 385.011017,33.700176 385.000519,36.100960 
	C384.987488,39.083614 382.745514,37.758068 381.391296,37.958286 
	C380.091125,38.150524 378.740265,37.999939 376.925598,38.000000 
z"/>
<path fill="#474443" opacity="1.000000" stroke="none" 
	d="
M365.190125,28.999958 
	C362.717926,29.051117 360.758423,29.434666 360.923157,26.166706 
	C361.066742,23.319326 362.884979,24.036276 364.375458,24.021677 
	C369.856964,23.967989 375.339355,24.018375 380.821259,23.991213 
	C382.920319,23.980812 384.915253,23.959345 384.999023,26.880608 
	C385.094330,30.204170 382.579987,28.902744 381.115967,28.943846 
	C375.970245,29.088308 370.818024,28.999977 365.190125,28.999958 
z"/>
<path fill="#474443" opacity="1.000000" stroke="none" 
	d="
M394.319702,44.029472 
	C395.878418,44.300861 397.758759,43.184361 397.915497,45.277802 
	C398.295471,50.352924 397.603577,55.337387 395.950134,60.156181 
	C395.468231,61.560680 394.235352,62.472652 392.848999,61.857338 
	C391.825989,61.403263 389.739899,61.334816 390.096619,59.639172 
	C391.196533,54.410236 390.495911,48.724888 394.319702,44.029472 
z"/>
<path fill="#474443" opacity="1.000000" stroke="none" 
	d="
M345.906860,58.537342 
	C342.810181,59.199375 342.967621,57.118046 342.994720,55.084759 
	C343.063873,49.896202 343.367218,44.673206 341.006927,39.398514 
	C342.512268,39.007839 344.051666,38.856270 345.760132,39.900085 
	C346.065063,46.057220 346.022705,52.065681 345.906860,58.537342 
z"/>
<path fill="#474443" opacity="1.000000" stroke="none" 
	d="
M334.458374,24.941032 
	C335.150452,23.117390 330.200287,19.377935 336.405701,19.214676 
	C338.159424,20.628513 339.486115,21.963156 340.925232,23.588879 
	C339.996094,26.010845 344.890839,28.556993 341.077789,30.072443 
	C337.624573,31.444870 338.509827,26.777899 336.614319,25.650475 
	C336.073822,25.329008 335.419373,25.199059 334.458374,24.941032 
z"/>
<path fill="#474443" opacity="1.000000" stroke="none" 
	d="
M804.987793,39.000000 
	C805.650696,39.000000 805.817383,39.000000 805.984009,39.000000 
	C817.388550,39.000000 817.265808,39.001926 817.084045,27.430187 
	C817.037231,24.449965 816.017212,23.902187 813.344238,23.945126 
	C804.347656,24.089647 795.346985,23.956970 786.348755,24.034489 
	C784.452271,24.050829 782.532715,23.848251 781.427734,22.443123 
	C780.773315,21.611036 780.873291,19.843437 781.206543,18.657349 
	C781.702393,16.892487 783.409485,16.985563 784.952637,16.989162 
	C794.451477,17.011320 803.952026,16.898115 813.447998,17.062359 
	C816.263489,17.111057 817.320740,16.314924 817.045166,13.461622 
	C816.822021,11.150200 816.954590,8.798731 817.014160,6.467191 
	C817.083984,3.733632 817.788818,1.837040 821.272644,1.912280 
	C824.593140,1.983994 824.988708,3.635134 825.043274,6.346498 
	C825.257629,17.001261 825.320251,16.999985 835.931396,17.000006 
	C842.097290,17.000017 848.263550,17.040379 854.428894,16.980631 
	C856.954529,16.956156 859.122681,16.986797 859.039062,20.498814 
	C858.957336,23.935053 856.536499,23.944824 854.269531,23.966579 
	C845.771362,24.048130 837.267822,24.151711 828.775146,23.920912 
	C825.637634,23.835646 824.920898,24.767008 824.918091,27.813284 
	C824.907837,39.000114 824.783203,38.999866 835.897888,39.000061 
	C840.397339,39.000141 844.898254,38.932167 849.395630,39.029781 
	C851.718689,39.080200 853.998901,39.287319 854.036865,42.627739 
	C854.077820,46.234077 851.695557,46.262848 849.308167,45.953243 
	C845.808838,45.499424 844.851868,46.739750 844.906311,50.269516 
	C845.068604,60.800354 844.901428,60.797318 855.351318,61.005184 
	C857.272766,61.043404 859.539124,60.477921 859.981445,63.403347 
	C860.469238,66.630188 857.867798,67.064980 855.816833,67.948540 
	C855.392212,68.131470 854.827026,67.972435 854.328430,68.001701 
	C844.999939,68.549255 845.222046,68.557098 844.937622,77.751793 
	C844.651794,86.994263 846.169617,96.297989 844.020996,105.482780 
	C842.653015,111.330460 839.775940,113.690208 833.882690,114.023117 
	C824.609741,114.546951 815.591064,113.035126 806.606689,111.014435 
	C803.979065,110.423454 801.910767,109.183853 802.390015,106.308205 
	C802.949097,102.953354 805.618652,102.389320 808.476013,103.214256 
	C815.537476,105.252922 822.617126,107.093040 830.046387,107.000893 
	C834.966125,106.939873 836.973083,105.041809 836.989990,100.251938 
	C837.023560,90.753242 836.855408,81.250900 837.081116,71.757446 
	C837.156372,68.589058 836.187439,67.892555 833.167664,67.929092 
	C819.671265,68.092369 806.171875,68.009087 792.673523,67.987167 
	C791.188354,67.984756 789.579590,68.131905 788.248962,67.627289 
	C786.473389,66.953949 784.507812,66.093437 784.993591,63.400631 
	C785.454163,60.847286 787.284668,60.994991 789.146545,60.995995 
	C803.478088,61.003723 817.811646,60.870274 832.139893,61.087433 
	C835.920898,61.144741 837.226074,60.338337 837.110168,56.269554 
	C836.818054,46.006329 837.040588,46.000004 826.687988,45.999996 
	C814.689453,45.999989 802.690979,46.007301 790.692444,45.993015 
	C788.581482,45.990505 785.988220,46.494106 786.043823,43.143070 
	C786.095703,40.015644 788.058838,38.933399 790.993652,38.981068 
	C795.491882,39.054123 799.992188,39.000095 804.987793,39.000000 
z"/>
<path fill="#474443" opacity="1.000000" stroke="none" 
	d="
M916.000000,86.999939 
	C916.000000,93.831169 915.852234,100.167015 916.048950,106.492149 
	C916.193970,111.155060 913.191895,113.326172 909.581299,113.834023 
	C903.215515,114.729416 896.825623,113.793350 890.632141,111.886040 
	C888.343811,111.181366 887.669739,109.646645 888.008911,107.404358 
	C888.400146,104.818222 890.303284,104.904465 892.158203,105.015533 
	C896.071655,105.249870 899.567078,107.461494 903.632385,107.276436 
	C906.555359,107.143372 909.063171,107.268600 909.030518,103.220680 
	C908.937683,91.725220 908.994629,80.228577 908.977722,68.732422 
	C908.976868,68.115921 909.088379,67.373489 907.797485,67.075485 
	C904.408569,71.721680 901.897583,77.129211 898.154968,81.758476 
	C895.218445,85.390686 891.776733,88.449402 888.629517,91.826134 
	C886.943420,93.635193 884.531250,93.751411 882.866516,92.179703 
	C880.891113,90.314743 882.180603,88.484604 883.775330,86.667397 
	C891.192444,78.215530 898.591064,69.724449 903.258911,59.308365 
	C904.237305,57.125187 905.143921,54.909798 906.386475,51.999973 
	C899.872864,51.999973 893.961853,51.993851 888.050842,52.002853 
	C885.536987,52.006680 882.805359,52.460690 882.981567,48.482792 
	C883.145020,44.792435 885.875916,45.052746 888.247375,45.031273 
	C896.909363,44.952824 905.572571,45.000240 915.927368,45.000240 
	C910.940369,41.335793 907.116943,38.372463 903.132202,35.644897 
	C899.657837,33.266724 895.920776,31.270420 892.465149,28.867661 
	C891.077515,27.902840 889.176331,26.612032 890.238159,24.420177 
	C891.250122,22.331453 893.459778,22.816025 895.157349,23.068306 
	C898.803894,23.610256 901.619995,26.087793 904.462219,28.121622 
	C907.797241,30.508106 910.482483,30.283047 913.018982,27.447895 
	C917.028687,22.966255 922.533569,19.691582 924.755493,12.999763 
	C913.069580,12.999763 901.682861,12.995322 890.296204,13.003451 
	C887.973694,13.005110 885.615234,12.965837 885.042175,10.053912 
	C884.694031,8.284768 884.904236,6.930089 887.471802,6.950569 
	C901.299683,7.060870 915.131104,6.863510 928.956604,7.077356 
	C933.898987,7.153803 935.463806,11.408870 932.527893,15.954092 
	C927.802734,23.269402 922.702820,30.264595 915.119080,34.951653 
	C917.760620,38.279541 923.055664,39.395596 921.592346,44.915367 
	C925.347168,45.251633 929.090149,44.893055 932.870056,45.877502 
	C937.789001,47.158627 939.055969,48.803078 937.611328,53.902012 
	C935.433899,61.587780 931.979309,68.709671 927.776001,75.437996 
	C926.367920,77.691994 924.389282,80.554810 920.977112,78.386993 
	C917.457153,76.150696 919.440125,73.678360 921.141052,71.361870 
	C924.819946,66.351463 927.081665,60.615982 929.549500,54.981449 
	C930.484863,52.845783 929.985962,51.832073 927.571960,52.000553 
	C927.406189,52.012119 927.238464,52.008312 927.072266,51.999390 
	C916.000000,51.404915 916.000000,51.404808 916.000000,62.507751 
	C916.000000,70.505150 916.000000,78.502556 916.000000,86.999939 
z"/>
<path fill="#474443" opacity="1.000000" stroke="none" 
	d="
M954.773926,90.720779 
	C957.796570,86.620140 959.562561,82.370293 961.230591,77.932304 
	C962.785706,73.794563 961.078003,73.905693 958.121643,73.973122 
	C953.627991,74.075623 949.130127,73.974075 944.634399,74.008553 
	C941.942871,74.029190 939.458618,73.048470 939.488098,70.276405 
	C939.515991,67.650002 941.795166,66.809189 944.541809,66.935211 
	C949.526855,67.163940 954.565918,66.628716 959.514709,67.109596 
	C964.017151,67.547096 964.664062,64.986145 964.984497,61.708923 
	C965.161133,59.902412 964.992249,58.036797 965.367310,56.280724 
	C965.992676,53.352226 968.497925,53.697380 970.496582,54.105301 
	C972.432312,54.500385 973.198181,56.054585 972.421326,58.067604 
	C972.363220,58.218330 972.233582,58.349316 972.204468,58.502270 
	C970.725647,66.267975 971.315186,66.999847 979.037964,66.999992 
	C984.033508,67.000084 989.030457,66.926552 994.024170,67.022057 
	C998.513977,67.107925 1001.997375,69.892830 1001.911499,74.056053 
	C1001.689148,84.841827 1001.179016,95.610649 998.453979,106.172600 
	C997.231201,110.911949 993.674194,113.083107 989.819885,113.798737 
	C982.619446,115.135612 975.495544,113.472305 968.672913,110.900116 
	C966.708435,110.159485 966.927063,108.284889 967.012817,106.612366 
	C967.107422,104.767723 968.189026,104.145691 969.945129,103.962761 
	C972.346436,103.712601 974.483704,104.570488 976.611206,105.305016 
	C990.131836,109.973228 991.181946,104.695084 992.773621,95.507011 
	C993.684509,90.248962 994.458801,84.787491 994.090393,79.277771 
	C993.838928,75.517326 992.423767,73.749786 988.649536,73.995758 
	C988.152100,74.028183 987.650757,73.999565 987.151184,74.000084 
	C981.989197,74.005447 976.284912,72.635330 971.815430,74.397400 
	C967.203857,76.215561 968.307678,83.016304 965.979187,87.254814 
	C958.637634,100.618256 947.806641,109.685966 933.106750,113.873917 
	C930.858582,114.514442 927.836609,114.699402 927.158569,111.417847 
	C926.570679,108.572388 928.722900,107.778214 931.153259,106.859627 
	C940.168396,103.452164 948.761475,99.262657 954.773926,90.720779 
z"/>
<path fill="#474443" opacity="1.000000" stroke="none" 
	d="
M795.041931,75.120209 
	C797.665405,72.208755 800.413147,72.596443 803.005249,74.557098 
	C809.088623,79.158440 814.228271,84.790436 819.643127,90.117943 
	C821.576782,92.020370 822.016052,94.681198 820.019470,96.187019 
	C818.034485,97.684128 814.939758,98.144592 813.118652,95.300911 
	C809.383667,89.468521 803.581909,85.794579 798.527283,81.405670 
	C796.477722,79.626045 795.211670,78.074654 795.041931,75.120209 
z"/>
<path fill="#FFFFFF" opacity="1.000000" stroke="none" 
	d="
M960.684570,25.186722 
	C958.898743,23.404898 958.164978,21.461615 957.432007,19.225653 
	C966.511108,19.225653 975.464539,19.225653 984.657593,19.225653 
	C982.644592,24.582254 979.453613,28.999176 976.162903,33.393867 
	C973.707458,36.672970 971.465454,36.031059 969.017212,33.541935 
	C966.344177,30.824150 963.642029,28.134987 960.684570,25.186722 
z"/>
<path fill="#FFFFFF" opacity="1.000000" stroke="none" 
	d="
M679.000000,49.000000 
	C682.486328,49.000000 685.474182,48.999866 688.462097,49.000027 
	C694.705505,49.000362 696.895996,52.046135 694.956665,57.984119 
	C694.467468,59.482052 693.448303,60.008968 691.947144,60.005577 
	C683.149475,59.985703 674.351379,59.955975 665.554321,60.029552 
	C663.646973,60.045506 662.841797,59.451496 662.976257,57.486084 
	C663.100647,55.668705 663.141907,53.822426 662.966431,52.013435 
	C662.731140,49.586086 663.689453,48.859177 666.053894,48.954266 
	C670.197021,49.120888 674.351746,49.000278 679.000000,49.000000 
z"/>
<path fill="#FFFFFF" opacity="1.000000" stroke="none" 
	d="
M676.009521,43.000000 
	C673.187317,43.000000 670.863403,43.001080 668.539429,42.999783 
	C663.171326,42.996788 661.554993,40.723248 662.979675,35.496502 
	C663.332886,34.200737 664.011475,34.006599 665.059509,34.007164 
	C674.189148,34.012085 683.329529,33.758492 692.443665,34.136959 
	C696.651978,34.311710 694.513184,38.219894 694.967651,40.507763 
	C695.462769,43.000271 693.753967,43.035877 691.945251,43.017586 
	C686.799927,42.965549 681.653625,42.999748 676.009521,43.000000 
z"/>
<path fill="#FFFFFF" opacity="1.000000" stroke="none" 
	d="
M536.057068,36.227692 
	C541.749512,34.096863 547.521973,35.234192 553.230225,35.087379 
	C556.375610,35.006481 554.759155,37.790684 554.937195,39.276775 
	C555.276550,42.109138 555.343628,45.464558 551.626648,45.859318 
	C547.039124,46.346531 542.361145,45.965015 537.722473,45.996536 
	C536.002930,46.008221 535.993713,44.877525 536.001282,43.658707 
	C536.015686,41.339302 536.009521,39.019764 536.057068,36.227692 
z"/>
<path fill="#FFFFFF" opacity="1.000000" stroke="none" 
	d="
M537.277466,27.949169 
	C535.158691,25.329750 536.337891,22.477381 536.028809,19.767773 
	C535.836365,18.080751 537.034485,17.991764 538.292358,17.997587 
	C542.433533,18.016764 546.578491,17.894691 550.715210,18.031521 
	C555.301575,18.183220 554.770691,21.618952 555.075134,24.793610 
	C555.457642,28.782772 552.870422,27.984272 550.673523,27.993591 
	C546.366638,28.011868 542.059631,27.993191 537.277466,27.949169 
z"/>
<path fill="#FFFFFF" opacity="1.000000" stroke="none" 
	d="
M256.000000,99.692177 
	C256.384369,104.387962 254.512848,106.075485 250.223923,106.052528 
	C228.773834,105.937668 207.322464,105.939545 185.872360,106.051765 
	C181.664642,106.073784 179.854919,104.571342 179.947922,100.251900 
	C180.126862,91.941528 180.069855,83.623718 179.968811,75.310722 
	C179.922958,71.537109 181.539230,69.958000 185.311111,69.969055 
	C207.094208,70.032951 228.877670,70.035332 250.660736,69.966736 
	C254.428665,69.954872 256.076599,71.496750 256.029785,75.282570 
	C255.931091,83.263000 255.999924,91.245506 256.000000,99.692177 
z"/>
<path fill="#474443" opacity="1.000000" stroke="none" 
	d="
M353.243286,31.929489 
	C354.457855,34.496578 356.757507,36.452656 355.440002,39.608028 
	C352.416962,38.252483 351.921051,35.425129 351.217957,32.860001 
	C350.883972,31.641520 351.716217,31.066357 353.243286,31.929489 
z"/>
<path fill="#FFFFFF" opacity="1.000000" stroke="none" 
	d="
M347.529114,33.984283 
	C345.202515,33.661934 343.683624,36.114933 341.445221,34.509148 
	C342.628601,32.747108 343.871063,30.393215 346.277405,30.259171 
	C347.750275,30.177124 348.627594,32.139835 347.529114,33.984283 
z"/>
<path fill="#474443" opacity="1.000000" stroke="none" 
	d="
M340.967773,38.659679 
	C339.053528,38.763397 338.424805,37.519676 338.413086,35.425404 
	C340.399689,35.575729 340.418793,37.181576 340.967773,38.659679 
z"/>
<path fill="#FFFFFF" opacity="1.000000" stroke="none" 
	d="
M410.227417,34.334213 
	C408.189117,35.381004 406.381775,34.880138 404.135651,34.949390 
	C406.082092,32.016590 408.485168,30.006306 411.227814,28.025032 
	C409.156372,29.958656 417.966827,32.633717 410.227417,34.334213 
z"/>
<path fill="#FFFFFF" opacity="1.000000" stroke="none" 
	d="
M367.066193,53.890701 
	C367.004761,47.880596 373.075043,44.271019 377.998749,47.163055 
	C380.171661,48.439362 378.671082,51.086185 378.968933,53.089157 
	C379.199982,54.642910 378.220123,55.127571 376.857117,54.986378 
	C373.618134,54.650852 370.283173,55.787052 367.066193,53.890701 
z"/>
</svg>