<?xml version="1.0" encoding="utf-8"?>
<!-- Generator: Adobe Illustrator 26.5.0, SVG Export Plug-In . SVG Version: 6.00 Build 0)  -->
<svg version="1.1" id="圖層_1" xmlns="http://www.w3.org/2000/svg" xmlns:xlink="http://www.w3.org/1999/xlink" x="0px" y="0px"
	 viewBox="0 0 319.3 34" style="enable-background:new 0 0 319.3 34;" xml:space="preserve">
<style type="text/css">
	.st0{fill:#8DC21F;}
	.st1{fill:#008BD5;}
	.st2{fill:#FFFFFF;}
</style>
<g>
	<g>
		<g>
			<path class="st0" d="M14,13c0.1,0.1,0,0.1,0.2,0.1h0.1c0.2,0.1,0.4,0.1,0.6,0.2H15l0.1,0.1l0,0l0.1,0.1h0.1l0.1,0.1l0,0l0.2,0.1
				l0,0l-0.3-0.2l0,0l0,0l0,0l-0.1-0.1l0,0L15.1,13l0,0l0,0l0,0H15l0,0v-0.1l0,0l0,0l0,0l0,0l0,0l0,0l0,0l0,0l0,0l0,0l0,0l-0.1-0.1
				l0,0v-0.1v-0.1l-0.1-0.1l0,0v-0.1v-0.1l-0.1-0.1l0,0l0,0v-0.1h-0.1l0,0l0,0V12l0,0l0,0l0,0l0,0v-0.1h0.1l0,0l-0.1-0.1l0.1-0.1
				l-0.1-0.1l0,0l0.1-0.1v-0.1l0,0l0,0h-0.1l0,0l0.1-0.1V11l0,0h-0.1v-0.1l0,0l0,0l0,0v-0.1l0,0v-0.2h0.1l0,0v-0.1l0.1-0.1l0,0l0,0
				l0,0v-0.1l0,0l0,0l0.1-0.1l0,0l0,0l0,0l0,0l0,0l0,0l0,0l0,0l0,0V9.9l0,0V9.8l0,0V9.7l0,0l0,0l0,0V9.6l0,0H15l0,0h0.1V9.4l0,0l0,0
				l0,0l0,0l0,0l0,0l0.1-0.1l0,0l0,0l0,0l0,0l0,0h0.1l0,0l0,0l0,0l0,0h0.1l0,0l0.1-0.1h0.1l0,0h0.1l0,0h0.1l0,0h0.1l0.3-0.1h0.1h0.1
				l0,0l0,0l0,0l0,0l0,0h0.1l0,0h0.1h0.1l0,0l0,0h0.1h0.1l0,0H17h0.1l0,0l0,0h0.1l0,0l0,0l0,0h0.1l0,0l0,0h0.1h0.1L17.8,9l0,0
				l0.1,0.1l0,0v0.1l0,0L18,9.3l0,0l0,0l0,0h0.1l0.1,0.1v0.1l0,0l0,0h0.1l0,0l0.1,0.1l0,0h-0.1l0.1,0.1l0.2,0.1l0,0h0.1l0,0l0.1,0.1
				l0,0l0,0l0,0V10l0.1,0.1h-0.1l0,0l0,0l0.1,0.1l0,0v0.1l0,0l0,0l0,0l0,0h-0.1v0.1h0.1l0,0l0,0l0,0H19l0,0l0,0v0.1l0,0l0,0l0,0
				l0.1,0.1L19,10.7h-0.1l0,0l0,0l0,0H19l0,0l0.1,0.1v0.1V11l0,0l0,0H19v0.1l0,0l0,0l0,0l0,0l0,0l0,0v0.1l0,0l0,0l0.1,0.1H19l0,0
				l0,0l0,0v0.1v0.1l-0.1,0.1v0.1l-0.1,0.1v0.1l0.3,0.1v0.1l0,0l0,0H19l0,0l-0.1,0.1l0,0l0,0l0,0l-0.2,0.1l0,0l-0.1,0.1l0,0l0,0
				h-0.1v0.1l0,0l-0.2,0.1l0,0l0,0l0,0l0,0h-0.1l0,0v0.1l0,0L18,12.8l0,0l-0.1,0.1l0,0l0,0H18c0.1-0.1,0.1-0.1,0.3-0.1l0,0l0.3-0.1
				l0,0c0.2-0.1,0.3-0.2,0.5-0.3h0.1l0.1-0.1h0.1l0.2-0.1c0.1-0.1,0.7-0.3,0.8-0.4l0,0l0.1-0.1l0,0l0.2-0.2l0,0
				c0.2-0.1,0.3-0.2,0.5-0.4L21,11.4l0.2-0.1v-0.1l0.1-0.1h-0.1l0.1-0.1l-0.1-0.1l0.1-0.1l0,0c0.1,0,0.4-0.2,0.5-0.3l0,0l0.1-0.1
				h-0.1l0.1-0.1l0,0l0.1-0.1l0,0l0.3-0.2l0,0l0.1-0.1l0,0c0.2-0.1,0.4-0.2,0.5-0.3l0,0H23l0,0l0.3-0.2l0,0l0.3-0.1l0,0l0.1-0.1V9.1
				L23.8,9l-0.1-0.1l0.2-0.3l-0.1-0.1L24,8.3V8.2c0.1-0.1,0.1-0.1,0.1-0.2l0,0h0.1l-0.1-0.1l0.2-0.1l-0.2-0.1l0.1-0.1l-0.1-0.1V7.3
				L24,7.2h0.1V7.1h0.1L24.1,7h0.1l-0.1-0.2l0.2-0.1l-0.1-0.1l0,0h-0.1V6.4c0-0.1-0.1-0.2-0.1-0.3l-0.2-0.2l0,0l-0.1-0.1h-0.2l0,0
				h0.1l-0.1-0.1h0.2l0,0l0.2-0.1c-0.1-0.1,0-0.2-0.2-0.4l0,0c0.1-0.1,0.1-0.1-0.1-0.1h-0.1V4.9h-0.1l0,0h-0.1l0,0
				c-0.1-0.1-0.2-0.1-0.3-0.1V4.6l-0.1-0.1l0,0h-0.1l0,0l-0.1-0.1V4.3l0,0h0.1h0.1l0,0l0,0h-0.1h-0.1l-0.1-0.1l-0.1-0.1h-0.1L22.6,4
				l0,0l0,0l0.2-0.1c-0.1-0.1-0.2-0.1-0.2-0.2c-0.1-0.1,0-0.1,0.1-0.1l0,0V3.5l0,0l-0.2-0.1l0,0l-0.2-0.1V3.2
				c-0.1-0.1-0.3-0.3-0.5-0.3c-0.1-0.1,0-0.1-0.2-0.2l0,0h0.1h0.1l-0.2-0.2l0,0l-0.2-0.1h-0.1l-0.1-0.1l0.1-0.1
				c-0.1-0.1-0.2-0.2-0.4-0.3l-0.3-0.1l0,0h-0.1l0,0h-0.1l0,0l-0.3-0.2H20l-0.1-0.1l-0.2-0.1l0,0c-0.2-0.1-0.3-0.1-0.4-0.1H19
				c-0.1-0.1-0.1-0.1-0.3-0.1l-0.1-0.1h-0.1L18.4,1l0,0h-0.1h-0.1h-0.1h-0.2l-0.1-0.1l0,0l-0.1-0.1c-0.1,0-0.2,0-0.3,0l0,0
				c-0.2,0-0.3,0-0.5,0h-0.2h-0.1h-0.1h-0.1h-0.1c-0.1,0-0.1,0-0.3,0.1l0,0h-0.2l0,0L15.7,1l0,0h-0.2l0,0l-0.3,0.1l0,0L15,1.2
				c-0.3,0-0.6,0.1-0.9,0.2l-0.3,0.1l0,0h-0.1l0,0h-0.3l0,0h-0.1l0,0L13,1.7l0,0l-0.2,0.1l0,0l-0.2,0.1l0,0h-0.1l0,0h-0.1l0,0h-0.1
				l0,0L12.1,2l0,0H12l0,0h-0.1v0.1l-0.3,0.2l0,0h-0.1v0.1h-0.1v0.1h-0.1v0.1l-0.1,0.1v0.1l-0.3,0.1V3h-0.1v0.1h-0.1v0.1h-0.1v0.2
				h-0.1l-0.1,0.2h-0.1L10.9,4h-0.1h0.1l0,0c0,0.1-0.1,0-0.1,0.1v0.1h-0.1v0.1h-0.1l0,0l-0.1,0.1l0.1,0.1l0,0h0.1l-0.1,0.1v0.1l0,0
				l0.1,0.1l-0.1,0.1h0.1L10.6,5l0.1,0.1l-0.1,0.1c0,0.1,0.1,0.1,0,0.2l0.1,0.1l-0.3,0.1c0.1,0.1-0.1,0.3,0,0.5h-0.1v0.1h-0.1h0.1
				l-0.1,0.1l0.1,0.1l-0.1,0.1l0.2,0.2l-0.1,0.1l0.1,0.1c-0.1,0.1-0.1,0.1,0,0.2c0,0-0.1,0.1,0.1,0.1l0.2,0.1h-0.1l0.1,0.1h-0.1
				l0.1,0.2l-0.3,0.3l0,0c0.1,0,0.2,0.1,0.3,0.1l-0.2,0.3l0.1,0.1v0.1l-0.1,0.1l0.1,0.1h-0.1h0.1l-0.1,0.1l0.1,0.1L10.5,9l0,0h-0.1
				l0.1,0.1l-0.1,0.2h0.1l0,0l0.2,0.3l-0.1,0.1l0.1,0.1l-0.1,0.1l0.2,0.2l-0.1,0.1l0.1,0.1l-0.1,0.1c0.1,0.1,0.2,0.3,0.3,0.4h-0.1
				l0.1,0.1L10.9,11l0.1,0.1h-0.1H11h-0.1l0.1,0.1h-0.1l0.1,0.1h-0.1H11h-0.1l0.3,0.1h-0.1l0.2,0.1h-0.1l0.1,0.1l0,0l0.3,0.2h-0.1
				c0.1,0.1,0.3,0.1,0.4,0.2h-0.1l0.1,0.1l0,0c0.3,0.2,0.7,0.4,1.1,0.6C13.6,12.9,13.8,12.9,14,13L14,13z"/>
			<path class="st1" d="M14.2,32.6c0.1,0.1,0,0.1,0.2,0.1h0.1c0.2,0.1,0.3,0.2,0.5,0.2l0,0h0.1h0.1l0.1,0.1l0.1-0.1l0.1,0.1h0.1
				l0.2,0.1h0.1H16c0.1,0,0.2,0,0.3,0c0.2,0,0.3,0,0.5,0c0.2,0.1,0.3,0.1,0.5,0h0.1h0.1l0.1-0.1l0,0l0.1-0.1l0,0l0.1-0.1l0,0
				l0.2-0.1l0.1,0.1c0.1-0.1,0.1-0.1,0.2-0.1l0,0l0.2-0.1l0,0c0.2-0.1,0.3-0.2,0.5-0.3l0,0l0.1-0.1l0,0l0.2-0.1
				c0.1-0.1,0.6-0.2,0.7-0.4l0,0h0.1H20l0.2-0.1l0,0c0.2-0.1,0.3-0.2,0.5-0.3v-0.1l0.2-0.1L20.8,31l0.1-0.1h-0.1l0.1-0.1h-0.1
				l0.1-0.1l0,0c0.1-0.1,0.4-0.2,0.4-0.3l0,0l0.1-0.1l0,0l0.1-0.1l0,0l0.1-0.1l0,0l0.3-0.2l0,0l0.1-0.1l0,0c0.2-0.1,0.3-0.2,0.5-0.3
				l0,0l0.1-0.1l0,0l0.3-0.1l0,0l0.3-0.1l0,0l0.1-0.1V29l0.2-0.2l-0.1-0.1l0.2-0.3l-0.1-0.1l0.2-0.2L23.6,28
				c0.1-0.1,0.1-0.1,0.1-0.2l0,0h0.1l-0.1-0.1l0.1-0.1l-0.1-0.1l0.1-0.1l-0.1-0.1v-0.2L23.6,27h0.1l-0.1-0.1h0.1v-0.1l0,0l-0.1-0.1
				l0.1-0.1l-0.1-0.1v-0.1h-0.1v-0.1c0-0.1-0.1-0.2,0-0.3l-0.2-0.1l0,0h-0.1H23l0,0l0.1-0.1L23,25.7h0.1l0,0l0.2-0.1
				c-0.1-0.1,0-0.2-0.2-0.3l0,0c0.1-0.1,0.1-0.1-0.1-0.1h-0.1V25H23l0,0l0,0l0,0c-0.1,0-0.2-0.1-0.3-0.1v-0.1l-0.1-0.1l0,0h-0.1l0,0
				l-0.1-0.1v-0.1l0,0l0.1,0.1h0.1l0,0h-0.1h-0.1l-0.1-0.1l-0.1-0.1h-0.1L22,24.3l0,0l0,0l0.1-0.1c-0.1-0.1-0.2-0.1-0.2-0.1
				C22,24,22.1,24,22.1,24l0,0v-0.1l0,0L22,23.8l0,0l-0.2-0.1v-0.1c-0.1-0.1-0.3-0.2-0.5-0.2c-0.1-0.1,0-0.1-0.2-0.2l0,0h0.1h0.1
				L21.2,23H21h-0.1l-0.1-0.1l0.1-0.1c-0.1-0.1-0.1-0.2-0.3-0.2l-0.3-0.1l0,0h-0.1l0,0l0,0l0,0l-0.3-0.1h-0.1l-0.1-0.1l0,0l-0.2-0.1
				l0,0c-0.1,0-0.2-0.1-0.4-0.1H19c-0.1-0.1-0.2,0-0.3-0.1l-0.1-0.1h-0.1l-0.1-0.1l0,0h-0.1h-0.1l0,0H18l-0.1-0.1l0,0l-0.1-0.1
				c-0.1,0-0.2,0-0.3,0l0,0c-0.1,0-0.3,0-0.5,0.1l-0.2-0.1h-0.1h-0.1h-0.1h-0.1c-0.1,0-0.1,0-0.3,0h-0.2l0,0h-0.1l0,0h-0.1l0,0h-0.2
				l0,0l-0.2,0.1c-0.3,0-0.6,0.1-0.8,0.2c-0.1,0-0.2,0.1-0.3,0.1H14h-0.2l0,0h-0.2l0,0h-0.1l0,0l-0.2,0.1l0,0h-0.2l0,0l-0.2,0.1H13
				h-0.1l0,0h-0.1l0,0h-0.1l0,0l-0.2,0.1l0,0h-0.1v0.1h-0.1l0,0L12,22.5v0.1h-0.1v0.1h-0.1l0,0h-0.1v0.1l0.3,0.5v0.1l-0.3,0.1v0.1
				h-0.1v0.1h-0.1v0.1h-0.1V24h-0.1v0.1h-0.1l0.1,0.1h-0.1l0.1,0.1h-0.1c0,0.1,0,0-0.1,0.1v0.1H11l0,0h-0.1l0,0l-0.1,0.1h0.1h-0.1
				h0.1l-0.1,0.1v0.1H11l0.1,0.1L11,25h0.1L11,25.1l0.1,0.1L11,25.3c0,0.1,0.1,0.1,0,0.2l0.1,0.1L11,25.7c0.1,0.1-0.1,0.3,0,0.5
				h-0.1v0.1h-0.1h0.1l-0.1,0.1l0.1,0.1l-0.1,0.1l0.2,0.2l-0.1,0.1L11,27c-0.2,0.1-0.2,0.1-0.1,0.2c0,0-0.1,0,0.1,0.1l0.1,0.1l0,0
				l0.1,0.1h-0.1l0.1,0.1l-0.3,0.3l0,0c0.1,0,0.2,0.1,0.3,0.1L11,28.1l0.1,0.1v0.1L11,28.4l0.1,0.1H11l0.1,0.1H11h0.1L11,28.8
				l0.1,0.1H11l0.1,0.1L11,29.1h0.1H11l0.2,0.3l-0.1,0.1l0.1,0.1l-0.1,0.1l0.2,0.1V30l0.1,0.1l-0.1,0.1c0.1,0.1,0.2,0.2,0.3,0.3
				h-0.1h0.1l-0.1,0.1h0.1l0,0h0.1l0,0l0.1,0.1h-0.1l0.1,0.1h-0.1l0.1,0.1h-0.1L12,31h-0.1l0.1,0.1l0,0h0.1H12l0.3,0.2h-0.1
				c0.1,0.1,0.3,0.1,0.4,0.2h-0.1h0.1h-0.1c0.3,0.2,0.7,0.3,1,0.5C13.9,32.4,14,32.5,14.2,32.6L14.2,32.6z"/>
			<path class="st1" d="M3.5,22.9c0.1,0,0,0.1,0.2,0.1h0.1c0.2,0.1,0.4,0.1,0.6,0.2h0.1h0.1h0.1h0.1h0.1L5,23.3h0.1l0.2,0.1l0.1-0.1
				l0.1,0.1c0.1,0,0.2-0.1,0.3-0.1c0.2,0,0.3,0,0.5-0.1c0.2,0.1,0.4,0.1,0.6,0L7,23.1l0,0L7.1,23l0,0h0.2h0.1l0.1-0.1l0,0l0.2-0.1
				h0.1c0.1-0.1,0.2-0.1,0.3-0.1l0,0l0.3-0.1h0.1c0.2-0.1,0.3-0.2,0.5-0.3l0,0v0.1l0,0l0.3-0.1c0.2-0.1,0.7-0.3,0.9-0.4h-0.1h0.1
				l0,0l0.2-0.1l0,0c0.2-0.1,0.4-0.2,0.5-0.3l-0.1-0.1l0.2-0.1v-0.1l0.1-0.1H11l0.1-0.1H11l0.1-0.1l0,0c0.1,0,0.4-0.2,0.5-0.3l0,0
				l0.1-0.1l0,0l0.1-0.1l0,0h0.1l0,0c0.1-0.1,0.2-0.1,0.3-0.2l0,0h0.1l0,0c0.2-0.1,0.4-0.2,0.6-0.3l0,0l0.1-0.1l0,0
				c0.1-0.1,0.2-0.1,0.3-0.2l0,0c0.1-0.1,0.2-0.1,0.3-0.1l0,0h0.1l-0.1-0.1l0.3-0.2v-0.1l0.2-0.3L14,18.7l0.2-0.1L14,18.3
				c0.1-0.1,0.1-0.1,0.2-0.2l0,0h0.1V18l0.1-0.1l-0.1-0.1l0.1-0.1l-0.1-0.1v-0.2l-0.1-0.1h0.1v-0.1h0.1l-0.1-0.1h0.1L14.3,17
				l0.1-0.1l-0.1-0.1l0,0h-0.1v-0.1c0-0.1-0.1-0.2,0-0.3L14,16.3l0,0h-0.1c-0.1,0-0.1,0-0.2,0l0,0h0.1v-0.1l0.2-0.1l0,0l0.2-0.1
				c-0.1-0.1,0-0.2-0.2-0.3v-0.1c0.1,0,0.1,0-0.1-0.1h-0.1v-0.2h-0.1l0,0h-0.1l0,0c-0.1-0.1-0.2-0.1-0.3-0.1v-0.1L13.2,15l0,0
				l-0.1-0.1l0,0L13,14.8V15l0,0l0.1,0.1h0.1l0,0l0,0h-0.1H13L12.9,15l-0.1-0.1h-0.1l-0.1-0.1l0,0l0,0l0.2-0.1
				c-0.1-0.1-0.2-0.1-0.2-0.1c-0.1-0.1,0-0.1,0.1-0.1l0,0v-0.1l0,0l-0.2-0.1l0,0l-0.2-0.1v-0.1c-0.1-0.1-0.3-0.2-0.5-0.2
				c-0.1-0.1,0-0.1-0.2-0.2l0,0h0.1h0.1l-0.2-0.2l0,0h-0.2h-0.1l-0.1-0.1l0.1-0.1c-0.1-0.1-0.2-0.1-0.4-0.2L10.6,13l0,0h-0.1l0,0
				h-0.1l0,0c-0.1,0-0.2-0.1-0.3-0.1H10l-0.1-0.1l0,0l-0.2-0.1l0,0c-0.2-0.1-0.3-0.1-0.4-0.1c-0.1,0-0.1,0-0.2,0
				c-0.1-0.1-0.2,0-0.3-0.1l-0.1-0.1H8.6l-0.1-0.1l0,0H8.4l0,0l0,0H8.1L8,12.4l0,0l-0.1-0.1H7.5l0,0c-0.2,0-0.3,0-0.5,0.1H6.8H6.7
				H6.6H6.5H6.4c-0.1,0-0.1,0.1-0.3,0.1l0,0H5.9l0,0H5.8l0,0H5.6l0,0l-0.3,0.1l0,0l-0.2,0.1c-0.3,0-0.7,0.1-0.9,0.2
				c-0.1,0-0.3,0.1-0.4,0.1l0,0H3.7l0,0H3.4l0,0H3.3l0,0l-0.2,0.1l0,0H2.9l0,0l-0.2,0.1l0,0l-0.2,0.1l0,0H2.4l0,0H2.3v0.1L2,13.5
				l0,0H1.9l0,0H1.8v0.1c-0.1,0-0.2,0.1-0.3,0.1l0,0H1.4v0.1H1.3l0,0l-0.1,0.1V14l-0.1,0.1v0.1l-0.3,0.1v0.1H0.7v0.1H0.6v0.1H0.5
				L1,14.9H0.9L0.8,15H0.7v0.1l0,0h0.1H0.7l-0.1,0.1v0.1H0.5v0.1H0.4l0,0l-0.1,0.1h0.1h0.1h0.1l-0.2,0.1v0.1l0,0L0.5,16H0.4h0.1
				l-0.1,0.1l0.1,0.1l-0.1,0.1c0,0.1,0.1,0.1,0,0.1l0.1,0.1l-0.3,0.1c0.1,0.1-0.1,0.3,0,0.4l-0.1,0.1v0.1H0h0.1L0,17.3l0.1,0.1H0
				l0.2,0.1l-0.1,0.1l0.1,0.1c-0.3,0.1-0.2,0.1-0.1,0.2c0,0-0.1,0,0.1,0.1h0.2H0.3l0.1,0.1H0.3l0.1,0.1l-0.3,0.3H0
				c0.1,0,0.2,0.1,0.3,0.1L0,18.8L0.3,19v0.1l-0.2,0.1l0.1,0.1H0.1h0.1l-0.1,0.1h0.1l-0.1,0.1h0.1l-0.1,0.1l0.1,0.1l-0.1,0.1h0.1
				H0.1L0.3,20l-0.1,0.1l0.1,0.1l-0.1,0.1l0.2,0.1l-0.1,0.1l0.1,0.1l-0.1,0.1c0.1,0.1,0.2,0.2,0.3,0.3H0.5h0.1l-0.1,0.1l0.1,0.1h0.1
				l0.1,0.1H0.7h0.1H0.7L1,21.5H0.9H1H0.9l0.3,0.1H1.1l0.2,0.1H1.2l0.1,0.1l0,0L1.5,22H1.4c0.1,0,0.3,0.1,0.4,0.1H1.7l0.1,0.1l0,0
				c0.4,0.2,0.7,0.3,1.1,0.5C3.1,22.8,3.3,22.9,3.5,22.9L3.5,22.9z"/>
			<path class="st1" d="M28.9,22.1c-0.1,0,0,0-0.2,0.1h-0.1c-0.2,0.1-0.4,0.1-0.5,0.2H28h-0.1h-0.1h-0.1h-0.1l-0.1,0.1l0,0l-0.2,0.1
				h-0.1h-0.1c-0.1,0-0.2,0-0.3,0c-0.2,0-0.3,0.1-0.5,0c-0.2,0.1-0.3,0.1-0.5,0.1l-0.1-0.1h-0.1l-0.1-0.1h-0.1l-0.1-0.1l0,0h-0.1
				h-0.1H25h-0.1c-0.1-0.1-0.2-0.1-0.3-0.1l0,0l-0.3-0.1l0,0c-0.2-0.1-0.3-0.2-0.5-0.3l0,0l-0.1-0.1l0,0l-0.2-0.1
				c-0.1-0.1-0.7-0.2-0.8-0.3l0,0h-0.1l0,0l-0.2-0.1l0,0c-0.1-0.1-0.3-0.2-0.5-0.3l0.1-0.1l-0.2-0.1l0.1-0.1l-0.1-0.1l0,0l-0.1-0.1
				h0.1l-0.1-0.1l0,0c-0.1,0-0.4-0.2-0.5-0.2l0,0V20l0,0h-0.1l0,0H21l0,0l-0.3-0.2l0,0h-0.1l0,0c-0.2-0.1-0.3-0.2-0.5-0.3l0,0H20
				l0,0c-0.1-0.1-0.2-0.1-0.3-0.1l0,0c-0.1,0-0.2-0.1-0.3-0.1l0,0h-0.1l0.1-0.1l-0.3-0.1l0.1-0.1L19,18.8l0.1-0.1l-0.2-0.1l0.1-0.1
				c-0.1-0.1-0.1-0.1-0.1-0.2H19V18v-0.1l-0.1-0.1l0.2-0.1L19,17.6l0.1-0.1v-0.2l0.1-0.1l0,0v-0.1h-0.1l0.1-0.1H19l0.1-0.1H19
				l0.1-0.1l0,0h0.1v-0.1c0-0.1,0.1-0.2,0.1-0.3l0.2-0.1l0,0h0.1h0.2l0,0h-0.1l0.1-0.1h-0.2l0,0l-0.1-0.1c0.1-0.1,0-0.2,0.2-0.3l0,0
				c-0.1,0-0.1-0.1,0.1-0.1h0.1v-0.1H20l0,0h0.1l0,0c0.1-0.1,0.2-0.1,0.3-0.1v-0.1l0.1-0.1l0,0h0.1l0,0l0.1-0.1v-0.1h-0.1h-0.1l0,0
				l0,0l0.1-0.1l0,0l0.1-0.1l0.1-0.1h0.1l0.1-0.1l0,0l-0.2-0.1c0.1-0.1,0.2-0.1,0.2-0.1c0.1-0.1,0-0.1-0.1-0.1H21v-0.1l0,0V14l0,0
				l0.2-0.1l0,0c0.1-0.1,0.3-0.2,0.5-0.3c0.1-0.1,0-0.1,0.2-0.2l0,0h-0.1h-0.1l0.2-0.2l0,0l0.2-0.1h0.1l0.1-0.1l-0.1-0.1
				c0.1-0.1,0.2-0.2,0.4-0.3l0.3-0.1l0,0H23l0,0h0.1l0,0c0.1,0,0.2-0.1,0.3-0.1h0.1l0.1-0.1l0.2-0.1l0,0c0.2-0.1,0.3-0.1,0.4-0.1
				s0.1,0,0.1,0c0.1-0.1,0.2-0.1,0.3-0.1l0.1-0.1h0.1l0.1-0.1l0,0H25h0.1h0.1h0.2l0.1-0.1l0,0h0.1c0.1,0,0.2,0,0.3-0.1l0,0
				c0.1,0,0.3,0,0.5,0l0.2-0.1h0.1h0.1h0.1H27c0.1,0,0.1,0.1,0.3,0.1l0,0h0.1l0,0h0.1l0,0h0.2l0,0H28l0,0l0.2,0.1
				c0.3,0,0.6,0.1,0.9,0.1c0.1,0,0.2,0,0.3,0.1l0,0h0.1l0,0h0.3l0,0h0.1l0,0l0.2,0.1l0,0h0.2l0,0l0.2,0.1l0,0h0.1l0,0h0.1h-0.1h0.1
				v0.1l0.2,0.1l0,0H31v0.1l0,0v0.1c0.1,0,0.2,0.1,0.3,0.1v0.1h0.1v0.1h0.1v0.1h0.1V13l0.1,0.1v0.1l0.3,0.1v0.1h0.1v0.1H32v0.1l0,0
				v0.2h0.1v0.1h0.1V14l0,0l-0.1,0.1h0.1l0.1,0.1v0.1h0.1v0.1h0.1l0,0l0.1,0.1h-0.1l0,0h-0.1l0.1,0.1v0.1h0.1l-0.1,0.1l0.1,0.1h-0.1
				l0.1,0.1l-0.1,0.1l0.1,0.1v0.2l-0.1,0.1l0.3,0.1c-0.2,0.1,0.1,0.3-0.1,0.4h0.1v0.1h0.1l0,0H33l-0.1,0.1l0.1,0.1l-0.2,0.1l0.1,0.1
				l-0.1,0.1c0.2,0.1,0.2,0.1,0.1,0.1c0,0,0.1,0-0.1,0.1h-0.2h0.1l-0.1,0.1h0.1l-0.1,0.2l0.2,0.2h0.1c-0.1,0-0.2,0.1-0.3,0.1
				l0.2,0.2l-0.1,0.1v0.1l0.1,0.1L32.7,18h0.1l-0.1,0.1l0.1,0.1h-0.1l0.1,0.1l-0.1,0.1l0.1,0.1l-0.1,0.1l0.1,0.1l-0.1,0.1h0.1
				L32.2,19l0.1,0.1l-0.1,0.1l0.1,0.1L32,19.5l0.1,0.1L32,19.7l0.1,0.1c-0.1,0.1-0.2,0.2-0.3,0.3h0.1l-0.1,0.1l0.1,0.1h-0.1h0.1
				h-0.1h0.1l-0.1,0.1h0.1l-0.1,0.1h0.1h-0.1l0,0l-0.3,0.1h0.1l-0.2,0.1h0.1h-0.1h0.1c-0.1,0.1-0.2,0.1-0.3,0.2h0.1
				C31.2,21,31,21,30.9,21.1H31l-0.1,0.1H31c-0.4,0.2-0.7,0.4-1.1,0.5C29.3,21.9,29.1,22,28.9,22.1L28.9,22.1z"/>
		</g>
	</g>
</g>
<g>
	<path class="st2" d="M50.7,2.7c0.6,0,0.9,0.3,0.9,0.8s-0.3,0.8-0.9,0.8h-1.5v27.2c0,0.5-0.3,0.8-0.9,0.8c-0.6,0-0.9-0.3-0.9-0.8
		v-4.6c-0.7,0.4-1.4,0.7-2.2,1.1c-1.2,0.5-2.6,1-4.1,1.4c-0.3,0.1-0.5,0.2-0.7,0.2c-0.5,0-0.8-0.3-0.8-0.7c0-0.5,0.3-0.8,0.7-0.9
		c0.5-0.2,1-0.3,1.5-0.5V4.2h-1.6c-0.6,0-0.9-0.3-0.9-0.8s0.3-0.8,0.9-0.8h10.5V2.7z M43.7,10.2h3.8v-6h-3.8V10.2z M43.7,18.1h3.8
		v-6.2h-3.8V18.1z M43.7,26.9c0.5-0.2,0.9-0.3,1.2-0.5c0.9-0.4,1.7-0.8,2.4-1.3c0.1-0.1,0.1-0.1,0.2-0.1v-5.3h-3.8
		C43.7,19.7,43.7,26.9,43.7,26.9z M56.2,1.9c0.4,0,0.6,0.3,0.6,0.9c0,0,0,0.2-0.1,0.4C55.9,5,55,6.6,54,7.9c0.8,0.6,1.7,1.3,2.6,2.1
		c1.2-1.7,2.2-3.6,3.1-5.4c0.2-0.3,0.5-0.4,0.8-0.4c0.6,0,0.9,0.3,1,0.9c0,0.2-0.1,0.4-0.3,0.6c-0.7,1.5-1.6,3.1-2.6,4.6
		c-1.1,1.6-2.6,3.4-4.4,5.4c2.4-0.1,4.2-0.5,5.4-1c-0.1-0.5-0.4-1.2-0.8-1.9c-0.1-0.2-0.1-0.3-0.1-0.4c0-0.5,0.3-0.8,0.9-0.8
		c0.4,0,0.6,0.2,0.7,0.5c0.7,1.2,1.1,2.3,1.4,3.6c0.1,0.7,0.2,1.1,0.2,1.4c0,0.6-0.3,0.9-0.9,0.9c-0.7-0.1-1-0.4-1-1
		c0-0.3-0.1-0.5-0.1-0.8c-1.9,0.7-4.8,1-8.5,1c-0.9,0-1.3-0.3-1.3-0.8s0.4-0.8,1.2-0.8h0.5c1.6-1.6,2.9-3,3.8-4.3
		c0-0.1-0.1-0.1-0.1-0.2c-1.6-1.5-3.1-2.7-4.7-3.5c-0.2-0.2-0.3-0.4-0.3-0.5c0-0.5,0.3-0.8,0.8-0.8c0.3,0,0.5,0.1,0.8,0.4
		c0.1,0.1,0.3,0.2,0.4,0.2c1-1.2,1.8-2.7,2.6-4.3C55.2,2.1,55.6,1.9,56.2,1.9z M52.5,18.7c0.6,0,0.9,0.3,0.9,0.8v3.7
		c0,0.9,0.5,1.3,1.5,1.3h3.5v-4.8c0-0.5,0.3-0.8,0.9-0.8c0.6,0,0.9,0.3,0.9,0.8v4.8c0,1.1-0.2,2-0.7,3c-0.4,0.9-1.1,1.7-2,2.4
		c-0.9,0.7-2.3,1.5-4.3,2.3c-0.2,0-0.5,0.1-0.7,0.1c-0.6-0.1-1-0.4-1.1-0.9c0.1-0.4,0.3-0.6,0.6-0.7c1.7-0.6,3-1.2,3.9-1.8
		c0.8-0.5,1.5-1.1,2-2c0.1-0.2,0.2-0.4,0.3-0.7h-3.8c-1.8,0-2.7-0.8-2.7-2.4v-4.2C51.6,19,51.9,18.7,52.5,18.7z M67.5,2.1
		c0.4,0,0.6,0.3,0.6,0.9c0,0,0,0.2-0.1,0.4c-0.7,2-1.4,3.6-2.3,4.9c0.8,0.6,1.7,1.2,2.6,2c1.1-1.7,2-3.5,2.7-5.4
		c0.2-0.3,0.5-0.4,0.8-0.4c0.6,0,0.9,0.3,0.9,0.9c0,0.2-0.1,0.4-0.3,0.6c-0.4,1.4-1.2,3-2.1,4.5c-0.9,1.6-2.3,3.4-3.9,5.3
		c2.1-0.2,3.7-0.5,4.8-0.9c0-0.1,0-0.2,0-0.2c-0.1-0.5-0.4-1.1-0.8-1.8c-0.1-0.2-0.1-0.3-0.1-0.4c0-0.5,0.3-0.8,0.9-0.8
		c0.4,0,0.6,0.2,0.7,0.5c0.7,1.1,1.1,2.3,1.4,3.5c0.1,0.7,0.2,1.1,0.2,1.3c0,0.6-0.3,0.9-0.9,0.9c-0.6-0.1-0.9-0.4-0.9-0.9
		c0-0.2,0-0.3-0.1-0.4c-1.9,0.6-4.7,1-8.4,1c-0.9,0-1.3-0.3-1.3-0.8s0.4-0.8,1.2-0.8h1.1c1.4-1.6,2.6-3.1,3.4-4.4
		c0-0.1-0.1-0.1-0.1-0.2c-1.8-1.5-3.5-2.7-5.3-3.5c-0.2-0.2-0.3-0.4-0.3-0.5c0-0.5,0.3-0.8,0.8-0.8c0.3,0,0.5,0.1,0.8,0.4
		c0.2,0,0.5,0.2,0.8,0.3V7.2c0.8-1.2,1.5-2.7,2.1-4.4C66.6,2.3,67,2.1,67.5,2.1z M71.6,18.7c0.6,0,0.9,0.3,0.9,0.8v4.2
		c0,1.6-0.9,2.4-2.6,2.4h-4.2v5.8c0,0.5-0.3,0.7-0.9,0.8c-0.6,0-0.9-0.3-0.9-0.8V19.7c0-0.5,0.3-0.8,0.9-0.8s0.9,0.3,0.9,0.8v5h3.7
		c1,0,1.5-0.4,1.5-1.3v-3.8C70.8,19,71.1,18.7,71.6,18.7z"/>
	<path class="st2" d="M93.7,7.2c0.4,0,0.6,0.3,0.6,0.9c0,0,0,0.2-0.1,0.4c-0.6,1.8-1.2,3.3-1.9,4.6h2.9c0.6,0,0.9,0.3,0.9,0.8
		s-0.3,0.8-0.9,0.8h-5.6v3.7h6.8c0.6,0,0.9,0.3,0.9,0.8S97,20,96.4,20h-6.8c1,1.5,2.2,2.9,3.5,4.2c0.6,0.6,1.5,1.3,2.5,2.1
		c0.1,0.3,0.1,0.5,0.1,0.6c-0.1,0.5-0.4,0.7-0.9,0.8c-0.3,0-0.6-0.1-0.8-0.4c-1.1-0.8-2.1-1.8-3-2.8c-0.5-0.6-1-1.2-1.4-1.9v9
		c0,0.6-0.3,0.8-0.9,0.9c-0.6,0-0.9-0.3-1-0.9v-8.9c-0.6,0.8-1.3,1.6-1.9,2.3c-1.3,1.4-2.8,2.8-4.6,4.1c-0.3,0.1-0.6,0.1-0.8,0.1
		c-0.5-0.1-0.8-0.4-0.8-0.8c0-0.3,0.2-0.5,0.5-0.8c1.8-1.3,3.3-2.6,4.5-3.8c1-1,2-2.3,3-3.8h-7.1c-0.5,0-0.8-0.3-0.8-0.8
		s0.3-0.7,0.8-0.8h7.4v-3.7H82c-0.6,0-0.9-0.3-0.9-0.8s0.3-0.8,0.9-0.8h8.5c0-0.1,0.1-0.1,0.1-0.2c0.8-1.4,1.5-3,2.1-4.9
		C92.8,7.4,93.2,7.2,93.7,7.2z M88.8,1.3c0.7,0,1,0.3,1,0.9v2.1h6.3c0.6,0,0.9,0.3,0.9,0.8s-0.3,0.8-0.9,0.8H81
		c-0.6,0-0.9-0.3-0.9-0.8s0.3-0.8,0.9-0.8h6.7v-2C87.8,1.7,88.1,1.4,88.8,1.3z M83.5,7.2c0.4,0,0.6,0.1,0.8,0.3
		c0.6,0.8,1.1,2,1.7,3.5c0.1,0.2,0.1,0.4,0.1,0.5c0,0.6-0.3,0.8-1,0.8c-0.4,0-0.6-0.2-0.8-0.6c-0.5-1.3-1-2.4-1.5-3.2
		c-0.1-0.3-0.1-0.5-0.1-0.6C82.7,7.5,83,7.3,83.5,7.2z M112.4,1.6c0.6,0,0.9,0.3,0.9,0.9c0,0.5-0.3,0.8-0.9,0.8
		c-2.4,0.6-5.8,1-10.1,1.2c-1,0-1.5,0.4-1.5,1.3v5.8h12.3c0.5,0,0.8,0.3,0.8,0.8s-0.3,0.8-0.8,0.8h-3.8v18.3c0,0.6-0.4,0.8-1,0.9
		c-0.6,0-0.9-0.3-0.9-0.9V13.3h-6.6v1.1c0,3.2-0.2,6.3-0.7,9.1s-1.5,5.5-3,8.2c-0.3,0.4-0.6,0.5-1,0.5c-0.6-0.1-0.9-0.4-1-0.9
		c0-0.1,0.1-0.3,0.3-0.5c1.5-3.2,2.4-5.8,2.8-7.8c0.5-2.6,0.7-5.4,0.7-8.6V5.6c0-1.8,1-2.7,2.9-2.7C105.8,2.9,109.3,2.5,112.4,1.6z"
		/>
	<path class="st2" d="M137.1,1.1c0.2,0,0.5,0.1,0.9,0.4c2.2,1.4,4.5,2.7,6.9,3.8c2,1,4.9,2,8.5,3c0.5,0.1,0.7,0.4,0.8,0.9
		c0,0.5-0.3,0.8-1,0.9c-2.7-0.6-5.2-1.4-7.7-2.4c-2.4-1-5-2.5-7.8-4.3c-0.2-0.2-0.5-0.3-0.6-0.3c-0.2,0-0.4,0.1-0.8,0.3
		c-1.9,1.4-4.2,2.8-7.1,4.2c-2.7,1.3-5.5,2.1-8.4,2.6c-0.6,0-1-0.3-1-0.9c0-0.5,0.3-0.8,0.8-0.9c2.8-0.5,5.4-1.2,7.6-2.2
		c2.5-1.1,5.1-2.5,7.7-4.4C136.3,1.2,136.7,1.1,137.1,1.1z M125.7,10.6h22.6c1.8,0,2.6,0.8,2.6,2.4v4.2c0,1.6-0.9,2.4-2.6,2.4h-22.6
		c-1.8,0-2.6-0.8-2.6-2.4V13C123,11.4,123.9,10.6,125.7,10.6z M127.4,21.5h19.3c1.8,0,2.6,0.8,2.6,2.4v5.4c0,1.6-0.9,2.4-2.6,2.4
		h-19.3c-1.8,0-2.6-0.8-2.6-2.4v-5.4C124.8,22.3,125.7,21.5,127.4,21.5z M136.2,18.1v-5.8h-10.1c-0.8,0-1.2,0.4-1.2,1.1V17
		c0,0.7,0.4,1.1,1.2,1.1H136.2z M126.7,25.9h20.7v-1.6c0-0.8-0.4-1.2-1.3-1.2H128c-0.9,0-1.3,0.4-1.3,1.2V25.9z M146.1,30.1
		c0.9,0,1.3-0.4,1.3-1.2v-1.5h-20.7V29c0,0.8,0.4,1.2,1.3,1.2h18.1L146.1,30.1L146.1,30.1z M128.7,12.9c0.3,0,0.6,0.1,0.8,0.4
		c0.8,0.6,1.8,1.5,2.9,2.9c0.1,0.3,0.1,0.5,0.1,0.6c-0.1,0.4-0.4,0.7-1,0.7c-0.3,0-0.5-0.2-0.7-0.5c-0.9-1.2-1.8-2.1-2.7-2.7
		c-0.2-0.3-0.3-0.5-0.3-0.6C127.8,13.2,128.1,12.9,128.7,12.9z M143.3,6.9c0.6,0,0.9,0.3,0.9,0.8s-0.3,0.8-0.9,0.8h-12.4
		c-0.6,0-0.9-0.3-0.9-0.8s0.4-0.8,0.9-0.8C130.9,6.9,143.3,6.9,143.3,6.9z M147.9,18.1c0.8,0,1.2-0.4,1.2-1.1v-3.7
		c0-0.7-0.4-1.1-1.2-1.1h-9.8V18h9.8V18.1z M145.2,12.8c0.4,0,0.6,0.3,0.6,0.9c0,0,0,0.1-0.1,0.3c-0.7,1.4-1.5,2.5-2.5,3.5
		c-0.3,0.2-0.5,0.3-0.8,0.3c-0.5-0.1-0.8-0.4-0.9-0.9c0-0.1,0.1-0.3,0.3-0.5c0.9-0.8,1.6-1.7,2.2-2.8
		C144.2,13,144.6,12.8,145.2,12.8z"/>
	<path class="st2" d="M171.9,27.5c0.6,0.1,0.9,0.3,1,0.7c0,0.3-0.1,0.5-0.3,0.6c-0.9,0.4-1.9,0.9-3,1.3c-0.9,0.3-1.9,0.7-3.1,1
		c-1.4,0.4-3,0.8-4.9,1.1h-0.3c-0.6-0.1-0.9-0.4-0.9-0.9c0-0.3,0.3-0.6,0.8-0.8c1.8-0.3,3.2-0.6,4.2-0.9c0.9-0.2,1.8-0.4,2.6-0.7
		c1.3-0.4,2.4-0.8,3.3-1.2C171.5,27.6,171.7,27.5,171.9,27.5z M165.9,11.3h22.4c1.8,0,2.6,0.8,2.6,2.4v11c0,1.6-0.9,2.4-2.6,2.4
		h-22.4c-1.8,0-2.6-0.8-2.6-2.4v-11C163.3,12.1,164.1,11.3,165.9,11.3z M166.6,2.4h21c1.8,0,2.6,0.8,2.6,2.4v1.7
		c0,1.6-0.9,2.4-2.6,2.4h-21c-1.8,0-2.6-0.8-2.6-2.4V4.8C164,3.2,164.9,2.4,166.6,2.4z M165.2,16.1H189v-1.9c0-0.9-0.5-1.3-1.5-1.3
		h-20.9c-1,0-1.5,0.4-1.5,1.3L165.2,16.1L165.2,16.1z M165.2,20.9H189v-3.2h-23.8V20.9z M187.5,25.5c1,0,1.5-0.4,1.5-1.3v-1.7h-23.8
		v1.7c0,0.9,0.5,1.3,1.5,1.3H187.5z M186.9,7.3c1,0,1.5-0.4,1.5-1.3V5.3c0-0.9-0.5-1.3-1.5-1.3h-19.6c-1,0-1.5,0.4-1.5,1.3V6
		c0,0.9,0.5,1.3,1.5,1.3H186.9z M182.5,27.4c0.2,0,0.5,0,0.8,0.1c4,0.8,7.5,1.9,10.6,3.3c0.3,0.2,0.4,0.4,0.4,0.7
		c0,0.6-0.3,0.9-0.9,0.9c-0.2,0-0.5-0.1-0.7-0.1c-2.9-1.3-6.4-2.4-10.3-3.3c-0.5,0-0.8-0.3-0.9-0.9
		C181.6,27.7,181.9,27.4,182.5,27.4z"/>
	<path class="st2" d="M207.5,1.7c0.6,0,0.9,0.3,1,0.8c-0.5,3-1.1,5.5-1.9,7.5c-0.2,0.5-0.4,0.9-0.5,1.4v20.5c0,0.5-0.3,0.7-0.9,0.8
		c-0.6,0-0.9-0.3-0.9-0.8V14.8c-0.6,0.9-1.2,1.8-2,2.7c-0.2,0.3-0.6,0.4-0.9,0.4c-0.5-0.1-0.8-0.4-1-0.9c0-0.2,0.1-0.4,0.3-0.7
		c1.7-1.7,3-3.8,3.9-6.1c0.9-1.7,1.6-4.3,2.1-7.8C206.6,2,206.9,1.8,207.5,1.7z M213.8,2.8h14.9c1.8,0,2.6,0.8,2.6,2.4v19.3h2.6
		c0.6,0,0.9,0.3,0.9,0.8s-0.3,0.8-0.9,0.8h-25.3c-0.6,0-0.9-0.3-0.9-0.8s0.3-0.8,0.9-0.8h2.6V5.2C211.2,3.6,212.1,2.8,213.8,2.8z
		 M217,26.8c0.6,0.1,0.9,0.3,1,0.8c0,0.3-0.1,0.5-0.2,0.8c-0.9,0.8-2.1,1.6-3.5,2.3c-1.3,0.6-2.7,1.1-4.1,1.5
		c-0.4,0.1-0.7,0.1-0.9,0.1c-0.6-0.1-0.9-0.4-1-0.9c0-0.5,0.3-0.8,0.9-0.9c1.6-0.4,2.9-0.9,3.9-1.3c1-0.5,2-1.1,2.8-1.8
		C216.2,27,216.6,26.8,217,26.8z M213.1,8.2h16.4V5.7c0-0.9-0.5-1.3-1.5-1.3h-13.4c-1,0-1.5,0.4-1.5,1.3V8.2z M213.1,13.5h16.4V9.8
		h-16.4V13.5z M213.1,19.1h16.4v-4h-16.4V19.1z M213.1,24.4h16.4v-3.7h-16.4V24.4z M225.1,26.8c0.2,0,0.5,0,0.9,0.1
		c3,0.9,5.6,2.1,7.9,3.7c0.3,0.2,0.5,0.4,0.5,0.8c0,0.6-0.3,1-0.9,1c-0.3,0-0.5-0.1-0.7-0.1c-2.2-1.5-4.7-2.7-7.6-3.6
		c-0.6-0.1-0.9-0.4-0.9-1C224.2,27.1,224.5,26.8,225.1,26.8z"/>
	<path class="st2" d="M246.7,1.6c0.4,0,0.6,0.3,0.6,0.9c0,0.1,0,0.2-0.1,0.5c-0.8,2.4-1.8,4.3-2.9,5.9c0.3,0.1,0.6,0.3,0.8,0.4
		c0.7,0.4,1.4,0.8,2.2,1.3c1-1.8,1.7-3.3,2.1-4.5c0.1-0.5,0.4-0.8,1-0.8s0.9,0.3,0.9,1c-0.7,1.6-1.6,3.6-2.8,5.9
		c-1.1,1.8-2.5,3.7-4.2,5.6c2.4-0.2,4.2-0.6,5.5-1.1c-0.4-0.9-0.8-1.6-1.2-2.2c-0.1-0.3-0.1-0.5-0.1-0.6c0.1-0.5,0.4-0.7,0.9-0.8
		c0.4,0,0.6,0.1,0.8,0.3c0.8,1.2,1.6,2.8,2.4,4.9c0.1,0.2,0.1,0.4,0.1,0.5c0,0.6-0.3,0.8-1,0.8c-0.3,0-0.6-0.2-0.8-0.6
		c-0.1-0.3-0.2-0.6-0.4-0.9c-1.9,0.8-4.8,1.3-8.6,1.3c-0.9,0-1.3-0.3-1.3-0.8s0.4-0.8,1.2-0.8h0.6c1.6-1.9,2.9-3.7,3.9-5.4
		c0.1-0.1,0.1-0.2,0.2-0.3c-0.1-0.1-0.2-0.2-0.3-0.3c-0.8-0.6-1.6-1-2.3-1.4s-1.7-0.9-2.8-1.4c-0.3-0.3-0.4-0.5-0.4-0.7
		c0.1-0.4,0.4-0.6,0.9-0.7c0.3,0,0.5,0.1,0.8,0.3c0.2,0.1,0.3,0.2,0.5,0.2V8c1.1-1.6,2-3.5,2.8-5.7C245.7,1.8,246.1,1.6,246.7,1.6z
		 M258.3,1.3c0.6,0,0.9,0.3,0.9,0.9c0,0.2-0.1,0.4-0.3,0.6c-0.2,0.4-0.4,0.8-0.7,1.2c-0.2,0.3-0.4,0.6-0.7,0.9h2
		c1.7,0,2.5,0.8,2.5,2.3v9c0,1.5-0.8,2.3-2.5,2.3h-1.1v3.2h15c0.6,0,0.9,0.3,0.9,0.8s-0.3,0.8-0.9,0.8h-14.3c2,1.3,4.1,2.5,6.3,3.5
		c1.9,0.9,4.5,1.8,7.7,2.7c0.6,0.2,1,0.4,1,0.8c0,0.5-0.3,0.7-0.8,0.8c-0.2,0-0.4,0-0.7-0.1c-2.8-0.7-5.3-1.6-7.7-2.7
		c-2.1-1-4.3-2.2-6.5-3.7v7.1c0,0.6-0.3,0.8-0.9,0.9c-0.6,0-0.9-0.3-1-0.9v-7c-1.5,1.2-3.2,2.2-5.3,3.1c-2.3,1.1-5.3,2.2-8.9,3.2
		c-0.2,0.1-0.5,0.1-0.6,0.1c-0.4,0-0.7-0.2-0.9-0.7c0-0.5,0.3-0.8,0.8-0.9c3.7-1.1,6.6-2.2,8.7-3.1c1.9-0.9,3.8-1.9,5.5-3.1h-14.2
		c-0.6,0-0.9-0.3-0.9-0.8s0.3-0.8,0.9-0.8h15v-3.2h-1.5c-1.7,0-2.5-0.8-2.5-2.3v-9c0-1.5,0.8-2.3,2.5-2.3h0.4c0.4-0.5,0.8-0.9,1-1.3
		c0.4-0.6,0.8-1.2,1-1.9C257.8,1.5,258,1.4,258.3,1.3z M254.4,11h6V7.4c0-0.6-0.3-0.9-1-0.9h-3.9c-0.7,0-1,0.3-1,0.9V11H254.4z
		 M259.4,16.9c0.7,0,1-0.3,1-0.9v-3.5h-6V16c0,0.6,0.3,0.9,1,0.9H259.4z M268.9,1.6c0.4,0,0.6,0.3,0.6,0.9c0,0.1,0,0.2-0.1,0.4
		c-0.9,2.4-2,4.4-3.3,5.9c0.4,0.3,0.8,0.5,1.1,0.7c0.6,0.5,1.3,1,1.9,1.6c1.1-2,2-3.7,2.4-5.2c0.1-0.5,0.4-0.8,0.9-0.8
		c0.6,0,0.9,0.3,0.9,1c-0.7,1.6-1.6,3.6-2.9,6c-1.1,1.9-2.5,3.7-4.2,5.6c2.4-0.2,4.3-0.5,5.6-1.1c-0.4-0.8-0.8-1.5-1.2-2.1
		c-0.1-0.3-0.1-0.5-0.1-0.6c0.1-0.5,0.4-0.7,0.9-0.8c0.4,0,0.6,0.1,0.8,0.3c0.8,1.1,1.6,2.7,2.4,4.8c0.1,0.2,0.1,0.4,0.1,0.5
		c0,0.6-0.3,0.8-1,0.8c-0.3,0-0.6-0.2-0.8-0.6c-0.1-0.3-0.2-0.6-0.4-0.9c-1.9,0.8-5,1.3-9.1,1.3c-0.9,0-1.3-0.3-1.3-0.8
		s0.4-0.8,1.2-0.8h0.9c1.6-1.9,2.9-3.6,3.9-5.2c-0.1-0.1-0.1-0.1-0.2-0.2c-0.7-0.7-1.4-1.2-2.2-1.8c-0.7-0.4-1.5-1-2.6-1.6
		c-0.3-0.3-0.4-0.5-0.4-0.7c0.1-0.4,0.4-0.6,0.9-0.7c0.3,0,0.5,0.1,0.8,0.4c1.2-1.6,2.3-3.5,3.2-5.6C267.9,1.8,268.3,1.6,268.9,1.6z
		"/>
	<path class="st2" d="M295.9,6.6c0.6,0,0.9,0.3,0.9,1c-0.3,1.1-0.6,2.5-1.1,4.1c-0.4,1.2-0.9,2.5-1.5,3.7h4.7c0.6,0,0.9,0.3,0.9,0.8
		c0,0.5-0.3,0.8-0.9,0.8h-17.6c-0.5,0-0.8-0.3-0.8-0.8s0.3-0.8,0.8-0.8h10.8c0.6-1.2,1.1-2.4,1.5-3.5c0.6-1.8,1-3.2,1.2-4.4
		C295,6.9,295.4,6.7,295.9,6.6z M290.2,1.3c0.7,0,1,0.3,1,0.9v2.1h6.7c0.6,0,0.9,0.3,0.9,0.8s-0.3,0.8-0.9,0.8H282
		c-0.6,0-0.9-0.3-0.9-0.8s0.3-0.8,0.9-0.8h7.2v-2C289.2,1.7,289.6,1.4,290.2,1.3z M285,19.9h10.1c1.9,0,2.8,0.8,2.8,2.5V29
		c0,1.7-0.9,2.5-2.8,2.5H285c-1.9,0-2.8-0.8-2.8-2.5v-6.5C282.3,20.8,283.2,19.9,285,19.9z M284.4,7.2c0.4,0,0.6,0.2,0.7,0.5
		c0.7,1.4,1.2,2.8,1.5,4.2c0.2,0.8,0.3,1.4,0.3,1.6c0,0.6-0.3,0.9-0.9,0.9c-0.6-0.1-0.9-0.4-0.9-0.9c-0.1-1.2-0.3-2.1-0.5-2.9
		c-0.2-0.7-0.5-1.4-0.9-2.3c-0.1-0.2-0.1-0.3-0.1-0.4C283.6,7.5,283.8,7.2,284.4,7.2z M294.4,29.9c1.1,0,1.6-0.5,1.6-1.5V23
		c0-1-0.5-1.5-1.6-1.5h-8.6c-1.1,0-1.6,0.5-1.6,1.5v5.4c0,1,0.5,1.5,1.6,1.5H294.4z M306.7,2.5h5.4c1.6,0,2.3,0.7,2.3,2.1
		c0,0-0.1,0.1-0.1,0.4c-1.9,3.2-3.4,5.9-4.5,8c-0.1,0.3-0.1,0.5-0.1,0.5c0,0.2,0.1,0.4,0.3,0.5c2.8,2.7,4.1,5.5,4.1,8.4
		c0,1.8-0.5,3.3-1.5,4.5s-2.3,1.7-3.9,1.7c-0.7,0-1.9-0.2-3.4-0.5c-0.5-0.1-0.8-0.4-0.9-0.8c0-0.6,0.4-0.9,1.1-0.9
		c0.1,0,0.2,0,0.4,0.1c1.5,0.3,2.5,0.5,3,0.5c0.9,0,1.7-0.4,2.3-1.3c0.6-0.8,0.9-1.9,0.9-3.3c0-2.5-1.3-4.9-3.8-7.4
		c-0.4-0.5-0.6-1-0.6-1.5c0-0.2,0.1-0.5,0.3-0.8c1.3-2.3,2.7-4.8,4.2-7.6c0.1-0.2,0.2-0.3,0.2-0.4c0-0.4-0.2-0.7-0.7-0.7h-7.1
		c-1,0-1.5,0.4-1.5,1.3v26.5c0,0.6-0.3,0.8-0.9,0.8s-1-0.3-1-0.8V5.2c0-1.8,1-2.7,2.9-2.7C304.1,2.5,306.7,2.5,306.7,2.5z"/>
</g>
</svg>
