<?xml version="1.0" encoding="UTF-8"?><svg id="_圖層_1" xmlns="http://www.w3.org/2000/svg" viewBox="0 0 47.77 47"><defs><style>.cls-1{fill:#008bd5;}.cls-2{fill:#8dc21f;}</style></defs><path class="cls-2" d="m20.35,17.62c.13.09,0,.09.25.17l.09-.04c.3.13.55.21.85.34l.08-.04.13.08.04-.04.13.09.21-.05.21.09.04-.04.33.08h.05l-.42-.25h.04l-.04-.04h.04l-.21-.13.05-.04-.17-.13h.04l-.04-.05h.04l-.13-.04.05-.04-.13-.08h.04l-.04-.04-.04-.04-.04-.04.04-.04h-.04v-.04h-.04l.04-.04-.04-.04h.04l-.17-.21.04-.04-.04-.08v-.09l-.08-.08.04-.04-.04-.09.04-.09-.13-.13.03-.04h-.03l.03-.08-.08-.05.05-.04-.05-.04.05-.09h-.05l.05-.04-.05-.04h.05l-.05-.08.08-.04v-.04l-.08-.08.13-.13-.17-.08h.04l.13-.17-.05-.09.05-.04-.05-.04-.08-.04-.04-.04.08-.13-.08-.08h.04l-.09-.12.05-.09-.05-.05.05-.04h.04v-.08h.05l-.05-.29.13-.04-.05-.04-.03-.13.09-.08-.05-.05.05-.04-.05-.05-.03-.08h.03l-.03-.05.09-.08-.05-.05.05-.04.04-.04h-.04l.04-.04v-.04l.04-.05h.04l-.04-.04v-.08h.04v-.09l.04-.04.04-.13h.04v-.08h.04v-.13l.12-.04v-.04l.09-.04v-.09h.04v-.04h.04v-.04l.04-.04h-.04l.17-.08v-.05h.04v-.04h.04l-.04-.04.13-.04.04-.04h-.04.04v-.05h.09-.04l.09-.08h.08v-.04l.09-.04h.04l.13-.04.05-.04.17-.05.46-.12.13-.04h.25l.04-.04v.04l.09-.04v.04l.12-.04h.17l.13.04.21-.04h.04l.13.04.08.04h.21l.05.04h.08l.09.04h.05l.04.04.17.05h.09l.17.08h.04l.08.08.05-.04.04.09h.05l.16.08v.04l.05.04h-.05l.17.04.21.13-.03.09.03.04h.05l.09.04.03-.04.09.13h-.12l.12.13.26.13v.04l.09.04h-.05l.09.09h.04l-.04.04h.04l-.04.09.08.09-.08.04.04.04v-.04l.09.09.04-.05.05.08.04.04.04-.04.04.04-.04.04-.08-.04v.08l.08.05.04.04.04.04-.04.05.17.04v.04h.04v.13h.04l.04.04-.04.04.12.21-.09.09-.08.04v.04l-.04.04h.17l.13.09.04.21v.13l.04.04-.08.04.04.09h-.04l.04.04-.04.04.04.04h-.04l.04.04v.13l.04.05-.04.04.09.13-.09.04v.04h-.04v.04l-.04.09.04.08-.13.09.04.08-.09.13.05.09-.13.09v.08h-.04.04l-.17.09.05.04-.17.09v.04h-.04l.04.04-.29.17h-.05l-.12.13-.04.04h.04l-.09.04-.03.08h.03l-.24.17-.04.04v.04l-.05.04.05.04-.08.04v.04l-.05.08v.04l-.25.21v.04l-.08.08h.03l-.03.05h.08c.17-.09.2-.13.38-.13h.04l.38-.16.04.04c.25-.13.5-.29.71-.46l.09.04.08-.08.08.04.34-.21c.21-.08.96-.38,1.17-.63l-.04-.04.08-.09h-.05l.26-.25-.05-.04c.25-.17.5-.33.75-.54l-.08-.09.25-.21-.04-.17.21-.13-.09-.04.17-.12-.13-.09.17-.13h.04c.17-.04.59-.29.67-.42l-.05-.04.17-.13-.09-.04.21-.13h-.04l.08-.08-.04-.05.42-.25.04.04.08-.08.05.04c.29-.17.55-.34.8-.46l-.05-.04.13-.09-.04-.04.42-.25-.04-.04.42-.21h-.04l.09-.08-.04-.13.38-.2-.09-.21.25-.38-.08-.13.3-.25-.13-.21c.17-.08.13-.17.21-.25l-.04-.04.17-.04-.09-.08.26-.17-.26-.21.13-.17-.08-.09v-.29l-.13-.13.08-.04-.04-.08.09-.04-.09-.13.09-.04-.13-.25.25-.08-.12-.13.03-.04-.09-.04v-.21c0-.17-.12-.34-.08-.46l-.34-.25-.05.05-.09-.08-.33.04-.04-.04.13-.05-.09-.17.25-.05h.04l.25-.2c-.17-.17-.04-.34-.34-.55l.05-.04q.08-.09-.08-.17l-.13-.04v-.25l-.09-.04v-.04l-.09-.04h.04c-.17-.08-.29-.08-.42-.08v-.13l-.13-.08.04-.04-.12-.04.04-.05-.21-.08v-.21l.21.05.13-.05h-.04v-.04l-.12-.04-.09.04-.09-.13-.17-.08h-.17l-.21-.13h-.08l.26-.13c-.18-.09-.3-.17-.3-.25-.17-.13.04-.09.09-.17l-.04-.04.04-.08-.04-.04-.25-.13.04-.04-.25-.08.04-.09c-.08-.17-.42-.38-.8-.38-.13-.12-.04-.17-.29-.29l.04-.04.17.04h.17l-.34-.29h-.04l-.25-.09h-.13l-.16-.08.12-.13c-.12-.13-.25-.3-.54-.42l-.5-.08.04-.04-.09-.05h.04l-.09-.04.04-.04-.46-.25-.13-.04-.21-.08-.34-.17h-.05c-.25-.08-.38-.17-.63-.21h-.25c-.17-.08-.21-.08-.38-.12l-.13-.08h-.21l-.17-.08h-.05l-.09-.05h-.21l-.09-.04h-.33l-.22-.08h-.04l-.21-.09c-.17,0-.34,0-.46-.04h-.05c-.25,0-.5.04-.71.04l-.33-.04h-.09l-.13-.04-.09.04-.12-.04c-.17,0-.21.04-.37.08l-.05-.04-.25.04-.05-.04-.13.09-.04-.04-.25.04-.04-.04-.38.09-.04-.04-.34.09c-.42.04-.92.21-1.35.29l-.49.12.04.05-.21.04.04.04-.38.04.04.04-.17.05h.04l-.33.08.04.04-.25.08h.05l-.26.13.04.04-.21.05.04.04-.13.05h.05l-.08.04v.04l-.34.17h.04l-.13.04.04.04-.17.04.04.09-.46.25.05.04-.13.04.04.08-.13.04.05.08-.17.04v.17l-.21.09.04.13-.38.12v.13l-.12.04.04.13-.13.04v.17l-.13.04-.04.34-.12.04-.09.25h-.13l.09.17h-.09l.17.08-.04.05c-.03.17-.09.04-.16.13v.13l-.13.04.04.09-.13.04h.04l-.08.13.08.08h-.04l.08.05-.2.16v.13l-.05.04.13.13-.09.08.12.04-.08.12.13.13-.17.21c0,.13.17.09.04.25l.17.08-.38.17c.21.2-.17.46.05.71l-.13.04.04.13-.17.04.09.04-.12.09.12.13-.12.17.24.3-.08.08.21.17c-.34.12-.29.12-.21.25,0,.04-.13.09.08.13l.26.09h-.09l.17.17-.17.05.12.29-.38.42h-.04c.17.04.34.08.46.12l-.34.38.21.17-.04.13-.21.09.09.21-.09.04.13.04-.09.08.13.09-.13.21.09.09-.09.08.17.08-.13.25.13.04-.05.05.29.38-.13.17.17.17-.09.17.3.25-.13.17.17.17-.07.08c.12.17.24.38.41.55l-.08.04.13.09-.09.08.13.09-.09.05.13.04-.09.04.17.08-.08.04.21.13-.08.04.13.04-.09.04.38.21-.09.04.25.13-.09.04.13.09-.04.04.42.29-.08.04c.16.09.38.21.55.29l-.09.05.13.08-.04.04c.5.29,1.05.59,1.55.84.25.13.54.25.8.34l.03-.05Z"/><path class="cls-1" d="m20.73,46.21c.13.09,0,.09.25.13l.09-.04c.25.13.5.26.75.34h.04l.13.04.08-.04.09.08.21-.08.17.13.08-.04.3.08.16-.04.13.04c.13,0,.25-.04.42-.04.25,0,.42.04.72-.04.25.08.5.13.75.04l.12-.04h.17l.13-.08.05.04.16-.08h.05l.12-.09.05.05.25-.09.13.09c.12-.09.17-.13.34-.17l.04.04.34-.17.04.04c.26-.13.46-.3.67-.42l.04.04.13-.08.04.04.33-.21c.21-.08.88-.34,1.05-.59l-.05-.05.13-.04-.08-.04.24-.21-.04-.04c.26-.17.46-.33.68-.5l-.05-.09.26-.21-.09-.13.21-.13-.09-.04.17-.13-.13-.04.17-.17.05.04c.17-.09.55-.29.63-.38l-.04-.04.13-.13-.05-.04.17-.13h-.05l.08-.09h-.04l.38-.25.04.04.09-.09.05.04c.25-.13.51-.3.71-.42l-.04-.04.13-.09-.04-.04.42-.21-.04-.04.38-.21h-.05l.08-.09-.03-.08.33-.25-.08-.13.25-.38-.09-.12.3-.25-.17-.13c.17-.13.17-.17.21-.29h-.04l.17-.04-.08-.08.2-.17-.2-.21.13-.13-.09-.09v-.3l-.08-.08.08-.04-.08-.09.08-.04-.03-.13.03-.04-.08-.21.21-.09-.08-.08v-.09l-.08-.04v-.17c0-.16-.09-.29-.05-.46l-.34-.21-.04.04-.09-.04h-.33l.13-.09-.08-.13.2-.04h.05l.25-.21c-.17-.17-.05-.29-.29-.5v-.04q.08-.09-.08-.17h-.12v-.25l-.09-.04h.04l-.08-.04.04-.04c-.13-.04-.25-.08-.42-.08l.04-.09-.13-.08.05-.04-.13-.04.04-.04-.21-.08.04-.17v-.04l.17.08.09-.04v-.04l-.13-.04-.08.04-.08-.13-.13-.08h-.16l-.21-.13-.03.04v-.04l.2-.09c-.17-.09-.25-.17-.25-.2-.17-.17.05-.09.08-.21h-.03v-.09l-.05-.04-.21-.13.04-.04-.25-.08.04-.09c-.09-.13-.38-.34-.72-.34-.13-.13-.04-.17-.29-.29h.04l.17.04.17-.04-.33-.25-.25-.08-.13.04-.16-.09.13-.17c-.09-.09-.21-.25-.5-.34l-.46-.13h.04l-.09-.04h.04l-.04-.04v-.04l-.42-.21-.09-.04-.21-.12-.04.04-.29-.17h-.05c-.21-.05-.34-.17-.54-.17l-.21-.04c-.17-.09-.25-.05-.37-.09l-.13-.08h-.2l-.13-.09h-.04l-.09-.04h-.2l-.05-.05h-.33l-.17-.08-.05.04-.21-.08c-.12,0-.29-.04-.42-.04l-.04-.04c-.21.04-.46.04-.67.09l-.3-.09-.08.04-.09-.04-.08.04-.12-.04c-.17,0-.21.04-.38.04h-.29l-.13.04h-.3l-.34.04h-.05l-.33.08c-.38,0-.84.17-1.22.25-.17.04-.33.09-.5.13h.08l-.2.08h.04l-.34.04.04.05-.17.04h.04l-.3.08.05.04-.25.04.04.04-.25.13h.09l-.21.04.05.04-.13.04h.04l-.08.04v.04l-.29.13.04.04h-.13l.04.09-.17.04.05.04-.42.21.05.08h-.13l.04.13-.13.04.05.04-.17.04v.13l-.17.13.04.08-.38.13.05.13h-.13v.17l-.13.04.04.13-.13.04-.04.33h-.13l-.03.21-.13.04.09.17h-.09l.17.08h-.08c0,.17-.04.04-.13.13v.12l-.12.04.03.04-.12.04.04.04-.08.13.13.04h-.09l.09.04-.22.17.04.13h-.09l.17.13-.09.09.09.04-.09.13.12.13-.17.17c.04.12.17.08.04.25l.17.09-.34.12c.21.21-.17.42.04.67l-.13.05v.13l-.13.04h.08l-.08.09.08.13-.13.17.26.25-.09.09.17.13c-.29.13-.25.13-.17.29,0,0-.13.04.09.09l.21.08h-.04l.12.17-.12.04.12.21-.38.42h-.04c.13.04.3.09.47.13l-.34.34.17.17v.13l-.21.09.08.17h-.08l.12.08-.08.09.08.04-.12.21.12.08-.08.09.17.08-.13.21.13.04-.09.04.29.38-.09.13.13.17-.08.12.24.21-.09.17.13.17-.09.09c.13.17.29.34.42.5l-.08.04.13.04-.08.13.08.04-.05.04.09.04-.04.04.17.08-.09.04.17.13h-.09l.13.09-.09.04.37.17-.08.04.21.13-.04.04.13.05-.09.04.38.29-.09.04c.21.08.38.17.55.29l-.09.05.12.04-.08.04c.5.25.96.5,1.46.8.25.09.46.21.72.29l.04-.04Z"/><path class="cls-1" d="m5.07,32.15c.13.04,0,.09.25.13l.09-.04c.3.08.55.17.84.29l.08-.04.13.04.09-.04.13.04.2-.04.17.09.09-.05.34.09.21-.09.12.09c.13-.04.29-.09.46-.09.3-.04.46.05.8-.08.26.08.54.08.84.04l.12-.08h.22l.12-.08.04.04.22-.12.08.04.13-.09.05.05.3-.09.08.04c.21-.08.25-.13.42-.17l.04.04.38-.17.08.04c.26-.16.51-.29.75-.46l.05.04.13-.09.04.04.38-.21c.25-.08,1.04-.38,1.26-.59l-.08-.04.13-.04-.05-.04.25-.21-.04-.04c.26-.17.55-.34.8-.5l-.08-.09.3-.21-.05-.13.21-.13h-.09l.17-.17-.09-.04.17-.12h.04c.17-.05.63-.29.71-.38l-.04-.04.13-.13-.04-.04.21-.08-.04-.04.08-.05-.04-.04c.17-.09.29-.17.46-.26l.04.04.09-.04h.05c.29-.12.58-.29.84-.46h-.04l.13-.09-.04-.04c.17-.08.29-.17.46-.25h-.04c.17-.08.3-.13.47-.21l-.05-.04.09-.04-.09-.09.42-.25-.05-.13.26-.38-.09-.12.34-.21-.17-.13c.21-.13.17-.17.26-.3h-.05l.17-.04-.04-.09.21-.17-.21-.17.13-.12-.08-.08v-.25l-.09-.09.09-.04-.04-.13h.09l-.09-.13.09-.04-.09-.17.21-.13-.09-.08.05-.04-.08-.04v-.17c0-.17-.13-.29-.05-.42l-.38-.21-.04.04-.08-.04c-.13.04-.17,0-.34.04l-.04-.04.13-.04-.04-.13.24-.09h.05l.25-.17c-.17-.17-.04-.29-.3-.46v-.09q.09-.04-.08-.13h-.13l.04-.25-.12-.04h.05l-.09-.04h.04c-.17-.09-.29-.09-.46-.09l.05-.08-.13-.09h.05l-.13-.08h.04l-.21-.08v-.21l.21.08.13-.04-.04-.04h.04l-.17-.04-.08.04-.09-.13-.13-.08h-.21l-.21-.08-.04.04-.05-.04.3-.09c-.21-.09-.34-.13-.3-.21-.16-.13.05-.08.09-.17h-.04l.04-.09-.04-.04-.26-.13h.05l-.25-.08.04-.09c-.09-.13-.42-.29-.8-.29-.13-.09-.04-.13-.29-.25h.04l.17.04.21-.04-.33-.25h-.04l-.25-.05h-.17l-.17-.08.17-.12c-.13-.08-.25-.21-.59-.29l-.46-.09.04-.04h-.09l.05-.04-.08-.04.04-.04c-.17-.04-.29-.13-.46-.17l-.12-.04-.21-.08-.04.04-.3-.17-.04.04c-.25-.08-.38-.17-.63-.17q-.13-.04-.25,0c-.16-.08-.25-.04-.42-.08l-.13-.09-.21.04-.17-.09h-.04l-.09-.04h-.63l-.21-.08-.05.04-.21-.08h-.5l-.05-.05c-.25.05-.5.05-.71.09l-.33-.04-.09.04-.12-.04-.13.04-.12-.04c-.13,0-.21.08-.38.08l-.04-.04-.25.04h-.04l-.13.04h-.04l-.25.04-.04-.04-.42.09h-.04l-.34.09c-.42.04-.97.21-1.39.29-.17.04-.37.09-.55.13l.04.04-.2.04.04.04-.38.05.04.04-.17.04h.04l-.34.09.04.04-.29.04.04.05-.25.13h.05l-.25.09h.03l-.08.04h.05l-.13.04.04.08-.38.12h.05l-.13.05.03.04-.16.04v.09c-.13.04-.29.13-.46.21l.05.04-.12.04.03.09-.13.04v.04l-.17.09v.13l-.21.08.04.08-.42.17.04.08-.13.05v.12l-.12.04v.13l-.13.04-.08.29-.13.04-.09.21-.13.04.05.13-.05.04.17.05-.08.04-.17.13v.09l-.13.04.04.08-.13.04h.04l-.13.13.13.04h-.08l.12.04-.25.17v.08l-.05.05.12.12-.08.04.13.04-.13.13.13.13-.17.17c0,.13.17.08.05.21l.13.08-.38.17c.21.17-.21.42.04.59l-.17.08.04.08-.17.05.09.04-.13.09.13.08-.17.17.25.21-.08.08.2.17c-.37.13-.29.13-.2.25,0,0-.13.04.08.08l.26.04-.09.04.13.13-.13.04.09.21-.38.38-.08.04c.16.04.32.08.5.08l-.37.33.2.17-.04.09-.25.08.09.17-.09.04.13.04-.08.09.12.04-.17.21.13.04-.08.08.17.09-.12.21.12.04-.09.05.3.33-.13.13.17.17-.13.13.3.21-.13.12.16.17-.13.08c.13.17.3.29.42.46l-.08.04.13.04-.09.08.13.09h-.09l.13.09-.08.04.17.04-.09.04.22.09-.09.04.13.04-.09.04.38.17-.09.04.26.13h-.09l.13.09h-.09l.42.29-.08.04c.17.05.38.13.54.21l-.08.04.12.09h-.09c.55.25,1.09.46,1.6.71.25.09.51.17.8.25l.04-.04Z"/><path class="cls-1" d="m42.14,30.93c-.12.04,0,.04-.25.08h-.08c-.25.08-.55.21-.79.34l-.09-.04-.13.04h-.07l-.13.04-.17-.04-.21.08h-.04l-.34.09-.21-.04-.13.04c-.13,0-.3,0-.42-.04-.29,0-.5.08-.79,0-.25.08-.5.13-.8.08l-.13-.08-.16.04-.13-.09-.09.04-.16-.13-.05.04-.12-.04h-.09l-.21-.04-.13.04c-.17-.08-.25-.08-.38-.13l-.04.04-.37-.13h-.05c-.25-.13-.46-.25-.71-.38l-.04.04-.12-.08-.05.04-.34-.17c-.21-.08-.97-.29-1.13-.5l.03-.04-.08-.04.05-.04-.26-.21.04-.04c-.21-.13-.46-.29-.71-.42l.08-.08-.25-.21.08-.13-.21-.08.04-.04-.13-.12.08-.05-.13-.17-.04.04c-.17-.04-.59-.25-.67-.34l.04-.05-.12-.13.04-.04-.17-.09.04-.04-.09-.04h.04l-.42-.25-.04.05-.09-.05-.04.05c-.25-.17-.51-.3-.76-.42l.05-.04-.13-.04.04-.04c-.13-.08-.29-.13-.42-.21l.05-.04c-.13-.05-.25-.08-.42-.17h.04l-.08-.04.08-.13-.38-.21.09-.17-.25-.3.13-.12-.29-.21.12-.17c-.17-.09-.12-.17-.2-.25h.08l-.17-.04.04-.08-.21-.13.26-.21-.17-.13.13-.08v-.25l.08-.09-.04-.04.04-.09-.08-.04.08-.13h-.08l.13-.21-.21-.13.09-.08-.04-.04.13-.04-.04-.17c.04-.13.17-.29.13-.42l.33-.2h.04l.09-.05.33.05.04-.05-.13-.04.08-.12-.25-.04h-.04l-.21-.17c.13-.17.04-.29.34-.5l-.04-.05c-.09-.04-.09-.08.08-.12l.13-.04v-.21l.09-.04v-.04l.08-.05h-.04c.17-.08.3-.08.42-.08v-.09l.13-.13h-.04l.12-.04-.04-.04.2-.08v-.17l-.2.04-.09-.04h.04-.04l.17-.08.04.04.13-.13.13-.09h.21l.21-.08.04-.04-.26-.08c.21-.09.34-.13.34-.21.17-.13-.04-.09-.12-.17h.08l-.04-.08.04-.04.25-.13h-.04l.25-.13-.04-.04c.09-.17.42-.34.8-.38.12-.08.04-.13.29-.25h-.04l-.17.04-.17-.04.34-.25.04.05.25-.13.12.04.17-.09-.13-.13c.13-.08.25-.25.59-.38l.46-.08-.04-.04.08-.04h-.04l.08-.04-.04-.04c.17-.04.3-.13.46-.21l.13-.04.21-.08.34-.17.05.05c.24-.09.38-.17.62-.21.13-.04.08-.04.21,0,.21-.09.25-.09.42-.13l.12-.08h.22l.17-.09h.04l.09-.04h.21l.09-.04h.33l.21-.09h.04l.21-.04c.13-.05.3-.05.47-.09h.04c.21,0,.46,0,.67.04l.29-.08.12.04.13-.04h.09l.13-.04c.13,0,.17.09.38.09l.04-.04h.26l.12.04h.33l.38.04.04-.04.34.09c.38,0,.88.13,1.3.21.17.04.34.04.5.09l-.04.04.21.04h-.04l.38.04-.05.04.13.04h-.04l.33.09h-.03l.24.04-.04.04.26.13h-.05l.21.04-.04.04h.12l-.09.04h.12l-.04.09.33.08-.04.04h.13l-.04.09h.17l-.05.08c.17.04.3.13.42.17l-.05.09h.13v.13h.08l-.05.09h.21l-.04.17.21.09-.05.09.38.13-.04.08.13.04v.13h.12l-.03.17h.12l.04.34h.13l.04.21.13.04-.04.12h.04l-.17.08h.08l.17.13-.04.12h.13l-.05.09.13.04h-.05l.09.12-.09.05h.05l-.09.04.21.17-.04.08.08.04-.17.08.09.08-.09.04.09.13-.17.09.17.17-.04.25-.17.08.38.13c-.25.21.17.38-.08.59l.13.04v.13l.12.04-.04.04.09.04-.13.13.13.17-.25.21.08.09-.21.17c.33.08.25.08.16.21,0,.04.13.04-.08.13l-.25.05.09.04-.17.13.17.04-.13.25.34.34h.08c-.17.04-.34.08-.51.13l.34.29-.21.21.04.08.21.09-.08.17h.08l-.13.08.08.09-.13.04.13.17-.13.09.09.08-.17.08.13.17-.13.08h.09l-.34.38.08.13-.13.13.09.17-.29.21.08.13-.17.17.13.09c-.16.17-.3.33-.46.46l.08.04-.13.08.08.08-.13.05.09.04-.13.04.08.04-.21.09.09.04-.17.08.08.04-.13.05.05.04-.38.17.08.04-.26.13.09.04-.13.04.09.04c-.13.09-.3.21-.42.3l.08.04c-.21.09-.38.17-.58.25l.08.04-.12.09h.08c-.55.25-1.09.54-1.6.8-.25.09-.5.21-.75.3h-.09Z"/></svg>