<?xml version="1.0" encoding="UTF-8"?><svg id="_圖層_1" xmlns="http://www.w3.org/2000/svg" xmlns:xlink="http://www.w3.org/1999/xlink" viewBox="0 0 308 295"><defs><style>.cls-1{fill:none;}.cls-2{clip-path:url(#clippath);}.cls-3{fill:#aed7ff;}.cls-4{fill:#057aff;}.cls-5{fill:#2c316d;}.cls-6{clip-path:url(#clippath-1);}.cls-7{clip-path:url(#clippath-2);}</style><clipPath id="clippath"><rect class="cls-1" width="308" height="263.9"/></clipPath><clipPath id="clippath-1"><polygon class="cls-1" points="141.08 21.88 93.31 24.86 71.08 -10.31 159.66 -10.31 141.08 21.88"/></clipPath><clipPath id="clippath-2"><polygon class="cls-1" points="196.39 -30.45 287.57 -27.04 157.51 103.29 113.47 61.02 196.39 -30.45"/></clipPath></defs><path class="cls-4" d="M194.43,228.34c0,3.6-3.14,6.51-6.97,6.51s-6.97-2.93-6.97-6.51,3.14-6.51,6.97-6.51,6.97,2.91,6.97,6.51Zm74.31-76.78c-2.67-4.38-7.42-7.01-12.68-7.01-2.25,0-4.08,1.83-4.08,4.08s1.83,4.08,4.08,4.08c2.39,0,4.52,1.17,5.71,3.1,1.07,1.73,1.15,3.76,.28,5.57l-13.23,21.57c-.06,.08-.1,.18-.16,.26-1.11,2.17-3.32,3.48-5.89,3.48h-.04c-2.55,0-4.74-1.29-5.89-3.42-.04-.08-.1-.18-.16-.26l-13.55-21.55c-.9-1.81-.82-3.84,.22-5.61,1.19-1.97,3.32-3.14,5.73-3.14,2.25,0,4.08-1.83,4.08-4.08s-1.81-4.08-4.06-4.08c-5.31,0-10.05,2.65-12.72,7.1-2.55,4.24-2.69,9.39-.38,13.75,.04,.08,.1,.18,.16,.26l13.57,21.61c1.89,3.5,5.11,5.99,8.88,7.05v28.68c0,2.75-4,5.83-9.73,5.83s-9.73-3.08-9.73-5.83v-32.78c0-7.86-7.86-14.01-17.91-14.01s-17.91,6.15-17.91,14.01v24c-6.37,1.77-11.02,7.44-11.02,14.13,0,8.1,6.79,14.69,15.14,14.69s15.14-6.59,15.14-14.69c0-6.75-4.72-12.46-11.16-14.17v-23.96c0-2.75,4-5.83,9.73-5.83s9.73,3.08,9.73,5.83v33c0,.1,0,.22,.02,.32,.36,7.58,8.1,13.45,17.89,13.45s17.91-6.15,17.91-14.01v-28.62c3.88-1.07,7.2-3.64,9.11-7.24l13.25-21.59c.06-.08,.1-.18,.16-.26,2.27-4.4,2.09-9.51-.48-13.71Z"/><circle class="cls-5" cx="43.61" cy="101" r="13.85"/><g><circle class="cls-5" cx="32.05" cy="151.87" r="2.29"/><circle class="cls-5" cx="32.05" cy="163.83" r="2.29"/><circle class="cls-5" cx="43.7" cy="151.87" r="2.29"/><circle class="cls-5" cx="43.7" cy="163.83" r="2.29"/></g><circle class="cls-3" cx="39.45" cy="22.54" r="6.04"/><g class="cls-2"><g><g class="cls-6"><path class="cls-3" d="M74.65-7.01l19.03,19.03c13.2,13.2,34.59,13.19,47.78,0l10.9-10.9c2.3-2.3,6.03-2.3,8.33,0l.11,.11c2.39,2.39,2.4,6.23,.02,8.61-3.65,3.65-28.91,28.91-34.6,34.59-12.04,12.04-12.04,31.55,0,43.58h0c12.04,12.04,31.55,12.04,43.58,0L275.4-17.57l23.25,3.17-38.44,38.44c-16.78,16.78-16.78,43.98,0,60.75h0c16.78,16.78,43.98,16.78,60.75,0l58.77-58.77c2.55-2.55,6.69-2.55,9.25,0h0c2.55,2.55,2.55,6.69,0,9.25l-87.04,87.04c-9.48,9.48-9.48,24.86,0,34.34h0c9.48,9.48,24.86,9.48,34.34,0l60.29-60.29c2.74-2.74,7.17-2.74,9.91,0h0c2.74,2.74,2.74,7.17,0,9.91l-1.06,1.06c-20.02,20.02-20.02,52.49,0,72.51l44.97,44.97V-36.04"/></g><g class="cls-7"><path class="cls-3" d="M99.69-30.24l19.03,19.03c13.2,13.2,34.59,13.19,47.78,0l10.9-10.9c2.3-2.3,6.03-2.3,8.33,0l.11,.11c2.39,2.39,2.4,6.23,.02,8.61-3.65,3.65-28.91,28.91-34.6,34.59-12.04,12.04-12.04,31.55,0,43.58h0c12.04,12.04,31.55,12.04,43.58,0l105.58-105.58,23.25,3.17L285.26,.8c-16.78,16.78-16.78,43.98,0,60.75h0c16.78,16.78,43.98,16.78,60.75,0L404.78,2.78c2.55-2.55,6.69-2.55,9.25,0h0c2.55,2.55,2.55,6.69,0,9.25l-87.04,87.04c-9.48,9.48-9.48,24.86,0,34.34h0c9.48,9.48,24.86,9.48,34.34,0l60.29-60.29c2.74-2.74,7.17-2.74,9.91,0h0c2.74,2.74,2.74,7.17,0,9.91l-1.06,1.06c-20.02,20.02-20.02,52.49,0,72.51l44.97,44.97V-59.27"/></g></g></g></svg>