<?xml version="1.0" encoding="UTF-8"?><svg id="_圖層_1" xmlns="http://www.w3.org/2000/svg" xmlns:xlink="http://www.w3.org/1999/xlink" viewBox="0 0 308 295"><defs><style>.cls-1{fill:none;}.cls-2{clip-path:url(#clippath);}.cls-3{fill:#aed7ff;}.cls-4{fill:#057aff;}.cls-5{fill:#2c316d;}</style><clipPath id="clippath"><rect class="cls-1" width="308" height="263.9" rx="27.3" ry="27.3"/></clipPath></defs><g class="cls-2"><g><circle class="cls-3" cx="111.35" cy="17.44" r="47.12" transform="translate(83.97 126.77) rotate(-84.84)"/><circle class="cls-5" cx="61.04" cy="92.71" r="7.69"/><g><g><circle class="cls-5" cx="54.16" cy="115.89" r="2.29"/><circle class="cls-5" cx="54.16" cy="127.86" r="2.29"/><circle class="cls-5" cx="65.81" cy="115.89" r="2.29"/><circle class="cls-5" cx="65.81" cy="127.86" r="2.29"/></g><g><circle class="cls-5" cx="30.57" cy="115.89" r="2.29"/><circle class="cls-5" cx="30.57" cy="127.86" r="2.29"/><circle class="cls-5" cx="42.22" cy="115.89" r="2.29"/><circle class="cls-5" cx="42.22" cy="127.86" r="2.29"/></g></g></g></g><path class="cls-4" d="M218.33,193.63c-6.97,0-12.68-2.22-17.12-6.66s-6.66-10.15-6.66-17.12,2.22-12.68,6.66-17.12c4.44-4.44,10.15-6.66,17.12-6.66s12.68,2.22,17.12,6.66c4.44,4.44,6.66,10.15,6.66,17.12s-2.22,12.68-6.66,17.12c-4.44,4.44-10.15,6.66-17.12,6.66Zm-41.21,50.88c-2.64,0-4.89-.92-6.74-2.77-1.85-1.85-2.77-4.1-2.77-6.74v-5.39c0-4.02,1-7.45,3.01-10.3,2.01-2.85,4.6-5.02,7.77-6.5,7.08-3.17,13.87-5.55,20.37-7.13,6.5-1.59,13.02-2.38,19.58-2.38s13.05,.82,19.5,2.46c6.45,1.64,13.21,3.99,20.29,7.05,3.28,1.48,5.92,3.65,7.93,6.5,2.01,2.85,3.01,6.29,3.01,10.3v5.39c0,2.64-.92,4.89-2.77,6.74-1.85,1.85-4.1,2.77-6.74,2.77h-82.43Z"/></svg>