<?xml version="1.0" encoding="UTF-8"?><svg id="_圖層_1" xmlns="http://www.w3.org/2000/svg" xmlns:xlink="http://www.w3.org/1999/xlink" viewBox="0 0 308 295"><defs><style>.cls-1{fill:none;}.cls-2{clip-path:url(#clippath);}.cls-3{fill:#aed7ff;}.cls-4{fill:#057aff;}.cls-5{fill:#2c316d;}</style><clipPath id="clippath"><rect class="cls-1" width="308" height="263.9" rx="27.3" ry="27.3"/></clipPath></defs><path class="cls-4" d="M179.43,244.52v-60.87h25.36v60.87h-25.36Zm38.04,0v-91.31h25.36v91.31h-25.36Zm38.04,0v-50.73h25.36v50.73h-25.36Z"/><g class="cls-2"><g><circle class="cls-3" cx="150.49" cy="87.16" r="29.57"/><g><path class="cls-5" d="M97.76,21.36h0c1.28-1.28,3.35-1.28,4.62,0l9.84,9.84c1.28,1.28,1.28,3.35,0,4.62h0c-1.28,1.28-3.35,1.28-4.62,0l-9.84-9.84c-1.28-1.28-1.28-3.35,0-4.62Z"/><path class="cls-5" d="M112.23,21.36h0c1.28,1.28,1.28,3.35,0,4.62l-9.84,9.84c-1.28,1.28-3.35,1.28-4.62,0h0c-1.28-1.28-1.28-3.35,0-4.62l9.84-9.84c1.28-1.28,3.35-1.28,4.62,0Z"/></g><g><g><g><circle class="cls-5" cx="149.52" cy="22.51" r="2.29"/><path class="cls-5" d="M151.81,34.48c0,1.26-1.03,2.29-2.29,2.29s-2.29-1.03-2.29-2.29,1.03-2.29,2.29-2.29,2.29,1.03,2.29,2.29Z"/><circle class="cls-5" cx="161.17" cy="22.51" r="2.29"/><path class="cls-5" d="M163.46,34.48c0,1.26-1.03,2.29-2.29,2.29s-2.29-1.03-2.29-2.29,1.03-2.29,2.29-2.29,2.29,1.03,2.29,2.29Z"/></g><g><circle class="cls-5" cx="125.92" cy="22.51" r="2.29"/><path class="cls-5" d="M128.21,34.48c0,1.26-1.03,2.29-2.29,2.29s-2.29-1.03-2.29-2.29,1.03-2.29,2.29-2.29,2.29,1.03,2.29,2.29Z"/><circle class="cls-5" cx="137.58" cy="22.51" r="2.29"/><path class="cls-5" d="M139.87,34.48c0,1.26-1.03,2.29-2.29,2.29s-2.29-1.03-2.29-2.29,1.03-2.29,2.29-2.29,2.29,1.03,2.29,2.29Z"/></g></g><g><g><circle class="cls-5" cx="196.65" cy="22.51" r="2.29"/><path class="cls-5" d="M198.94,34.48c0,1.26-1.03,2.29-2.29,2.29s-2.29-1.03-2.29-2.29,1.03-2.29,2.29-2.29,2.29,1.03,2.29,2.29Z"/><path class="cls-5" d="M210.6,22.51c0,1.26-1.03,2.29-2.29,2.29s-2.29-1.03-2.29-2.29,1.03-2.29,2.29-2.29,2.29,1.03,2.29,2.29Z"/><path class="cls-5" d="M210.6,34.48c0,1.26-1.03,2.29-2.29,2.29s-2.29-1.03-2.29-2.29,1.03-2.29,2.29-2.29,2.29,1.03,2.29,2.29Z"/></g><g><circle class="cls-5" cx="173.06" cy="22.51" r="2.29"/><path class="cls-5" d="M175.35,34.48c0,1.26-1.03,2.29-2.29,2.29s-2.29-1.03-2.29-2.29,1.03-2.29,2.29-2.29,2.29,1.03,2.29,2.29Z"/><circle class="cls-5" cx="184.72" cy="22.51" r="2.29"/><path class="cls-5" d="M187.01,34.48c0,1.26-1.03,2.29-2.29,2.29s-2.29-1.03-2.29-2.29,1.03-2.29,2.29-2.29,2.29,1.03,2.29,2.29Z"/></g></g></g><path class="cls-3" d="M23.27,36.46c-28,0-50.78,22.77-50.78,50.77s22.78,50.78,50.78,50.78,50.77-22.78,50.77-50.78S51.27,36.46,23.27,36.46Zm0,91.54c-22.52,0-40.77-18.25-40.77-40.76S.75,46.47,23.27,46.47s40.76,18.25,40.76,40.76-18.25,40.76-40.76,40.76Z"/></g></g></svg>