<?xml version="1.0" encoding="UTF-8"?><svg id="_圖層_1" xmlns="http://www.w3.org/2000/svg" xmlns:xlink="http://www.w3.org/1999/xlink" viewBox="0 0 308 295"><defs><style>.cls-1{fill:none;}.cls-2{fill:#aed7ff;}.cls-3{fill:#057aff;}.cls-4{fill:#2c316d;}.cls-5{clip-path:url(#clippath-1);}.cls-6{clip-path:url(#clippath-3);}.cls-7{clip-path:url(#clippath-2);}</style><clipPath id="clippath-1"><rect class="cls-1" width="308" height="250.25"/></clipPath><clipPath id="clippath-2"><polygon class="cls-1" points="29.05 153.9 32.03 201.68 -3.14 223.91 -3.14 135.32 29.05 153.9"/></clipPath><clipPath id="clippath-3"><polygon class="cls-1" points="-36.4 86.94 -32.99 -4.24 97.33 125.82 55.06 169.86 -36.4 86.94"/></clipPath></defs><path class="cls-3" d="M218.33,193.63c-6.97,0-12.68-2.22-17.12-6.66s-6.66-10.15-6.66-17.12,2.22-12.68,6.66-17.12c4.44-4.44,10.15-6.66,17.12-6.66s12.68,2.22,17.12,6.66c4.44,4.44,6.66,10.15,6.66,17.12s-2.22,12.68-6.66,17.12c-4.44,4.44-10.15,6.66-17.12,6.66Zm-41.21,50.88c-2.64,0-4.89-.92-6.74-2.77-1.85-1.85-2.77-4.1-2.77-6.74v-5.39c0-4.02,1-7.45,3.01-10.3,2.01-2.85,4.6-5.02,7.77-6.5,7.08-3.17,13.87-5.55,20.37-7.13,6.5-1.59,13.02-2.38,19.58-2.38s13.05,.82,19.5,2.46c6.45,1.64,13.21,3.99,20.29,7.05,3.28,1.48,5.92,3.65,7.93,6.5,2.01,2.85,3.01,6.29,3.01,10.3v5.39c0,2.64-.92,4.89-2.77,6.74-1.85,1.85-4.1,2.77-6.74,2.77h-82.43Z"/><circle class="cls-4" cx="73.37" cy="178.01" r="7.69"/><g><g><circle class="cls-4" cx="66.49" cy="213.16" r="2.29"/><circle class="cls-4" cx="66.49" cy="225.12" r="2.29"/><circle class="cls-4" cx="78.15" cy="213.16" r="2.29"/><circle class="cls-4" cx="78.15" cy="225.12" r="2.29"/></g><g><circle class="cls-4" cx="42.9" cy="213.16" r="2.29"/><circle class="cls-4" cx="42.9" cy="225.12" r="2.29"/><circle class="cls-4" cx="54.56" cy="213.16" r="2.29"/><circle class="cls-4" cx="54.56" cy="225.12" r="2.29"/></g></g><g class="cls-5"><g><g class="cls-7"><path class="cls-2" d="M.16,220.34l19.03-19.03c13.2-13.2,13.19-34.59,0-47.78l-10.9-10.9c-2.3-2.3-2.3-6.03,0-8.33l.11-.11c2.39-2.39,6.23-2.4,8.61-.02,3.65,3.65,28.91,28.91,34.59,34.6,12.04,12.04,31.55,12.04,43.58,0h0c12.04-12.04,12.04-31.55,0-43.58L-10.4,19.59-7.23-3.66,31.2,34.78c16.78,16.78,43.98,16.78,60.75,0h0c16.78-16.78,16.78-43.98,0-60.75l-58.77-58.77c-2.55-2.55-2.55-6.69,0-9.25h0c2.55-2.55,6.69-2.55,9.25,0L129.47-6.96c9.48,9.48,24.86,9.48,34.34,0h0c9.48-9.48,9.48-24.86,0-34.34l-60.29-60.29c-2.74-2.74-2.74-7.17,0-9.91h0c2.74-2.74,7.17-2.74,9.91,0l1.06,1.06c20.02,20.02,52.49,20.02,72.51,0l44.97-44.97H-28.87"/></g><g class="cls-6"><path class="cls-2" d="M-36.19,183.64l19.03-19.03c13.2-13.2,13.19-34.59,0-47.78l-10.9-10.9c-2.3-2.3-2.3-6.03,0-8.33l.11-.11c2.39-2.39,6.23-2.4,8.61-.02,3.65,3.65,28.91,28.91,34.59,34.6,12.04,12.04,31.55,12.04,43.58,0h0c12.04-12.04,12.04-31.55,0-43.58L-46.76-17.12l3.17-23.25L-5.15-1.93C11.62,14.85,38.82,14.85,55.6-1.93h0c16.78-16.78,16.78-43.98,0-60.75L-3.17-121.45c-2.55-2.55-2.55-6.69,0-9.25h0c2.55-2.55,6.69-2.55,9.25,0L93.11-43.66c9.48,9.48,24.86,9.48,34.34,0h0c9.48-9.48,9.48-24.86,0-34.34l-60.29-60.29c-2.74-2.74-2.74-7.17,0-9.91h0c2.74-2.74,7.17-2.74,9.91,0l1.06,1.06c20.02,20.02,52.49,20.02,72.51,0l44.97-44.97H-65.22"/></g></g></g><path class="cls-2" d="M113.96-51.63c-28,0-50.78,22.77-50.78,50.77s22.78,50.78,50.78,50.78S164.73,27.14,164.73-.86s-22.77-50.77-50.77-50.77Zm0,91.54c-22.52,0-40.77-18.25-40.77-40.76s18.25-40.76,40.77-40.76S154.73-23.37,154.73-.86s-18.25,40.76-40.76,40.76Z"/></svg>