<svg width="100" height="100" viewBox="0 0 100 100" fill="none" xmlns="http://www.w3.org/2000/svg">
<path d="M97.875 35.125C98.5417 37.4583 99.0625 39.875 99.4375 42.375C99.8125 44.875 100 47.4167 100 50C100 57.0833 98.7083 63.6667 96.125 69.75C93.5417 75.8333 90 81.125 85.5 85.625C81 90.125 75.7083 93.6458 69.625 96.1875C63.5417 98.7292 57 100 50 100C42.9167 100 36.3333 98.7292 30.25 96.1875C24.1667 93.6458 18.875 90.125 14.375 85.625C9.875 81.125 6.35417 75.8333 3.8125 69.75C1.27083 63.6667 0 57.0833 0 50C0 43 1.27083 36.4583 3.8125 30.375C6.35417 24.2917 9.875 19 14.375 14.5C18.875 10 24.1667 6.45833 30.25 3.875C36.3333 1.29167 42.9167 0 50 0C55.4167 0 60.5208 0.791666 65.3125 2.375C70.1042 3.95833 74.5833 6.08333 78.75 8.75C79.6667 9.33333 80.1875 10.125 80.3125 11.125C80.4375 12.125 80.1667 13.0417 79.5 13.875C78.8333 14.7083 78 15.2083 77 15.375C76 15.5417 75.0417 15.3333 74.125 14.75C70.625 12.5833 66.8542 10.8333 62.8125 9.5C58.7708 8.16667 54.5 7.5 50 7.5C37.9167 7.5 27.8125 11.5625 19.6875 19.6875C11.5625 27.8125 7.5 37.9167 7.5 50C7.5 62.0833 11.5625 72.1875 19.6875 80.3125C27.8125 88.4375 37.9167 92.5 50 92.5C62.0833 92.5 72.1875 88.4375 80.3125 80.3125C88.4375 72.1875 92.5 62.0833 92.5 50C92.5 47.9167 92.375 45.9167 92.125 44C91.875 42.0833 91.5 40.1667 91 38.25C90.75 37.25 90.8125 36.25 91.1875 35.25C91.5625 34.25 92.2083 33.5417 93.125 33.125C94.0417 32.7083 94.9792 32.6667 95.9375 33C96.8958 33.3333 97.5417 34.0417 97.875 35.125ZM40 70.125L24.75 54.75C24 54 23.625 53.0833 23.625 52C23.625 50.9167 24.0417 49.9583 24.875 49.125C25.625 48.375 26.5417 48 27.625 48C28.7083 48 29.6667 48.375 30.5 49.125L42.625 61.375L91.625 12.375C92.375 11.625 93.2917 11.2292 94.375 11.1875C95.4583 11.1458 96.4167 11.5417 97.25 12.375C98.0833 13.2083 98.5 14.1667 98.5 15.25C98.5 16.3333 98.0833 17.2917 97.25 18.125L45.25 70.125C44.5 70.875 43.6042 71.25 42.5625 71.25C41.5208 71.25 40.6667 70.875 40 70.125Z" fill="#5AC049"/>
</svg>
