<svg xmlns="http://www.w3.org/2000/svg" xmlns:xlink="http://www.w3.org/1999/xlink" viewBox="0 0 30 30"><defs><style>.cls-1{fill:url(#未命名漸層_24);}.cls-2{fill:#ffec9c;}.cls-3{fill:url(#未命名漸層_42);}</style><linearGradient id="未命名漸層_24" x1="0.15" y1="15" x2="29.85" y2="15" gradientUnits="userSpaceOnUse"><stop offset="0" stop-color="#f6d738"/><stop offset="0.4" stop-color="#f6ce38"/><stop offset="0.96" stop-color="#f6cb38"/></linearGradient><linearGradient id="未命名漸層_42" x1="7.91" y1="8.84" x2="23.07" y2="22" gradientUnits="userSpaceOnUse"><stop offset="0" stop-color="#f3dc80"/><stop offset="0.08" stop-color="#f2d876"/><stop offset="0.66" stop-color="#edbd31"/></linearGradient></defs><g id="Object"><circle class="cls-1" cx="15" cy="15" r="14.85"/><circle class="cls-2" cx="15" cy="15" r="12.61"/><circle class="cls-3" cx="15" cy="15" r="10.78"/><path class="cls-2" d="M18.59,19.28a1.9,1.9,0,0,1,.76.61,1.14,1.14,0,0,1,0,1.46,1.6,1.6,0,0,1-.83.51,2.31,2.31,0,0,1-.61.08H15l-2.62,0-.8,0a1,1,0,0,1-.71-.28,1.18,1.18,0,0,1-.38-.66,4.75,4.75,0,0,1-.15-.93c0-.33,0-.65,0-1s0-.59,0-.81c0-.43,0-.93,0-1.49s0-1.14,0-1.72,0-1.16,0-1.73V11.9c0-.77,0-1.38,0-1.85a7.05,7.05,0,0,1,.1-1.11,1.12,1.12,0,0,1,.25-.58,1.28,1.28,0,0,1,.47-.31A1.13,1.13,0,0,1,11.83,8a1.62,1.62,0,0,1,.58.17,1.57,1.57,0,0,1,.46.39.93.93,0,0,1,.18.55q0,2.61,0,5.16c0,1.7,0,3.41,0,5.11.91,0,1.81,0,2.72,0l2.73-.08Z"/></g></svg>