<svg width="24" height="24" viewBox="0 0 24 24" fill="none" xmlns="http://www.w3.org/2000/svg">
<path d="M10.002 5.65C9.50066 5.65 9.07082 5.4715 8.71249 5.1145C8.35416 4.75748 8.17499 4.32832 8.17499 3.827C8.17499 3.32567 8.35349 2.89583 8.71049 2.5375C9.06751 2.17917 9.49667 2 9.99799 2C10.4993 2 10.9292 2.1785 11.2875 2.5355C11.6458 2.89252 11.825 3.32168 11.825 3.823C11.825 4.32433 11.6465 4.75417 11.2895 5.1125C10.9325 5.47083 10.5033 5.65 10.002 5.65ZM16.4965 18.25C17.2655 18.25 17.9167 17.9845 18.45 17.4535C18.9833 16.9225 19.25 16.2725 19.25 15.5035C19.25 14.7345 18.9845 14.0833 18.4535 13.55C17.9225 13.0167 17.2725 12.75 16.5035 12.75C15.7345 12.75 15.0833 13.0155 14.55 13.5465C14.0167 14.0775 13.75 14.7275 13.75 15.4965C13.75 16.2655 14.0155 16.9167 14.5465 17.45C15.0774 17.9833 15.7274 18.25 16.4965 18.25ZM18.925 18.975C18.5583 19.225 18.1723 19.4167 17.7669 19.55C17.3615 19.6833 16.9392 19.75 16.5 19.75C15.3194 19.75 14.316 19.3365 13.4896 18.5096C12.6632 17.6826 12.25 16.6784 12.25 15.497C12.25 14.3157 12.6635 13.3125 13.4904 12.4875C14.3174 11.6625 15.3216 11.25 16.5029 11.25C17.6843 11.25 18.6875 11.6632 19.5125 12.4896C20.3375 13.316 20.75 14.3195 20.75 15.5C20.75 15.9392 20.6833 16.3615 20.55 16.7669C20.4167 17.1723 20.225 17.5583 19.975 17.925L22.125 20.075C22.275 20.225 22.35 20.4 22.35 20.6C22.35 20.8 22.275 20.975 22.125 21.125C21.975 21.275 21.8 21.35 21.6 21.35C21.4 21.35 21.225 21.275 21.075 21.125L18.925 18.975ZM11.175 17.675C11.3417 18.0917 11.55 18.4792 11.8 18.8375C12.05 19.1958 12.3417 19.5167 12.675 19.8V21.25C12.675 21.4625 12.6027 21.6406 12.4581 21.7844C12.3135 21.9281 12.1343 22 11.9206 22C11.7069 22 11.5292 21.9281 11.3875 21.7844C11.2458 21.6406 11.175 21.4625 11.175 21.25V17.675ZM8.82499 15.5V21.25C8.82499 21.4625 8.7527 21.6406 8.60812 21.7844C8.46352 21.9281 8.28435 22 8.07062 22C7.85687 22 7.67916 21.9281 7.53749 21.7844C7.39582 21.6406 7.32499 21.4625 7.32499 21.25V8.675C6.39166 8.59167 5.46666 8.49583 4.54999 8.3875C3.63332 8.27917 2.71666 8.125 1.79999 7.925C1.58332 7.875 1.41666 7.7625 1.29999 7.5875C1.18332 7.4125 1.14999 7.21667 1.19999 7C1.24999 6.78333 1.37499 6.625 1.57499 6.525C1.77499 6.425 1.99166 6.4 2.22499 6.45C3.50832 6.71667 4.79854 6.90417 6.09564 7.0125C7.39274 7.12083 8.69419 7.175 9.99999 7.175C11.3058 7.175 12.6072 7.12083 13.9043 7.0125C15.2014 6.90417 16.4917 6.71667 17.775 6.45C18.0083 6.4 18.2292 6.425 18.4375 6.525C18.6458 6.625 18.775 6.78333 18.825 7C18.875 7.21667 18.8286 7.41691 18.6858 7.60072C18.5431 7.78456 18.3561 7.90098 18.125 7.95C17.225 8.13333 16.3208 8.27917 15.4125 8.3875C14.5042 8.49583 13.5917 8.59167 12.675 8.675V11.2C12.0917 11.7333 11.625 12.3708 11.275 13.1125C10.925 13.8542 10.75 14.65 10.75 15.5H8.82499Z" fill="#057AFF"/>
</svg>
