<svg width="24" height="24" viewBox="0 0 24 24" fill="none" xmlns="http://www.w3.org/2000/svg">
<path d="M11.982 20.1487C9.72546 20.1487 7.80309 19.3545 6.21487 17.7663C4.62664 16.1781 3.83252 14.2557 3.83252 11.9992C3.83252 9.74268 4.62664 7.81932 6.21487 6.2291C7.80309 4.63887 9.72546 3.84375 11.982 3.84375C13.4226 3.84375 14.6871 4.13524 15.7757 4.71823C16.8643 5.30119 17.8063 6.10463 18.6015 7.12855V4.62962C18.6015 4.40339 18.675 4.21586 18.8218 4.06703C18.9687 3.91818 19.1572 3.84375 19.3874 3.84375C19.6137 3.84375 19.8012 3.91818 19.95 4.06703C20.0989 4.21586 20.1733 4.40339 20.1733 4.62962V9.56333C20.1733 9.80789 20.0915 10.011 19.9279 10.1726C19.7643 10.3342 19.5602 10.415 19.3157 10.415H14.376C14.1515 10.415 13.9653 10.3405 13.8176 10.1917C13.67 10.0429 13.5961 9.85533 13.5961 9.6291C13.5961 9.40455 13.6705 9.21843 13.8194 9.07075C13.9682 8.92305 14.1558 8.8492 14.382 8.8492H17.7722C17.1349 7.86515 16.3324 7.06977 15.3646 6.46305C14.3969 5.85635 13.2693 5.553 11.982 5.553C10.1813 5.553 8.65671 6.17718 7.40834 7.42555C6.15998 8.67393 5.53579 10.1985 5.53579 11.9992C5.53579 13.7999 6.15998 15.3245 7.40834 16.5729C8.65671 17.8212 10.1813 18.4454 11.982 18.4454C13.2001 18.4454 14.3389 18.1282 15.3983 17.4938C16.4577 16.8593 17.2561 16.0017 17.7934 14.921C17.8991 14.7171 18.0612 14.5664 18.2795 14.4691C18.4978 14.3718 18.7121 14.3708 18.9223 14.4661C19.1472 14.5574 19.299 14.7088 19.3776 14.9204C19.4563 15.132 19.4479 15.3458 19.3526 15.5617C18.6827 16.9657 17.6856 18.0812 16.3613 18.9082C15.0371 19.7352 13.5773 20.1487 11.982 20.1487Z" fill="#2D2D2D"/>
</svg>
