<svg width="224" height="157" viewBox="0 0 224 157" fill="none" xmlns="http://www.w3.org/2000/svg">
<path d="M1.30993 18.8849C1.35196 19.1439 57.46 18.8849 56.7519 18.8849C56.4285 18.8849 57.2401 17.8347 56.9265 17.4846C55.0995 15.5243 53.1012 15.4682 51.1061 15.0762C49.9453 14.8451 48.7521 14.4811 47.7077 13.2908C46.6633 12.1006 45.9939 10.0072 45.2405 8.08888C44.0843 5.12656 42.5983 2.85133 40.9231 1.47807C39.2478 0.104813 37.4385 -0.321135 35.6661 0.240455C31.6792 1.5917 28.5329 8.1729 24.5363 9.38413C22.137 10.0843 19.8639 8.10289 17.5196 7.38876C15.5795 6.80765 13.9789 7.6268 12.2489 9.48914C10.9846 10.8474 9.81409 11.9956 8.38487 12.2056C7.28547 12.3737 6.18284 12.1006 5.08021 12.0796C3.28126 12.1556 1.55683 13.6492 0.229929 16.2804C0.0423849 16.6095 -0.520247 18.8849 1.30993 18.8849Z" fill="#D8EAFF"/>
<path d="M158.54 72.8727C158.589 73.1591 224.541 72.8727 223.708 72.8727C223.328 72.8727 224.282 71.712 223.914 71.3251C221.766 69.1584 219.417 69.0965 217.072 68.6631C215.708 68.4078 214.305 68.0054 213.077 66.6899C211.85 65.3744 211.063 63.0606 210.177 60.9403C208.818 57.6662 207.072 55.1515 205.103 53.6337C203.133 52.1158 201.007 51.6451 198.923 52.2658C194.237 53.7593 190.539 61.0332 185.841 62.3719C183.021 63.1458 180.349 60.9558 177.593 60.1665C175.313 59.5242 173.431 60.4296 171.398 62.488C169.912 63.9892 168.536 65.2583 166.856 65.4904C165.564 65.6762 164.268 65.3744 162.971 65.3512C160.857 65.4352 158.83 67.0859 157.27 69.9941C157.05 70.3578 156.388 72.8727 158.54 72.8727Z" fill="#D4E7FE"/>
<ellipse cx="103" cy="112.5" rx="103" ry="44.5" fill="#F9F9F9"/>
<path d="M28.9806 130.544C28.5972 130.857 24.128 131 22.5 131C20.872 131 16.4028 130.857 16.0194 130.544C15.636 130.231 21.048 106 22.5 106C23.952 106 29.364 130.231 28.9806 130.544Z" fill="url(#paint0_linear_58_421)"/>
<path d="M16.0167 85.6577C16.3387 85.8982 20.1205 86 21.4969 86C22.8732 86 26.655 85.8982 26.9833 85.6577C27.3116 85.4172 22.709 67 21.4969 67C20.2847 67 15.6884 85.4219 16.0167 85.6577Z" fill="url(#paint1_linear_58_421)"/>
<path d="M186.017 126.514C186.339 126.855 190.121 127 191.497 127C192.873 127 196.655 126.855 196.983 126.514C197.312 126.172 192.709 100 191.497 100C190.285 100 185.688 126.178 186.017 126.514Z" fill="url(#paint2_linear_58_421)"/>
<rect x="21" y="131" width="2" height="7" fill="#D9D9D9"/>
<rect x="20" y="85" width="2" height="7" fill="#D9D9D9"/>
<rect x="190" y="126" width="3" height="8" fill="#D9D9D9"/>
<path d="M32 27L46 32L32.9787 28.6121C32.7152 28.5424 32.505 28.368 32.4235 28.1427L32 27Z" fill="#D8D8D8"/>
<path fill-rule="evenodd" clip-rule="evenodd" d="M66.6101 154.134C50.5049 151.497 36.3244 147.162 25.2327 141.632C25.6067 140.951 26.1727 140.309 26.2809 140.227C27.8775 138.873 29.4453 138.371 30.6907 138.816C30.9619 138.931 31.2244 139.068 31.4867 139.205C31.9455 139.444 32.4039 139.683 32.9085 139.805C33.9373 140.061 35.0369 139.632 36.2557 139.092C37.9244 138.351 39.2303 138.256 40.3988 139.168C40.8523 139.525 41.2661 139.967 41.6795 140.407C42.5506 141.335 43.4196 142.261 44.6529 142.398C46.1919 142.553 47.9446 141.751 49.6987 140.947C51.4108 140.163 53.1243 139.378 54.6414 139.483C55.9966 139.603 57.1168 140.378 57.8963 141.735C58.6759 143.092 59.089 144.986 59.0966 147.238C59.1025 148.297 59.4117 148.964 59.733 149.657C59.8545 149.919 59.9776 150.184 60.0868 150.476C60.4848 151.54 62.1469 152.536 63.5203 151.506C64.5424 150.484 66.5784 149.124 66.6101 154.134Z" fill="#EBEBEB"/>
<path d="M109.27 20.96L159.01 44.23L94.7601 63.01L44.7001 37.67L109.27 20.96Z" fill="#E0CFB5"/>
<path d="M109.27 20.96V91.92L158.72 112.26L159.01 44.23L109.27 20.96Z" fill="#CFB594"/>
<path d="M109.27 20.96L159.01 44.23L94.9001 62.98L44.7001 37.67L109.27 20.96Z" fill="#3F99FF"/>
<path d="M109.27 20.96V91.92L159.01 112.26V44.23L109.27 20.96Z" fill="#057AFF"/>
<path d="M159.01 112.26L94.9 134.93V63.01L159.01 44.23V112.26Z" fill="#9BCAFF"/>
<path d="M44.7001 37.6699V104.31L94.9001 134.93V63.0099L44.7001 37.6699Z" fill="#50A2FF"/>
<path d="M44.7 37.67L109.27 20.96L96.82 16L31.42 32.13L44.7 37.67Z" fill="#9BCAFF"/>
<path d="M159.01 44.2301L109.27 20.9601L124.35 17.8101L174.72 40.9401L159.01 44.2301Z" fill="#9BCAFF"/>
<path d="M94.9001 62.9799V65.0399L87.1801 85.3699L44.7001 62.9299V54.8799L94.9001 62.9799Z" fill="#3692FB"/>
<path d="M94.9 62.98V65.04L103.22 85.52L159.01 67.58V60.71L94.9 62.98Z" fill="#057AFF"/>
<path d="M94.8701 62.96L79.7001 75.9L80.2801 77.54L94.8701 62.96Z" fill="#0468DB"/>
<path d="M94.9 62.9799L44.7 37.6699L30.02 49.3799L79.72 75.9199L94.9 62.9799Z" fill="#9BCAFF"/>
<path d="M30 49.3701L79.7 75.9101L80.28 77.5401L31.06 51.1901C30.69 50.9901 30.42 50.6601 30.29 50.2701L30 49.3701Z" fill="#0468DB"/>
<path d="M159.01 44.23L94.9 62.98L108.81 77.54L174.11 56.68L159.01 44.23Z" fill="#9BCAFF"/>
<path d="M94.9 62.98L108.81 77.54L108.31 78.94L94.9 62.98Z" fill="#0468DB"/>
<path d="M174.11 56.6802L108.81 77.5402L108.31 78.9402L173.62 57.7302L174.11 56.6802Z" fill="#0468DB"/>
<path d="M31.42 32.1299L44.7 37.6799L32.35 33.9099C32.1 33.8299 31.9 33.6399 31.82 33.3899L31.42 32.1299Z" fill="#0862CA"/>
<path d="M174.72 40.9399L159.01 44.2399L173.48 42.4499C174.17 42.3599 174.69 41.7899 174.71 41.0999L174.72 40.9399Z" fill="#0862CA"/>
<defs>
<linearGradient id="paint0_linear_58_421" x1="22.5" y1="106" x2="22.5" y2="131" gradientUnits="userSpaceOnUse">
<stop offset="0.598873" stop-color="#50A2FF"/>
<stop offset="1" stop-color="#CACACA" stop-opacity="0"/>
</linearGradient>
<linearGradient id="paint1_linear_58_421" x1="21.5" y1="67" x2="21.5" y2="86" gradientUnits="userSpaceOnUse">
<stop offset="0.348203" stop-color="#057AFF"/>
<stop offset="1" stop-color="#057AFF" stop-opacity="0"/>
</linearGradient>
<linearGradient id="paint2_linear_58_421" x1="191.5" y1="100" x2="191.5" y2="127" gradientUnits="userSpaceOnUse">
<stop offset="0.397037" stop-color="#057AFF"/>
<stop offset="1" stop-color="#D8D8D8" stop-opacity="0"/>
</linearGradient>
</defs>
</svg>
