<svg width="289" height="157" viewBox="0 0 289 157" fill="none" xmlns="http://www.w3.org/2000/svg">
<path d="M95.6457 26.6064V28.7184H97.6377V36.4224L95.6697 36.5184L95.9817 38.6304C99.4617 38.3664 102.126 38.1024 103.998 37.8144V39.7584H106.446V28.7184H117.006V26.6064H95.6457ZM100.014 36.2544V34.7904H103.998V35.8464C102.846 35.9904 101.526 36.1344 100.014 36.2544ZM100.014 33.0144V31.6944H103.998V33.0144H100.014ZM100.014 29.9184V28.7184H103.998V29.9184H100.014ZM108.078 31.7424C108.486 33.2544 109.23 34.6464 110.334 35.9184C109.302 36.6864 108.054 37.3344 106.614 37.8864L107.886 39.8304C109.47 39.2064 110.862 38.4384 112.014 37.5264C113.07 38.3664 114.342 39.1344 115.83 39.8544L117.102 37.7664C115.758 37.2384 114.606 36.6144 113.622 35.9424C114.63 34.6944 115.35 33.2544 115.734 31.6224V29.6784H107.286V31.7424H108.078ZM111.894 34.4544C111.126 33.6384 110.55 32.7264 110.214 31.7424H113.478C113.142 32.7024 112.614 33.6144 111.894 34.4544ZM114.27 18.2064H98.5017V25.7184H100.926V20.0784H111.822V25.6464H114.27V18.2064ZM101.694 21.1824V22.8384H111.078V21.1824H101.694ZM101.646 23.7984V25.4304H111.126V23.7984H101.646ZM131.838 17.3424L129.03 17.8224C129.27 18.2544 129.486 18.7344 129.702 19.2624H120.318V21.5664H141.702V19.2624H132.438C132.246 18.5664 132.03 17.9184 131.838 17.3424ZM137.79 39.6384C139.734 39.6384 140.718 38.7984 140.718 37.1424V28.5984H121.326V39.7104H123.702V30.7584H138.342V36.6384C138.342 37.2144 137.91 37.5024 137.07 37.5024L135.222 37.4304L135.822 39.6384H137.79ZM124.014 22.5504V27.6384H138.054V22.5504H124.014ZM135.654 25.7664H126.414V24.4224H135.654V25.7664ZM126.102 31.7184V36.9024H135.99V31.7184H126.102ZM133.782 35.0544H128.31V33.5664H133.782V35.0544ZM150.438 17.9424C150.006 18.8064 149.526 19.5984 149.022 20.3424C148.446 19.4544 147.774 18.5664 146.958 17.7024L145.062 19.2144C146.022 20.1264 146.838 21.1824 147.486 22.3344C146.646 23.2464 145.758 23.9424 144.846 24.4704L146.094 26.5104C146.958 25.8384 147.75 25.1664 148.47 24.5184C148.71 25.2384 148.902 26.1024 149.046 27.0624C148.038 28.9104 146.622 30.5184 144.822 31.8624L146.166 33.8544C147.342 32.8944 148.398 31.7184 149.334 30.3744C149.334 30.8064 149.358 31.2864 149.358 31.7904C149.358 34.7424 149.166 36.5184 148.782 37.0944C148.59 37.3344 148.23 37.4784 147.678 37.4784C147.054 37.4784 146.43 37.4064 145.758 37.3104L146.478 39.6144C146.91 39.6384 147.51 39.6624 148.254 39.6624C149.118 39.6624 149.814 39.4464 150.342 39.0144C151.254 38.1984 151.71 35.8464 151.71 31.9104C151.662 30.1104 151.566 28.5024 151.374 27.1104L152.454 28.4064C152.838 28.0224 153.222 27.5904 153.606 27.1344V31.5504H166.038V29.9184H161.214V29.0304H165.078V27.5184H161.214V26.7264H165.006V25.2144H161.214V24.3744H165.606V22.6944H161.07C160.974 22.3584 160.902 22.0464 160.806 21.7344H162.294V20.5824H166.062V18.6144H162.294V17.4624H160.11V21.3024L158.55 21.5424V17.4624H156.342V18.5904H152.646V20.5584H156.342V21.7104H158.55V21.5904C158.694 21.9264 158.862 22.2864 159.006 22.6944H156.222C156.318 22.4544 156.438 22.1904 156.534 21.9504L154.422 21.4704C153.534 23.6064 152.502 25.2864 151.302 26.5344C151.11 25.3344 150.87 24.2784 150.582 23.3904C150.486 23.1024 150.366 22.8384 150.246 22.5744C150.966 21.6624 151.686 20.5104 152.406 19.1424L150.438 17.9424ZM159.006 29.9184H155.622V29.0304H159.006V29.9184ZM159.006 27.5184H155.622V26.7264H159.006V27.5184ZM159.006 25.2144H155.622V24.3744H159.006V25.2144ZM154.158 34.0944C155.022 35.0544 156.054 35.8944 157.254 36.6624C155.79 37.0704 154.086 37.4304 152.142 37.7184L153.006 39.8304C155.67 39.3504 157.95 38.7264 159.822 37.9824C161.526 38.7024 163.47 39.3024 165.678 39.7584L166.998 37.8144C165.294 37.5264 163.734 37.1664 162.342 36.7344C163.614 35.9424 164.574 35.0304 165.198 34.0224V32.2704H153.27V34.0944H154.158ZM159.774 35.7504C158.718 35.2704 157.782 34.7184 156.966 34.0944H162.486C161.814 34.6944 160.902 35.2464 159.774 35.7504ZM172.35 30.3504V39.7584H174.774V27.8064C175.59 26.7984 176.262 25.7184 176.79 24.5664L174.63 23.5584C173.478 25.9104 171.726 27.9744 169.35 29.7504L170.094 32.1264C170.886 31.5504 171.63 30.9744 172.35 30.3504ZM174.558 17.4384C173.406 19.5984 171.63 21.4944 169.23 23.1024L169.998 25.5264C173.142 23.4144 175.35 21.0384 176.646 18.4464L174.558 17.4384ZM177.87 18.2304V26.3664H189.678V18.2304H177.87ZM187.278 24.3984H180.246V23.1744H186.054V21.3264H180.246V20.1984H187.278V24.3984ZM176.934 27.5904V29.7504H185.838V31.0704H176.07V33.2544H185.838V36.6384C185.838 37.1184 185.55 37.3824 184.998 37.3824C184.278 37.3824 183.534 37.3104 182.742 37.2144L183.246 39.5664H185.862C187.494 39.5664 188.31 38.7744 188.31 37.2384V33.2544H191.526V31.0704H188.31V29.7504H190.974V27.5904H176.934ZM179.934 33.4704L178.134 34.7664C179.334 36.0384 180.294 37.1904 180.99 38.2464L182.886 36.9744C182.214 35.9424 181.23 34.7664 179.934 33.4704ZM123.639 53.7424C121.959 53.7424 120.567 54.1984 119.487 55.1584C118.335 56.1184 117.711 57.4624 117.567 59.1904H120.327C120.423 58.1584 120.759 57.3904 121.335 56.8864C121.887 56.3824 122.655 56.1424 123.663 56.1424C124.647 56.1424 125.391 56.3584 125.895 56.7904C126.351 57.2224 126.591 57.8464 126.591 58.6864C126.591 59.5264 126.327 60.1744 125.823 60.6064C125.295 61.0384 124.527 61.2544 123.519 61.2544H122.319V63.3664H123.519C124.623 63.3664 125.463 63.5824 126.039 64.0624C126.615 64.5184 126.927 65.2384 126.927 66.2224C126.927 67.0384 126.639 67.7104 126.087 68.2624C125.463 68.8624 124.599 69.1744 123.519 69.1744C122.535 69.1744 121.743 68.8864 121.143 68.3344C120.471 67.7344 120.135 66.8704 120.087 65.7664H117.231C117.375 67.6864 118.047 69.1744 119.247 70.1824C120.327 71.0944 121.767 71.5504 123.543 71.5504C125.415 71.5504 126.927 71.0224 128.079 69.9904C129.183 68.9824 129.735 67.6864 129.735 66.1024C129.735 65.0944 129.447 64.2544 128.871 63.6064C128.343 62.9824 127.551 62.5264 126.543 62.2144C128.439 61.5904 129.399 60.3424 129.399 58.4704C129.399 56.9824 128.871 55.8304 127.839 54.9904C126.783 54.1504 125.367 53.7424 123.639 53.7424ZM138.582 53.7424C136.566 53.7424 135.006 54.5584 133.902 56.2384C132.846 57.8224 132.318 59.9584 132.318 62.6464C132.318 65.3344 132.846 67.4704 133.902 69.0544C135.006 70.7104 136.566 71.5504 138.582 71.5504C140.574 71.5504 142.134 70.7104 143.262 69.0544C144.318 67.4704 144.846 65.3344 144.846 62.6464C144.846 59.9584 144.318 57.8224 143.262 56.2384C142.134 54.5584 140.574 53.7424 138.582 53.7424ZM138.582 56.1184C139.926 56.1184 140.886 56.8624 141.462 58.3984C141.846 59.4304 142.038 60.8464 142.038 62.6464C142.038 64.4224 141.846 65.8384 141.462 66.8944C140.886 68.4064 139.926 69.1744 138.582 69.1744C137.214 69.1744 136.254 68.4064 135.702 66.8944C135.318 65.8384 135.126 64.4224 135.126 62.6464C135.126 60.8464 135.318 59.4304 135.702 58.3984C136.254 56.8624 137.214 56.1184 138.582 56.1184ZM148.316 62.4304V64.3984H151.94V65.5744H147.788V67.7824H158.228V65.5744H154.124V64.3984H157.7V62.4304H154.124V61.2784H158.06V52.2304H147.98V61.2784H151.94V62.4304H148.316ZM148.148 68.6944C148.052 70.3264 147.764 71.7904 147.332 73.0864L149.372 73.7104C149.732 72.3184 149.948 70.7104 150.044 68.9344L148.148 68.6944ZM152.444 68.8384L150.644 69.0784C150.716 70.1104 150.764 71.5744 150.788 73.4464L152.804 73.1824C152.732 71.3584 152.612 69.8944 152.444 68.8384ZM157.532 68.3824L155.78 68.8864C156.14 70.1344 156.452 71.4304 156.716 72.7504L158.492 72.1024C158.252 70.9504 157.94 69.7264 157.532 68.3824ZM154.964 68.7184L153.188 69.0784C153.428 70.2544 153.644 71.5984 153.812 73.1344L155.804 72.6784C155.564 71.2384 155.276 69.9184 154.964 68.7184ZM156.068 59.4064H153.86V54.1024H156.068V59.4064ZM152.108 59.4064H149.972V55.5424C150.26 56.5504 150.524 57.6304 150.74 58.7344L152.036 58.3984C151.796 57.1024 151.508 55.9504 151.196 54.9664L149.972 55.3504V54.1024H152.108V59.4064ZM154.58 54.7264C154.46 55.9984 154.268 57.1984 153.98 58.3264L155.276 58.7824C155.588 57.6064 155.804 56.3824 155.924 55.0864L154.58 54.7264ZM162.284 51.6304V61.7344H159.068V73.7104H161.42V72.5824H166.268V73.7104H168.62V61.7344H164.732V58.0864H169.556V55.8064H164.732V51.6304H162.284ZM161.42 70.3264V63.9904H166.268V70.3264H161.42Z" fill="white"/>
<path d="M209.41 19.1802C210.526 19.1802 211.084 18.5502 211.084 17.3262V12.8442H209.212V16.8762C209.212 17.3442 209.068 17.5782 208.798 17.5782C208.42 17.5782 208.024 17.5242 207.592 17.4522L208.006 19.1802H209.41ZM201.76 14.6262V19.1262H203.596V12.2682C204.154 11.4042 204.676 10.4502 205.162 9.42415L203.326 9.01015C202.21 11.2962 200.932 13.0602 199.456 14.2842L200.644 15.7242C201.004 15.3822 201.382 15.0222 201.76 14.6262ZM207.394 8.99215C206.512 10.8462 205.486 12.2862 204.298 13.3122L205.45 14.7162C206.224 13.9962 206.944 13.1682 207.61 12.1962H213.766C213.586 12.8082 213.352 13.3662 213.1 13.8522L214.756 14.3202C215.116 13.4382 215.404 12.5562 215.638 11.6562V10.5042H208.636C208.816 10.1442 208.996 9.78415 209.176 9.40615L207.394 8.99215ZM201.418 19.8822C201.094 21.2862 200.572 22.6362 199.816 23.8962L201.4 24.9222C202.192 23.5902 202.804 22.0422 203.236 20.2422L201.418 19.8822ZM210.562 25.4262C211.3 25.4262 211.84 25.2642 212.2 24.9762C212.596 24.6702 212.866 23.6982 213.01 22.0422L211.228 21.4662C211.174 22.5102 211.066 23.1222 210.886 23.3382C210.724 23.5362 210.508 23.6442 210.22 23.6442H206.602C206.206 23.6442 206.008 23.4102 206.008 22.9422V19.7382H204.1V23.3382C204.1 24.7242 204.73 25.4262 206.026 25.4262H210.562ZM213.838 19.2162L212.308 20.1702C213.388 21.7362 214.234 23.1582 214.882 24.4542L216.448 23.3562C215.836 22.1682 214.972 20.8002 213.838 19.2162ZM206.908 14.3562C206.296 15.6162 205.54 16.7142 204.676 17.6322L206.098 18.6402C206.998 17.6322 207.754 16.4622 208.402 15.0942L206.908 14.3562ZM213.388 14.3382L211.84 15.0402C212.65 16.1022 213.388 17.3262 214.072 18.6942L215.674 17.8662C215.008 16.5702 214.252 15.4002 213.388 14.3382ZM208.474 19.2702L207.034 20.1702C207.826 21.1602 208.456 22.0602 208.924 22.8702L210.382 21.8622C209.95 21.1062 209.302 20.2422 208.474 19.2702ZM226.258 11.9442H223.522C223.846 11.1162 224.116 10.1982 224.314 9.22615L222.424 8.97415C222.28 10.0002 222.046 10.9902 221.722 11.9442H219.994V25.0842H221.794V23.6622H224.458V24.5622H226.258V11.9442ZM221.794 21.9342V18.5322H224.458V21.9342H221.794ZM221.794 16.8582V13.7082H224.458V16.8582H221.794ZM229.534 16.3182L228.004 17.2722C229.12 18.7122 230.02 20.0262 230.686 21.2142L232.198 20.1702C231.568 19.0542 230.686 17.7762 229.534 16.3182ZM235.528 11.9442H230.056C230.326 11.0802 230.56 10.1622 230.74 9.19015L228.886 8.95615C228.454 11.4222 227.662 13.5102 226.474 15.2022L227.608 16.6962C228.274 15.8322 228.85 14.8602 229.336 13.7802H233.692C233.656 18.8742 233.602 21.8442 233.494 22.7082C233.386 23.4102 233.008 23.7702 232.36 23.7702C231.766 23.7702 231.064 23.7342 230.272 23.6802L230.722 25.3902C231.658 25.4622 232.306 25.4982 232.666 25.4982C234.214 25.4982 235.078 24.8682 235.258 23.6082C235.438 22.1322 235.528 18.2442 235.528 11.9442ZM251.71 11.3322L251.242 12.8802H246.022V14.5362H255.346V12.8802H253.114L253.78 10.5042V9.67615H246.796V11.3322H251.71ZM251.962 21.1062L251.062 22.4202C252.358 23.2122 253.618 24.2922 254.842 25.6602L255.886 24.0222C254.698 22.8702 253.384 21.8982 251.962 21.1062ZM242.584 8.93815C241.828 11.6922 240.676 14.0862 239.128 16.1022L239.74 18.0822C240.208 17.5422 240.64 16.9662 241.072 16.3722V25.7142H242.818V13.4742C243.412 12.2862 243.898 11.0442 244.276 9.74815L242.584 8.93815ZM243.826 12.3042V22.9242H245.554V12.3042H243.826ZM248.218 17.5422H249.784C249.784 18.1002 249.73 18.6582 249.622 19.1982H245.95V20.8362H249.082C248.326 22.3842 246.976 23.5362 244.996 24.2922L246.166 25.8222C248.578 24.7602 250.198 23.1042 251.008 20.8362H255.652V19.1982H251.422C251.512 18.6762 251.566 18.1182 251.602 17.5422H254.896V15.8862H249.064C249.172 15.6162 249.28 15.3282 249.406 15.0222L247.84 14.6802C247.282 16.0122 246.634 17.0562 245.878 17.7942L247.012 19.1622C247.444 18.6942 247.84 18.1542 248.218 17.5422ZM264.634 19.0182H259.576V25.4082H261.34V24.6342H264.634V19.0182ZM261.34 22.9782V20.6742H262.87V22.9782H261.34ZM259.072 11.1162V12.8082H265.21V11.1162H263.212C263.05 10.4682 262.816 9.74815 262.492 8.97415L260.692 9.46015C260.962 10.0002 261.214 10.5582 261.43 11.1162H259.072ZM259.72 13.8162V15.4362H264.436V13.8162H259.72ZM259.72 16.3182V17.9382H264.454V16.3182H259.72ZM270.484 13.2222C269.458 14.8782 267.928 16.0842 265.876 16.8222L266.614 18.4242C268.918 17.5782 270.664 16.1922 271.852 14.2662L270.484 13.2222ZM272.374 15.5622C270.862 17.7942 268.612 19.3782 265.606 20.3502L266.362 22.0062C269.638 20.9262 272.104 19.1262 273.76 16.6242L272.374 15.5622ZM269.476 9.02815C268.342 10.9902 266.866 12.6102 265.03 13.8702L266.128 15.4542C267.748 14.2662 269.134 12.7182 270.304 10.7922C271.402 12.7002 272.86 14.2482 274.696 15.4362L275.776 13.8522C273.688 12.5562 272.14 10.9542 271.132 9.02815H269.476ZM273.976 18.4422C271.996 21.0522 269.044 22.9422 265.084 24.1122L265.84 25.8042C270.088 24.5262 273.292 22.4382 275.452 19.5402L273.976 18.4422ZM249.91 34.1362V35.7742H246.724V37.4842H249.91V39.0502H245.842V40.7782H255.778V39.0502H251.728V37.4842H254.824V35.7742H251.728V34.1362H249.91ZM246.256 42.4702V44.2162H251.854V47.9782C251.854 48.5902 251.638 48.9142 251.242 48.9142C250.63 48.9142 249.982 48.8602 249.316 48.7882L249.712 50.5522H251.872C253.078 50.5522 253.69 49.8322 253.69 48.4102V44.2162H255.598V42.4702H253.69V41.2642H251.854V42.4702H246.256ZM247.912 44.5762L246.436 45.4942C247.3 46.5202 247.984 47.4562 248.488 48.2842L249.982 47.2402C249.478 46.4842 248.794 45.6022 247.912 44.5762ZM245.23 35.2162H239.776V49.2202H241.576V47.6902H243.466V48.7882H245.23V35.2162ZM241.576 45.9622V42.2362H243.466V45.9622H241.576ZM241.576 40.5442V36.9262H243.466V40.5442H241.576ZM263.824 41.9302V49.2562H270.844V41.9302H263.824ZM269.062 47.7082H265.624V46.3222H269.062V47.7082ZM265.624 44.8282V43.4782H269.062V44.8282H265.624ZM261.736 38.3842H264.796V39.2482H261.736V38.3842ZM264.796 36.9802H261.736V36.1522H264.796V36.9802ZM269.782 38.4202H272.95V39.2482H269.782V38.4202ZM272.95 37.0162H269.782V36.1702H272.95V37.0162ZM266.668 34.4962H259.882V50.6602H261.736V40.9042H266.668V34.4962ZM272.95 40.9042V48.3202C272.95 48.6802 272.788 48.8782 272.482 48.8782C272.014 48.8782 271.51 48.8422 270.97 48.7702L271.474 50.5702C272.014 50.6062 272.572 50.6422 273.148 50.6422C274.246 50.6422 274.804 50.0662 274.804 48.9322V34.4782H267.91V40.9042H272.95Z" fill="white"/>
<path d="M0 5C0 2.23857 2.23858 0 5 0H283.367C286.129 0 288.367 2.23858 288.367 5V157H0V5Z" fill="#B5C4EC"/>
<path opacity="0.2" d="M113.768 115.824C109.09 114.65 105.003 111.693 102.731 107.838C101.608 105.94 100.922 103.817 100.722 101.621C100.521 99.4255 100.812 97.2128 101.573 95.1435C102.777 91.9156 105.102 89.0757 106.098 85.7889C107.228 82.0644 106.555 78.104 105.856 74.2895C105.158 70.4751 104.447 66.5302 105.509 62.7871C106.57 59.044 109.904 55.5244 114.199 55.2575C118.181 55.0123 121.856 57.6598 123.51 60.9218C125.165 64.1838 125.18 67.9176 124.792 71.4745C124.404 75.0313 123.65 78.613 123.886 82.1823C124.367 89.4264 128.883 96.2484 128.352 103.489C128.076 107.26 126.453 109.672 123.672 112.509C121.276 114.955 117.291 116.562 113.762 115.811" fill="#EBEBEB"/>
<path d="M115.192 151.722C115.148 151.722 115.117 135.672 115.117 115.88C115.117 96.0872 115.148 80.0347 115.192 80.0347C115.235 80.0347 115.266 96.081 115.266 115.88C115.266 135.678 115.217 151.722 115.192 151.722Z" fill="#E0E0E0"/>
<path d="M114.96 103.3C114.716 103.124 114.487 102.929 114.274 102.716C113.865 102.344 113.306 101.816 112.722 101.214C112.139 100.612 111.596 100.078 111.205 99.6873C110.98 99.4891 110.772 99.2721 110.584 99.0386C110.827 99.2156 111.056 99.4106 111.27 99.6221C111.68 99.9945 112.238 100.522 112.822 101.124C113.405 101.726 113.948 102.26 114.34 102.651C114.563 102.851 114.77 103.068 114.96 103.3Z" fill="#E0E0E0"/>
<path d="M127.848 148.745H102.928V151.675H127.848V148.745Z" fill="#E0E0E0"/>
<path d="M115.409 88.2841C115.947 88.1593 116.461 87.9498 116.933 87.6634C117.417 87.3581 117.833 86.9554 118.153 86.4809C118.533 85.9287 118.762 85.2867 118.817 84.6186C118.817 84.5938 118.817 84.5721 118.817 84.5535L118.904 84.6248C118.204 84.7425 117.561 85.082 117.07 85.5932C116.675 85.9898 116.331 86.434 116.045 86.9154C115.8 87.3189 115.63 87.6603 115.512 87.8931C115.459 88.0201 115.395 88.1426 115.322 88.2593C115.354 88.1265 115.4 87.9975 115.459 87.8745C115.602 87.5292 115.767 87.1934 115.952 86.8688C116.23 86.3733 116.571 85.9162 116.967 85.5094C117.478 84.9698 118.15 84.6113 118.882 84.4883H118.975V84.5721V84.6373C118.921 85.3315 118.681 85.9983 118.28 86.5678C117.946 87.0549 117.51 87.4628 117.001 87.7627C116.651 87.9763 116.268 88.1324 115.869 88.2252C115.759 88.2529 115.648 88.2726 115.536 88.2841C115.453 88.2873 115.412 88.2904 115.409 88.2841Z" fill="#E0E0E0"/>
<path d="M115.41 88.2843C115.722 87.8406 116.072 87.4252 116.456 87.0428C116.81 86.624 117.197 86.2347 117.614 85.8789C117.305 86.3235 116.956 86.7391 116.571 87.1204C116.218 87.5412 115.83 87.9306 115.41 88.2843Z" fill="#E0E0E0"/>
<path opacity="0.2" d="M186.991 117.506C181.889 116.389 177.426 113.567 174.946 109.892C172.466 106.218 171.994 101.739 173.683 97.7879C174.996 94.7121 177.534 92.0026 178.621 88.874C179.862 85.3171 179.12 81.5492 178.357 77.9147C177.593 74.2802 176.821 70.5216 177.975 66.9492C178.676 64.9536 179.949 63.2089 181.636 61.9331C183.323 60.6574 185.349 59.9072 187.46 59.7765C191.805 59.5406 195.818 62.0671 197.631 65.1739C199.444 68.2807 199.456 71.8438 199.034 75.2424C198.612 78.641 197.792 82.0396 198.044 85.4506C198.568 92.3564 203.5 98.8556 202.92 105.755C202.609 109.349 200.843 111.652 197.811 114.353C195.195 116.683 190.846 118.217 186.991 117.5" fill="#EBEBEB"/>
<path d="M188.531 151.722C188.485 151.722 188.447 136.426 188.447 117.562C188.447 98.6975 188.485 83.4023 188.531 83.4023C188.578 83.4023 188.612 98.6944 188.612 117.562C188.612 136.43 188.575 151.722 188.531 151.722Z" fill="#E0E0E0"/>
<path d="M188.296 105.575C188.032 105.409 187.781 105.224 187.545 105.02C187.098 104.663 186.489 104.16 185.85 103.586C185.211 103.011 184.609 102.502 184.193 102.13C183.954 101.941 183.731 101.733 183.525 101.509C183.79 101.675 184.041 101.861 184.276 102.065C184.723 102.422 185.332 102.925 185.974 103.499C186.617 104.073 187.216 104.582 187.629 104.951C187.867 105.142 188.09 105.35 188.296 105.575Z" fill="#E0E0E0"/>
<path d="M202.361 148.884H175.16V151.675H202.361V148.884Z" fill="#E0E0E0"/>
<path d="M188.786 91.2636C189.363 91.1467 189.922 90.9514 190.446 90.6832C190.963 90.4026 191.417 90.0192 191.781 89.5566C192.189 89.044 192.44 88.4242 192.504 87.7719V87.7099L192.6 87.7781C191.855 87.8813 191.157 88.2056 190.598 88.7093C190.173 89.078 189.797 89.5006 189.481 89.9663C189.214 90.3511 189.025 90.677 188.897 90.8974C188.838 91.0189 188.768 91.1352 188.689 91.245C188.725 91.1177 188.775 90.9948 188.838 90.8788C188.996 90.5468 189.176 90.2263 189.378 89.9197C189.686 89.4393 190.059 89.0037 190.487 88.6255C191.069 88.0976 191.797 87.7579 192.575 87.6509H192.678V87.7316V87.7937C192.612 88.4688 192.347 89.1093 191.917 89.6342C191.537 90.1079 191.061 90.496 190.521 90.7732C190.129 90.9765 189.711 91.1248 189.279 91.214C189.159 91.2395 189.038 91.2581 188.916 91.2698C188.872 91.2721 188.829 91.27 188.786 91.2636Z" fill="#E0E0E0"/>
<path d="M188.785 91.264C189.128 90.8337 189.509 90.4357 189.924 90.0753C190.313 89.6695 190.737 89.2987 191.191 88.9673C190.847 89.397 190.466 89.7948 190.051 90.156C189.661 90.5598 189.237 90.9304 188.785 91.264Z" fill="#E0E0E0"/>
<path d="M235.528 60.5195C236.259 56.7482 233.794 53.0982 230.023 52.367C226.252 51.6359 222.602 54.1004 221.871 57.8717C221.14 61.643 223.604 65.2929 227.375 66.0241C231.147 66.7553 234.797 64.2908 235.528 60.5195Z" fill="#EBEBEB"/>
<path d="M227.433 74.314C227.359 73.3579 227.334 72.3986 227.359 71.44C227.334 70.4813 227.359 69.522 227.433 68.5659C227.505 69.5221 227.529 70.4814 227.505 71.44C227.529 72.3986 227.505 73.3578 227.433 74.314Z" fill="#E0E0E0"/>
<path d="M223.417 66.9459C223.451 66.9645 222.796 68.1657 221.955 69.6275C221.114 71.0894 220.403 72.2533 220.363 72.2347C220.323 72.216 220.984 71.0149 221.828 69.553C222.672 68.0912 223.383 66.9149 223.417 66.9459Z" fill="#E0E0E0"/>
<path d="M219.299 64.3794C218.788 64.8787 218.244 65.3423 217.669 65.7668C217.127 66.23 216.554 66.6551 215.953 67.0393C216.462 66.5396 217.006 66.076 217.579 65.6519C218.123 65.1895 218.698 64.7643 219.299 64.3794Z" fill="#E0E0E0"/>
<path d="M234.377 71.4807C234.294 71.2522 234.232 71.0163 234.194 70.7761C234.095 70.3354 233.952 69.7333 233.775 69.0691C233.598 68.4049 233.415 67.8276 233.281 67.3837C233.196 67.1549 233.131 66.9192 233.086 66.6792C233.21 66.8906 233.309 67.1155 233.381 67.3496C233.539 67.7717 233.735 68.3645 233.915 69.0318C234.095 69.6991 234.225 70.3106 234.296 70.7544C234.351 70.9927 234.378 71.2363 234.377 71.4807Z" fill="#E0E0E0"/>
<path d="M241.45 66.4682C240.733 65.9393 240.046 65.3704 239.392 64.7642C238.706 64.1955 238.05 63.5905 237.428 62.9517C238.146 63.4809 238.834 64.0498 239.489 64.6556C240.177 65.2218 240.831 65.827 241.45 66.4682Z" fill="#E0E0E0"/>
<path d="M244.156 59.5779C243.874 59.5583 243.593 59.521 243.315 59.4662C242.8 59.3793 242.073 59.2675 241.294 59.1775C240.515 59.0875 239.78 59.0317 239.258 59.0006C238.975 58.997 238.693 58.9721 238.414 58.9261C238.696 58.8878 238.981 58.8774 239.264 58.8951C239.789 58.8951 240.506 58.9416 241.31 59.0317C242.114 59.1217 242.821 59.252 243.337 59.3638C243.616 59.4064 243.891 59.4782 244.156 59.5779Z" fill="#E0E0E0"/>
<path d="M244.165 52.7992C244.165 52.8396 242.666 53.2399 240.797 53.6962C238.929 54.1524 237.402 54.4876 237.383 54.4504C237.364 54.4132 238.882 54.0097 240.751 53.5534C242.619 53.0972 244.155 52.762 244.165 52.7992Z" fill="#E0E0E0"/>
<path d="M236.292 44.9032C236.326 44.9281 235.606 46.0764 234.681 47.4762C233.757 48.876 232.981 49.9871 232.946 49.9592C232.912 49.9313 233.636 48.786 234.56 47.3893C235.485 45.9926 236.258 44.8784 236.292 44.9032Z" fill="#E0E0E0"/>
<path d="M228.479 43.2554C228.503 43.5736 228.503 43.8931 228.479 44.2113C228.479 44.801 228.461 45.6173 228.461 46.5174C228.461 47.4175 228.461 48.2307 228.486 48.8204C228.509 49.1386 228.509 49.4581 228.486 49.7763C228.428 49.4619 228.397 49.1431 228.392 48.8235C228.355 48.2338 228.324 47.4175 228.324 46.5174C228.324 45.6173 228.352 44.7979 228.386 44.2082C228.391 43.8886 228.422 43.5698 228.479 43.2554Z" fill="#E0E0E0"/>
<path d="M222.563 50.6235C221.974 49.8044 221.427 48.956 220.924 48.0816C220.052 46.657 219.372 45.4869 219.41 45.4651C219.447 45.4434 220.176 46.5825 221.048 48.0071C221.921 49.4317 222.597 50.6018 222.563 50.6235Z" fill="#E0E0E0"/>
<path d="M219.027 53.6277C218.777 53.6155 218.528 53.5759 218.286 53.5097C217.832 53.4166 217.212 53.2645 216.535 53.0628C215.858 52.861 215.25 52.6531 214.819 52.4886C214.58 52.4094 214.35 52.3054 214.133 52.1782C214.378 52.2255 214.619 52.2941 214.853 52.3831C215.294 52.5258 215.899 52.7183 216.575 52.9169C217.252 53.1155 217.863 53.2832 218.31 53.4042C218.555 53.4594 218.795 53.5341 219.027 53.6277Z" fill="#E0E0E0"/>
<path d="M217.482 58.982C216.748 59.1255 216.005 59.2209 215.259 59.2676C214.517 59.365 213.77 59.4127 213.021 59.4103C213.755 59.2669 214.498 59.1705 215.244 59.1217C215.986 59.0262 216.733 58.9795 217.482 58.982Z" fill="#E0E0E0"/>
<path d="M91.766 55.0682C91.9025 54.0875 90.5245 53.2836 89.4785 53.206C88.985 53.1656 88.4698 53.2401 88.0011 53.0756C86.9831 52.7218 86.5765 51.4089 85.5833 50.9899C84.8415 50.6796 83.988 50.9558 83.2679 51.3189C82.5479 51.6821 81.8402 52.1352 81.0364 52.188C80.3349 52.2314 79.5776 51.9707 78.9662 52.3121C78.5099 52.5666 78.2709 53.0943 77.8519 53.4015C77.4144 53.6724 76.9076 53.8105 76.3932 53.7988C75.8825 53.7854 75.3739 53.8686 74.8941 54.044C74.4285 54.2551 74.0436 54.7454 74.1399 55.2483L91.766 55.0682Z" fill="#EBEBEB"/>
<path d="M230.653 88.6409C230.786 87.6601 229.411 86.8532 228.365 86.7787C227.869 86.7383 227.353 86.8159 226.885 86.6514C225.867 86.2976 225.463 84.9816 224.47 84.5657C223.728 84.2553 222.875 84.5316 222.155 84.8916C221.435 85.2516 220.724 85.711 219.92 85.7606C219.222 85.8072 218.461 85.5465 217.85 85.8879C217.397 86.1424 217.158 86.6669 216.736 86.9773C216.299 87.2472 215.793 87.3842 215.28 87.3715C214.768 87.3599 214.259 87.443 213.778 87.6167C213.315 87.8308 212.93 88.3212 213.027 88.824L230.653 88.6409Z" fill="#EBEBEB"/>
<path d="M82.936 70.8105C83.1687 69.122 80.7851 67.7316 78.9942 67.5888C78.1376 67.5174 77.253 67.6509 76.4429 67.3684C74.6893 66.7477 73.9879 64.4913 72.2777 63.7712C70.999 63.2312 69.5278 63.7122 68.2863 64.3361C67.0449 64.9599 65.822 65.7452 64.4377 65.8321C63.2335 65.9097 61.9237 65.4627 60.8684 66.0524C60.0832 66.4901 59.6735 67.3964 58.9472 67.9147C58.2209 68.433 57.3178 68.5354 56.4363 68.5944C55.5548 68.6534 54.6485 68.6503 53.8478 69.0165C53.047 69.3827 52.3859 70.2301 52.5535 71.096L82.936 70.8105Z" fill="#F5F5F5"/>
<path d="M164.93 66.0991C165.132 64.631 163.068 63.4205 161.501 63.3057C160.759 63.2467 159.986 63.3585 159.282 63.1133C157.758 62.5825 157.149 60.6117 155.659 59.9847C154.548 59.516 153.267 59.9319 152.19 60.4751C151.113 61.0182 150.045 61.7166 148.837 61.7787C147.792 61.8469 146.665 61.4683 145.734 61.968C145.048 62.3497 144.691 63.1381 144.061 63.6037C143.431 64.0692 142.642 64.153 141.888 64.1965C141.134 64.2399 140.336 64.243 139.638 64.5627C138.94 64.8824 138.366 65.618 138.508 66.3691L164.93 66.0991Z" fill="#F5F5F5"/>
<path d="M56.6799 152.342H51.748L52.3936 149.946H56.6799V152.342Z" fill="#E0E0E0"/>
<path d="M56.6815 152.342C56.6769 152.282 56.6769 152.222 56.6815 152.162V151.678L56.6505 149.946L56.7095 150.008L52.4232 150.026L52.5008 149.967L52.4077 150.321C52.2122 151.035 52.0259 151.724 51.8521 152.36L51.7497 152.267C53.165 152.267 54.3879 152.289 55.2631 152.305L56.2967 152.326C56.4252 152.325 56.5537 152.331 56.6815 152.345C56.5653 152.36 56.448 152.366 56.3308 152.364L55.3159 152.385C54.4437 152.401 53.1992 152.416 51.7497 152.423H51.6504L51.6752 152.323L52.2215 150.281L52.3177 149.927V149.868H52.3798L56.666 149.89H56.7281V149.949C56.7281 150.703 56.7064 151.308 56.694 151.718V152.19C56.6975 152.241 56.6933 152.292 56.6815 152.342Z" fill="#263238"/>
<path d="M251.19 152.342H246.258L246.903 149.946H251.19V152.342Z" fill="#E0E0E0"/>
<path d="M251.188 152.342C251.183 152.282 251.183 152.222 251.188 152.162C251.188 152.032 251.188 151.873 251.188 151.678C251.188 151.243 251.169 150.657 251.157 149.946L251.216 150.008L246.93 150.027L247.007 149.968C246.976 150.079 246.945 150.2 246.914 150.321C246.718 151.035 246.532 151.724 246.358 152.361L246.284 152.264C247.699 152.264 248.922 152.286 249.797 152.302L250.831 152.323C250.959 152.322 251.088 152.329 251.216 152.342C251.1 152.357 250.982 152.363 250.865 152.361L249.85 152.382C248.978 152.398 247.733 152.413 246.284 152.42H246.166L246.191 152.32L246.737 150.278C246.771 150.157 246.802 150.036 246.833 149.924V149.865H246.895L251.182 149.887H251.244V149.946C251.244 150.7 251.222 151.305 251.21 151.715C251.21 151.904 251.21 152.06 251.21 152.187C251.208 152.239 251.201 152.291 251.188 152.342Z" fill="#263238"/>
<path d="M121.397 149.946H118.467H117.111H114.181L113.535 152.342H117.111H118.467H122.042L121.397 149.946Z" fill="#E0E0E0"/>
<path d="M121.397 149.946C121.418 149.995 121.436 150.046 121.45 150.098L121.586 150.56C121.71 150.989 121.881 151.585 122.092 152.326L122.111 152.392H122.043C120.18 152.392 117.347 152.42 114.184 152.42H113.43L113.458 152.317C113.684 151.482 113.905 150.675 114.106 149.924L114.122 149.865H114.181L119.37 149.896L120.872 149.921H121.267C121.31 149.917 121.354 149.917 121.397 149.921H121.251H120.845L119.352 149.946L114.181 149.977L114.255 149.921C114.054 150.672 113.839 151.473 113.613 152.314L113.535 152.215H114.184C117.347 152.215 120.18 152.215 122.043 152.243L121.993 152.308C121.804 151.572 121.655 150.979 121.546 150.551C121.499 150.356 121.459 150.197 121.431 150.073C121.417 150.031 121.406 149.989 121.397 149.946Z" fill="#263238"/>
<path d="M188.777 149.946H185.85H184.49H181.564L180.918 152.342H184.49H185.85H189.422L188.777 149.946Z" fill="#E0E0E0"/>
<path d="M188.777 149.946C188.799 149.995 188.817 150.046 188.829 150.098C188.867 150.216 188.91 150.371 188.969 150.56C189.09 150.989 189.261 151.585 189.472 152.326L189.491 152.392H189.422C187.56 152.392 184.729 152.42 181.564 152.42H180.812L180.837 152.317C181.067 151.482 181.284 150.675 181.489 149.924L181.505 149.865H181.564L186.75 149.896L188.252 149.921H188.646C188.69 149.917 188.733 149.917 188.777 149.921H188.631H188.227L186.731 149.946L181.564 149.977L181.638 149.921L180.989 152.361L180.912 152.261H181.557C184.723 152.261 187.554 152.261 189.416 152.289L189.366 152.354C189.18 151.619 189.028 151.026 188.919 150.598C188.873 150.402 188.836 150.244 188.805 150.12C188.791 150.063 188.782 150.004 188.777 149.946Z" fill="#263238"/>
<path d="M198.514 140.274H190.395V152.342H198.514V140.274Z" fill="#263238"/>
<path d="M243.334 140.274H235.215V152.342H243.334V140.274Z" fill="#263238"/>
<path d="M195.548 118.939C195.548 118.939 192.55 121.255 192.317 122.065C192.073 122.378 191.943 122.764 191.948 123.16C191.899 123.751 191.803 124.336 191.662 124.911C191.662 124.911 190.306 127.515 190.163 128.797C190.02 130.079 190.163 141.96 190.163 141.96H243.33V127.785L241.856 124.191C241.856 124.191 241.486 121.978 241.027 121.332C240.568 120.687 237.166 118.66 237.166 118.66L234.959 112.825C234.196 111.084 232.212 108.855 229.338 108.868H204.071C201.923 108.868 199.524 110.73 198.819 112.102L195.548 118.939Z" fill="#E0E0E0"/>
<g opacity="0.3">
<path opacity="0.3" d="M190.102 133.276H243.331V141.96H190.164L190.102 133.276Z" fill="black"/>
</g>
<path d="M198.25 118.611H235.206C235.206 118.611 234.744 110.144 229.2 110.144C223.657 110.144 204.215 110.305 204.215 110.305C204.215 110.305 201.791 109.842 199.743 113.291C198.971 114.614 198.497 116.089 198.352 117.614L198.25 118.611Z" fill="#455A64"/>
<g opacity="0.3">
<path opacity="0.3" d="M206.729 110.286L213.461 118.61H217.697L210.593 110.286H206.729Z" fill="white"/>
</g>
<g opacity="0.3">
<path opacity="0.3" d="M204.215 110.305L210.593 118.61H211.651L205.295 110.286L204.215 110.305Z" fill="white"/>
</g>
<path d="M235.206 118.61C235.206 118.61 235.259 118.697 235.352 118.874L235.768 119.656C236.131 120.355 236.665 121.376 237.357 122.695V122.713C237.357 124.191 237.357 126.019 237.376 128.136C237.376 129.194 237.376 130.327 237.376 131.525C237.373 132.18 237.115 132.808 236.657 133.275C236.198 133.742 235.575 134.012 234.921 134.027H216.823H203.079H199.976C199.473 134.027 198.989 134.027 198.492 134.008C198.246 133.979 198.004 133.917 197.775 133.822C197.328 133.633 196.946 133.316 196.676 132.912C196.546 132.72 196.441 132.511 196.366 132.292C196.254 131.854 196.214 131.401 196.248 130.951C196.248 130.079 196.248 129.244 196.248 128.443C196.248 126.848 196.248 125.404 196.264 124.135C196.264 123.514 196.264 122.909 196.248 122.366C196.236 122.1 196.29 121.836 196.403 121.596C196.503 121.366 196.605 121.152 196.714 120.957C197.142 120.168 197.533 119.594 197.794 119.203L198.104 118.762L198.216 118.617C198.216 118.617 198.185 118.672 198.12 118.772C198.055 118.871 197.952 119.026 197.828 119.222C197.573 119.616 197.207 120.196 196.776 120.985C196.673 121.183 196.571 121.394 196.465 121.621C196.357 121.853 196.308 122.108 196.323 122.363C196.341 122.909 196.344 123.499 196.351 124.132C196.351 125.404 196.351 126.848 196.351 128.443C196.351 129.244 196.351 130.08 196.351 130.951C196.316 131.389 196.354 131.829 196.465 132.254C196.537 132.464 196.635 132.665 196.757 132.85C196.887 133.037 197.04 133.206 197.213 133.353C197.573 133.651 198.012 133.836 198.477 133.884C198.948 133.909 199.451 133.884 199.948 133.884H203.052H216.795H234.89C235.509 133.872 236.1 133.618 236.535 133.177C236.971 132.736 237.217 132.142 237.22 131.522C237.22 130.324 237.22 129.191 237.22 128.133C237.22 126.016 237.22 124.188 237.22 122.71V122.729L235.669 119.672L235.271 118.88C235.247 118.707 235.206 118.61 235.206 118.61Z" fill="#263238"/>
<g opacity="0.3">
<path opacity="0.3" d="M202.963 130.457L208.618 124.557H225.214L230.99 130.457L224.996 126.286H208.798L202.963 130.457Z" fill="black"/>
</g>
<path d="M242.301 126.286C242.301 126.286 242.301 126.379 242.301 126.562C242.301 126.745 242.301 127.021 242.301 127.372C242.301 128.086 242.301 129.129 242.319 130.457V130.498H242.279L234.088 130.519H231.497H230.991C230.991 130.535 230.876 130.485 230.876 130.473L230.804 130.417C230.631 130.262 230.469 130.107 230.302 129.939L229.308 128.943C227.977 127.58 226.583 126.124 225.134 124.597L225.193 124.622H208.613L208.669 124.597C206.648 126.702 204.749 128.682 203.007 130.495L202.989 130.516H202.958L190.738 130.485H190.701V130.448C190.701 129.293 190.717 128.406 190.72 127.797C190.72 127.501 190.72 127.275 190.72 127.118C190.72 126.966 190.72 126.888 190.72 126.888C190.72 126.888 190.72 126.966 190.72 127.118C190.72 127.27 190.72 127.503 190.72 127.797C190.72 128.418 190.72 129.293 190.738 130.448L190.701 130.411L202.921 130.377L202.871 130.398L208.52 124.501L208.541 124.479H225.202L225.227 124.504C226.67 126.025 228.061 127.484 229.389 128.85L230.379 129.849C230.544 130.01 230.708 130.159 230.873 130.321L230.935 130.37L230.953 130.386C230.953 130.386 230.953 130.386 230.953 130.408V130.392H234.057L242.248 130.417L242.208 130.457C242.208 129.129 242.223 128.086 242.226 127.372C242.226 127.022 242.226 126.752 242.226 126.562C242.291 126.379 242.301 126.286 242.301 126.286Z" fill="#263238"/>
<path d="M224.297 126.286H209.26V129.886H224.297V126.286Z" fill="#455A64"/>
<path d="M189.991 139.902L191.875 137.618L242.264 137.506L243.338 140.706V143.711L238.908 146.371H195.419C195.419 146.371 190.223 144.353 189.984 142.091L189.991 139.902Z" fill="#263238"/>
<g opacity="0.3">
<path opacity="0.3" d="M236.076 141.528H198.251C197.879 141.528 197.511 141.601 197.168 141.743C196.824 141.885 196.512 142.093 196.249 142.355C195.986 142.618 195.778 142.93 195.635 143.273C195.493 143.616 195.42 143.984 195.42 144.356V146.24L197.363 146.379H238.537V143.986C238.537 143.663 238.473 143.344 238.35 143.045C238.226 142.747 238.044 142.476 237.816 142.247C237.587 142.019 237.316 141.838 237.017 141.715C236.719 141.591 236.399 141.528 236.076 141.528Z" fill="black"/>
</g>
<path d="M199.51 144.467C199.511 144.762 199.424 145.049 199.261 145.294C199.098 145.539 198.866 145.73 198.595 145.843C198.323 145.956 198.024 145.986 197.736 145.929C197.447 145.872 197.182 145.731 196.974 145.523C196.765 145.315 196.624 145.05 196.566 144.762C196.508 144.473 196.538 144.174 196.65 143.902C196.762 143.631 196.953 143.398 197.198 143.235C197.442 143.071 197.73 142.984 198.024 142.984C198.417 142.985 198.795 143.141 199.073 143.419C199.352 143.697 199.509 144.074 199.51 144.467Z" fill="#455A64"/>
<path d="M202.684 144.467C202.685 144.762 202.598 145.05 202.435 145.295C202.272 145.54 202.04 145.731 201.768 145.844C201.496 145.956 201.197 145.986 200.908 145.929C200.62 145.872 200.354 145.73 200.146 145.522C199.938 145.314 199.797 145.049 199.739 144.76C199.682 144.471 199.712 144.172 199.825 143.9C199.938 143.628 200.129 143.396 200.374 143.233C200.619 143.07 200.906 142.983 201.201 142.984C201.594 142.985 201.971 143.141 202.249 143.419C202.527 143.697 202.683 144.074 202.684 144.467Z" fill="#455A64"/>
<path d="M203.914 146.24C203.832 145.501 203.805 144.757 203.833 144.014C203.805 143.273 203.832 142.53 203.914 141.792C204.021 143.273 204.021 144.759 203.914 146.24Z" fill="#263238"/>
<path d="M207.951 146.24C207.869 145.501 207.842 144.757 207.87 144.014C207.842 143.273 207.869 142.53 207.951 141.792C208.058 143.273 208.058 144.759 207.951 146.24Z" fill="#263238"/>
<path d="M211.99 146.24C211.908 145.501 211.881 144.757 211.909 144.014C211.881 143.273 211.908 142.53 211.99 141.792C212.097 143.273 212.097 144.759 211.99 146.24Z" fill="#263238"/>
<path d="M216.024 146.24C215.916 144.759 215.916 143.273 216.024 141.792C216.106 142.53 216.133 143.273 216.105 144.014C216.133 144.757 216.106 145.501 216.024 146.24Z" fill="#263238"/>
<path d="M220.063 146.24C219.956 144.759 219.956 143.273 220.063 141.792C220.145 142.53 220.172 143.273 220.144 144.014C220.172 144.757 220.145 145.501 220.063 146.24Z" fill="#263238"/>
<path d="M224.1 146.24C223.993 144.759 223.993 143.273 224.1 141.792C224.182 142.53 224.209 143.273 224.181 144.014C224.209 144.757 224.182 145.501 224.1 146.24Z" fill="#263238"/>
<path d="M228.139 146.24C228.032 144.759 228.032 143.273 228.139 141.792C228.247 143.273 228.247 144.759 228.139 146.24Z" fill="#263238"/>
<path d="M232.176 146.24C232.069 144.759 232.069 143.273 232.176 141.792C232.284 143.273 232.284 144.759 232.176 146.24Z" fill="#263238"/>
<path d="M236.19 146.24C236.082 144.759 236.082 143.273 236.19 141.792C236.272 142.53 236.299 143.273 236.271 144.014C236.299 144.757 236.272 145.501 236.19 146.24Z" fill="#263238"/>
<path d="M191.082 138.568L198.646 138.593V137.603L191.867 137.618L191.082 138.568Z" fill="#FF725E"/>
<path d="M242.599 138.518H235.445V137.506H242.258L242.599 138.518Z" fill="#FF725E"/>
<path d="M236.982 118.651C236.982 118.694 228.198 118.731 217.363 118.731C206.528 118.731 197.744 118.694 197.744 118.651C197.744 118.607 206.528 118.57 217.363 118.57C228.198 118.57 236.982 118.607 236.982 118.651Z" fill="#263238"/>
<path d="M243.33 142.556C243.328 142.593 243.323 142.631 243.314 142.667L243.249 142.978C243.136 143.393 242.946 143.782 242.687 144.126C242.032 145.057 240.564 145.988 238.541 146.417L216.883 146.445L196.951 146.42C195.793 146.428 194.645 146.201 193.577 145.752C192.772 145.411 192.035 144.925 191.404 144.318C191.006 143.939 190.657 143.512 190.365 143.046C190.287 142.926 190.217 142.802 190.154 142.673C190.133 142.63 190.114 142.585 190.098 142.54L190.169 142.667C190.216 142.751 190.287 142.875 190.393 143.03C190.695 143.484 191.049 143.901 191.448 144.272C192.078 144.862 192.808 145.335 193.605 145.669C194.664 146.097 195.799 146.308 196.941 146.289L216.874 146.268L238.531 146.299C240.53 145.883 241.992 144.97 242.65 144.073C242.91 143.737 243.105 143.356 243.227 142.95C243.258 142.816 243.286 142.711 243.305 142.639C243.324 142.568 243.33 142.556 243.33 142.556Z" fill="#455A64"/>
<path d="M191.93 123.368C191.93 123.368 192.752 122.208 197.343 122.208H236.546C236.546 122.208 239.879 122.034 241.763 123.66L241.354 125.584H232.353L229.063 123.465H205.052L201.638 125.584H192.327L191.93 123.368Z" fill="#FF725E"/>
<path d="M237.252 122.781C237.252 122.828 227.739 122.862 216.007 122.862C204.275 122.862 194.762 122.828 194.762 122.781C194.762 122.735 204.272 122.701 216.007 122.701C227.742 122.701 237.252 122.75 237.252 122.781Z" fill="white"/>
<g opacity="0.3">
<path opacity="0.3" d="M198.446 118.126C198.588 116.601 199.061 115.126 199.833 113.803C201.885 110.351 204.306 110.817 204.306 110.817C204.306 110.817 223.747 110.652 229.291 110.652C234.011 110.652 235.048 116.792 235.25 118.613H235.303C235.303 118.613 234.84 110.146 229.297 110.146C223.754 110.146 204.312 110.308 204.312 110.308C204.312 110.308 201.891 109.845 199.839 113.294C199.069 114.617 198.595 116.092 198.452 117.617L198.35 118.613H198.399L198.446 118.126Z" fill="black"/>
</g>
<path d="M211.068 110.746C211.068 110.878 211.121 111.004 211.214 111.098C211.307 111.191 211.433 111.244 211.565 111.245H221.689C221.755 111.245 221.82 111.232 221.881 111.207C221.941 111.182 221.996 111.145 222.043 111.099C222.089 111.053 222.126 110.997 222.151 110.937C222.176 110.876 222.189 110.811 222.189 110.746V110.677C222.189 110.612 222.176 110.546 222.151 110.486C222.125 110.425 222.088 110.37 222.041 110.324C221.995 110.278 221.939 110.241 221.878 110.217C221.817 110.192 221.752 110.18 221.686 110.181L211.562 110.252C211.431 110.253 211.306 110.305 211.214 110.398C211.121 110.49 211.069 110.615 211.068 110.746Z" fill="#FF725E"/>
<path d="M132.518 136.913H124.076V152.342H132.518V136.913Z" fill="#263238"/>
<path d="M179.709 136.913H170.873V152.342H179.709V136.913Z" fill="#263238"/>
<path d="M126.746 112.853H124.459V114.749H126.746V112.853Z" fill="#263238"/>
<path d="M122.389 116.186C122.086 116.186 121.787 116.127 121.508 116.011C121.228 115.895 120.974 115.726 120.76 115.512C120.547 115.298 120.377 115.044 120.261 114.765C120.146 114.485 120.086 114.186 120.086 113.883V111.037C120.086 110.427 120.329 109.841 120.76 109.409C121.192 108.977 121.778 108.734 122.389 108.734C123 108.734 123.585 108.977 124.017 109.409C124.449 109.841 124.692 110.427 124.692 111.037V113.883C124.692 114.186 124.632 114.485 124.517 114.765C124.401 115.044 124.231 115.298 124.017 115.512C123.804 115.726 123.55 115.895 123.27 116.011C122.991 116.127 122.691 116.186 122.389 116.186Z" fill="#263238"/>
<path d="M175.752 114.75H178.039V112.853H175.752V114.75Z" fill="#263238"/>
<path d="M180.108 116.186C180.411 116.186 180.71 116.127 180.99 116.011C181.269 115.895 181.523 115.726 181.737 115.512C181.951 115.298 182.12 115.044 182.236 114.765C182.352 114.485 182.411 114.186 182.411 113.883V111.037C182.411 110.427 182.169 109.841 181.737 109.409C181.305 108.977 180.719 108.734 180.108 108.734C179.498 108.735 178.913 108.978 178.482 109.41C178.051 109.842 177.809 110.427 177.809 111.037V113.883C177.809 114.494 178.051 115.079 178.482 115.511C178.913 115.943 179.498 116.186 180.108 116.186Z" fill="#263238"/>
<path d="M133.998 90.6519C133.428 90.6605 132.868 90.8059 132.365 91.076C131.863 91.346 131.433 91.7328 131.111 92.2038C130.747 92.701 130.457 93.249 130.252 93.8302C129.851 95.1555 127.676 100.348 125.95 113.356C125.329 117.353 124.808 121.962 124.361 126.885L123.83 131.516L179.076 131.745C179.076 131.745 177.491 116.037 177.124 113.353C176.758 110.668 172.484 92.6011 172.484 92.6011C172.484 92.6011 172.608 91.1889 169.691 90.6737C167.146 90.2298 140.953 90.5557 133.998 90.6519Z" fill="#407BFF"/>
<g opacity="0.3">
<path opacity="0.3" d="M136.645 121.801H166.596L178.003 120.901L179.083 131.463L166.047 131.745L123.83 131.516L124.491 125.466L124.957 120.901L136.645 121.801Z" fill="black"/>
</g>
<path d="M131.743 99.4357C131.743 99.4357 129.521 99.5226 128.667 103.706C127.814 107.89 127.131 114.641 127.131 114.641H176.07L173.588 102.512C173.588 102.512 173.259 100.435 170.437 99.4357C167.616 98.4363 132.957 98.2812 131.743 99.4357Z" fill="#455A64"/>
<path d="M146.775 98.6318H156.108V99.2526C156.108 99.6197 155.962 99.9718 155.703 100.231C155.443 100.491 155.091 100.637 154.724 100.637H148.16C147.793 100.637 147.44 100.491 147.181 100.231C146.921 99.9718 146.775 99.6197 146.775 99.2526V98.6318Z" fill="#263238"/>
<path d="M127.131 114.641L127.326 112.853H175.593L176.07 114.641H127.131Z" fill="#263238"/>
<path d="M172.471 113.44H172.161C172.161 112.233 171.681 111.075 170.828 110.222C169.975 109.369 168.817 108.889 167.61 108.889C166.404 108.889 165.246 109.369 164.393 110.222C163.54 111.075 163.06 112.233 163.06 113.44H162.75C162.75 112.15 163.262 110.914 164.174 110.003C165.085 109.091 166.321 108.579 167.61 108.579C168.9 108.579 170.136 109.091 171.047 110.003C171.959 110.914 172.471 112.15 172.471 113.44Z" fill="#263238"/>
<path d="M161.561 113.129C161.561 113.129 162.234 111.888 164.193 111.826C166.008 111.776 170.62 111.826 170.62 111.826C170.62 111.826 172.871 111.925 173.522 112.853V113.44H161.561V113.129Z" fill="#263238"/>
<path d="M130.4 113.176C130.205 113.424 130.493 109.526 130.94 107.816C130.99 107.624 131.102 107.454 131.259 107.334C131.416 107.213 131.608 107.148 131.806 107.148H139.78C139.992 107.148 140.198 107.224 140.36 107.362C140.522 107.501 140.628 107.692 140.661 107.903C140.844 109.079 141.335 111.338 141.443 113.179L130.4 113.176Z" fill="#263238"/>
<path d="M138.356 102.884H133.366C132.803 102.884 132.348 103.34 132.348 103.902V105.612C132.348 106.174 132.803 106.63 133.366 106.63H138.356C138.919 106.63 139.375 106.174 139.375 105.612V103.902C139.375 103.34 138.919 102.884 138.356 102.884Z" fill="#263238"/>
<path d="M144.615 113.176C144.419 113.424 144.711 109.526 145.155 107.816C145.205 107.625 145.318 107.456 145.474 107.335C145.631 107.214 145.823 107.149 146.021 107.148H153.988C154.201 107.148 154.407 107.224 154.57 107.362C154.732 107.5 154.839 107.692 154.872 107.903C155.056 109.079 155.543 111.338 155.655 113.179L144.615 113.176Z" fill="#263238"/>
<path d="M152.571 102.884H147.581C147.018 102.884 146.562 103.34 146.562 103.902V105.612C146.562 106.174 147.018 106.63 147.581 106.63H152.571C153.134 106.63 153.589 106.174 153.589 105.612V103.902C153.589 103.34 153.134 102.884 152.571 102.884Z" fill="#263238"/>
<path d="M159.289 113.176C159.093 113.424 159.382 109.526 159.829 107.816C159.879 107.624 159.991 107.455 160.148 107.334C160.305 107.214 160.497 107.148 160.695 107.148H168.668C168.881 107.148 169.087 107.223 169.249 107.362C169.411 107.5 169.518 107.692 169.55 107.903C169.733 109.079 170.223 111.338 170.332 113.179L159.289 113.176Z" fill="#263238"/>
<path d="M167.243 102.884H162.252C161.69 102.884 161.234 103.34 161.234 103.902V105.612C161.234 106.174 161.69 106.63 162.252 106.63H167.243C167.805 106.63 168.261 106.174 168.261 105.612V103.902C168.261 103.34 167.805 102.884 167.243 102.884Z" fill="#263238"/>
<path d="M176.071 114.641C176.071 114.641 176.071 114.706 176.071 114.83C176.071 114.955 176.071 115.141 176.071 115.392C176.071 115.892 176.04 116.615 176.015 117.546C175.956 119.424 175.876 122.13 175.773 125.47V125.526H175.714L151.642 125.548L127.141 125.526H127.082V125.467C127.082 122.255 127.104 119.654 127.11 117.85C127.11 116.956 127.11 116.258 127.11 115.78C127.11 115.547 127.11 115.367 127.11 115.24C127.11 115.113 127.11 115.057 127.11 115.057C127.11 115.057 127.11 115.119 127.11 115.24C127.11 115.361 127.11 115.551 127.11 115.78C127.11 116.258 127.11 116.956 127.125 117.85C127.125 119.654 127.141 122.255 127.15 125.467L127.094 125.411L151.595 125.386L175.668 125.408L175.609 125.467C175.733 122.127 175.835 119.421 175.919 117.543C175.956 116.612 175.988 115.889 176.009 115.392C176.009 115.15 176.028 114.964 176.034 114.83C176.04 114.697 176.071 114.641 176.071 114.641Z" fill="#263238"/>
<path d="M166.595 121.801C166.536 121.978 166.595 127.776 166.595 127.776C166.595 127.776 176.362 128.306 178.547 125.882L178.001 120.901L166.595 121.801Z" fill="#E0E0E0"/>
<path d="M166.595 121.801C166.663 121.787 166.733 121.778 166.803 121.773L167.424 121.714L169.773 121.506L177.995 120.827H178.069V120.898C178.24 122.45 178.426 124.126 178.622 125.864V125.901L178.597 125.926C178.377 126.155 178.125 126.351 177.849 126.506C176.883 126.993 175.844 127.319 174.773 127.472C173.78 127.634 172.779 127.744 171.775 127.801C170.046 127.903 168.312 127.911 166.582 127.826H166.523V127.77C166.523 125.929 166.523 124.433 166.523 123.4C166.523 122.884 166.523 122.469 166.545 122.208C166.541 122.069 166.554 121.931 166.582 121.795C166.582 122.009 166.582 122.462 166.582 123.4C166.598 124.446 166.613 125.935 166.638 127.767L166.579 127.708C168.305 127.777 170.033 127.759 171.756 127.655C172.755 127.594 173.749 127.481 174.736 127.317C175.788 127.166 176.809 126.847 177.759 126.37C178.021 126.222 178.261 126.037 178.47 125.821L178.448 125.883C178.259 124.129 178.076 122.447 177.908 120.917L177.989 120.982L169.798 121.603L167.433 121.767L166.812 121.804H166.648L166.595 121.801Z" fill="#263238"/>
<path d="M136.461 121.801C136.52 121.978 136.461 127.775 136.461 127.775C136.461 127.775 126.693 128.306 124.502 125.885L125.048 120.904L136.461 121.801Z" fill="#E0E0E0"/>
<path d="M136.462 121.801H136.403H136.238L135.618 121.764L133.253 121.599L125.062 120.979L125.124 120.92C124.956 122.471 124.77 124.144 124.581 125.886L124.559 125.823C124.769 126.04 125.01 126.225 125.273 126.373C126.222 126.85 127.242 127.17 128.293 127.319C129.281 127.484 130.276 127.597 131.276 127.658C132.998 127.762 134.725 127.78 136.45 127.71L136.394 127.769C136.415 125.938 136.434 124.448 136.446 123.403C136.446 122.471 136.446 122.012 136.446 121.798C136.475 121.934 136.487 122.072 136.484 122.211C136.484 122.484 136.502 122.887 136.508 123.403C136.508 124.436 136.508 125.932 136.508 127.773V127.828H136.45C134.72 127.914 132.986 127.906 131.257 127.804C130.252 127.747 129.252 127.637 128.259 127.475C127.189 127.322 126.151 126.996 125.186 126.509C124.908 126.354 124.655 126.159 124.435 125.929L124.41 125.904V125.886C124.606 124.132 124.792 122.447 124.963 120.92V120.848H125.034L133.259 121.528L135.605 121.736L136.226 121.795C136.305 121.791 136.384 121.793 136.462 121.801Z" fill="#263238"/>
<path d="M123.83 131.516C123.83 131.516 123.29 138.735 124.531 143.124C124.73 143.812 125.147 144.417 125.72 144.847C126.293 145.278 126.99 145.509 127.706 145.508H176.336C176.851 145.509 177.354 145.355 177.78 145.064C178.205 144.774 178.533 144.361 178.719 143.881C179.492 141.889 180.321 138.524 179.092 131.466L164.706 131.519L123.83 131.516Z" fill="#263238"/>
<g opacity="0.3">
<path opacity="0.3" d="M125.188 133.881C125.34 133.986 125.808 137.127 128.009 137.59C130.209 138.052 133.906 137.795 133.906 137.795V133.881H125.188Z" fill="black"/>
</g>
<path d="M132.054 135.833C132.054 136.186 131.949 136.531 131.753 136.825C131.556 137.118 131.278 137.347 130.951 137.482C130.625 137.617 130.266 137.652 129.92 137.583C129.573 137.514 129.255 137.344 129.006 137.094C128.757 136.844 128.587 136.526 128.518 136.179C128.45 135.833 128.486 135.474 128.621 135.148C128.757 134.822 128.986 134.543 129.28 134.348C129.574 134.152 129.919 134.048 130.272 134.048C130.506 134.048 130.738 134.095 130.955 134.184C131.171 134.274 131.367 134.405 131.533 134.571C131.698 134.737 131.83 134.934 131.919 135.15C132.008 135.367 132.054 135.599 132.054 135.833Z" fill="white"/>
<g opacity="0.3">
<path opacity="0.3" d="M175.958 133.924C175.803 134.026 175.337 137.17 173.133 137.648C170.93 138.126 167.236 137.853 167.236 137.853V133.924H175.958Z" fill="black"/>
</g>
<path d="M169.088 135.873C169.087 136.226 169.191 136.572 169.387 136.866C169.583 137.16 169.861 137.389 170.187 137.524C170.513 137.66 170.872 137.696 171.219 137.627C171.565 137.559 171.883 137.389 172.133 137.139C172.383 136.89 172.554 136.572 172.623 136.226C172.692 135.879 172.657 135.52 172.522 135.194C172.387 134.868 172.158 134.589 171.864 134.393C171.571 134.197 171.226 134.092 170.873 134.092C170.4 134.092 169.946 134.279 169.612 134.613C169.277 134.947 169.089 135.401 169.088 135.873Z" fill="white"/>
<path d="M138.111 133.881V136.947C138.111 137.743 138.427 138.505 138.989 139.067C139.552 139.63 140.314 139.946 141.11 139.946H161.905C162.7 139.946 163.462 139.63 164.025 139.067C164.587 138.505 164.903 137.743 164.903 136.947V134.048L138.111 133.881Z" fill="#455A64"/>
<g opacity="0.3">
<path opacity="0.3" d="M161.916 138.732H141.121C140.728 138.733 140.338 138.656 139.974 138.505C139.61 138.355 139.28 138.134 139.001 137.856C138.723 137.578 138.502 137.248 138.351 136.884C138.201 136.521 138.123 136.131 138.123 135.737V137.001C138.123 137.394 138.2 137.784 138.35 138.148C138.501 138.512 138.722 138.843 139 139.121C139.279 139.4 139.609 139.621 139.973 139.771C140.337 139.922 140.727 139.999 141.121 139.999H161.916C162.31 139.999 162.7 139.922 163.064 139.771C163.428 139.621 163.759 139.4 164.037 139.121C164.316 138.843 164.537 138.512 164.687 138.148C164.838 137.784 164.915 137.394 164.914 137.001V135.737C164.914 136.131 164.837 136.521 164.686 136.884C164.535 137.248 164.315 137.578 164.036 137.856C163.758 138.134 163.427 138.355 163.063 138.505C162.7 138.656 162.31 138.733 161.916 138.732Z" fill="black"/>
</g>
<path d="M139.751 125.466C139.751 125.466 138.345 126.034 138.113 128.182C137.83 130.805 140.828 131.515 140.828 131.515H163.61C164.384 130.569 164.839 129.402 164.91 128.182C164.966 126.261 163.157 125.466 163.157 125.466H139.751Z" fill="#263238"/>
<path d="M172.315 93.0978C172.315 93.1412 162.982 93.1785 151.476 93.1785C139.971 93.1785 130.635 93.1412 130.635 93.0978C130.635 93.0543 139.965 93.0171 151.476 93.0171C162.988 93.0171 172.315 93.0512 172.315 93.0978Z" fill="#263238"/>
<path d="M179.081 131.472C179.081 131.472 179.317 132.571 179.55 134.576C179.69 135.802 179.756 137.035 179.745 138.269C179.748 139.909 179.51 141.54 179.041 143.111C178.969 143.328 178.898 143.549 178.814 143.766C178.739 143.993 178.634 144.209 178.504 144.409C178.223 144.82 177.831 145.143 177.374 145.34C177.139 145.443 176.89 145.51 176.635 145.538C176.378 145.559 176.12 145.567 175.863 145.56H174.292H167.464H151.858H136.247H129.437H127.863C127.349 145.578 126.836 145.483 126.361 145.284C125.918 145.091 125.522 144.803 125.2 144.442C124.879 144.081 124.64 143.654 124.499 143.192C124.09 141.607 123.843 139.985 123.763 138.35C123.676 136.91 123.67 135.665 123.683 134.65C123.695 133.635 123.732 132.85 123.763 132.316C123.782 132.053 123.794 131.851 123.807 131.696C123.819 131.54 123.828 131.491 123.828 131.491C123.828 131.491 123.828 131.562 123.828 131.699C123.828 131.835 123.813 132.04 123.804 132.304C123.782 132.838 123.754 133.626 123.751 134.638C123.748 135.65 123.766 136.894 123.863 138.331C123.949 139.958 124.201 141.572 124.614 143.148C124.753 143.595 124.987 144.005 125.3 144.353C125.613 144.7 125.997 144.975 126.426 145.16C126.887 145.351 127.384 145.439 127.882 145.417H129.456H136.265H151.877H167.482H174.311H175.881C176.134 145.426 176.387 145.421 176.638 145.402C176.996 145.36 177.34 145.242 177.648 145.055C177.956 144.869 178.22 144.619 178.423 144.322C178.553 144.129 178.657 143.92 178.733 143.701C178.817 143.487 178.892 143.269 178.963 143.055C179.436 141.496 179.679 139.877 179.686 138.248C179.704 137.016 179.648 135.785 179.519 134.56C179.472 134.054 179.413 133.608 179.364 133.223C179.314 132.838 179.267 132.509 179.227 132.245C179.187 131.981 179.159 131.783 179.137 131.643C179.115 131.503 179.081 131.472 179.081 131.472Z" fill="#455A64"/>
<path d="M179.08 131.472C179.08 131.516 167.41 131.553 153.009 131.553C138.608 131.553 126.938 131.516 126.938 131.472C126.938 131.429 138.604 131.392 153.009 131.392C167.413 131.392 179.08 131.416 179.08 131.472Z" fill="#455A64"/>
<path d="M64.1696 121.603H59.722C59.3927 121.603 59.0769 121.472 58.8441 121.239C58.6113 121.006 58.4805 120.69 58.4805 120.361C58.4805 119.861 58.6793 119.381 59.0332 119.027C59.3871 118.673 59.8671 118.474 60.3675 118.474H63.1112C63.2484 118.474 63.3843 118.501 63.511 118.554C63.6378 118.606 63.7529 118.684 63.8497 118.781C63.9466 118.878 64.0234 118.993 64.0756 119.12C64.1278 119.247 64.1545 119.383 64.1541 119.52L64.1696 121.603Z" fill="#F0F0F0"/>
<path d="M104.85 121.603H109.294C109.623 121.603 109.939 121.472 110.172 121.239C110.405 121.006 110.536 120.69 110.536 120.361C110.536 119.861 110.337 119.381 109.983 119.027C109.629 118.673 109.149 118.474 108.649 118.474H105.905C105.627 118.474 105.361 118.584 105.165 118.78C104.969 118.977 104.859 119.243 104.859 119.52L104.85 121.603Z" fill="#F0F0F0"/>
<path d="M67.7374 140.247H58.8359V152.172H67.7374V140.247Z" fill="#263238"/>
<path d="M110.737 140.247H101.836V152.172H110.737V140.247Z" fill="#263238"/>
<path d="M59.7432 124.399L62.3317 122.32L66.4256 111.078C67.0463 109.678 68.2133 107.878 70.9229 107.605L99.1327 107.853C99.9133 107.861 100.673 108.106 101.311 108.556C101.949 109.006 102.434 109.64 102.702 110.374L106.367 120.411L107.373 122.692L109.763 124.365C110.213 124.679 110.581 125.097 110.836 125.583C111.09 126.069 111.224 126.61 111.225 127.158V143.267C111.225 143.267 111.107 146.231 108.028 146.231H61.9469C61.9469 146.231 58.9859 146.349 58.511 142.913C58.1355 140.188 58.3559 130.75 58.4645 126.966C58.4787 126.471 58.6005 125.985 58.8213 125.542C59.0421 125.099 59.3567 124.709 59.7432 124.399Z" fill="#F0F0F0"/>
<g opacity="0.3">
<path opacity="0.3" d="M58.2441 135.914C58.598 136.001 111.225 135.914 111.225 135.914V143.09C111.225 144.837 109.983 146.237 108.227 146.237H62.2449C61.7249 146.251 61.2076 146.158 60.7249 145.964C60.2422 145.771 59.8044 145.48 59.4385 145.11C59.0725 144.74 58.7863 144.3 58.5974 143.815C58.4086 143.33 58.3211 142.812 58.3404 142.292L58.2441 135.914Z" fill="black"/>
</g>
<path d="M60.0668 125.576L70.2781 126.817V132.804C70.2781 132.804 58.9774 132.494 58.3008 130.986L58.4529 126.951C58.4609 126.752 58.51 126.556 58.5971 126.377C58.6842 126.198 58.8074 126.039 58.959 125.91C59.1106 125.781 59.2873 125.685 59.4779 125.627C59.6686 125.569 59.8691 125.552 60.0668 125.576Z" fill="#E0E0E0"/>
<path d="M60.0656 125.576C59.9179 125.573 59.7703 125.585 59.6248 125.61C59.419 125.653 59.2253 125.741 59.0574 125.868C58.8895 125.994 58.7515 126.156 58.6534 126.342C58.5217 126.616 58.464 126.92 58.4858 127.224C58.4858 127.559 58.4641 127.925 58.4516 128.316C58.4237 129.105 58.3958 129.995 58.3616 130.976V130.951C58.6025 131.235 58.9294 131.432 59.2927 131.513C59.6807 131.639 60.0755 131.742 60.4753 131.823C61.3009 131.988 62.1854 132.118 63.1134 132.224C64.9757 132.435 66.9838 132.571 69.0912 132.668L70.2924 132.714L70.2086 132.795C70.2086 130.666 70.2086 128.645 70.2086 126.808L70.2737 126.882L62.9117 125.951L60.8167 125.678L60.2549 125.61C60.19 125.603 60.1257 125.592 60.0625 125.576C60.1276 125.571 60.1929 125.571 60.258 125.576L60.8136 125.628L62.9117 125.861L70.2831 126.724H70.3482V126.817C70.3482 128.655 70.3482 130.675 70.3482 132.804V132.888H70.2644L69.0633 132.841C66.9528 132.745 64.9291 132.606 63.0731 132.385C62.142 132.277 61.2574 132.146 60.4256 131.972C60.0205 131.893 59.6205 131.789 59.2276 131.662C59.0388 131.597 58.8551 131.519 58.6782 131.426C58.4941 131.338 58.3399 131.198 58.2344 131.023V131.007C58.2778 130.026 58.3151 129.145 58.3461 128.347C58.3647 127.956 58.3803 127.59 58.3958 127.255C58.3812 126.94 58.4474 126.627 58.5882 126.345C58.6918 126.145 58.8401 125.972 59.0214 125.839C59.2028 125.705 59.4125 125.615 59.6342 125.576C59.7766 125.548 59.9231 125.548 60.0656 125.576Z" fill="#263238"/>
<path d="M109.459 125.576L99.248 126.817V132.804C99.248 132.804 110.328 132.413 111.005 130.911L111.073 126.963C111.067 126.763 111.02 126.566 110.934 126.385C110.847 126.204 110.724 126.044 110.573 125.913C110.421 125.782 110.243 125.685 110.052 125.627C109.86 125.569 109.658 125.551 109.459 125.576Z" fill="#E0E0E0"/>
<path d="M109.459 125.576C109.605 125.546 109.756 125.546 109.903 125.576C110.116 125.612 110.318 125.696 110.494 125.821C110.671 125.945 110.818 126.107 110.924 126.296C111.076 126.569 111.142 126.881 111.113 127.193C111.113 127.525 111.113 127.888 111.113 128.276C111.113 129.052 111.091 129.936 111.079 130.905C110.975 131.078 110.825 131.218 110.645 131.308C110.47 131.402 110.288 131.482 110.101 131.547C109.712 131.682 109.315 131.793 108.913 131.879C108.087 132.056 107.206 132.19 106.284 132.311C104.44 132.54 102.429 132.699 100.331 132.807L99.2693 132.854H99.1855V132.77C99.1855 130.644 99.1855 128.624 99.1855 126.783V126.718H99.2507L106.607 125.886L108.708 125.653L109.266 125.6C109.331 125.596 109.395 125.596 109.459 125.6C109.397 125.616 109.333 125.628 109.27 125.635L108.714 125.715L106.619 125.988L99.2569 126.92L99.3221 126.845C99.3221 128.686 99.3221 130.706 99.3221 132.832L99.2383 132.751L100.3 132.705C102.395 132.596 104.4 132.444 106.24 132.221C107.171 132.109 108.037 131.972 108.857 131.802C109.253 131.721 109.645 131.617 110.03 131.491C110.387 131.404 110.707 131.205 110.942 130.923V130.948C110.964 129.977 110.983 129.086 111.001 128.319C111.001 127.931 111.02 127.571 111.026 127.236C111.06 126.939 111.003 126.638 110.862 126.373C110.762 126.191 110.625 126.032 110.458 125.908C110.291 125.783 110.1 125.697 109.897 125.653C109.753 125.616 109.607 125.59 109.459 125.576Z" fill="#263238"/>
<path d="M74.1984 126.817C73.4289 126.812 72.6833 127.084 72.0964 127.581C71.5095 128.079 71.12 128.77 70.9984 129.53C70.9246 130.043 70.9028 130.563 70.9333 131.081C71.1133 134.66 71.8271 139.046 73.528 140.116H85.2477V126.817H74.1984Z" fill="#263238"/>
<path d="M94.9594 126.817C95.729 126.812 96.475 127.083 97.0621 127.58C97.6491 128.078 98.0384 128.77 98.1594 129.53C98.2332 130.043 98.2551 130.563 98.2246 131.081C98.0477 134.66 97.3307 139.046 95.6298 140.116H83.9102V126.817H94.9594Z" fill="#263238"/>
<path d="M97.9116 131.531H71.3623C71.173 131.531 70.9914 131.456 70.8575 131.322C70.7237 131.188 70.6484 131.007 70.6484 130.818C70.648 130.724 70.6662 130.63 70.7019 130.543C70.7376 130.456 70.7901 130.377 70.8564 130.311C70.9228 130.244 71.0016 130.191 71.0884 130.155C71.1752 130.119 71.2683 130.101 71.3623 130.101H97.9116C98.0056 130.101 98.0987 130.119 98.1855 130.155C98.2723 130.191 98.3512 130.244 98.4175 130.311C98.4838 130.377 98.5363 130.456 98.572 130.543C98.6077 130.63 98.6259 130.724 98.6255 130.818C98.6255 131.007 98.5503 131.188 98.4164 131.322C98.2825 131.456 98.1009 131.531 97.9116 131.531Z" fill="#455A64"/>
<path d="M96.5237 128.707H72.3146C72.2205 128.707 72.1272 128.689 72.0403 128.653C71.9533 128.617 71.8742 128.564 71.8077 128.497C71.7411 128.431 71.6883 128.352 71.6522 128.265C71.6162 128.178 71.5977 128.085 71.5977 127.99C71.5977 127.896 71.6162 127.803 71.6522 127.716C71.6883 127.629 71.7411 127.55 71.8077 127.483C71.8742 127.417 71.9533 127.364 72.0403 127.328C72.1272 127.292 72.2205 127.273 72.3146 127.273H96.5237C96.7133 127.274 96.8949 127.35 97.0287 127.485C97.1625 127.619 97.2376 127.801 97.2376 127.99C97.2376 128.18 97.1625 128.362 97.0287 128.496C96.8949 128.631 96.7133 128.707 96.5237 128.707Z" fill="#455A64"/>
<path d="M97.9088 133.289H71.6388C71.2429 133.289 70.9219 133.609 70.9219 134.004C70.9219 134.399 71.2429 134.719 71.6388 134.719H97.9088C98.3048 134.719 98.6258 134.399 98.6258 134.004C98.6258 133.609 98.3048 133.289 97.9088 133.289Z" fill="#455A64"/>
<path d="M96.9961 137.904H72.2314C72.0421 137.904 71.8605 137.829 71.7267 137.695C71.5928 137.561 71.5176 137.379 71.5176 137.19C71.5172 137.096 71.5353 137.003 71.571 136.916C71.6067 136.829 71.6592 136.75 71.7256 136.683C71.7919 136.617 71.8707 136.564 71.9575 136.528C72.0444 136.492 72.1374 136.473 72.2314 136.473H96.9961C97.0901 136.473 97.1832 136.492 97.27 136.528C97.3568 136.564 97.4357 136.617 97.502 136.683C97.5683 136.75 97.6208 136.829 97.6565 136.916C97.6922 137.003 97.7104 137.096 97.71 137.19C97.71 137.379 97.6348 137.561 97.5009 137.695C97.367 137.829 97.1854 137.904 96.9961 137.904Z" fill="#455A64"/>
<path d="M64.291 120.591C64.291 120.591 67.2489 110.709 68.6611 109.455H101.052C101.052 109.455 103.845 115.573 104.851 120.591H64.291Z" fill="#455A64"/>
<path d="M72.5566 141.861V142.721C72.5566 143.223 72.7561 143.704 73.1112 144.059C73.4662 144.414 73.9478 144.614 74.4499 144.614H95.1239C95.626 144.614 96.1076 144.414 96.4626 144.059C96.8177 143.704 97.0171 143.223 97.0171 142.721V141.861H72.5566Z" fill="#263238"/>
<path d="M101.162 139.471V143.236C101.162 143.236 108.729 144.304 109.837 139.471H101.162Z" fill="#263238"/>
<path d="M69.4257 139.471V143.236C69.4257 143.236 61.8588 144.304 60.7539 139.471H69.4257Z" fill="#263238"/>
<path d="M107.373 122.692C107.363 122.673 107.353 122.654 107.345 122.633L107.268 122.45C107.202 122.283 107.106 122.044 106.985 121.739C106.737 121.119 106.383 120.188 105.933 119.042C105.036 116.718 103.76 113.425 102.267 109.529L102.336 109.576H91.8544L74.458 109.529L69.1817 109.495L67.7477 109.477H67.3753H67.248H67.3753H67.7477H69.1817L74.458 109.458H91.8544L102.336 109.48H102.385L102.404 109.526L106.014 119.061C106.448 120.219 106.79 121.137 107.029 121.774C107.14 122.084 107.227 122.32 107.292 122.494L107.354 122.68C107.37 122.671 107.376 122.692 107.373 122.692Z" fill="#263238"/>
<path d="M104.851 120.591C104.851 120.635 95.7722 120.678 84.5708 120.684C73.3694 120.691 64.291 120.663 64.291 120.61C64.291 120.557 73.3694 120.523 84.5708 120.517C95.7722 120.511 104.851 120.548 104.851 120.591Z" fill="#263238"/>
<path d="M104.571 120.532C104.599 120.498 105.908 121.435 107.494 122.627C109.08 123.819 110.347 124.815 110.319 124.853C110.291 124.89 108.984 123.949 107.398 122.758C105.812 121.566 104.546 120.569 104.571 120.532Z" fill="#263238"/>
<path d="M64.2884 120.591C64.3164 120.625 63.2176 121.606 61.8334 122.782C60.4491 123.958 59.3038 124.886 59.2759 124.852C59.248 124.818 60.3467 123.837 61.7279 122.661C62.5456 121.928 63.4002 121.237 64.2884 120.591Z" fill="#263238"/>
<path d="M64.6645 115.914C64.7048 115.914 64.2175 117.376 63.572 119.145C62.9264 120.914 62.3708 122.335 62.3305 122.32C62.2901 122.304 62.7774 120.858 63.4199 119.089C64.0623 117.32 64.621 115.898 64.6645 115.914Z" fill="#263238"/>
<path d="M100.382 126.671C100.356 126.674 100.33 126.674 100.304 126.671L100.077 126.686L99.2022 126.736C98.4387 126.776 97.3399 126.823 95.9774 126.86C93.2523 126.944 89.4875 126.987 85.3316 126.975C81.1757 126.963 77.4078 126.91 74.6858 126.879L71.4579 126.832L70.5827 126.814H70.353H70.2754H70.353H70.5827H71.4579H74.6858L85.3316 126.863C89.4875 126.863 93.2492 126.863 95.9743 126.798L99.1991 126.724L100.074 126.705H100.385L100.382 126.671Z" fill="#263238"/>
<path d="M80.002 109.455H88.6924V109.949C88.6924 110.316 88.5466 110.668 88.287 110.927C88.0274 111.187 87.6753 111.333 87.3081 111.333H81.3862C81.0191 111.333 80.667 111.187 80.4074 110.927C80.1478 110.668 80.002 110.316 80.002 109.949V109.455Z" fill="#263238"/>
<path d="M101.187 120.417H100.877C100.847 119.316 100.389 118.27 99.5997 117.502C98.8105 116.734 97.7527 116.304 96.6513 116.304C95.55 116.304 94.4922 116.734 93.703 117.502C92.9137 118.27 92.4554 119.316 92.4256 120.417H92.1152C92.1462 119.235 92.6377 118.111 93.485 117.285C94.3323 116.46 95.4684 115.998 96.6513 115.998C97.8343 115.998 98.9704 116.46 99.8177 117.285C100.665 118.111 101.157 119.235 101.187 120.417Z" fill="#263238"/>
<path d="M90.7422 120.244C90.7422 120.244 91.3629 119.077 93.1941 119.03C94.8857 118.983 99.1781 119.03 99.1781 119.03C99.1781 119.03 101.273 119.123 101.878 119.986V120.532H90.7422V120.244Z" fill="#263238"/>
<path d="M69.1408 120.706C68.9453 120.91 69.2308 117.701 69.6715 116.292C69.7368 116.122 69.8543 115.977 70.007 115.878C70.1598 115.778 70.34 115.73 70.522 115.74H78.362C78.5562 115.727 78.7488 115.782 78.9071 115.895C79.0655 116.008 79.1799 116.173 79.231 116.36C79.411 117.329 79.8921 119.191 80.0008 120.706H69.1408Z" fill="#263238"/>
<path d="M76.978 112.229H72.102C71.5398 112.229 71.084 112.685 71.084 113.248V114.297C71.084 114.859 71.5398 115.315 72.102 115.315H76.978C77.5402 115.315 77.996 114.859 77.996 114.297V113.248C77.996 112.685 77.5402 112.229 76.978 112.229Z" fill="#263238"/>
<path d="M88.0543 120.591C87.8619 120.796 88.2095 117.425 88.6471 116.016C88.7137 115.847 88.8315 115.703 88.9841 115.605C89.1366 115.506 89.3162 115.458 89.4975 115.467H97.3376C97.5318 115.454 97.7244 115.509 97.8827 115.622C98.0411 115.735 98.1555 115.9 98.2066 116.087C98.3866 117.059 98.8677 119.07 98.9763 120.591H88.0543Z" fill="#263238"/>
<path d="M95.9526 112.229H91.0766C90.5144 112.229 90.0586 112.685 90.0586 113.248V114.297C90.0586 114.859 90.5144 115.315 91.0766 115.315H95.9526C96.5148 115.315 96.9706 114.859 96.9706 114.297V113.248C96.9706 112.685 96.5148 112.229 95.9526 112.229Z" fill="#263238"/>
<path d="M47.9186 117.366H45.2773V152.339H47.9186V117.366Z" fill="#E0E0E0"/>
<path d="M47.9212 152.342C47.9212 152.342 47.9212 152.277 47.9212 152.159C47.9212 152.041 47.9212 151.848 47.9212 151.631C47.9212 151.162 47.9212 150.483 47.9212 149.608C47.9212 147.851 47.9212 145.309 47.8964 142.159C47.8964 135.864 47.8746 127.133 47.8622 117.363L47.9429 117.444H45.2799L45.3606 117.363C45.3606 133.319 45.3389 146.951 45.3078 152.339L45.2799 152.308L47.2415 152.326H47.7474H47.9212H47.7567H47.2601L45.2799 152.342H45.2489V152.314C45.2209 146.926 45.1992 133.294 45.1992 117.338V117.257H47.9926V117.338C47.9926 127.13 47.9677 135.883 47.9584 142.193C47.9584 145.334 47.9398 147.866 47.9336 149.62C47.9336 150.486 47.9336 151.172 47.9336 151.625C47.9336 151.848 47.9336 152.019 47.9336 152.14C47.9336 152.261 47.9212 152.342 47.9212 152.342Z" fill="#263238"/>
<path d="M54.2049 98.6226H39.847C38.1894 98.6226 36.8457 99.9663 36.8457 101.624V115.982C36.8457 117.639 38.1894 118.983 39.847 118.983H54.2049C55.8624 118.983 57.2062 117.639 57.2062 115.982V101.624C57.2062 99.9663 55.8624 98.6226 54.2049 98.6226Z" fill="#455A64"/>
<path d="M54.1801 118.306H39.8688C39.2514 118.305 38.6598 118.058 38.2235 117.622C37.7872 117.185 37.5418 116.593 37.541 115.975V101.676C37.5427 101.06 37.7884 100.468 38.2246 100.032C38.6608 99.596 39.2519 99.3503 39.8688 99.3486H54.1801C54.7972 99.3495 55.3888 99.595 55.8252 100.031C56.2616 100.468 56.5071 101.059 56.5079 101.676V115.988C56.5046 116.603 56.258 117.192 55.8219 117.627C55.3858 118.061 54.7956 118.305 54.1801 118.306ZM39.8688 99.6466C39.334 99.6474 38.8213 99.8602 38.4432 100.238C38.065 100.617 37.8522 101.129 37.8514 101.664V115.975C37.8514 116.511 38.0638 117.024 38.4421 117.403C38.8203 117.782 39.3335 117.995 39.8688 117.996H54.1801C54.7155 117.995 55.2286 117.782 55.6068 117.403C55.9851 117.024 56.1975 116.511 56.1975 115.975V101.676C56.1967 101.142 55.9839 100.629 55.6057 100.251C55.2276 99.8726 54.7149 99.6598 54.1801 99.659L39.8688 99.6466Z" fill="white"/>
<path d="M50.0274 104.054C50.6424 104.316 51.1669 104.753 51.5358 105.311C51.818 105.732 52.0038 106.209 52.0801 106.709C52.1564 107.21 52.1213 107.721 51.9772 108.207C51.8331 108.692 51.5836 109.139 51.2466 109.517C50.9095 109.895 50.4932 110.194 50.0274 110.392C49.2989 110.701 48.5126 110.852 47.7213 110.833H46.0174V113.39H43.252V103.613H47.7213C48.5126 103.594 49.2989 103.745 50.0274 104.054ZM48.8387 108.285C48.9858 108.153 49.1014 107.989 49.1766 107.807C49.2518 107.624 49.2848 107.427 49.2732 107.229C49.2842 107.031 49.2509 106.833 49.1758 106.649C49.1006 106.466 48.9854 106.301 48.8387 106.168C48.4699 105.891 48.0134 105.758 47.5537 105.792H46.0174V108.654H47.5537C48.0124 108.688 48.4683 108.557 48.8387 108.285Z" fill="white"/>
</svg>
