<svg width="289" height="157" viewBox="0 0 289 157" fill="none" xmlns="http://www.w3.org/2000/svg">
<path d="M95.6457 26.6064V28.7184H97.6377V36.4224L95.6697 36.5184L95.9817 38.6304C99.4617 38.3664 102.126 38.1024 103.998 37.8144V39.7584H106.446V28.7184H117.006V26.6064H95.6457ZM100.014 36.2544V34.7904H103.998V35.8464C102.846 35.9904 101.526 36.1344 100.014 36.2544ZM100.014 33.0144V31.6944H103.998V33.0144H100.014ZM100.014 29.9184V28.7184H103.998V29.9184H100.014ZM108.078 31.7424C108.486 33.2544 109.23 34.6464 110.334 35.9184C109.302 36.6864 108.054 37.3344 106.614 37.8864L107.886 39.8304C109.47 39.2064 110.862 38.4384 112.014 37.5264C113.07 38.3664 114.342 39.1344 115.83 39.8544L117.102 37.7664C115.758 37.2384 114.606 36.6144 113.622 35.9424C114.63 34.6944 115.35 33.2544 115.734 31.6224V29.6784H107.286V31.7424H108.078ZM111.894 34.4544C111.126 33.6384 110.55 32.7264 110.214 31.7424H113.478C113.142 32.7024 112.614 33.6144 111.894 34.4544ZM114.27 18.2064H98.5017V25.7184H100.926V20.0784H111.822V25.6464H114.27V18.2064ZM101.694 21.1824V22.8384H111.078V21.1824H101.694ZM101.646 23.7984V25.4304H111.126V23.7984H101.646ZM131.838 17.3424L129.03 17.8224C129.27 18.2544 129.486 18.7344 129.702 19.2624H120.318V21.5664H141.702V19.2624H132.438C132.246 18.5664 132.03 17.9184 131.838 17.3424ZM137.79 39.6384C139.734 39.6384 140.718 38.7984 140.718 37.1424V28.5984H121.326V39.7104H123.702V30.7584H138.342V36.6384C138.342 37.2144 137.91 37.5024 137.07 37.5024L135.222 37.4304L135.822 39.6384H137.79ZM124.014 22.5504V27.6384H138.054V22.5504H124.014ZM135.654 25.7664H126.414V24.4224H135.654V25.7664ZM126.102 31.7184V36.9024H135.99V31.7184H126.102ZM133.782 35.0544H128.31V33.5664H133.782V35.0544ZM150.438 17.9424C150.006 18.8064 149.526 19.5984 149.022 20.3424C148.446 19.4544 147.774 18.5664 146.958 17.7024L145.062 19.2144C146.022 20.1264 146.838 21.1824 147.486 22.3344C146.646 23.2464 145.758 23.9424 144.846 24.4704L146.094 26.5104C146.958 25.8384 147.75 25.1664 148.47 24.5184C148.71 25.2384 148.902 26.1024 149.046 27.0624C148.038 28.9104 146.622 30.5184 144.822 31.8624L146.166 33.8544C147.342 32.8944 148.398 31.7184 149.334 30.3744C149.334 30.8064 149.358 31.2864 149.358 31.7904C149.358 34.7424 149.166 36.5184 148.782 37.0944C148.59 37.3344 148.23 37.4784 147.678 37.4784C147.054 37.4784 146.43 37.4064 145.758 37.3104L146.478 39.6144C146.91 39.6384 147.51 39.6624 148.254 39.6624C149.118 39.6624 149.814 39.4464 150.342 39.0144C151.254 38.1984 151.71 35.8464 151.71 31.9104C151.662 30.1104 151.566 28.5024 151.374 27.1104L152.454 28.4064C152.838 28.0224 153.222 27.5904 153.606 27.1344V31.5504H166.038V29.9184H161.214V29.0304H165.078V27.5184H161.214V26.7264H165.006V25.2144H161.214V24.3744H165.606V22.6944H161.07C160.974 22.3584 160.902 22.0464 160.806 21.7344H162.294V20.5824H166.062V18.6144H162.294V17.4624H160.11V21.3024L158.55 21.5424V17.4624H156.342V18.5904H152.646V20.5584H156.342V21.7104H158.55V21.5904C158.694 21.9264 158.862 22.2864 159.006 22.6944H156.222C156.318 22.4544 156.438 22.1904 156.534 21.9504L154.422 21.4704C153.534 23.6064 152.502 25.2864 151.302 26.5344C151.11 25.3344 150.87 24.2784 150.582 23.3904C150.486 23.1024 150.366 22.8384 150.246 22.5744C150.966 21.6624 151.686 20.5104 152.406 19.1424L150.438 17.9424ZM159.006 29.9184H155.622V29.0304H159.006V29.9184ZM159.006 27.5184H155.622V26.7264H159.006V27.5184ZM159.006 25.2144H155.622V24.3744H159.006V25.2144ZM154.158 34.0944C155.022 35.0544 156.054 35.8944 157.254 36.6624C155.79 37.0704 154.086 37.4304 152.142 37.7184L153.006 39.8304C155.67 39.3504 157.95 38.7264 159.822 37.9824C161.526 38.7024 163.47 39.3024 165.678 39.7584L166.998 37.8144C165.294 37.5264 163.734 37.1664 162.342 36.7344C163.614 35.9424 164.574 35.0304 165.198 34.0224V32.2704H153.27V34.0944H154.158ZM159.774 35.7504C158.718 35.2704 157.782 34.7184 156.966 34.0944H162.486C161.814 34.6944 160.902 35.2464 159.774 35.7504ZM172.35 30.3504V39.7584H174.774V27.8064C175.59 26.7984 176.262 25.7184 176.79 24.5664L174.63 23.5584C173.478 25.9104 171.726 27.9744 169.35 29.7504L170.094 32.1264C170.886 31.5504 171.63 30.9744 172.35 30.3504ZM174.558 17.4384C173.406 19.5984 171.63 21.4944 169.23 23.1024L169.998 25.5264C173.142 23.4144 175.35 21.0384 176.646 18.4464L174.558 17.4384ZM177.87 18.2304V26.3664H189.678V18.2304H177.87ZM187.278 24.3984H180.246V23.1744H186.054V21.3264H180.246V20.1984H187.278V24.3984ZM176.934 27.5904V29.7504H185.838V31.0704H176.07V33.2544H185.838V36.6384C185.838 37.1184 185.55 37.3824 184.998 37.3824C184.278 37.3824 183.534 37.3104 182.742 37.2144L183.246 39.5664H185.862C187.494 39.5664 188.31 38.7744 188.31 37.2384V33.2544H191.526V31.0704H188.31V29.7504H190.974V27.5904H176.934ZM179.934 33.4704L178.134 34.7664C179.334 36.0384 180.294 37.1904 180.99 38.2464L182.886 36.9744C182.214 35.9424 181.23 34.7664 179.934 33.4704ZM123.639 53.7424C121.959 53.7424 120.567 54.1984 119.487 55.1584C118.335 56.1184 117.711 57.4624 117.567 59.1904H120.327C120.423 58.1584 120.759 57.3904 121.335 56.8864C121.887 56.3824 122.655 56.1424 123.663 56.1424C124.647 56.1424 125.391 56.3584 125.895 56.7904C126.351 57.2224 126.591 57.8464 126.591 58.6864C126.591 59.5264 126.327 60.1744 125.823 60.6064C125.295 61.0384 124.527 61.2544 123.519 61.2544H122.319V63.3664H123.519C124.623 63.3664 125.463 63.5824 126.039 64.0624C126.615 64.5184 126.927 65.2384 126.927 66.2224C126.927 67.0384 126.639 67.7104 126.087 68.2624C125.463 68.8624 124.599 69.1744 123.519 69.1744C122.535 69.1744 121.743 68.8864 121.143 68.3344C120.471 67.7344 120.135 66.8704 120.087 65.7664H117.231C117.375 67.6864 118.047 69.1744 119.247 70.1824C120.327 71.0944 121.767 71.5504 123.543 71.5504C125.415 71.5504 126.927 71.0224 128.079 69.9904C129.183 68.9824 129.735 67.6864 129.735 66.1024C129.735 65.0944 129.447 64.2544 128.871 63.6064C128.343 62.9824 127.551 62.5264 126.543 62.2144C128.439 61.5904 129.399 60.3424 129.399 58.4704C129.399 56.9824 128.871 55.8304 127.839 54.9904C126.783 54.1504 125.367 53.7424 123.639 53.7424ZM138.582 53.7424C136.566 53.7424 135.006 54.5584 133.902 56.2384C132.846 57.8224 132.318 59.9584 132.318 62.6464C132.318 65.3344 132.846 67.4704 133.902 69.0544C135.006 70.7104 136.566 71.5504 138.582 71.5504C140.574 71.5504 142.134 70.7104 143.262 69.0544C144.318 67.4704 144.846 65.3344 144.846 62.6464C144.846 59.9584 144.318 57.8224 143.262 56.2384C142.134 54.5584 140.574 53.7424 138.582 53.7424ZM138.582 56.1184C139.926 56.1184 140.886 56.8624 141.462 58.3984C141.846 59.4304 142.038 60.8464 142.038 62.6464C142.038 64.4224 141.846 65.8384 141.462 66.8944C140.886 68.4064 139.926 69.1744 138.582 69.1744C137.214 69.1744 136.254 68.4064 135.702 66.8944C135.318 65.8384 135.126 64.4224 135.126 62.6464C135.126 60.8464 135.318 59.4304 135.702 58.3984C136.254 56.8624 137.214 56.1184 138.582 56.1184ZM148.316 62.4304V64.3984H151.94V65.5744H147.788V67.7824H158.228V65.5744H154.124V64.3984H157.7V62.4304H154.124V61.2784H158.06V52.2304H147.98V61.2784H151.94V62.4304H148.316ZM148.148 68.6944C148.052 70.3264 147.764 71.7904 147.332 73.0864L149.372 73.7104C149.732 72.3184 149.948 70.7104 150.044 68.9344L148.148 68.6944ZM152.444 68.8384L150.644 69.0784C150.716 70.1104 150.764 71.5744 150.788 73.4464L152.804 73.1824C152.732 71.3584 152.612 69.8944 152.444 68.8384ZM157.532 68.3824L155.78 68.8864C156.14 70.1344 156.452 71.4304 156.716 72.7504L158.492 72.1024C158.252 70.9504 157.94 69.7264 157.532 68.3824ZM154.964 68.7184L153.188 69.0784C153.428 70.2544 153.644 71.5984 153.812 73.1344L155.804 72.6784C155.564 71.2384 155.276 69.9184 154.964 68.7184ZM156.068 59.4064H153.86V54.1024H156.068V59.4064ZM152.108 59.4064H149.972V55.5424C150.26 56.5504 150.524 57.6304 150.74 58.7344L152.036 58.3984C151.796 57.1024 151.508 55.9504 151.196 54.9664L149.972 55.3504V54.1024H152.108V59.4064ZM154.58 54.7264C154.46 55.9984 154.268 57.1984 153.98 58.3264L155.276 58.7824C155.588 57.6064 155.804 56.3824 155.924 55.0864L154.58 54.7264ZM162.284 51.6304V61.7344H159.068V73.7104H161.42V72.5824H166.268V73.7104H168.62V61.7344H164.732V58.0864H169.556V55.8064H164.732V51.6304H162.284ZM161.42 70.3264V63.9904H166.268V70.3264H161.42Z" fill="white"/>
<path d="M209.41 19.1802C210.526 19.1802 211.084 18.5502 211.084 17.3262V12.8442H209.212V16.8762C209.212 17.3442 209.068 17.5782 208.798 17.5782C208.42 17.5782 208.024 17.5242 207.592 17.4522L208.006 19.1802H209.41ZM201.76 14.6262V19.1262H203.596V12.2682C204.154 11.4042 204.676 10.4502 205.162 9.42415L203.326 9.01015C202.21 11.2962 200.932 13.0602 199.456 14.2842L200.644 15.7242C201.004 15.3822 201.382 15.0222 201.76 14.6262ZM207.394 8.99215C206.512 10.8462 205.486 12.2862 204.298 13.3122L205.45 14.7162C206.224 13.9962 206.944 13.1682 207.61 12.1962H213.766C213.586 12.8082 213.352 13.3662 213.1 13.8522L214.756 14.3202C215.116 13.4382 215.404 12.5562 215.638 11.6562V10.5042H208.636C208.816 10.1442 208.996 9.78415 209.176 9.40615L207.394 8.99215ZM201.418 19.8822C201.094 21.2862 200.572 22.6362 199.816 23.8962L201.4 24.9222C202.192 23.5902 202.804 22.0422 203.236 20.2422L201.418 19.8822ZM210.562 25.4262C211.3 25.4262 211.84 25.2642 212.2 24.9762C212.596 24.6702 212.866 23.6982 213.01 22.0422L211.228 21.4662C211.174 22.5102 211.066 23.1222 210.886 23.3382C210.724 23.5362 210.508 23.6442 210.22 23.6442H206.602C206.206 23.6442 206.008 23.4102 206.008 22.9422V19.7382H204.1V23.3382C204.1 24.7242 204.73 25.4262 206.026 25.4262H210.562ZM213.838 19.2162L212.308 20.1702C213.388 21.7362 214.234 23.1582 214.882 24.4542L216.448 23.3562C215.836 22.1682 214.972 20.8002 213.838 19.2162ZM206.908 14.3562C206.296 15.6162 205.54 16.7142 204.676 17.6322L206.098 18.6402C206.998 17.6322 207.754 16.4622 208.402 15.0942L206.908 14.3562ZM213.388 14.3382L211.84 15.0402C212.65 16.1022 213.388 17.3262 214.072 18.6942L215.674 17.8662C215.008 16.5702 214.252 15.4002 213.388 14.3382ZM208.474 19.2702L207.034 20.1702C207.826 21.1602 208.456 22.0602 208.924 22.8702L210.382 21.8622C209.95 21.1062 209.302 20.2422 208.474 19.2702ZM226.258 11.9442H223.522C223.846 11.1162 224.116 10.1982 224.314 9.22615L222.424 8.97415C222.28 10.0002 222.046 10.9902 221.722 11.9442H219.994V25.0842H221.794V23.6622H224.458V24.5622H226.258V11.9442ZM221.794 21.9342V18.5322H224.458V21.9342H221.794ZM221.794 16.8582V13.7082H224.458V16.8582H221.794ZM229.534 16.3182L228.004 17.2722C229.12 18.7122 230.02 20.0262 230.686 21.2142L232.198 20.1702C231.568 19.0542 230.686 17.7762 229.534 16.3182ZM235.528 11.9442H230.056C230.326 11.0802 230.56 10.1622 230.74 9.19015L228.886 8.95615C228.454 11.4222 227.662 13.5102 226.474 15.2022L227.608 16.6962C228.274 15.8322 228.85 14.8602 229.336 13.7802H233.692C233.656 18.8742 233.602 21.8442 233.494 22.7082C233.386 23.4102 233.008 23.7702 232.36 23.7702C231.766 23.7702 231.064 23.7342 230.272 23.6802L230.722 25.3902C231.658 25.4622 232.306 25.4982 232.666 25.4982C234.214 25.4982 235.078 24.8682 235.258 23.6082C235.438 22.1322 235.528 18.2442 235.528 11.9442ZM251.71 11.3322L251.242 12.8802H246.022V14.5362H255.346V12.8802H253.114L253.78 10.5042V9.67615H246.796V11.3322H251.71ZM251.962 21.1062L251.062 22.4202C252.358 23.2122 253.618 24.2922 254.842 25.6602L255.886 24.0222C254.698 22.8702 253.384 21.8982 251.962 21.1062ZM242.584 8.93815C241.828 11.6922 240.676 14.0862 239.128 16.1022L239.74 18.0822C240.208 17.5422 240.64 16.9662 241.072 16.3722V25.7142H242.818V13.4742C243.412 12.2862 243.898 11.0442 244.276 9.74815L242.584 8.93815ZM243.826 12.3042V22.9242H245.554V12.3042H243.826ZM248.218 17.5422H249.784C249.784 18.1002 249.73 18.6582 249.622 19.1982H245.95V20.8362H249.082C248.326 22.3842 246.976 23.5362 244.996 24.2922L246.166 25.8222C248.578 24.7602 250.198 23.1042 251.008 20.8362H255.652V19.1982H251.422C251.512 18.6762 251.566 18.1182 251.602 17.5422H254.896V15.8862H249.064C249.172 15.6162 249.28 15.3282 249.406 15.0222L247.84 14.6802C247.282 16.0122 246.634 17.0562 245.878 17.7942L247.012 19.1622C247.444 18.6942 247.84 18.1542 248.218 17.5422ZM264.634 19.0182H259.576V25.4082H261.34V24.6342H264.634V19.0182ZM261.34 22.9782V20.6742H262.87V22.9782H261.34ZM259.072 11.1162V12.8082H265.21V11.1162H263.212C263.05 10.4682 262.816 9.74815 262.492 8.97415L260.692 9.46015C260.962 10.0002 261.214 10.5582 261.43 11.1162H259.072ZM259.72 13.8162V15.4362H264.436V13.8162H259.72ZM259.72 16.3182V17.9382H264.454V16.3182H259.72ZM270.484 13.2222C269.458 14.8782 267.928 16.0842 265.876 16.8222L266.614 18.4242C268.918 17.5782 270.664 16.1922 271.852 14.2662L270.484 13.2222ZM272.374 15.5622C270.862 17.7942 268.612 19.3782 265.606 20.3502L266.362 22.0062C269.638 20.9262 272.104 19.1262 273.76 16.6242L272.374 15.5622ZM269.476 9.02815C268.342 10.9902 266.866 12.6102 265.03 13.8702L266.128 15.4542C267.748 14.2662 269.134 12.7182 270.304 10.7922C271.402 12.7002 272.86 14.2482 274.696 15.4362L275.776 13.8522C273.688 12.5562 272.14 10.9542 271.132 9.02815H269.476ZM273.976 18.4422C271.996 21.0522 269.044 22.9422 265.084 24.1122L265.84 25.8042C270.088 24.5262 273.292 22.4382 275.452 19.5402L273.976 18.4422ZM249.91 34.1362V35.7742H246.724V37.4842H249.91V39.0502H245.842V40.7782H255.778V39.0502H251.728V37.4842H254.824V35.7742H251.728V34.1362H249.91ZM246.256 42.4702V44.2162H251.854V47.9782C251.854 48.5902 251.638 48.9142 251.242 48.9142C250.63 48.9142 249.982 48.8602 249.316 48.7882L249.712 50.5522H251.872C253.078 50.5522 253.69 49.8322 253.69 48.4102V44.2162H255.598V42.4702H253.69V41.2642H251.854V42.4702H246.256ZM247.912 44.5762L246.436 45.4942C247.3 46.5202 247.984 47.4562 248.488 48.2842L249.982 47.2402C249.478 46.4842 248.794 45.6022 247.912 44.5762ZM245.23 35.2162H239.776V49.2202H241.576V47.6902H243.466V48.7882H245.23V35.2162ZM241.576 45.9622V42.2362H243.466V45.9622H241.576ZM241.576 40.5442V36.9262H243.466V40.5442H241.576ZM263.824 41.9302V49.2562H270.844V41.9302H263.824ZM269.062 47.7082H265.624V46.3222H269.062V47.7082ZM265.624 44.8282V43.4782H269.062V44.8282H265.624ZM261.736 38.3842H264.796V39.2482H261.736V38.3842ZM264.796 36.9802H261.736V36.1522H264.796V36.9802ZM269.782 38.4202H272.95V39.2482H269.782V38.4202ZM272.95 37.0162H269.782V36.1702H272.95V37.0162ZM266.668 34.4962H259.882V50.6602H261.736V40.9042H266.668V34.4962ZM272.95 40.9042V48.3202C272.95 48.6802 272.788 48.8782 272.482 48.8782C272.014 48.8782 271.51 48.8422 270.97 48.7702L271.474 50.5702C272.014 50.6062 272.572 50.6422 273.148 50.6422C274.246 50.6422 274.804 50.0662 274.804 48.9322V34.4782H267.91V40.9042H272.95Z" fill="white"/>
<path d="M0 5C0 2.23857 2.23858 0 5 0H283.367C286.129 0 288.367 2.23858 288.367 5V157H0V5Z" fill="#A5D4FF"/>
<ellipse cx="143" cy="84.5" rx="52" ry="52.5" fill="#EFF8FF"/>
<path d="M207.021 59.8345H185.352V81.7604H207.021V59.8345Z" fill="#EBEBEB"/>
<path d="M196.545 63.3535C196.642 63.3527 196.738 63.3714 196.828 63.4086C196.918 63.4457 196.999 63.5005 197.068 63.5699C197.136 63.6392 197.19 63.7217 197.227 63.8124C197.264 63.9032 197.282 64.0005 197.281 64.0985V64.4803C198.231 64.5868 199.143 64.9127 199.948 65.4328C200.102 65.5086 200.231 65.6265 200.322 65.7733C200.413 65.92 200.462 66.0896 200.462 66.2629C200.462 66.3895 200.437 66.5147 200.388 66.6314C200.34 66.7481 200.269 66.8538 200.179 66.9425C200.09 67.0311 199.984 67.1009 199.868 67.1477C199.752 67.1946 199.628 67.2176 199.503 67.2154C199.32 67.2121 199.142 67.1583 198.988 67.0597C198.443 66.7146 197.848 66.4576 197.224 66.2982V69.6184C199.827 70.2783 200.94 71.3345 200.94 73.1897C200.94 75.0967 199.468 76.3626 197.292 76.5701V77.6077C197.293 77.7057 197.274 77.803 197.237 77.8937C197.201 77.9845 197.146 78.067 197.078 78.1363C197.009 78.2056 196.928 78.2605 196.838 78.2976C196.749 78.3348 196.652 78.3535 196.555 78.3526C196.458 78.354 196.36 78.3358 196.269 78.2991C196.178 78.2624 196.095 78.2078 196.025 78.1386C195.955 78.0694 195.899 77.9869 195.861 77.8958C195.822 77.8047 195.802 77.7068 195.801 77.6077V76.5327C194.535 76.3955 193.326 75.9302 192.29 75.1818C192.147 75.0967 192.03 74.9752 191.948 74.8295C191.867 74.6839 191.825 74.5191 191.826 74.3518C191.825 74.226 191.848 74.1011 191.895 73.9845C191.942 73.8679 192.011 73.762 192.099 73.6731C192.187 73.5841 192.291 73.5138 192.407 73.4665C192.522 73.4191 192.645 73.3955 192.77 73.3972C192.974 73.3975 193.172 73.4645 193.336 73.5881C194.08 74.169 194.948 74.5668 195.87 74.7502V71.3428C193.368 70.685 192.204 69.7325 192.204 67.7736C192.204 65.9184 193.66 64.636 195.801 64.4534V64.0902C195.805 63.8933 195.885 63.706 196.025 63.5683C196.164 63.4306 196.351 63.3535 196.545 63.3535ZM195.86 69.2635V66.1965C194.763 66.3002 194.22 66.8896 194.22 67.6491C194.215 68.3795 194.542 68.8298 195.86 69.2635ZM197.214 71.6728V74.827C198.309 74.7066 198.91 74.1526 198.91 73.3204C198.91 72.5568 198.532 72.0899 197.214 71.6728Z" fill="white"/>
<path d="M103.278 35.9453H81.6094V57.8712H103.278V35.9453Z" fill="#EBEBEB"/>
<path d="M98.9953 46.4269H85.8926V44.5469H98.9953V46.4269Z" fill="white"/>
<path d="M86.6211 46.0283L86.6457 46.4267L87.0559 53.0029H97.8289L98.239 46.4267L98.2637 46.0283H86.6211ZM90.6079 51.5503C90.6084 51.5975 90.5997 51.6443 90.5822 51.6881C90.5648 51.7319 90.5389 51.7717 90.5061 51.8053C90.4732 51.8389 90.4342 51.8656 90.3911 51.8838C90.348 51.902 90.3018 51.9113 90.2552 51.9113H90.1998C90.1611 51.9113 90.1228 51.9036 90.0871 51.8886C90.0514 51.8735 90.0189 51.8515 89.9917 51.8237C89.9644 51.7959 89.9429 51.763 89.9283 51.7267C89.9136 51.6905 89.9063 51.6517 89.9065 51.6125V47.5369C89.9071 47.4586 89.9382 47.3837 89.9931 47.3285C90.0481 47.2733 90.1224 47.2423 90.1998 47.2423H90.3126C90.3512 47.2417 90.3895 47.2489 90.4253 47.2635C90.4611 47.2781 90.4937 47.2997 90.5212 47.3271C90.5486 47.3545 90.5705 47.3872 90.5854 47.4232C90.6002 47.4592 90.6079 47.4979 90.6079 47.5369V51.5503ZM92.79 51.5503C92.7905 51.5975 92.7818 51.6443 92.7643 51.6881C92.7468 51.7319 92.7209 51.7717 92.6881 51.8053C92.6553 51.8389 92.6163 51.8656 92.5732 51.8838C92.5301 51.902 92.4839 51.9113 92.4372 51.9113H92.3819C92.3432 51.9113 92.3049 51.9036 92.2692 51.8886C92.2335 51.8735 92.201 51.8515 92.1738 51.8237C92.1465 51.7959 92.125 51.763 92.1103 51.7267C92.0957 51.6905 92.0883 51.6517 92.0886 51.6125V47.5369C92.0891 47.4586 92.1203 47.3837 92.1752 47.3285C92.2302 47.2733 92.3044 47.2423 92.3819 47.2423H92.4947C92.5333 47.2417 92.5716 47.2489 92.6074 47.2635C92.6432 47.2781 92.6758 47.2997 92.7032 47.3271C92.7307 47.3545 92.7525 47.3872 92.7674 47.4232C92.7823 47.4592 92.79 47.4979 92.79 47.5369V51.5503ZM94.9741 51.5503C94.9744 51.5974 94.9655 51.6441 94.9479 51.6878C94.9303 51.7315 94.9044 51.7712 94.8717 51.8047C94.8389 51.8383 94.7999 51.8649 94.757 51.8832C94.7141 51.9015 94.668 51.9111 94.6214 51.9113H94.564C94.486 51.9108 94.4114 51.8791 94.3565 51.8231C94.3015 51.7671 94.2707 51.6914 94.2707 51.6125V47.5369C94.2712 47.4586 94.3024 47.3837 94.3573 47.3285C94.4122 47.2733 94.4865 47.2423 94.564 47.2423H94.6829C94.7216 47.2417 94.76 47.2489 94.7959 47.2635C94.8318 47.278 94.8646 47.2996 94.8922 47.327C94.9198 47.3544 94.9419 47.387 94.957 47.4231C94.9721 47.4591 94.98 47.4978 94.9803 47.5369L94.9741 51.5503Z" fill="white"/>
<path d="M93.836 45.2855C93.8364 45.5647 93.7549 45.8379 93.6018 46.0702C93.4488 46.3026 93.231 46.4838 92.9761 46.5908C92.7212 46.6979 92.4406 46.726 92.1699 46.6716C91.8992 46.6173 91.6505 46.4828 91.4553 46.2854C91.2602 46.0879 91.1273 45.8363 91.0736 45.5623C91.0198 45.2884 91.0476 45.0045 91.1534 44.7466C91.2592 44.4887 91.4383 44.2683 91.6679 44.1134C91.8976 43.9585 92.1675 43.8761 92.4435 43.8765C92.8126 43.877 93.1665 44.0256 93.4275 44.2898C93.6886 44.5539 93.8355 44.912 93.836 45.2855Z" fill="white"/>
<path d="M96.2624 45.161H95.6471V41.4341H89.2383V45.161H88.623V40.8115H96.2624V45.161Z" fill="white"/>
<path d="M77.623 118.492C120.35 118.364 168.27 118.364 211.005 118.492C168.278 118.619 120.358 118.619 77.623 118.492Z" fill="#263238"/>
<path d="M77.623 118.49H112.83L107.694 82.2046H82.7563L77.623 118.49Z" fill="#2E90FA"/>
<path d="M82.7563 82.2046L86.6693 118.49H77.623L82.7563 82.2046Z" fill="#2E90FA"/>
<path opacity="0.2" d="M82.7563 82.2046L86.6693 118.49H77.623L82.7563 82.2046Z" fill="black"/>
<path d="M100.669 84.7136L101.77 84.4791C101.77 84.448 101.126 81.3996 100.443 78.3222C99.707 75.0019 96.4749 73.4663 93.7719 73.9063C91.7498 74.2383 89.5082 75.8341 89.8466 79.2456C90.2076 82.8958 90.4824 84.6161 90.4926 84.6887L91.6062 84.5061C91.6062 84.4895 91.3273 82.7422 90.9705 79.1315C90.71 76.5106 92.3425 75.2945 93.9565 75.031C96.1406 74.672 98.7575 75.9005 99.3502 78.5712C100.027 81.6341 100.663 84.6762 100.669 84.7136Z" fill="#263238"/>
<path d="M86.193 118.215C85.467 117.692 84.7184 117.214 83.9699 116.737C83.2213 116.26 82.4564 115.809 81.6873 115.367L81.5807 115.305L81.4863 115.378C80.8895 115.83 80.2948 116.283 79.7185 116.758C79.1422 117.233 78.5598 117.706 78.002 118.21C78.6418 117.82 79.2632 117.405 79.8785 116.982C80.4937 116.559 81.109 116.123 81.7037 115.681L81.4986 115.693C82.2615 116.146 83.0333 116.583 83.814 117.007C84.6015 117.422 85.3829 117.839 86.193 118.215Z" fill="white"/>
<path d="M81.5957 115.53C81.7516 113.216 81.8644 110.9 81.9731 108.584C82.0817 106.268 82.1556 103.952 82.2499 101.636C82.3135 99.3206 82.3935 97.0027 82.4406 94.6847L82.5042 91.2089C82.5042 90.0489 82.5329 88.891 82.5309 87.731C82.4488 88.8889 82.3914 90.0447 82.3258 91.2027L82.1515 94.6744C82.0448 96.9881 81.969 99.3061 81.8767 101.622C81.7844 103.938 81.7331 106.256 81.6859 108.572C81.6388 110.887 81.5957 113.21 81.5957 115.53Z" fill="white"/>
<path d="M99.7266 84.589C99.7266 84.8881 99.8142 85.1806 99.9785 85.4294C100.143 85.6782 100.376 85.8721 100.649 85.9866C100.923 86.1011 101.223 86.131 101.513 86.0727C101.803 86.0143 102.07 85.8702 102.279 85.6586C102.488 85.4471 102.63 85.1775 102.688 84.8841C102.746 84.5906 102.716 84.2865 102.603 84.01C102.49 83.7336 102.298 83.4974 102.052 83.3311C101.806 83.1649 101.517 83.0762 101.222 83.0762C101.025 83.0759 100.831 83.1148 100.649 83.1908C100.468 83.2667 100.303 83.3781 100.164 83.5186C100.025 83.6592 99.9149 83.8261 99.8398 84.0097C99.7648 84.1934 99.7263 84.3902 99.7266 84.589Z" fill="#263238"/>
<path d="M89.6699 84.589C89.6699 84.8881 89.7576 85.1806 89.9219 85.4294C90.0862 85.6782 90.3197 85.8721 90.5928 85.9866C90.866 86.1011 91.1666 86.131 91.4566 86.0727C91.7467 86.0143 92.0131 85.8702 92.2221 85.6586C92.4312 85.4471 92.5736 85.1775 92.6313 84.8841C92.689 84.5906 92.6594 84.2865 92.5462 84.01C92.4331 83.7336 92.2414 83.4974 91.9956 83.3311C91.7497 83.1649 91.4607 83.0762 91.165 83.0762C90.9686 83.0759 90.774 83.1148 90.5925 83.1908C90.411 83.2667 90.2461 83.3781 90.1072 83.5186C89.9683 83.6592 89.8582 83.8261 89.7832 84.0097C89.7081 84.1934 89.6697 84.3902 89.6699 84.589Z" fill="#263238"/>
<path d="M208.69 83.5384C208.975 82.5673 208.541 81.2558 206.229 80.6104C202.72 79.6309 200.198 83.3081 199.896 83.7688C200.221 83.2355 203.278 78.39 206.822 79.3612C209.628 80.1269 209.47 82.3162 208.69 83.5384Z" fill="#455A64"/>
<path d="M208.69 83.5385C208.48 83.9057 208.155 84.1919 207.767 84.352C206.536 84.738 203.735 84.9745 200.109 83.8892L199.869 83.8166L199.898 83.7689L199.916 83.7419H199.945C203.755 84.3022 206.411 83.8913 207.5 83.4929C207.927 83.3372 208.269 82.8101 208.321 82.1938C208.329 82.0496 208.322 81.9047 208.298 81.7622C208.51 81.9988 208.657 82.2868 208.725 82.5981C208.794 82.9094 208.782 83.2334 208.69 83.5385Z" fill="#37474F"/>
<path d="M206.411 78.4877C205.94 77.363 204.662 76.3088 202.406 76.9978C198.977 78.0353 199.643 83.136 199.74 83.7669C199.611 83.053 198.524 76.5039 201.973 75.4186C204.701 74.5595 206.145 76.8276 206.411 78.4877Z" fill="#455A64"/>
<path d="M206.411 78.4875C206.499 79.0478 206.454 79.5417 206.276 79.8239C205.593 80.9133 203.585 82.7581 199.99 83.7667L199.75 83.831C199.75 83.831 199.75 83.8102 199.75 83.7667C199.751 83.7542 199.751 83.7418 199.75 83.7293H199.777C203.14 82.092 204.904 80.1601 205.474 79.1412C205.693 78.7386 205.583 78.0227 205.177 77.3877C205.08 77.2393 204.97 77.1003 204.848 76.9727C205.198 77.1029 205.517 77.3047 205.786 77.5653C206.055 77.826 206.267 78.1399 206.411 78.4875Z" fill="#37474F"/>
<path d="M190.777 83.5384C190.492 82.5673 190.924 81.2558 193.238 80.6104C196.747 79.6309 199.269 83.3081 199.571 83.7688C199.249 83.2355 196.191 78.39 192.645 79.3612C189.842 80.1269 189.995 82.3162 190.777 83.5384Z" fill="#455A64"/>
<path d="M190.777 83.5385C190.987 83.9056 191.311 84.1917 191.698 84.352C192.929 84.738 195.732 84.9745 199.356 83.8892L199.598 83.8166L199.567 83.7689L199.551 83.7419H199.52C195.71 84.3022 193.056 83.8913 191.967 83.4929C191.538 83.3372 191.196 82.8101 191.147 82.1938C191.136 82.0496 191.143 81.9047 191.167 81.7622C190.956 81.9989 190.809 82.2869 190.741 82.5983C190.672 82.9097 190.685 83.2336 190.777 83.5385Z" fill="#37474F"/>
<path d="M192.824 78.4877C193.296 77.363 194.574 76.3088 196.829 76.9978C200.258 78.0353 199.592 83.136 199.496 83.7669C199.625 83.053 200.712 76.5039 197.262 75.4186C194.535 74.5595 193.091 76.8276 192.824 78.4877Z" fill="#455A64"/>
<path d="M192.823 78.4875C192.735 79.0478 192.78 79.5417 192.956 79.8239C193.641 80.9133 195.649 82.7581 199.242 83.7667L199.484 83.831C199.484 83.831 199.484 83.8102 199.494 83.7667C199.494 83.7542 199.494 83.7418 199.494 83.7293H199.468C196.104 82.092 194.341 80.1601 193.771 79.1412C193.549 78.7386 193.66 78.0227 194.068 77.3877C194.164 77.2398 194.273 77.1009 194.394 76.9727C194.043 77.1014 193.722 77.3025 193.452 77.5633C193.181 77.824 192.967 78.1388 192.823 78.4875Z" fill="#37474F"/>
<path d="M207.188 118.49H188.484L189.169 84.8981L205.32 84.3149L207.188 118.49Z" fill="#2E90FA"/>
<path opacity="0.6" d="M207.188 118.49H188.484L189.169 84.8981L205.32 84.3149L207.188 118.49Z" fill="white"/>
<path d="M211.011 118.49H205.697L204.883 84.3149L210.365 85.3484L211.011 118.49Z" fill="#2E90FA"/>
<path d="M188.23 84.3647V89.0421L204.883 88.4631V83.1113L188.23 84.3647Z" fill="#2E90FA"/>
<path opacity="0.4" d="M188.23 84.3647V89.0421L204.883 88.4631V83.1113L188.23 84.3647Z" fill="white"/>
<path d="M211.146 89.0421L204.883 88.4631V83.1113L211.503 84.3647L211.146 89.0421Z" fill="#2E90FA"/>
<path opacity="0.1" d="M211.146 89.0421L204.883 88.4631V83.1113L211.503 84.3647L211.146 89.0421Z" fill="black"/>
<path d="M194.512 83.8915L194.727 118.49H199.142L198.757 83.6113L194.512 83.8915Z" fill="#455A64"/>
<path d="M207.523 83.6113L209.183 83.9247V118.49H207.794L207.523 83.6113Z" fill="#455A64"/>
<path d="M196.922 91.8538C196.901 92.2783 196.771 92.6897 196.543 93.047C196.531 92.9661 196.514 92.8831 196.494 92.8001C196.473 92.717 196.451 92.6299 196.422 92.5407C196.219 91.9519 195.907 91.4075 195.503 90.9366L195.368 90.7768L195.331 90.7374C195.308 90.7125 195.284 90.6896 195.265 90.6647C191.545 85.8919 188.003 93.6218 187.928 93.8003C187.928 93.8003 187.722 86.0911 191.783 85.8774C194.968 85.7114 197.109 89.4715 196.922 91.8538Z" fill="#2E90FA"/>
<path d="M196.545 93.0468C196.453 93.1826 196.341 93.3024 196.211 93.4017C194.273 94.9041 188.317 93.8706 187.946 93.8042H187.93C193.528 94.3479 195.065 92.2873 195.333 90.7393L195.37 90.7787L195.505 90.9385C195.909 91.4099 196.22 91.9541 196.424 92.5426C196.453 92.6318 196.476 92.7169 196.496 92.8019C196.517 92.887 196.533 92.9659 196.545 93.0468Z" fill="#2E90FA"/>
<path opacity="0.2" d="M196.545 93.0468C196.453 93.1826 196.341 93.3024 196.211 93.4017C194.273 94.9041 188.317 93.8706 187.946 93.8042H187.93C193.528 94.3479 195.065 92.2873 195.333 90.7393L195.37 90.7787L195.505 90.9385C195.909 91.4099 196.22 91.9541 196.424 92.5426C196.453 92.6318 196.476 92.7169 196.496 92.8019C196.517 92.887 196.533 92.9659 196.545 93.0468Z" fill="black"/>
<path d="M178.789 92.7296C178.849 93.15 179.018 93.5467 179.279 93.8792C179.279 93.7976 179.287 93.7146 179.304 93.6302C179.314 93.5415 179.33 93.4535 179.351 93.3666C179.496 92.7597 179.756 92.1868 180.116 91.6796L180.235 91.5073L180.267 91.4637C180.288 91.4368 180.308 91.4119 180.327 91.3849C183.579 86.278 187.833 93.6302 187.915 93.8003C187.915 93.8003 187.392 86.1078 183.329 86.2863C180.159 86.4274 178.379 90.3764 178.789 92.7296Z" fill="#2E90FA"/>
<path d="M179.281 93.8791C179.385 94.0056 179.508 94.1142 179.646 94.2007C181.718 95.5101 187.548 93.9061 187.911 93.8065H187.93C182.407 94.8876 180.684 92.9764 180.27 91.4678L180.237 91.5114L180.118 91.6836C179.76 92.192 179.5 92.7645 179.353 93.3707C179.333 93.4599 179.318 93.5471 179.306 93.6342C179.294 93.7214 179.285 93.7982 179.281 93.8791Z" fill="#2E90FA"/>
<path opacity="0.2" d="M179.281 93.8791C179.385 94.0056 179.508 94.1142 179.646 94.2007C181.718 95.5101 187.548 93.9061 187.911 93.8065H187.93C182.407 94.8876 180.684 92.9764 180.27 91.4678L180.237 91.5114L180.118 91.6836C179.76 92.192 179.5 92.7645 179.353 93.3707C179.333 93.4599 179.318 93.5471 179.306 93.6342C179.294 93.7214 179.285 93.7982 179.281 93.8791Z" fill="black"/>
<path d="M196.546 118.49H177.633L178.176 95.7571L196.66 95.479L196.546 118.49Z" fill="#455A64"/>
<path d="M203.314 118.49H196.544L196.154 95.479L202.873 96.0476L203.314 118.49Z" fill="#37474F"/>
<path d="M177.502 94.6884V99.5152L196.154 98.9425V93.4185L177.502 94.6884Z" fill="#37474F"/>
<path d="M203.404 99.538L196.154 98.9425V93.4185L203.816 94.7133L203.404 99.538Z" fill="#263238"/>
<path d="M189.583 118.49H185.053L184.596 94.1945L189.946 93.8354L189.583 118.49Z" fill="#2E90FA"/>
<path d="M199.872 118.491H201.414L201.276 94.284L199.123 93.9209L199.872 118.491Z" fill="#2E90FA"/>
<path d="M192.44 49.7515H96.1884C94.7285 49.7515 93.5449 50.949 93.5449 52.4263V115.816C93.5449 117.293 94.7285 118.49 96.1884 118.49H192.44C193.9 118.49 195.084 117.293 195.084 115.816V52.4263C195.084 50.949 193.9 49.7515 192.44 49.7515Z" fill="#263238"/>
<path d="M188.042 52.6523H100.654V115.51H188.042V52.6523Z" fill="white"/>
<path d="M97.9424 76.6431H97.3989C97.2574 76.6431 97.1426 76.7592 97.1426 76.9025V91.3433C97.1426 91.4866 97.2574 91.6027 97.3989 91.6027H97.9424C98.084 91.6027 98.1988 91.4866 98.1988 91.3433V76.9025C98.1988 76.7592 98.084 76.6431 97.9424 76.6431Z" fill="#455A64"/>
<path d="M193.34 84.5746C193.584 83.5353 192.949 82.493 191.922 82.2465C190.894 82.0001 189.864 82.6428 189.621 83.6821C189.377 84.7214 190.012 85.7638 191.039 86.0102C192.067 86.2567 193.097 85.6139 193.34 84.5746Z" fill="#455A64"/>
<path d="M188.042 52.6523H100.654V115.51H188.042V52.6523Z" fill="white"/>
<path d="M188.042 52.6523H100.654V54.8126H188.042V52.6523Z" fill="#455A64"/>
<path d="M102.338 53.7316C102.338 53.819 102.313 53.9044 102.265 53.9771C102.217 54.0498 102.149 54.1065 102.069 54.1399C101.989 54.1734 101.901 54.1821 101.816 54.1651C101.732 54.148 101.654 54.1059 101.593 54.0441C101.532 53.9823 101.49 53.9035 101.473 53.8178C101.456 53.732 101.465 53.6432 101.498 53.5624C101.531 53.4816 101.587 53.4126 101.659 53.364C101.731 53.3155 101.815 53.2896 101.902 53.2896C102.018 53.2896 102.129 53.3361 102.211 53.419C102.292 53.5019 102.338 53.6143 102.338 53.7316Z" fill="#C7C7C7"/>
<path d="M103.687 54.1736C103.928 54.1736 104.124 53.9757 104.124 53.7316C104.124 53.4874 103.928 53.2896 103.687 53.2896C103.446 53.2896 103.25 53.4874 103.25 53.7316C103.25 53.9757 103.446 54.1736 103.687 54.1736Z" fill="white"/>
<path d="M105.472 54.1736C105.713 54.1736 105.909 53.9757 105.909 53.7316C105.909 53.4874 105.713 53.2896 105.472 53.2896C105.231 53.2896 105.035 53.4874 105.035 53.7316C105.035 53.9757 105.231 54.1736 105.472 54.1736Z" fill="#2E90FA"/>
<path d="M182.436 73.8247H159.395V103.889H182.436V73.8247Z" fill="white"/>
<path d="M182.436 103.89C182.418 103.89 159.391 103.908 159.372 103.912C159.354 103.917 159.348 73.8353 159.344 73.8229V73.771H159.395C159.422 73.771 182.442 73.7959 182.465 73.7917C182.487 73.7876 182.418 103.865 182.436 103.881V103.89ZM182.436 103.89L182.407 73.8249C182.612 73.8831 159.344 73.8665 159.395 73.8748L159.446 73.8249L159.418 103.89C159.266 103.858 182.475 103.89 182.436 103.89Z" fill="#C7C7C7"/>
<path d="M181.738 74.4355H160.094V96.3366H181.738V74.4355Z" fill="#EBEBEB"/>
<path d="M179.857 77.2988C178.768 76.6015 178.809 75.7549 179.107 75.5764C179.478 75.3585 179.763 75.7487 179.857 76.1243C179.951 75.7487 180.237 75.3585 180.602 75.5764C180.899 75.7549 180.94 76.6015 179.857 77.2988Z" fill="#2E90FA"/>
<path d="M181.739 100.536H173.736V102.692H181.739V100.536Z" fill="white"/>
<path d="M181.741 102.692C179.745 102.708 175.734 102.731 173.742 102.737H173.699V102.692V100.536V100.484H173.75L181.773 100.515V100.536L181.753 102.692H181.741ZM181.741 102.692L181.72 100.536L181.741 100.557L173.742 100.588L173.794 100.536V102.692L173.75 102.648L177.739 102.663L181.753 102.692H181.741Z" fill="#C7C7C7"/>
<path d="M160.094 97.5789C163.49 97.4399 166.915 97.4399 170.313 97.5789C166.915 97.7179 163.492 97.7179 160.094 97.5789Z" fill="#C7C7C7"/>
<path d="M160.094 98.7762C164.827 98.7098 170.034 98.7077 174.769 98.7762C170.034 98.8446 164.827 98.8446 160.094 98.7762Z" fill="#C7C7C7"/>
<path d="M129.236 73.8247H106.195V103.889H129.236V73.8247Z" fill="white"/>
<path d="M129.237 103.89C129.218 103.89 106.192 103.908 106.173 103.912C106.155 103.917 106.149 73.8353 106.145 73.8229V73.771H106.196C106.22 73.771 129.241 73.7959 129.266 73.7917C129.29 73.7876 129.216 103.865 129.237 103.881V103.89ZM129.237 103.89L129.208 73.8249C129.413 73.8831 106.145 73.8665 106.196 73.8748L106.247 73.8249L106.218 103.89C106.067 103.858 129.276 103.89 129.237 103.89Z" fill="#C7C7C7"/>
<path d="M128.535 74.4355H106.891V96.3366H128.535V74.4355Z" fill="#EBEBEB"/>
<path d="M126.656 77.2988C125.565 76.6015 125.606 75.7549 125.903 75.5764C126.277 75.3585 126.562 75.7487 126.656 76.1243C126.75 75.7487 127.035 75.3585 127.4 75.5764C127.704 75.7549 127.739 76.6015 126.656 77.2988Z" fill="#2E90FA"/>
<path d="M128.539 100.536H120.537V102.692H128.539V100.536Z" fill="white"/>
<path d="M128.536 102.692C126.542 102.708 122.529 102.731 120.537 102.737H120.492V102.692V100.536V100.484H120.543L128.566 100.515V100.536L128.544 102.692H128.536ZM128.536 102.692L128.515 100.536L128.536 100.557L120.537 100.588L120.589 100.536V102.692L120.546 102.648L124.534 102.663L128.546 102.692H128.536Z" fill="#C7C7C7"/>
<path d="M106.891 97.5789C110.289 97.4399 113.712 97.4399 117.112 97.5789C113.712 97.7179 110.289 97.7179 106.891 97.5789Z" fill="#C7C7C7"/>
<path d="M106.891 98.7762C111.626 98.7098 116.833 98.7077 121.566 98.7762C116.833 98.8446 111.626 98.8446 106.891 98.7762Z" fill="#C7C7C7"/>
<path d="M155.838 73.8247H132.797V103.889H155.838V73.8247Z" fill="white"/>
<path d="M155.838 103.89C155.818 103.89 132.791 103.908 132.775 103.912C132.758 103.917 132.75 73.8353 132.746 73.8229V73.771H132.797C132.822 73.771 155.843 73.7959 155.867 73.7917C155.892 73.7876 155.818 103.865 155.838 103.881V103.89ZM155.838 103.89L155.802 73.8249C156.007 73.8831 132.74 73.8665 132.791 73.8748L132.84 73.8249L132.812 103.89C132.662 103.858 155.871 103.89 155.832 103.89H155.838Z" fill="#C7C7C7"/>
<path d="M155.137 100.536H147.135V102.692H155.137V100.536Z" fill="white"/>
<path d="M155.139 102.692C153.146 102.708 149.132 102.731 147.141 102.737H147.098V102.692V100.536V100.484H147.149L155.174 100.515V100.536L155.153 102.692H155.139ZM155.139 102.692L155.118 100.536L155.139 100.557L147.141 100.588L147.192 100.536V102.692L147.147 102.648L151.138 102.663L155.149 102.692H155.139Z" fill="#C7C7C7"/>
<path d="M133.492 97.5789C136.89 97.4399 140.313 97.4399 143.711 97.5789C140.313 97.7179 136.89 97.7179 133.492 97.5789Z" fill="#C7C7C7"/>
<path d="M133.492 98.7762C138.226 98.7098 143.433 98.7077 148.168 98.7762C143.433 98.8446 138.226 98.8446 133.492 98.7762Z" fill="#C7C7C7"/>
<path d="M155.137 74.4355H133.492V96.3366H155.137V74.4355Z" fill="#EBEBEB"/>
<path d="M153.256 77.2988C152.167 76.6015 152.208 75.7549 152.505 75.5764C152.878 75.3585 153.161 75.7487 153.256 76.1243C153.352 75.7487 153.635 75.3585 154 75.5764C154.299 75.7549 154.338 76.6015 153.256 77.2988Z" fill="#2E90FA"/>
<path d="M169.823 65.2197H118.809V68.1187H169.823V65.2197Z" fill="white"/>
<path d="M169.853 68.1476H118.787V65.1885H169.853V68.1476Z" fill="white"/>
<path d="M169.852 68.1472C169.804 68.0994 118.679 68.2883 118.731 68.1472V65.188C118.681 65.0469 169.811 65.2254 169.858 65.188V68.1472H169.852ZM169.852 68.1472V65.188C169.884 65.1527 118.566 65.3312 118.833 65.188V68.1472C118.509 68.0123 169.944 68.1928 169.86 68.1472H169.852Z" fill="#C7C7C7"/>
<path d="M168.819 67.3197L168.613 67.4815L168.222 66.9565L168.076 66.7656C168.106 66.7538 168.135 66.7378 168.16 66.7179C168.209 66.681 168.246 66.6315 168.269 66.5747L168.421 66.7822L168.819 67.3197Z" fill="#C7C7C7"/>
<path d="M168.403 66.0848C168.329 65.9855 168.225 65.9125 168.108 65.8762C167.99 65.8399 167.864 65.8422 167.748 65.8828C167.632 65.9234 167.531 66.0002 167.461 66.1022C167.39 66.2042 167.353 66.3261 167.356 66.4505C167.358 66.5749 167.399 66.6954 167.473 66.7948C167.547 66.8941 167.65 66.9672 167.768 67.0036C167.885 67.0399 168.011 67.0377 168.128 66.9971C168.244 66.9566 168.345 66.8799 168.415 66.7779C168.487 66.6763 168.524 66.5541 168.522 66.4293C168.52 66.3046 168.478 66.1838 168.403 66.0848ZM168.155 66.7177C168.129 66.7376 168.101 66.7537 168.07 66.7655C167.997 66.7947 167.915 66.7972 167.839 66.7725C167.764 66.7478 167.699 66.6974 167.656 66.6299C167.613 66.5624 167.594 66.4819 167.603 66.402C167.612 66.3221 167.647 66.2478 167.704 66.1916C167.761 66.1354 167.835 66.1007 167.914 66.0935C167.993 66.0863 168.072 66.107 168.138 66.152C168.204 66.1971 168.252 66.2637 168.275 66.3407C168.298 66.4177 168.294 66.5003 168.263 66.5745C168.241 66.6314 168.203 66.6809 168.155 66.7177Z" fill="#C7C7C7"/>
<path d="M119.562 65.7881H119.408V67.5478H119.562V65.7881Z" fill="#C7C7C7"/>
<path d="M109.243 65.4683H106.891V65.8293H109.243V65.4683Z" fill="#C7C7C7"/>
<path d="M109.243 67.5063H106.891V67.8674H109.243V67.5063Z" fill="#C7C7C7"/>
<path d="M109.243 66.4976H106.891V66.8586H109.243V66.4976Z" fill="#C7C7C7"/>
<path d="M180.738 67.4088H178.517C178.496 67.4082 178.477 67.4013 178.46 67.3891C178.444 67.3769 178.431 67.3598 178.425 67.3403L177.791 65.3772H177.274C177.249 65.3772 177.224 65.3669 177.206 65.3486C177.188 65.3303 177.178 65.3055 177.178 65.2797C177.178 65.2538 177.188 65.229 177.206 65.2107C177.224 65.1924 177.249 65.1821 177.274 65.1821H177.861C177.881 65.1819 177.901 65.1882 177.917 65.2002C177.934 65.2121 177.946 65.229 177.953 65.2485L178.587 67.2116H180.738C180.751 67.2116 180.763 67.2141 180.775 67.219C180.787 67.2239 180.797 67.2311 180.806 67.2402C180.815 67.2492 180.822 67.26 180.827 67.2718C180.832 67.2837 180.834 67.2963 180.834 67.3092C180.834 67.3352 180.824 67.3602 180.806 67.3789C180.788 67.3975 180.764 67.4082 180.738 67.4088Z" fill="#2E90FA"/>
<path d="M180.523 68.1557C180.461 68.1557 180.401 68.1372 180.349 68.1026C180.298 68.0679 180.258 68.0187 180.235 67.961C180.211 67.9034 180.205 67.84 180.217 67.7788C180.229 67.7176 180.259 67.6614 180.302 67.6173C180.346 67.5732 180.401 67.5431 180.462 67.531C180.522 67.5188 180.585 67.525 180.642 67.5489C180.699 67.5728 180.748 67.6132 180.782 67.6651C180.816 67.717 180.834 67.7779 180.834 67.8403C180.834 67.9238 180.801 68.0037 180.742 68.0628C180.684 68.1218 180.605 68.1552 180.523 68.1557ZM180.523 67.72C180.499 67.7196 180.476 67.7263 180.456 67.7392C180.436 67.7522 180.421 67.7709 180.411 67.7928C180.402 67.8148 180.399 67.839 180.404 67.8625C180.408 67.886 180.419 67.9076 180.436 67.9247C180.452 67.9417 180.474 67.9534 180.497 67.9582C180.52 67.963 180.544 67.9608 180.566 67.9517C180.588 67.9427 180.606 67.9272 180.619 67.9074C180.633 67.8876 180.64 67.8642 180.64 67.8403C180.64 67.8088 180.627 67.7785 180.605 67.7559C180.584 67.7334 180.554 67.7205 180.523 67.72Z" fill="#2E90FA"/>
<path d="M178.691 68.1557C178.629 68.1557 178.569 68.1372 178.517 68.1026C178.466 68.0679 178.426 68.0187 178.403 67.961C178.379 67.9034 178.373 67.84 178.385 67.7788C178.397 67.7176 178.427 67.6614 178.47 67.6173C178.514 67.5732 178.569 67.5431 178.63 67.531C178.69 67.5188 178.753 67.525 178.81 67.5489C178.867 67.5728 178.916 67.6132 178.95 67.6651C178.984 67.717 179.002 67.7779 179.002 67.8403C179.002 67.9238 178.969 68.0037 178.91 68.0628C178.852 68.1218 178.773 68.1552 178.691 68.1557ZM178.691 67.72C178.667 67.7196 178.644 67.7263 178.624 67.7392C178.604 67.7522 178.589 67.7709 178.579 67.7928C178.57 67.8148 178.567 67.839 178.572 67.8625C178.576 67.886 178.587 67.9076 178.604 67.9247C178.62 67.9417 178.641 67.9534 178.665 67.9582C178.688 67.963 178.712 67.9608 178.734 67.9517C178.755 67.9427 178.774 67.9272 178.787 67.9074C178.801 67.8876 178.808 67.8642 178.808 67.8403C178.808 67.8088 178.795 67.7785 178.773 67.7559C178.752 67.7334 178.722 67.7205 178.691 67.72Z" fill="#2E90FA"/>
<path d="M181.272 65.5327L180.778 67.1015H178.682L178.188 65.5327L179.824 65.5348L181.272 65.5327Z" fill="#2E90FA"/>
<path d="M181.116 66.1079C181.46 66.1079 181.739 65.8254 181.739 65.477C181.739 65.1286 181.46 64.8462 181.116 64.8462C180.771 64.8462 180.492 65.1286 180.492 65.477C180.492 65.8254 180.771 66.1079 181.116 66.1079Z" fill="#455A64"/>
<path d="M181.245 65.4147C181.266 65.435 181.282 65.4593 181.292 65.486C181.303 65.5127 181.309 65.5414 181.309 65.5703C181.309 65.5995 181.303 65.6285 181.293 65.6556C181.282 65.6826 181.266 65.7073 181.245 65.728C181.204 65.7694 181.148 65.7927 181.09 65.7927C181.032 65.7927 180.977 65.7694 180.936 65.728C180.927 65.7184 180.922 65.7058 180.922 65.6927C180.922 65.6796 180.927 65.667 180.936 65.6575C180.94 65.6525 180.946 65.6485 180.952 65.6458C180.958 65.6431 180.965 65.6417 180.971 65.6417C180.978 65.6417 180.985 65.6431 180.991 65.6458C180.997 65.6485 181.003 65.6525 181.007 65.6575C181.018 65.6683 181.031 65.6768 181.045 65.6825C181.059 65.6882 181.074 65.691 181.089 65.6907C181.121 65.6911 181.152 65.6792 181.176 65.6575C181.197 65.6338 181.21 65.6027 181.21 65.5703C181.21 65.5387 181.197 65.5087 181.175 65.4865C181.153 65.4644 181.123 65.452 181.091 65.452C181.084 65.4519 181.078 65.4504 181.071 65.4476C181.065 65.4447 181.059 65.4406 181.055 65.4354C181.05 65.4308 181.046 65.4253 181.044 65.4192C181.041 65.4132 181.04 65.4067 181.04 65.4001C181.04 65.3936 181.041 65.3871 181.044 65.381C181.046 65.375 181.05 65.3695 181.055 65.3649L181.145 65.2736H181.001C180.99 65.2712 180.979 65.2648 180.972 65.2555C180.964 65.2463 180.96 65.2347 180.96 65.2227C180.96 65.2107 180.964 65.1992 180.972 65.1899C180.979 65.1806 180.99 65.1743 181.001 65.1719H181.262C181.275 65.1719 181.287 65.1771 181.296 65.1865C181.306 65.1958 181.311 65.2085 181.311 65.2217C181.313 65.2299 181.313 65.2384 181.311 65.2466C181.311 65.2507 181.311 65.2549 181.311 65.259L181.2 65.3732C181.217 65.3851 181.232 65.3991 181.245 65.4147Z" fill="white"/>
<path d="M203.088 56.6076H85.543L94.6158 49.6206H193.648L203.088 56.6076Z" fill="#2E90FA"/>
<path d="M111.146 49.6206L103.628 56.6076H94.5859L102.795 49.6206H111.146Z" fill="#EBEBEB"/>
<path d="M127.149 49.6206L121.712 56.6076H112.67L119.132 49.6206H127.149Z" fill="#EBEBEB"/>
<path d="M140.733 49.6206L139.794 56.6076H130.754L133.637 49.6206H140.733Z" fill="#EBEBEB"/>
<path d="M185.005 56.6076L177.201 49.6206H185.552L194.047 56.6076H185.005Z" fill="#EBEBEB"/>
<path d="M166.919 56.6076L162.096 49.6206H169.454L175.961 56.6076H166.919Z" fill="#EBEBEB"/>
<path d="M148.839 56.6076L147.512 49.6206H154.612L157.879 56.6076H148.839Z" fill="#EBEBEB"/>
<path d="M90.0626 61.2371C88.866 61.2371 87.7184 60.7561 86.8723 59.8999C86.0261 59.0437 85.5508 57.8825 85.5508 56.6717V56.6157H94.5929V56.6717C94.5929 57.2728 94.4756 57.868 94.2477 58.4231C94.0198 58.9783 93.6858 59.4824 93.2649 59.9065C92.844 60.3307 92.3444 60.6666 91.7949 60.8949C91.2453 61.1232 90.6567 61.2395 90.0626 61.2371Z" fill="#2E90FA"/>
<path opacity="0.1" d="M90.0626 61.2371C88.866 61.2371 87.7184 60.7561 86.8723 59.8999C86.0261 59.0437 85.5508 57.8825 85.5508 56.6717V56.6157H94.5929V56.6717C94.5929 57.2728 94.4756 57.868 94.2477 58.4231C94.0198 58.9783 93.6858 59.4824 93.2649 59.9065C92.844 60.3307 92.3444 60.6666 91.7949 60.8949C91.2453 61.1232 90.6567 61.2395 90.0626 61.2371Z" fill="black"/>
<path d="M99.1056 61.2371C97.909 61.2371 96.7614 60.7561 95.9152 59.8999C95.0691 59.0437 94.5938 57.8825 94.5938 56.6717V56.6157H103.628V56.6717C103.628 57.2721 103.511 57.8667 103.283 58.4212C103.056 58.9758 102.723 59.4795 102.303 59.9036C101.883 60.3276 101.384 60.6637 100.835 60.8925C100.287 61.1213 99.6989 61.2384 99.1056 61.2371Z" fill="#DBDBDB"/>
<path d="M108.147 61.2371C106.95 61.2371 105.802 60.7561 104.956 59.8999C104.11 59.0437 103.635 57.8825 103.635 56.6717V56.6157H112.677V56.6717C112.677 57.2728 112.56 57.868 112.332 58.4231C112.104 58.9783 111.77 59.4824 111.349 59.9065C110.928 60.3307 110.428 60.6666 109.879 60.8949C109.329 61.1232 108.741 61.2395 108.147 61.2371Z" fill="#2E90FA"/>
<path opacity="0.1" d="M108.147 61.2371C106.95 61.2371 105.802 60.7561 104.956 59.8999C104.11 59.0437 103.635 57.8825 103.635 56.6717V56.6157H112.677V56.6717C112.677 57.2728 112.56 57.868 112.332 58.4231C112.104 58.9783 111.77 59.4824 111.349 59.9065C110.928 60.3307 110.428 60.6666 109.879 60.8949C109.329 61.1232 108.741 61.2395 108.147 61.2371Z" fill="black"/>
<path d="M117.19 61.2371C115.993 61.2371 114.845 60.7561 113.999 59.8999C113.153 59.0437 112.678 57.8825 112.678 56.6717V56.6157H121.72V56.6717C121.72 57.2728 121.603 57.868 121.375 58.4231C121.147 58.9783 120.813 59.4824 120.392 59.9065C119.971 60.3307 119.471 60.6666 118.922 60.8949C118.372 61.1232 117.784 61.2395 117.19 61.2371Z" fill="#DBDBDB"/>
<path d="M126.231 61.2371C125.034 61.2371 123.886 60.7561 123.04 59.8999C122.194 59.0437 121.719 57.8825 121.719 56.6717V56.6157H130.761V56.6717C130.761 57.2728 130.644 57.868 130.416 58.4231C130.188 58.9783 129.854 59.4824 129.433 59.9065C129.012 60.3307 128.512 60.6666 127.963 60.8949C127.413 61.1232 126.825 61.2395 126.231 61.2371Z" fill="#2E90FA"/>
<path opacity="0.1" d="M126.231 61.2371C125.034 61.2371 123.886 60.7561 123.04 59.8999C122.194 59.0437 121.719 57.8825 121.719 56.6717V56.6157H130.761V56.6717C130.761 57.2728 130.644 57.868 130.416 58.4231C130.188 58.9783 129.854 59.4824 129.433 59.9065C129.012 60.3307 128.512 60.6666 127.963 60.8949C127.413 61.1232 126.825 61.2395 126.231 61.2371Z" fill="black"/>
<path d="M135.274 61.2371C134.077 61.2371 132.929 60.7561 132.083 59.8999C131.237 59.0437 130.762 57.8825 130.762 56.6717V56.6157H139.804V56.6717C139.804 57.2728 139.687 57.868 139.459 58.4231C139.231 58.9783 138.897 59.4824 138.476 59.9065C138.055 60.3307 137.555 60.6666 137.006 60.8949C136.456 61.1232 135.868 61.2395 135.274 61.2371Z" fill="#DBDBDB"/>
<path d="M144.317 61.2371C143.12 61.2371 141.972 60.7561 141.126 59.8999C140.28 59.0437 139.805 57.8825 139.805 56.6717V56.6157H148.828V56.6717C148.828 57.8825 148.353 59.0437 147.507 59.8999C146.661 60.7561 145.513 61.2371 144.317 61.2371Z" fill="#2E90FA"/>
<path opacity="0.1" d="M144.317 61.2371C143.12 61.2371 141.972 60.7561 141.126 59.8999C140.28 59.0437 139.805 57.8825 139.805 56.6717V56.6157H148.828V56.6717C148.828 57.8825 148.353 59.0437 147.507 59.8999C146.661 60.7561 145.513 61.2371 144.317 61.2371Z" fill="black"/>
<path d="M153.358 61.2371C152.161 61.2371 151.013 60.7561 150.167 59.8999C149.321 59.0437 148.846 57.8825 148.846 56.6717V56.6157H157.888V56.6717C157.888 57.2728 157.771 57.868 157.543 58.4231C157.315 58.9783 156.981 59.4824 156.56 59.9065C156.139 60.3307 155.639 60.6666 155.09 60.8949C154.54 61.1232 153.952 61.2395 153.358 61.2371Z" fill="#DBDBDB"/>
<path d="M162.401 61.2371C161.808 61.2384 161.22 61.1213 160.671 60.8925C160.123 60.6637 159.624 60.3276 159.204 59.9036C158.784 59.4795 158.451 58.9758 158.223 58.4212C157.996 57.8667 157.879 57.2721 157.879 56.6717V56.6157H166.921V56.6717C166.921 57.272 166.804 57.8663 166.577 58.4207C166.35 58.9752 166.016 59.4788 165.597 59.9028C165.177 60.3269 164.678 60.663 164.13 60.8919C163.582 61.1209 162.994 61.2381 162.401 61.2371Z" fill="#2E90FA"/>
<path opacity="0.1" d="M162.401 61.2371C161.808 61.2384 161.22 61.1213 160.671 60.8925C160.123 60.6637 159.624 60.3276 159.204 59.9036C158.784 59.4795 158.451 58.9758 158.223 58.4212C157.996 57.8667 157.879 57.2721 157.879 56.6717V56.6157H166.921V56.6717C166.921 57.272 166.804 57.8663 166.577 58.4207C166.35 58.9752 166.016 59.4788 165.597 59.9028C165.177 60.3269 164.678 60.663 164.13 60.8919C163.582 61.1209 162.994 61.2381 162.401 61.2371Z" fill="black"/>
<path d="M171.442 61.2371C170.245 61.2371 169.097 60.7561 168.251 59.8999C167.405 59.0437 166.93 57.8825 166.93 56.6717V56.6157H175.972V56.6717C175.972 57.2728 175.854 57.868 175.627 58.4231C175.399 58.9783 175.065 59.4824 174.644 59.9065C174.223 60.3307 173.723 60.6666 173.174 60.8949C172.624 61.1232 172.036 61.2395 171.442 61.2371Z" fill="#DBDBDB"/>
<path d="M180.485 61.2371C179.892 61.2384 179.304 61.1213 178.755 60.8925C178.207 60.6637 177.708 60.3276 177.288 59.9036C176.868 59.4795 176.535 58.9758 176.307 58.4212C176.08 57.8667 175.963 57.2721 175.963 56.6717V56.6157H185.005V56.6717C185.005 57.272 184.888 57.8663 184.661 58.4207C184.434 58.9752 184.1 59.4788 183.681 59.9028C183.261 60.3269 182.762 60.663 182.214 60.8919C181.666 61.1209 181.078 61.2381 180.485 61.2371Z" fill="#2E90FA"/>
<path opacity="0.1" d="M180.485 61.2371C179.892 61.2384 179.304 61.1213 178.755 60.8925C178.207 60.6637 177.708 60.3276 177.288 59.9036C176.868 59.4795 176.535 58.9758 176.307 58.4212C176.08 57.8667 175.963 57.2721 175.963 56.6717V56.6157H185.005V56.6717C185.005 57.272 184.888 57.8663 184.661 58.4207C184.434 58.9752 184.1 59.4788 183.681 59.9028C183.261 60.3269 182.762 60.663 182.214 60.8919C181.666 61.1209 181.078 61.2381 180.485 61.2371Z" fill="black"/>
<path d="M189.526 61.2371C188.933 61.2384 188.345 61.1213 187.796 60.8925C187.248 60.6637 186.749 60.3276 186.329 59.9036C185.909 59.4795 185.576 58.9758 185.348 58.4212C185.121 57.8667 185.004 57.2721 185.004 56.6717V56.6157H194.046V56.6717C194.046 57.272 193.929 57.8663 193.702 58.4207C193.475 58.9752 193.141 59.4788 192.722 59.9028C192.302 60.3269 191.803 60.663 191.255 60.8919C190.707 61.1209 190.119 61.2381 189.526 61.2371Z" fill="#DBDBDB"/>
<path d="M198.568 61.2371C197.372 61.2371 196.224 60.7561 195.378 59.8999C194.532 59.0437 194.057 57.8825 194.057 56.6717V56.6157H203.099V56.6717C203.099 57.2728 202.981 57.868 202.754 58.4231C202.526 58.9783 202.192 59.4824 201.771 59.9065C201.35 60.3307 200.85 60.6666 200.301 60.8949C199.751 61.1232 199.163 61.2395 198.568 61.2371Z" fill="#2E90FA"/>
<path opacity="0.1" d="M198.568 61.2371C197.372 61.2371 196.224 60.7561 195.378 59.8999C194.532 59.0437 194.057 57.8825 194.057 56.6717V56.6157H203.099V56.6717C203.099 57.2728 202.981 57.868 202.754 58.4231C202.526 58.9783 202.192 59.4824 201.771 59.9065C201.35 60.3307 200.85 60.6666 200.301 60.8949C199.751 61.1232 199.163 61.2395 198.568 61.2371Z" fill="black"/>
<path d="M202.492 59.2827L202.508 59.314C202.502 59.3103 202.496 59.3054 202.492 59.2994L202.465 59.2827H202.492Z" fill="#2E90FA"/>
<path d="M102.477 71.5901C103.964 71.3108 105.481 71.2299 106.988 71.3494C109.011 71.5569 110.871 72.7336 111.049 73.9392C111.141 74.5617 110.758 75.0888 109.966 75.4209C107.476 76.4729 102.624 71.972 102.419 71.779L102.271 71.64L102.477 71.5901ZM106.974 71.5694C105.558 71.4576 104.134 71.5274 102.735 71.7769C103.611 72.5572 107.772 76.1243 109.89 75.2299C110.59 74.9353 110.916 74.5036 110.842 73.9849C110.77 73.6482 110.603 73.3402 110.36 73.0988C109.716 72.3704 108.467 71.7147 106.988 71.5694H106.974Z" fill="#263238"/>
<path d="M83.4038 50.5252C83.4525 50.4464 83.5162 50.3781 83.591 50.3243C83.6659 50.2704 83.7506 50.2321 83.8402 50.2115C83.9297 50.1908 84.0224 50.1883 84.113 50.204C84.2035 50.2198 84.2901 50.2534 84.3677 50.3031L103.912 62.7166C104.002 62.7749 104.078 62.8529 104.134 62.9448C104.19 63.0368 104.225 63.1404 104.236 63.2478L104.923 70.1643L104.935 70.2639L104.95 70.4444V70.5233L105.21 73.1421C105.227 73.2987 105.191 73.4565 105.108 73.5901C105.026 73.7236 104.901 73.8253 104.755 73.8788L102.294 74.7877L102.073 74.8686L95.5304 77.2779C95.4298 77.3154 95.322 77.3292 95.2154 77.318C95.1087 77.3069 95.006 77.2711 94.9151 77.2135L75.3769 64.7917C75.2985 64.7424 75.2305 64.6779 75.1769 64.6018C75.1233 64.5258 75.0851 64.4398 75.0645 64.3487C75.0439 64.2576 75.0413 64.1634 75.0569 64.0713C75.0725 63.9792 75.106 63.8912 75.1554 63.8123L83.4038 50.5252Z" fill="white"/>
<path d="M77.7291 59.7223L76.31 62.0215L75.6106 63.1712L75.2456 63.7543C75.1829 63.8422 75.1357 63.9405 75.1061 64.0448C75.0815 64.1492 75.0815 64.2579 75.1061 64.3623C75.1313 64.4659 75.1805 64.5619 75.2497 64.6424C75.3245 64.7207 75.411 64.7865 75.506 64.8375L76.0741 65.1965L77.2103 65.9145L79.4826 67.3505L88.5719 73.0924L93.1165 75.9623L94.2527 76.6803L94.8207 77.0393L94.9623 77.1306C95.003 77.1566 95.0463 77.1782 95.0915 77.1949C95.1825 77.2256 95.2793 77.2348 95.3745 77.2219C95.4221 77.2134 95.4688 77.2002 95.5139 77.1825L95.6718 77.1244L95.9856 77.0082L96.6152 76.7737L97.8724 76.3089L102.913 74.4682L104.173 74.0075C104.378 73.9308 104.601 73.854 104.788 73.7772C104.876 73.7337 104.952 73.6695 105.011 73.5901C105.069 73.5107 105.108 73.4183 105.124 73.3207C105.131 73.2718 105.131 73.2222 105.124 73.1733L105.108 73.0073L105.075 72.6691L105.009 71.9946L104.878 70.6458L104.359 65.2505L104.228 63.9016L104.162 63.2313C104.146 63.1277 104.107 63.0292 104.047 62.9438C103.986 62.8584 103.907 62.7885 103.816 62.7395L101.55 61.2869L92.489 55.4994L87.9587 52.6066L85.7028 51.154L84.5686 50.4298C84.4772 50.3702 84.3828 50.3154 84.2856 50.2659C84.1325 50.1942 83.9588 50.1809 83.7967 50.2286C83.6347 50.2763 83.4951 50.3816 83.4038 50.5253L77.7291 59.7223ZM83.9596 50.1932C84.0722 50.1877 84.1846 50.209 84.2877 50.2555C84.3882 50.3032 84.4784 50.3717 84.5748 50.4277L85.711 51.1457L87.9833 52.5817L92.5279 55.4537L101.619 61.1956L103.892 62.6295C103.999 62.6874 104.092 62.7695 104.163 62.8696C104.234 62.9696 104.282 63.0849 104.302 63.2064L104.371 63.8829L104.509 65.2318L105.056 70.6271L105.194 71.976L105.264 72.6483L105.296 72.9866L105.315 73.1567C105.322 73.2202 105.322 73.2842 105.315 73.3476C105.295 73.4739 105.245 73.5934 105.17 73.6961C105.095 73.7987 104.996 73.8813 104.882 73.937C104.659 74.0304 104.46 74.0968 104.246 74.1777L102.989 74.6446L97.9606 76.5122L96.6993 76.9729L96.0697 77.2032L95.7559 77.3174L95.598 77.3755C95.539 77.3979 95.4778 77.4139 95.4155 77.4232C95.2885 77.4407 95.1593 77.428 95.0381 77.3859C94.9787 77.3634 94.9217 77.3349 94.8679 77.3008L94.7264 77.2095L94.1604 76.8484L93.0263 76.1242L88.496 73.219L79.4252 67.4356L77.159 65.983L76.0208 65.265L75.4548 64.9018C75.3534 64.847 75.2608 64.777 75.1799 64.6943C75.1036 64.6021 75.0489 64.4935 75.02 64.3768C74.9933 64.2601 74.9933 64.1387 75.02 64.022C75.0521 63.9093 75.1034 63.8033 75.1717 63.7086L75.5368 63.1317L76.2525 61.9863L77.6881 59.7036L83.4038 50.5253C83.4631 50.4287 83.5446 50.3481 83.6414 50.2903C83.7382 50.2325 83.8473 50.1992 83.9596 50.1932Z" fill="#EBEBEB"/>
<path d="M102.653 70.9633C102.599 70.9007 102.537 70.8456 102.468 70.7994C102.468 70.7994 102.456 70.7994 102.45 70.7849C102.242 70.653 101.991 70.6103 101.751 70.6659C101.512 70.7216 101.305 70.8711 101.174 71.0816C101.044 71.2921 101.002 71.5464 101.057 71.7884C101.112 72.0305 101.26 72.2405 101.468 72.3723L101.484 72.3827C101.533 72.4118 101.585 72.4368 101.638 72.4574C101.669 72.4715 101.701 72.482 101.734 72.4885C101.925 72.5364 102.127 72.5215 102.309 72.4458C102.491 72.3702 102.645 72.2378 102.747 72.0678C102.85 71.8979 102.897 71.6992 102.881 71.5006C102.864 71.302 102.786 71.1138 102.657 70.9633H102.653Z" fill="white"/>
<path d="M102.751 72.1341C102.636 72.3239 102.463 72.4698 102.257 72.5492C102.043 72.6291 101.808 72.6291 101.595 72.5492L101.498 72.5056L101.408 72.462C101.292 72.3902 101.192 72.2951 101.115 72.1827C101.037 72.0703 100.982 71.9429 100.955 71.8083C100.929 71.6765 100.929 71.5407 100.956 71.4091C100.983 71.2775 101.037 71.1528 101.113 71.0426C101.185 70.9346 101.278 70.8423 101.386 70.771C101.494 70.6998 101.615 70.651 101.742 70.6276C101.988 70.5854 102.24 70.6372 102.45 70.7728C102.45 70.7728 102.462 70.7728 102.468 70.7874C102.536 70.8342 102.598 70.8901 102.651 70.9534C102.79 71.1137 102.875 71.3147 102.893 71.5271C102.911 71.7395 102.861 71.9522 102.751 72.1341ZM102.477 70.8102C102.477 70.8102 102.464 70.8102 102.458 70.7977C102.356 70.7345 102.241 70.6936 102.122 70.6775C102.003 70.6614 101.882 70.6706 101.767 70.7044C101.544 70.7674 101.355 70.9165 101.24 71.1194C101.136 71.3182 101.109 71.549 101.164 71.7668C101.218 71.98 101.349 72.165 101.531 72.2856L101.613 72.3271L101.687 72.3665C101.862 72.4387 102.055 72.4507 102.237 72.4009C102.419 72.351 102.579 72.2419 102.694 72.0905C102.818 71.9313 102.884 71.7331 102.879 71.5303C102.876 71.3246 102.803 71.1262 102.673 70.9679C102.615 70.9065 102.549 70.8535 102.477 70.8102Z" fill="#EBEBEB"/>
<path d="M83.8437 51.926L76.5961 63.6091C76.5026 63.7698 76.476 63.9615 76.5221 64.142C76.5683 64.3226 76.6834 64.4772 76.8422 64.5719L94.8198 75.9852C94.91 76.0441 95.0121 76.0816 95.1187 76.0949C95.2252 76.1082 95.3334 76.0969 95.435 76.062L103.759 73.2066C103.904 73.1575 104.027 73.0594 104.108 72.9289C104.189 72.7984 104.223 72.6436 104.204 72.4906L103.96 70.4944L103.934 70.2868L103.113 63.6713C103.1 63.5647 103.063 63.4626 103.005 63.3722C102.948 63.2818 102.871 63.2053 102.781 63.1484L84.8035 51.7351C84.6509 51.6326 84.4645 51.5951 84.2848 51.6309C84.1051 51.6666 83.9466 51.7727 83.8437 51.926ZM84.7379 51.8326L102.715 63.2459C102.79 63.2931 102.854 63.3565 102.901 63.4315C102.949 63.5065 102.979 63.5912 102.99 63.6796L103.796 70.2952L103.825 70.5151L104.067 72.5052C104.084 72.6301 104.058 72.7572 103.993 72.8645C103.927 72.9718 103.826 73.0524 103.708 73.0924L95.3817 75.9499C95.2981 75.9776 95.2095 75.9862 95.1223 75.975C95.0351 75.9639 94.9514 75.9334 94.8772 75.8856L76.8996 64.4723C76.8347 64.4341 76.7779 64.3834 76.7325 64.3229C76.6871 64.2625 76.6539 64.1935 76.6348 64.1201C76.6158 64.0466 76.6112 63.9701 76.6215 63.8949C76.6317 63.8196 76.6565 63.7472 76.6945 63.6817L83.9422 52.0007C83.9832 51.9365 84.0365 51.8812 84.0989 51.838C84.1613 51.7948 84.2316 51.7646 84.3057 51.7492C84.3797 51.7337 84.4561 51.7333 84.5303 51.748C84.6045 51.7627 84.675 51.7922 84.7379 51.8347V51.8326Z" fill="#263238"/>
<path d="M81.0229 60.5669C81.1349 60.5302 81.2564 60.5376 81.3632 60.5876C81.4701 60.6376 81.5543 60.7266 81.5992 60.8367C81.7483 61.3981 82.0994 61.8829 82.5836 62.1959C82.9228 62.4006 83.3126 62.5035 83.7074 62.4926C83.9761 62.4959 84.2353 62.3923 84.4293 62.2042C84.4932 62.1343 84.5334 62.0456 84.5442 61.951C84.5542 61.8363 84.5336 61.7209 84.4847 61.6169C84.3024 61.2579 84.0482 60.9413 83.7382 60.6872C83.4607 60.4445 83.2166 60.1654 83.0122 59.8572C82.8243 59.5845 82.7346 59.2549 82.7579 58.9234C82.7915 58.685 82.8926 58.4615 83.0491 58.2801C83.2321 58.0845 83.4524 57.9285 83.6967 57.8215C83.941 57.7145 84.2042 57.6587 84.4703 57.6575C85.0222 57.6356 85.5687 57.7738 86.0454 58.056C86.757 58.471 87.0072 59.1039 87.2 59.548C87.2184 59.6027 87.2253 59.6607 87.2203 59.7183C87.2153 59.7759 87.1984 59.8317 87.1708 59.8823C87.1432 59.9329 87.1054 59.9771 87.06 60.0121C87.0145 60.0471 86.9623 60.0721 86.9067 60.0855C86.7994 60.1353 86.6772 60.1415 86.5654 60.1029C86.4536 60.0643 86.3607 59.9838 86.3058 59.8779C86.1151 59.4339 85.9223 59.0085 85.4712 58.7511C85.1636 58.5588 84.8071 58.4622 84.4457 58.4731C84.3275 58.4715 84.21 58.4937 84.1002 58.5382C83.9904 58.5827 83.8904 58.6487 83.8059 58.7325C83.7493 58.7929 83.7152 58.8714 83.7095 58.9545C83.7001 59.0525 83.7163 59.1513 83.7567 59.2409C83.9191 59.5675 84.1484 59.8554 84.4293 60.0855H84.4437C84.748 60.3428 85.0139 60.6434 85.2333 60.9778C85.4269 61.2668 85.52 61.6129 85.4978 61.9614C85.465 62.2155 85.3554 62.4532 85.184 62.642C84.9914 62.8495 84.7593 63.0155 84.5017 63.13C84.2441 63.2445 83.9662 63.3051 83.6849 63.3081C83.0937 63.3285 82.5089 63.178 81.9991 62.8744C81.3456 62.4667 80.8698 61.8228 80.6681 61.0732C80.6491 60.9585 80.6757 60.8408 80.7422 60.746C80.8087 60.6511 80.9096 60.5867 81.0229 60.5669Z" fill="#2E90FA"/>
<path d="M85.5772 64.6344C85.4873 64.6906 85.3843 64.7216 85.2787 64.7241C85.1731 64.7267 85.0687 64.7007 84.9763 64.6489C84.9276 64.6196 84.8834 64.5832 84.8451 64.541C84.8109 64.4885 84.7882 64.4292 84.7786 64.367C84.7691 64.3049 84.7727 64.2414 84.7895 64.1808C84.8062 64.1203 84.8355 64.064 84.8755 64.0159C84.9156 63.9678 84.9653 63.9289 85.0214 63.9019L90.1095 60.8494C90.2014 60.791 90.3073 60.7592 90.4157 60.7574C90.5242 60.7556 90.631 60.7838 90.7248 60.839C90.8115 60.8814 90.8801 60.9542 90.9178 61.0439C90.9555 61.1335 90.9598 61.234 90.9299 61.3266L89.1949 66.3755C89.1423 66.5029 89.0472 66.6076 88.9261 66.6713C88.8051 66.735 88.6657 66.7537 88.5324 66.7241C88.475 66.7098 88.4198 66.6874 88.3684 66.6577C88.2864 66.613 88.2229 66.5401 88.1894 66.4522C88.1559 66.3643 88.1546 66.2671 88.1859 66.1783L88.5632 65.0702L86.7175 63.9724L85.5772 64.6344ZM88.8708 64.126L89.5025 62.2812L87.6567 63.3997L88.8708 64.126Z" fill="#2E90FA"/>
<path d="M89.9424 67.002L93.3549 62.9493C93.4443 62.8448 93.5667 62.7748 93.7014 62.7513C93.836 62.7279 93.9745 62.7524 94.0932 62.8206C94.1462 62.8497 94.1919 62.8907 94.2266 62.9405C94.2614 62.9903 94.2843 63.0475 94.2936 63.1078C94.303 63.168 94.2984 63.2296 94.2804 63.2878C94.2624 63.3459 94.2313 63.3991 94.1896 63.4432L91.097 67.1182L93.1478 68.3384C93.1988 68.3692 93.2425 68.4107 93.276 68.4603C93.3096 68.5098 93.3321 68.5661 93.342 68.6253C93.352 68.6845 93.3491 68.7451 93.3336 68.8031C93.3182 68.861 93.2904 68.9149 93.2524 68.9609C93.1601 69.0644 93.0362 69.1335 92.9004 69.1572C92.7647 69.1809 92.6251 69.1578 92.5038 69.0917L90.0429 67.6391C90.0429 67.6391 90.0429 67.6391 90.0429 67.6266H90.0305C89.9784 67.5963 89.9339 67.5544 89.9001 67.5041C89.8664 67.4537 89.8445 67.3963 89.836 67.3361C89.8275 67.2759 89.8327 67.2145 89.8511 67.1566C89.8695 67.0988 89.9007 67.0459 89.9424 67.002Z" fill="#2E90FA"/>
<path d="M93.9686 69.4444L97.3832 65.3854C97.4739 65.2829 97.5962 65.2143 97.7302 65.191C97.8643 65.1676 98.0022 65.1908 98.1215 65.2568L100.583 66.7094C100.635 66.7385 100.681 66.7794 100.715 66.8288C100.75 66.8783 100.774 66.9351 100.784 66.995C100.794 67.0549 100.79 67.1163 100.774 67.1747C100.757 67.233 100.727 67.2868 100.687 67.3319C100.596 67.4349 100.474 67.5043 100.339 67.5291C100.205 67.5539 100.066 67.5327 99.9447 67.4689L97.8939 66.2487L96.8254 67.5124L98.5994 68.5666C98.6527 68.5953 98.6986 68.6362 98.7337 68.686C98.7687 68.7358 98.7918 68.7932 98.8011 68.8535C98.8104 68.9139 98.8058 68.9757 98.7875 69.0339C98.7692 69.0921 98.7378 69.1453 98.6958 69.1891C98.6062 69.2933 98.4838 69.363 98.3493 69.3865C98.2147 69.4099 98.0764 69.3857 97.9575 69.3178L96.1917 68.2678L95.1273 69.5647L97.1782 70.7849C97.2311 70.8158 97.2766 70.8582 97.3113 70.9091C97.3459 70.96 97.3689 71.0181 97.3786 71.0792C97.3882 71.1403 97.3842 71.2027 97.3669 71.262C97.3497 71.3213 97.3195 71.376 97.2786 71.422C97.187 71.523 97.0649 71.5906 96.9314 71.6142C96.7979 71.6379 96.6605 71.6163 96.5403 71.5527L94.0794 70.0877C94.0246 70.0579 93.9772 70.0159 93.9409 69.9649C93.9045 69.9139 93.88 69.8552 93.8694 69.7933C93.8587 69.7313 93.8621 69.6677 93.8793 69.6073C93.8965 69.5468 93.927 69.4911 93.9686 69.4444Z" fill="#2E90FA"/>
<path d="M102.271 71.6401L102.425 71.7854C102.45 71.8103 102.548 71.9016 102.708 72.0427C102.728 72.0614 102.747 72.0794 102.768 72.0967C103.432 72.6797 104.126 73.2269 104.847 73.736L104.927 73.7921L105.001 73.846C105.063 73.7997 105.117 73.7437 105.161 73.68L105.089 73.6302L105.013 73.5762C104.264 73.0495 103.542 72.4829 102.852 71.8788C102.847 71.871 102.84 71.8645 102.831 71.8601C102.831 71.8601 102.815 71.8456 102.809 71.8373L102.735 71.7729L102.833 71.7543C102.852 71.6818 102.86 71.607 102.858 71.5322C102.62 71.5717 102.483 71.5986 102.479 71.6007L102.271 71.6401Z" fill="#263238"/>
</svg>
