<svg width="288" height="157" viewBox="0 0 288 157" fill="none" xmlns="http://www.w3.org/2000/svg">
<path d="M0 5C0 2.23857 2.23858 0 5 0H283C285.761 0 288 2.23858 288 5V157H0V5Z" fill="#98DACE"/>
<path d="M184.719 155.901C173.676 149.093 170.444 135.402 170.119 122.938C170.064 120.859 169.707 118.683 170.577 116.803C171.447 114.922 173.662 113.539 175.562 114.3C177.137 114.931 177.911 116.687 178.854 118.116C180.118 120.026 181.892 121.536 183.973 122.472C185.346 123.081 186.976 123.394 188.226 122.602C189.947 121.504 190.007 119.02 189.869 116.955C189.619 113.11 189.366 109.269 189.109 105.431C188.972 103.366 188.839 101.259 189.361 99.2586C189.883 97.258 191.192 95.3543 193.097 94.6859C195.001 94.0175 197.496 95.004 198.028 96.9907C198.252 97.8204 198.133 98.7055 198.243 99.5582C198.353 100.411 198.801 101.333 199.616 101.527C200.431 101.72 201.237 101.066 201.814 100.439C203.805 98.2261 205.078 95.4557 206.259 92.6992C207.44 89.9426 208.58 87.1354 210.379 84.743C212.179 82.3506 214.715 80.3916 217.64 80.0458C220.566 79.7001 223.807 81.3319 224.723 84.1945C225.639 87.057 224.132 90.1178 222.434 92.5839C219.921 96.2452 216.896 99.5212 213.451 102.31C212.829 102.813 212.16 103.357 211.959 104.154C211.597 105.537 212.971 106.846 214.349 107.215C215.91 107.634 217.553 107.376 219.17 107.468C220.786 107.56 222.553 108.164 223.249 109.649C224.215 111.709 222.594 114.028 220.96 115.581C217.677 118.69 213.887 121.206 209.757 123.021C208.283 123.671 206.722 124.256 205.572 125.395C204.423 126.534 203.796 128.437 204.616 129.848C205.435 131.258 207.362 131.609 208.914 131.231C210.466 130.853 211.84 129.889 213.314 129.226C216.061 127.986 219.724 127.958 221.669 130.3C222.951 131.839 223.194 134.079 222.708 136.038C222.223 137.998 221.106 139.726 219.902 141.33C215.708 146.94 210.183 151.587 203.782 154.265C197.382 156.943 191.362 157.952 184.719 155.933" fill="#BDE2C3"/>
<path d="M187 147.927C188.686 141.074 190.772 134.321 193.25 127.701C193.898 125.94 194.537 124.201 195.169 122.483C195.803 120.77 196.432 119.077 197.149 117.447C198.542 114.334 200.109 111.297 201.842 108.351C203.475 105.531 205.126 102.907 206.694 100.472C208.261 98.0365 209.777 95.7887 211.241 93.8019C213.534 90.6511 216.082 87.6843 218.861 84.9299C219.842 83.9548 220.625 83.2223 221.165 82.7325L221.784 82.1785C221.852 82.1145 221.924 82.0548 222 82C222 82 221.944 82.0733 221.812 82.206L221.221 82.7874C220.7 83.2956 219.931 84.0418 218.969 85.0306C216.241 87.8193 213.732 90.8033 211.461 93.9575C210.016 95.9489 208.524 98.1967 206.966 100.641C205.408 103.086 203.77 105.709 202.151 108.529C200.435 111.467 198.884 114.495 197.506 117.598C196.793 119.209 196.173 120.894 195.54 122.611C194.907 124.328 194.273 126.067 193.626 127.825C191.152 134.431 189.059 141.166 187.357 148" fill="#7DAD7C"/>
<path d="M197 117C196.896 116.727 196.819 116.444 196.769 116.154C196.638 115.605 196.474 114.804 196.285 113.804C195.906 111.815 195.469 109.047 194.998 105.995C194.527 102.944 194.056 100.185 193.652 98.2091C193.45 97.2189 193.278 96.4088 193.156 95.8687C193.075 95.5857 193.023 95.2946 193 95C193.124 95.2637 193.22 95.5415 193.286 95.8281C193.45 96.3682 193.656 97.1784 193.887 98.1461C194.359 100.117 194.872 102.872 195.343 105.932C195.814 108.993 196.213 111.671 196.529 113.755C196.676 114.696 196.802 115.488 196.903 116.122C196.966 116.41 196.999 116.704 197 117Z" fill="#7DAD7C"/>
<path d="M224 111.006C223.645 111.092 223.282 111.149 222.916 111.179C222.224 111.272 221.216 111.402 219.975 111.601C217.494 111.976 214.085 112.6 210.363 113.434C206.641 114.269 203.303 115.162 200.892 115.87C199.694 116.212 198.733 116.515 198.051 116.713C197.713 116.84 197.36 116.936 197 117C197.318 116.833 197.653 116.692 197.999 116.578C198.648 116.334 199.6 115.997 200.788 115.622C203.156 114.855 206.499 113.936 210.259 113.093C213.448 112.369 216.677 111.792 219.932 111.364C221.183 111.2 222.196 111.107 222.901 111.057C223.265 111.006 223.633 110.99 224 111.006Z" fill="#7DAD7C"/>
<path d="M188 147C187.917 146.906 187.846 146.803 187.789 146.692C187.646 146.439 187.474 146.131 187.258 145.773C186.78 144.964 186.172 143.774 185.411 142.298C183.895 139.343 181.928 135.197 179.823 130.597C177.718 125.996 175.794 121.832 174.34 118.849L172.617 115.31L172.139 114.349C172.073 114.241 172.026 114.123 172 114C172.081 114.096 172.15 114.201 172.206 114.313L172.737 115.232C173.215 116.045 173.828 117.231 174.589 118.711C176.105 121.666 178.072 125.812 180.177 130.413C182.282 135.013 184.206 139.173 185.66 142.156L187.392 145.681L187.871 146.646C187.933 146.757 187.977 146.876 188 147Z" fill="#7DAD7C"/>
<path d="M222 134C221.896 134.068 221.783 134.122 221.665 134.16L220.676 134.551L217.05 135.949C213.973 137.13 209.748 138.813 205.079 140.673C200.411 142.533 196.159 144.181 193.059 145.3C191.508 145.859 190.248 146.298 189.373 146.587L188.363 146.911C188.247 146.958 188.125 146.988 188 147C188.105 146.934 188.218 146.881 188.335 146.84L189.324 146.454L192.95 145.055C196.027 143.874 200.257 142.192 204.925 140.331C209.594 138.471 213.841 136.837 216.928 135.705C218.478 135.141 219.738 134.702 220.613 134.413L221.624 134.089C221.744 134.041 221.871 134.011 222 134Z" fill="#7DAD7C"/>
<path d="M234.438 55.504C233.091 58.8722 230.939 64.317 229.948 66.8187C229.808 67.173 229.815 67.5682 229.966 67.9176C230.118 68.2669 230.402 68.5421 230.755 68.6827L239.959 72.3485C240.135 72.4186 240.322 72.4533 240.511 72.4508C240.7 72.4483 240.886 72.4085 241.06 72.3338C241.233 72.2591 241.39 72.1508 241.522 72.0153C241.654 71.8798 241.757 71.7196 241.827 71.544L246.291 60.3209C246.447 59.9312 246.524 59.5147 246.519 59.0951C246.513 58.6755 246.425 58.2612 246.259 57.8757C246.093 57.4903 245.853 57.1413 245.552 56.8488C245.251 56.5563 244.895 56.326 244.505 56.1711L245.16 54.536L239.135 52.1455L238.514 53.6956H238.491C237.712 53.4127 236.855 53.4431 236.099 53.7806C235.343 54.118 234.747 54.7359 234.438 55.504Z" fill="#F5F5F5"/>
<path d="M239.054 52.3447L238.756 53.0937L244.695 55.7103L245.081 54.7454L239.054 52.3447Z" fill="#E0E0E0"/>
<path d="M240.26 49.9317L245.878 52.1697C246.12 52.266 246.314 52.4544 246.416 52.6935C246.519 52.9325 246.523 53.2027 246.427 53.4444L245.831 54.9393C245.769 55.0949 245.648 55.2194 245.494 55.2856C245.34 55.3518 245.167 55.3541 245.011 55.2922L238.746 52.7963C238.59 52.7344 238.466 52.6132 238.399 52.4594C238.333 52.3056 238.331 52.1318 238.393 51.9763L238.988 50.4814C239.085 50.2396 239.273 50.046 239.512 49.9432C239.751 49.8403 240.021 49.8366 240.263 49.9329L240.26 49.9317Z" fill="#EBEBEB"/>
<path d="M239.115 52.9412C239.233 52.4189 239.405 51.9103 239.629 51.4236C239.803 50.9156 240.029 50.4268 240.302 49.9648C240.185 50.4904 240.012 51.0022 239.789 51.4923C239.618 51.9984 239.392 52.4843 239.115 52.9412Z" fill="#E0E0E0"/>
<path d="M239.908 53.2576C240.027 52.7343 240.199 52.2246 240.422 51.7367C240.592 51.2283 240.818 50.7402 241.095 50.2812C240.977 50.8045 240.805 51.3142 240.582 51.8021C240.412 52.3105 240.186 52.7986 239.908 53.2576Z" fill="#E0E0E0"/>
<path d="M240.703 53.5748C240.821 53.0514 240.993 52.5417 241.217 52.0539C241.388 51.5447 241.613 51.0555 241.89 50.5952C241.773 51.1188 241.601 51.6286 241.377 52.1161C241.203 52.6241 240.977 53.1129 240.703 53.5748Z" fill="#E0E0E0"/>
<path d="M241.5 53.8922C241.615 53.3681 241.788 52.8582 242.014 52.3713C242.184 51.862 242.41 51.3729 242.687 50.9126C242.569 51.4362 242.395 51.946 242.17 52.4335C241.997 52.9414 241.773 53.4302 241.5 53.8922Z" fill="#E0E0E0"/>
<path d="M242.293 54.2063C242.409 53.6825 242.582 53.1726 242.806 52.6854C242.973 52.1788 243.192 51.691 243.461 51.23C243.344 51.7538 243.172 52.2637 242.947 52.7509C242.78 53.2575 242.561 53.7453 242.293 54.2063Z" fill="#E0E0E0"/>
<path d="M243.094 54.5231C243.212 53.9994 243.386 53.4897 243.611 53.0022C243.784 52.4943 244.008 52.0055 244.281 51.5435C244.166 52.0675 243.993 52.5775 243.768 53.0643C243.597 53.5736 243.371 54.0628 243.094 54.5231Z" fill="#E0E0E0"/>
<path d="M243.879 54.8409C243.996 54.3174 244.168 53.8076 244.392 53.3201C244.567 52.812 244.792 52.3232 245.066 51.8613C244.948 52.3848 244.776 52.8945 244.553 53.3822C244.382 53.8915 244.156 54.3806 243.879 54.8409Z" fill="#E0E0E0"/>
<path d="M244.674 55.1546C244.792 54.6323 244.964 54.1237 245.187 53.637C245.358 53.1277 245.584 52.6385 245.861 52.1782C245.743 52.7015 245.571 53.2112 245.348 53.6991C245.176 54.2069 244.95 54.6948 244.674 55.1546Z" fill="#E0E0E0"/>
<path d="M243.651 61.0675L235.915 57.9862C235.666 57.8873 235.385 58.0085 235.286 58.2568L233.368 63.0697C233.269 63.318 233.39 63.5996 233.639 63.6985L241.375 66.7797C241.623 66.8786 241.905 66.7575 242.004 66.5091L243.921 61.6963C244.02 61.4479 243.899 61.1664 243.651 61.0675Z" fill="#EBEBEB"/>
<path d="M241.411 66.3254C241.42 66.2921 241.431 66.2594 241.444 66.2273L241.542 65.9592L241.925 64.9487C242.252 64.0756 242.742 62.8427 243.325 61.3515L243.361 61.4398L235.786 58.4411C235.763 58.4411 235.995 58.3528 235.897 58.3953V58.4149L235.88 58.4575L235.848 58.5392L235.782 58.7027L235.652 59.0297C235.563 59.2456 235.478 59.4614 235.393 59.6838C235.223 60.1121 235.066 60.534 234.886 60.9493L233.931 63.3332L233.889 63.2319L239.305 65.4294L240.862 66.0834L241.28 66.26C241.331 66.2803 241.38 66.3032 241.428 66.3287L241.29 66.2829L240.881 66.1292L239.325 65.5341L233.83 63.3856L233.758 63.3594L233.787 63.2842C234.088 62.5255 234.402 61.7276 234.732 60.897C234.896 60.4817 235.06 60.0598 235.236 59.6314C235.321 59.4156 235.406 59.1998 235.495 58.9774L235.622 58.6504L235.691 58.4869L235.723 58.4051L235.74 58.3626V58.343L235.854 58.2939L243.419 61.3025L243.482 61.3286L243.455 61.3908C242.841 62.895 242.334 64.1312 241.977 65.0108L241.565 65.9919L241.457 66.2437C241.431 66.3025 241.416 66.3298 241.411 66.3254Z" fill="#E0E0E0"/>
<path d="M241.574 62.506C240.683 62.2442 239.81 61.9285 238.957 61.5607C238.088 61.2456 237.24 60.8775 236.416 60.4585C237.307 60.7189 238.181 61.0346 239.033 61.4037C239.901 61.7191 240.75 62.0871 241.574 62.506Z" fill="#E0E0E0"/>
<path d="M241.226 63.379C240.335 63.1192 239.461 62.8035 238.61 62.4338C237.741 62.1171 236.893 61.7491 236.068 61.3315C236.959 61.5925 237.833 61.9082 238.685 62.2768C239.553 62.5926 240.402 62.9607 241.226 63.379Z" fill="#E0E0E0"/>
<path d="M240.894 64.2193C240.003 63.9601 239.129 63.6444 238.278 63.2741C237.409 62.9582 236.56 62.5902 235.736 62.1719C236.628 62.4317 237.501 62.7474 238.353 63.1171C239.221 63.4337 240.07 63.8018 240.894 64.2193Z" fill="#E0E0E0"/>
<path d="M244.181 55.9951C243.217 55.7035 242.27 55.3574 241.345 54.9583C240.398 54.6111 239.471 54.2114 238.568 53.7612C239.534 54.0513 240.482 54.3975 241.407 54.798C242.354 55.1449 243.279 55.5445 244.181 55.9951Z" fill="#E0E0E0"/>
<path d="M230.701 66.3668C230.748 66.1815 230.81 66 230.884 65.824C231.025 65.4545 231.211 64.964 231.44 64.3688C231.915 63.1425 232.582 61.4551 233.331 59.5944C233.707 58.6656 234.063 57.7794 234.394 56.9782C234.649 56.2398 235.056 55.5626 235.588 54.99C235.964 54.6117 236.451 54.3631 236.978 54.2804C237.12 54.264 237.264 54.264 237.406 54.2804C237.455 54.2858 237.504 54.2979 237.55 54.3163C237.362 54.3132 237.174 54.3241 236.987 54.349C236.488 54.4556 236.032 54.7096 235.679 55.0783C235.172 55.6487 234.786 56.3162 234.544 57.0404C234.217 57.8514 233.867 58.7376 233.494 59.6565C232.749 61.5172 232.062 63.2013 231.558 64.4146L230.953 65.8469C230.884 66.0271 230.8 66.2011 230.701 66.3668Z" fill="white"/>
<path d="M241.044 72.2838C240.915 72.1994 240.794 72.1018 240.684 71.9927C240.573 71.8913 240.433 71.7736 240.266 71.6427C240.099 71.5119 239.919 71.3517 239.7 71.1979C239.201 70.8231 238.68 70.478 238.14 70.1644C237.477 69.791 236.79 69.4632 236.083 69.1832C235.372 68.9042 234.643 68.6737 233.901 68.4931C233.294 68.348 232.679 68.2388 232.06 68.166C231.795 68.1267 231.553 68.1169 231.343 68.0973C231.134 68.0777 230.948 68.0711 230.8 68.0679C230.645 68.0689 230.489 68.0569 230.336 68.0319C230.489 68.0052 230.645 67.9943 230.8 67.9992C230.951 67.9992 231.127 67.9992 231.347 67.9992C231.566 67.9992 231.804 67.9992 232.069 68.0417C232.698 68.0967 233.321 68.1928 233.937 68.3295C234.689 68.5045 235.428 68.7329 236.148 69.0131C236.863 69.3036 237.556 69.6457 238.222 70.0368C238.762 70.3606 239.281 70.719 239.775 71.1096C239.988 71.2699 240.168 71.4367 240.328 71.5773C240.467 71.6947 240.6 71.8191 240.727 71.9502C240.843 72.0514 240.949 72.1631 241.044 72.2838Z" fill="white"/>
<path d="M68.8457 69.7965L43.5208 81.9824C43.1285 82.1712 42.9636 82.6422 43.1524 83.0344L60.1515 118.35C60.3403 118.742 60.8113 118.907 61.2036 118.718L86.5285 106.532C86.9207 106.344 87.0857 105.873 86.8969 105.481L69.8978 70.1648C69.709 69.7726 69.2379 69.6077 68.8457 69.7965Z" fill="#E0E0E0"/>
<path d="M68.4416 70.9552L44.6816 82.3882L61.1404 116.581L84.9003 105.148L68.4416 70.9552Z" fill="#FAFAFA"/>
<path d="M61.6427 74.8632C61.1682 74.4959 60.6006 74.2682 60.0037 74.2058C59.4068 74.1434 58.8043 74.2488 58.2641 74.51L57.5347 73.0744C57.2803 72.5481 56.8281 72.1437 56.2766 71.9495C55.7251 71.7553 55.1192 71.787 54.5911 72.0378C54.3282 72.164 54.0928 72.3409 53.8984 72.5582C53.704 72.7755 53.5543 73.029 53.458 73.3042C53.3617 73.5794 53.3207 73.8708 53.3372 74.1619C53.3537 74.453 53.4275 74.738 53.5543 75.0006L54.2836 76.5146L53.7767 76.7697C53.2476 77.0354 52.8016 77.4412 52.4873 77.9429C52.173 78.4445 52.0024 79.0228 51.9941 79.6147V80.3669L62.3394 75.3897L61.6427 74.8632ZM56.1218 75.0987C55.909 75.2005 55.6708 75.2371 55.4372 75.2037C55.2036 75.1703 54.9852 75.0685 54.8095 74.9111C54.6338 74.7537 54.5087 74.5477 54.4499 74.3192C54.3912 74.0908 54.4015 73.85 54.4795 73.6274C54.5575 73.4048 54.6998 73.2103 54.8883 73.0684C55.0768 72.9266 55.3031 72.8438 55.5387 72.8304C55.7742 72.8171 56.0085 72.8739 56.2118 72.9935C56.4151 73.1132 56.5784 73.2904 56.681 73.5028C56.7494 73.6443 56.7892 73.7978 56.798 73.9547C56.8069 74.1115 56.7848 74.2686 56.7328 74.4168C56.6808 74.5651 56.6001 74.7016 56.4953 74.8187C56.3904 74.9357 56.2635 75.0308 56.1218 75.0987Z" fill="#EBEBEB"/>
<path d="M55.8228 82.9927C55.8457 83.0352 54.4196 83.7646 52.6404 84.628C50.8611 85.4915 49.4024 86.1424 49.3697 86.0999C49.337 86.0573 50.7728 85.328 52.5521 84.4645C54.3313 83.601 55.8032 82.9502 55.8228 82.9927Z" fill="#E0E0E0"/>
<path d="M53.0082 85.6836C52.5318 86.0076 52.0246 86.2837 51.4939 86.5078C50.987 86.778 50.4545 86.9972 49.9043 87.162C50.3848 86.8436 50.8952 86.573 51.4284 86.3541C51.9328 86.0815 52.4617 85.857 53.0082 85.6836Z" fill="#E0E0E0"/>
<path d="M69.6019 81.4299C69.6215 81.4691 65.6247 83.4378 60.6729 85.8184C55.7211 88.1991 51.6916 90.0991 51.6719 90.0696C51.6523 90.0402 55.6491 88.0487 60.5879 85.6647C65.5266 83.2808 69.5823 81.3874 69.6019 81.4299Z" fill="#E0E0E0"/>
<path d="M70.4242 83.1369C70.4438 83.1794 66.447 85.1448 61.4952 87.5287C56.5433 89.9127 52.5138 91.8094 52.4942 91.7799C52.4746 91.7505 56.4681 89.7721 61.4232 87.3881C66.3783 85.0042 70.398 83.0944 70.4242 83.1369Z" fill="#E0E0E0"/>
<path d="M71.2465 84.8469C71.2694 84.8894 67.2693 86.8548 62.3207 89.2387C57.3722 91.6226 53.3394 93.5193 53.3165 93.4899C53.2936 93.4605 57.2937 91.482 62.2455 89.0981C67.1973 86.7141 71.2268 84.8044 71.2465 84.8469Z" fill="#E0E0E0"/>
<path d="M72.0707 86.5573C72.0903 86.5998 68.0935 88.5652 63.1417 90.9492C58.1898 93.3331 54.1603 95.2265 54.1407 95.2003C54.1211 95.1742 58.1179 93.1925 63.0697 90.8118C68.0215 88.4311 72.051 86.5148 72.0707 86.5573Z" fill="#E0E0E0"/>
<path d="M72.8929 88.2643C72.9126 88.3068 68.9158 90.2754 63.9639 92.6561C59.0121 95.0368 54.9826 96.9367 54.963 96.9073C54.9433 96.8779 58.9499 94.8863 63.8887 92.5024C68.8275 90.1184 72.87 88.225 72.8929 88.2643Z" fill="#E0E0E0"/>
<path d="M73.7152 89.9743C73.7348 90.0168 69.738 91.9822 64.7895 94.3661C59.8409 96.7501 55.8049 98.6468 55.7852 98.6173C55.7656 98.5879 59.7624 96.6095 64.7142 94.2255C69.6661 91.8416 73.6956 89.9318 73.7152 89.9743Z" fill="#E0E0E0"/>
<path d="M65.4904 95.8315C65.3894 95.9105 65.2797 95.9774 65.1633 96.0311L64.2148 96.5184C63.4102 96.9207 62.2916 97.4702 61.0553 98.0654C59.819 98.6607 58.6906 99.1938 57.8729 99.5699L56.8917 100.008C56.7757 100.069 56.6527 100.115 56.5254 100.146C56.6279 100.069 56.7374 100.002 56.8525 99.9461L57.801 99.462C58.6056 99.0565 59.7241 98.507 60.9605 97.9117C62.1968 97.3164 63.3252 96.7866 64.1428 96.4105L65.1241 95.9722C65.2404 95.9116 65.3633 95.8644 65.4904 95.8315Z" fill="#E0E0E0"/>
<path d="M68.3228 76.7856C67.8847 77.0906 67.4155 77.3483 66.923 77.5543C66.4558 77.8113 65.9624 78.0174 65.4512 78.1691C65.8893 77.8642 66.3585 77.6065 66.851 77.4005C67.3182 77.1435 67.8117 76.9374 68.3228 76.7856Z" fill="#E0E0E0"/>
<path d="M63.205 101.525C62.4695 101.975 61.7046 102.375 60.9155 102.722C60.1509 103.121 59.3609 103.47 58.5508 103.765C59.2862 103.315 60.0511 102.915 60.8403 102.568C61.6049 102.169 62.3948 101.821 63.205 101.525Z" fill="#E0E0E0"/>
<path d="M64.1136 102.996C63.3649 103.451 62.587 103.857 61.7848 104.21C61.0076 104.616 60.2045 104.971 59.3809 105.272C60.1303 104.818 60.9081 104.411 61.7096 104.056C62.4873 103.651 63.2903 103.297 64.1136 102.996Z" fill="#E0E0E0"/>
<path d="M76.6135 94.7852C76.2822 95.0409 75.9167 95.249 75.5276 95.4033C75.1627 95.6108 74.7709 95.7671 74.3633 95.8678C74.6976 95.6147 75.0638 95.4068 75.4524 95.2496C75.8171 95.0439 76.2076 94.8877 76.6135 94.7852Z" fill="#E0E0E0"/>
<path d="M77.3577 96.1455C77.0234 96.3986 76.6572 96.6064 76.2685 96.7637C75.9038 96.9693 75.5134 97.1255 75.1074 97.2281C75.4387 96.9723 75.8042 96.7642 76.1933 96.61C76.5583 96.4025 76.9501 96.2462 77.3577 96.1455Z" fill="#E0E0E0"/>
<path d="M62.7258 105.671C62.4052 105.918 62.0518 106.12 61.6759 106.27C61.3232 106.47 60.9446 106.621 60.5508 106.718C60.871 106.466 61.2242 106.259 61.6007 106.103C61.954 105.908 62.3326 105.763 62.7258 105.671Z" fill="#E0E0E0"/>
<path d="M78.2167 97.7383C77.99 97.9415 77.727 98.1002 77.4415 98.206C77.1784 98.3643 76.8894 98.475 76.5879 98.5331C76.8155 98.3286 77.0796 98.1688 77.3663 98.0621C77.6274 97.9026 77.9157 97.7928 78.2167 97.7383Z" fill="#E0E0E0"/>
<path d="M62.1797 110.466C62.2078 110.44 62.2385 110.417 62.2713 110.398L62.546 110.214L63.6024 109.537L67.3997 107.153L67.4749 107.104L67.5077 107.186C67.6871 107.647 67.7021 108.157 67.5502 108.628C67.473 108.884 67.3387 109.119 67.1574 109.315C66.976 109.511 66.7524 109.663 66.5035 109.76C66.2373 109.867 65.9486 109.907 65.6633 109.875C65.3779 109.844 65.1048 109.742 64.8682 109.58C64.6316 109.397 64.4542 109.148 64.3582 108.865C64.2622 108.582 64.2519 108.276 64.3285 107.987C64.3874 107.765 64.4997 107.561 64.6556 107.392C64.6938 107.349 64.7354 107.31 64.7799 107.274C64.8241 107.234 64.8736 107.2 64.9271 107.173C64.9624 107.154 65.0017 107.145 65.0415 107.145C65.0814 107.145 65.1207 107.154 65.156 107.173C65.2118 107.211 65.2568 107.263 65.2869 107.323C65.4843 107.697 65.596 108.111 65.6139 108.533C65.6388 108.94 65.5752 109.347 65.4275 109.727C65.3026 110.107 65.0553 110.435 64.7243 110.659C64.5564 110.759 64.3637 110.81 64.1683 110.806C63.9728 110.802 63.7824 110.743 63.6188 110.636C63.3141 110.445 63.0834 110.155 62.9647 109.815C62.8136 109.209 62.8136 108.574 62.9647 107.967L62.9843 107.843L63.0693 107.938C63.4163 108.333 63.6343 108.825 63.694 109.348C63.7397 109.738 63.7018 110.134 63.5828 110.509C63.5068 110.742 63.3966 110.962 63.2557 111.163C63.2034 111.232 63.1609 111.277 63.1315 111.31C63.102 111.343 63.0889 111.359 63.0857 111.356C63.2764 111.091 63.4232 110.797 63.5207 110.486C63.6234 110.119 63.6501 109.735 63.5992 109.358C63.5347 108.858 63.319 108.39 62.981 108.017L63.0857 107.987C62.9401 108.571 62.9401 109.182 63.0857 109.766C63.1954 110.074 63.4065 110.334 63.6842 110.506C63.8243 110.597 63.9873 110.647 64.1545 110.65C64.3217 110.653 64.4863 110.608 64.6294 110.522C64.9279 110.314 65.1506 110.014 65.264 109.668C65.3996 109.307 65.4576 108.922 65.434 108.537C65.4103 108.139 65.2986 107.751 65.107 107.402C65.0928 107.366 65.069 107.336 65.0383 107.313C65.0273 107.307 65.0149 107.304 65.0023 107.304C64.9897 107.304 64.9773 107.307 64.9663 107.313C64.8858 107.36 64.8139 107.419 64.7537 107.49C64.6214 107.639 64.5272 107.817 64.479 108.01C64.4108 108.267 64.4197 108.538 64.5047 108.79C64.5896 109.042 64.7467 109.263 64.9565 109.426C65.1683 109.569 65.4116 109.659 65.6657 109.688C65.9198 109.716 66.177 109.683 66.4152 109.59C66.6419 109.502 66.8456 109.364 67.0111 109.186C67.1765 109.008 67.2994 108.795 67.3703 108.563C67.515 108.127 67.5046 107.654 67.3408 107.225L67.4488 107.261L63.6188 109.593L62.5395 110.247L62.2549 110.411C62.2319 110.432 62.2067 110.451 62.1797 110.466Z" fill="#E0E0E0"/>
<path d="M79.1611 102.221C79.1602 102.326 79.1425 102.43 79.1088 102.529C79.0757 102.651 79.025 102.768 78.9584 102.875C78.867 103.031 78.7214 103.148 78.5495 103.203C78.4435 103.239 78.3285 103.239 78.2225 103.203C78.1134 103.158 78.0185 103.084 77.9477 102.99C77.8137 102.79 77.6914 102.583 77.5814 102.369L76.7801 100.871L76.9273 100.838C76.9011 101.587 76.8749 102.404 76.8422 103.261C76.8422 103.467 76.8422 103.667 76.8193 103.866V104.194L76.6721 103.889C76.2241 102.97 75.8087 102.11 75.4424 101.364H75.5797C75.3694 102.11 75.2594 102.88 75.2527 103.654C75.2527 104.213 75.2886 104.53 75.2723 104.534C75.2441 104.46 75.2276 104.383 75.2232 104.305C75.1936 104.088 75.1751 103.869 75.1676 103.651C75.1386 102.869 75.2245 102.088 75.4227 101.332L75.4718 101.142L75.5568 101.319L76.8095 103.834L76.646 103.866C76.646 103.67 76.646 103.467 76.6689 103.261C76.7048 102.404 76.7376 101.587 76.767 100.838V100.543L76.9011 100.802C77.1889 101.342 77.4538 101.845 77.6926 102.297C77.7958 102.509 77.9105 102.715 78.036 102.915C78.084 102.994 78.1556 103.056 78.2408 103.091C78.326 103.127 78.4203 103.135 78.5103 103.114C78.6402 103.068 78.7568 102.991 78.8498 102.89C78.9427 102.788 79.0093 102.665 79.0434 102.532C79.0756 102.426 79.115 102.322 79.1611 102.221Z" fill="#E0E0E0"/>
<path d="M79.1264 100.998C79.1526 101.034 77.8018 101.999 76.1108 103.15C74.4199 104.302 73.0265 105.201 73.0004 105.162C72.9742 105.123 74.3087 104.161 76.016 103.01C77.7233 101.858 79.1002 100.959 79.1264 100.998Z" fill="#E0E0E0"/>
<path d="M80.7871 101.283C80.0896 101.995 79.3514 102.667 78.5761 103.294C77.8388 103.966 77.0634 104.595 76.2539 105.178C76.9524 104.466 77.6906 103.795 78.4649 103.167C79.2022 102.495 79.9776 101.866 80.7871 101.283Z" fill="#E0E0E0"/>
<path d="M198.936 31.6676C198.583 28.8029 196.159 26.1312 193.271 26.1312C191.567 26.1312 189.948 27.0207 188.784 28.2634C188.37 28.6848 187.989 29.1362 187.642 29.6139C187.398 29.0776 187.114 28.5605 186.792 28.0672C185.896 26.6185 184.483 25.4249 182.811 25.0913C179.982 24.5256 177.081 26.6643 176.169 29.4047C175.256 32.145 176.015 35.2157 177.516 37.6814C179.017 40.1471 181.598 43.3682 186.347 44.9673C189.618 44.5455 194.02 41.6383 195.976 39.516C197.932 37.3936 199.279 34.529 198.936 31.6676Z" fill="#E86856"/>
<path d="M197.881 36.8083C197.849 36.8119 197.818 36.8119 197.786 36.8083L197.508 36.7887L196.438 36.7004L192.514 36.3407L192.586 36.2982C192.111 37.531 191.559 38.9764 190.95 40.5494L190.852 40.8044L190.787 40.5363C190.286 38.4696 189.73 36.151 189.151 33.7082C188.971 32.9528 188.792 32.2072 188.618 31.4812L188.785 31.514L185.789 35.6343L185.76 35.6736H185.711L178.816 34.9541L176.854 34.7383L176.337 34.6729C176.277 34.6697 176.217 34.6587 176.16 34.6402C176.22 34.6344 176.28 34.6344 176.34 34.6402L176.857 34.6762L178.819 34.8462L185.72 35.5003L185.645 35.533L188.628 31.406L188.746 31.2393L188.792 31.4387C188.968 32.1647 189.145 32.907 189.328 33.6657L190.963 40.4971H190.8C191.418 38.9176 191.984 37.4754 192.468 36.2459L192.484 36.1968H192.537L196.461 36.6154L197.524 36.7397L197.802 36.7756C197.83 36.7831 197.856 36.7941 197.881 36.8083Z" fill="#FAFAFA"/>
<path d="M127.909 49.5454H125.75V59.2218H127.909V49.5454Z" fill="#E86856"/>
<path d="M121.988 53.3028V55.4614H131.666V53.3028H121.988Z" fill="#E86856"/>
<path d="M211.711 68.7618C211.655 68.7618 211.605 68.7322 211.605 68.696C211.605 68.6598 211.655 68.627 211.711 68.627C211.767 68.627 211.816 68.6598 211.816 68.696C211.816 68.7322 211.77 68.7618 211.711 68.7618Z" fill="#EB996E"/>
<path d="M109.923 59.1307C109.962 57.7049 108.647 56.6061 107.306 56.0829C105.965 55.5597 104.507 55.3635 103.323 54.5688C102.276 53.8625 101.573 52.7637 100.687 51.8677C99.5929 50.7595 98.2241 49.9623 96.7205 49.5577C95.2169 49.1532 93.6327 49.156 92.1305 49.5657C90.6283 49.9755 89.2622 50.7775 88.1725 51.8895C87.0827 53.0014 86.3084 54.3833 85.9292 55.8933C85.4222 57.9208 85.7689 60.3178 87.3683 61.6683C89.2261 63.2315 91.9767 62.8848 94.3545 62.3976C96.7323 61.9103 99.4274 61.4165 101.413 62.826C102.61 63.6697 103.297 65.0399 104.029 66.3087C104.762 67.5775 105.665 68.8692 107.064 69.3467C108.464 69.8241 110.335 69 110.384 67.5383" fill="#263238"/>
<path d="M109.828 59.912C109.671 61.1056 110.534 62.175 111.394 63.0186C112.254 63.8623 113.226 64.7551 113.38 65.9618C113.556 67.3581 112.536 68.7316 112.833 70.1083C113.02 70.9815 113.7 71.6518 114.112 72.4465C114.658 73.5899 114.748 74.8984 114.364 76.1058C114.011 77.3092 113.445 79.994 112.608 80.9293C110.295 83.5127 106.616 85.7429 103.237 86.518C99.8585 87.293 96.3458 87.2995 92.8854 87.087C90.053 86.9136 86.7921 87.0444 84.4306 83.1464C83.2074 81.1255 82.6023 78.4439 81.9547 76.1745C81.3922 74.2124 80.9081 72.1293 81.4903 70.1803C81.8173 69.0488 82.514 68.0383 82.8476 66.9101C83.2663 65.4909 83.1125 63.967 83.2793 62.5052C83.4615 60.906 84.023 59.3735 84.9171 58.035C85.8112 56.6966 87.012 55.5909 88.4197 54.8101C89.8274 54.0293 91.4012 53.5959 93.0103 53.5459C94.6193 53.4959 96.217 53.8308 97.6704 54.5228" fill="#263238"/>
<path d="M84.6368 64.8072C84.9017 60.7424 87.6066 55.7587 91.659 56.1969L104.304 59.4213C104.897 59.4865 105.444 59.7713 105.839 60.2197C106.233 60.6681 106.444 61.2477 106.433 61.8445L105.01 92.3484L105.098 92.3648C105.098 92.3648 102.217 100.969 93.8537 98.3426C92.1954 97.8194 91.4366 96.0077 91.1095 94.1405H91.0245C91.0245 93.9181 91.0245 93.7121 91.0245 93.4865C90.8617 92.0957 90.8452 90.6916 90.9754 89.2974C90.9525 86.835 90.9558 85.8278 90.9525 85.8506C90.9493 85.8735 85.7587 84.9742 84.699 78.1952C84.1593 74.8499 84.3425 69.3233 84.6368 64.8072Z" fill="#FFBE9D"/>
<path d="M86.6739 68.8918C86.6704 69.1184 86.7557 69.3373 86.9115 69.5018C87.0674 69.6662 87.2815 69.7631 87.508 69.7716C87.6186 69.7805 87.7299 69.7673 87.8353 69.7326C87.9407 69.6979 88.0382 69.6426 88.122 69.5698C88.2057 69.497 88.2741 69.4082 88.3231 69.3086C88.3722 69.2091 88.4008 69.1007 88.4074 68.9899C88.4101 68.763 88.3241 68.5441 88.1677 68.3797C88.0113 68.2154 87.7968 68.1186 87.5701 68.1101C87.4597 68.1012 87.3485 68.1145 87.2433 68.1492C87.1381 68.1839 87.0408 68.2393 86.9573 68.3121C86.8738 68.385 86.8057 68.4738 86.757 68.5733C86.7084 68.6729 86.6801 68.7812 86.6739 68.8918Z" fill="#263238"/>
<path d="M85.8271 67.6852C85.935 67.7997 86.5957 67.3124 87.5311 67.3156C88.4666 67.3189 89.1665 67.7899 89.2548 67.6754C89.3039 67.6264 89.1927 67.4203 88.895 67.2044C88.492 66.9213 88.0105 66.7715 87.5181 66.776C87.0312 66.7719 86.5558 66.9231 86.1607 67.2077C85.8729 67.4301 85.7715 67.6329 85.8271 67.6852Z" fill="#263238"/>
<path d="M95.8673 68.8921C95.8645 69.1189 95.9506 69.3379 96.107 69.5023C96.2634 69.6666 96.4778 69.7634 96.7045 69.7719C96.815 69.7808 96.9261 69.7675 97.0314 69.7328C97.1366 69.6981 97.2338 69.6427 97.3173 69.5699C97.4009 69.497 97.4689 69.4082 97.5176 69.3087C97.5663 69.2091 97.5945 69.1008 97.6007 68.9902C97.6043 68.7636 97.519 68.5447 97.3631 68.3802C97.2072 68.2158 96.9931 68.1189 96.7667 68.1104C96.656 68.101 96.5445 68.114 96.4389 68.1484C96.3333 68.1829 96.2356 68.2382 96.1518 68.3111C96.0679 68.384 95.9995 68.473 95.9506 68.5728C95.9018 68.6726 95.8734 68.7811 95.8673 68.8921Z" fill="#263238"/>
<path d="M95.0252 67.879C95.1331 67.9935 95.7938 67.5094 96.7292 67.5127C97.6646 67.516 98.3482 67.9869 98.4496 67.8725C98.4987 67.8201 98.3907 67.6174 98.0898 67.3982C97.6857 67.1175 97.2049 66.9679 96.7129 66.9698C96.2268 66.9673 95.7525 67.1197 95.3588 67.4048C95.071 67.6239 94.9728 67.843 95.0252 67.879Z" fill="#263238"/>
<path d="M91.613 74.808C91.613 74.7557 91.0374 74.6543 90.0954 74.5301C89.8567 74.5072 89.631 74.4581 89.5885 74.2946C89.5695 74.048 89.6266 73.8015 89.752 73.5883L90.4617 71.7701C91.443 69.1834 92.1625 67.0545 92.0578 67.0185C91.9532 66.9826 91.0766 69.0428 90.0954 71.6327C89.8556 72.2693 89.6288 72.8786 89.4151 73.4607C89.2634 73.7476 89.2182 74.079 89.2876 74.396C89.3222 74.4802 89.3756 74.5555 89.4436 74.6161C89.5115 74.6767 89.5924 74.7211 89.68 74.7459C89.8123 74.7822 89.9485 74.802 90.0856 74.8048C91.021 74.8571 91.6098 74.8636 91.613 74.808Z" fill="#263238"/>
<path d="M90.9414 85.8776C94.1332 85.9331 97.2777 85.1009 100.024 83.4736C100.024 83.4736 97.7346 88.1605 90.9479 87.5129L90.9414 85.8776Z" fill="#EB996E"/>
<path d="M92.0054 77.0638C92.1834 76.8401 92.4157 76.6655 92.6802 76.5568C92.9446 76.448 93.2325 76.4086 93.5164 76.4424C93.7232 76.4608 93.924 76.521 94.1067 76.6194C94.2895 76.7178 94.4503 76.8523 94.5794 77.0148C94.7023 77.1713 94.7746 77.3615 94.7869 77.5601C94.7992 77.7587 94.7508 77.9563 94.6481 78.1268C94.4985 78.2958 94.3013 78.4156 94.0825 78.4705C93.8636 78.5253 93.6332 78.5127 93.4216 78.4343C92.9803 78.2765 92.5746 78.0331 92.2278 77.718C92.122 77.645 92.0319 77.5516 91.9628 77.4432C91.9297 77.3909 91.9121 77.3302 91.9121 77.2683C91.9121 77.2063 91.9297 77.1456 91.9628 77.0933" fill="#EB996E"/>
<path d="M94.3625 75.4616C94.212 75.4616 94.2087 76.4689 93.3355 77.1852C92.4622 77.9015 91.373 77.7903 91.373 77.9342C91.373 77.9963 91.6151 78.1304 92.0697 78.1435C92.6645 78.1537 93.2437 77.9533 93.7051 77.5777C94.1474 77.2171 94.4323 76.6987 94.4998 76.132C94.5456 75.7069 94.4344 75.455 94.3625 75.4616Z" fill="#263238"/>
<path d="M94.5998 66.2402C94.6914 66.4953 95.6268 66.3776 96.7225 66.5117C97.8182 66.6458 98.7078 66.9467 98.855 66.721C98.9204 66.6131 98.7667 66.3711 98.4069 66.1258C97.9341 65.8156 97.3932 65.6247 96.8304 65.5697C96.2694 65.4998 95.6997 65.5649 95.1689 65.7594C94.7666 65.923 94.5638 66.1192 94.5998 66.2402Z" fill="#263238"/>
<path d="M86.1766 64.9778C86.3434 65.1904 86.9877 64.9778 87.7629 64.9778C88.538 64.9778 89.1922 65.1217 89.3459 64.9026C89.4113 64.7946 89.3066 64.5755 89.0188 64.3793C88.6345 64.1367 88.1866 64.014 87.7323 64.0268C87.278 64.0396 86.8378 64.1874 86.4677 64.4512C86.1962 64.6573 86.0981 64.8764 86.1766 64.9778Z" fill="#263238"/>
<path d="M109.036 81.7207C108.1 81.9094 107.132 81.8726 106.213 81.6132C105.294 81.3538 104.449 80.8794 103.75 80.2292C103.05 79.5789 102.515 78.7715 102.19 77.8736C101.864 76.9758 101.757 76.0134 101.877 75.0659C102.086 73.4014 102.986 71.7075 102.407 70.1313C101.645 68.0482 98.7239 67.4072 97.9487 65.3274C97.4974 64.1207 97.9029 62.7113 97.3927 61.5242C96.9119 60.4091 95.741 59.7682 94.5995 59.3561C93.4581 58.9441 92.2381 58.6596 91.2798 57.9173C90.3214 57.1749 89.7262 55.7688 90.3443 54.7256C95.4064 55.3316 100.378 56.5392 105.154 58.3228C106.263 58.7348 107.424 59.2319 108.078 60.2162C108.771 61.2561 108.732 62.6001 108.68 63.8493L107.826 82.1033" fill="#263238"/>
<path d="M108.608 84.0489C108.608 84.0489 108.651 84.0293 108.719 83.9802L109.02 83.7513C109.282 83.5453 109.674 83.2412 110.142 82.8193C110.728 82.3157 111.261 81.7548 111.735 81.145C112.383 80.3339 112.819 79.3741 113.004 78.3523C113.134 77.7307 113.123 77.0878 112.972 76.471C112.821 75.8542 112.533 75.279 112.131 74.7878C111.639 74.2992 111.111 73.8488 110.551 73.4405C109.987 73.0131 109.559 72.4316 109.318 71.7662C108.817 70.3862 109.04 68.7871 108.847 67.152C108.655 65.4462 107.989 63.8284 106.924 62.4823C106.375 61.8043 105.691 61.2475 104.916 60.8472C104.154 60.5011 103.36 60.2337 102.544 60.0493C101.785 59.8583 101.075 59.5083 100.461 59.0224C99.8836 58.539 99.3752 57.979 98.9498 57.3579C98.0994 56.148 97.4681 54.8595 96.6603 53.7837C96.2774 53.2569 95.829 52.7811 95.3258 52.3677C94.8534 51.9885 94.3174 51.6962 93.7428 51.5044C93.2518 51.3171 92.724 51.2467 92.2011 51.299C91.6782 51.3512 91.1747 51.5245 90.7305 51.8052C90.4181 52.0476 90.1611 52.3538 89.9767 52.7035C89.7922 53.0531 89.6846 53.4381 89.661 53.8327C89.6204 54.3326 89.766 54.8299 90.0698 55.2291C90.1479 55.3303 90.2405 55.4196 90.3445 55.4939C90.378 55.523 90.4155 55.5473 90.4557 55.5659C90.4281 55.5316 90.3974 55.4999 90.3642 55.4711C90.2712 55.3889 90.1888 55.2955 90.1189 55.1931C89.8515 54.7966 89.7354 54.3174 89.7918 53.8425C89.8228 53.4692 89.9324 53.1067 90.1133 52.7787C90.2943 52.4507 90.5425 52.1647 90.8417 51.9393C91.2655 51.6829 91.7431 51.5281 92.2368 51.4873C92.7305 51.4464 93.227 51.5206 93.6872 51.7038C94.2355 51.8927 94.746 52.1772 95.195 52.5443C95.677 52.9528 96.1075 53.4184 96.4771 53.9308C97.2621 54.9871 97.8802 56.2755 98.7437 57.528C99.18 58.174 99.7039 58.7562 100.301 59.2579C100.934 59.7594 101.666 60.1216 102.449 60.3207C103.247 60.5027 104.024 60.7657 104.768 61.1055C105.509 61.4909 106.161 62.0253 106.685 62.6752C107.718 63.9753 108.366 65.5386 108.556 67.188C108.755 68.7675 108.526 70.3927 109.059 71.861C109.317 72.5695 109.771 73.1899 110.368 73.6498C110.919 74.0469 111.441 74.4841 111.928 74.9579C112.312 75.4204 112.587 75.963 112.734 76.5457C112.882 77.1285 112.897 77.7368 112.778 78.3261C112.611 79.3181 112.202 80.2537 111.588 81.0502C111.127 81.6595 110.611 82.2254 110.047 82.7408C109.586 83.1725 109.213 83.4897 108.965 83.7219C108.839 83.8235 108.72 83.9327 108.608 84.0489Z" fill="#455A64"/>
<path d="M109.851 84.8932C111.244 83.5459 113.622 84.7166 114.793 86.2602C115.964 87.8037 116.791 89.7985 118.567 90.5767C120.343 91.355 122.649 90.6847 124.127 91.9208C126.181 93.6278 125.027 97.5814 127.251 99.0661C128.131 99.6547 129.295 99.6351 130.237 100.119C132.458 101.264 132.431 104.396 132.088 106.872C131.62 110.355 131.09 113.952 129.174 116.895C127.257 119.838 123.525 121.895 120.209 120.764C117.02 119.675 115.381 116.234 114.083 113.124C112.291 108.812 110.496 104.51 108.699 100.217C107.662 97.7286 106.613 95.2007 106.276 92.5258C105.939 89.8508 106.39 86.9665 108.094 84.8671" fill="#263238"/>
<path d="M110.743 81.9231C111.753 81.8021 112.528 83.0417 112.26 84.0262C111.992 85.0106 111.05 85.6615 110.085 85.9886C109.553 86.1999 108.974 86.2665 108.407 86.1815C108.124 86.1374 107.857 86.0195 107.634 85.8399C107.411 85.6602 107.239 85.425 107.135 85.1578C107.029 84.9274 107.018 84.6643 107.105 84.426C107.192 84.1877 107.37 83.9934 107.599 83.8855C108.254 83.4701 108.656 83.1431 109.182 82.852C109.987 82.4104 109.938 82.3516 110.743 81.9067" fill="#71AEF3"/>
<path d="M87.4447 92.8293L91.3761 89.8502L106.196 88.9019L106.791 90.8901L101.97 120.962L105.774 156.843H85.0996L87.4447 92.8293Z" fill="#71AEF3"/>
<g opacity="0.3">
<path d="M103.31 144.115C102.836 143.608 102.06 142.915 101.37 142.898C96.4184 142.791 91.3652 142.297 86.4133 142.186L86.0176 156.849C87.2016 154.763 88.3234 152.598 88.6341 150.211C88.7715 149.171 88.9612 147.921 89.8934 147.483C90.4298 147.231 91.061 147.329 91.6399 147.447C93.429 147.8 95.205 148.261 97.0235 148.376C98.842 148.49 100.749 148.222 102.276 147.228C102.819 146.908 103.255 146.436 103.532 145.871C103.664 145.587 103.713 145.272 103.674 144.961C103.634 144.65 103.508 144.357 103.31 144.115Z" fill="black"/>
</g>
<path d="M90.6511 93.4377L90.1899 89.1374C90.171 88.9573 90.188 88.7751 90.2401 88.6016C90.2922 88.4281 90.3783 88.2667 90.4933 88.1267C90.6083 87.9867 90.7501 87.871 90.9102 87.7863C91.0704 87.7016 91.2458 87.6495 91.4262 87.6332L105.065 86.4003C105.152 86.3937 105.24 86.4046 105.323 86.4324C105.406 86.4603 105.482 86.5045 105.548 86.5624C105.614 86.6203 105.667 86.6908 105.705 86.7697C105.743 86.8486 105.764 86.9343 105.768 87.0217L105.922 92.1395L101.971 98.84L97.912 100.132H92.9471L90.0918 97.0839L90.6511 93.4377Z" fill="#71AEF3"/>
<path d="M103.908 90.4982C103.725 90.4905 103.543 90.4719 103.362 90.4426C102.868 90.3964 102.372 90.3877 101.877 90.4165C101.142 90.4693 100.411 90.5787 99.6923 90.7435C98.8779 90.9136 97.9915 91.1524 97.0528 91.3813C96.1718 91.6114 95.2739 91.7711 94.3676 91.8588C93.6219 91.9291 92.8697 91.8783 92.1402 91.7084C91.6497 91.5934 91.1812 91.3989 90.7534 91.1327C90.6395 91.0589 90.5303 90.9781 90.4264 90.8907C90.3544 90.8318 90.3184 90.7959 90.325 90.7926C90.3315 90.7893 90.4852 90.9005 90.7927 91.0739C91.2262 91.3127 91.6923 91.4868 92.1762 91.5906C92.8942 91.7412 93.6314 91.7787 94.361 91.7018C95.2583 91.6061 96.1472 91.4432 97.0201 91.2145C97.9555 90.9888 98.8451 90.7533 99.6661 90.5898C100.394 90.4338 101.133 90.3397 101.877 90.3085C102.379 90.287 102.882 90.3133 103.378 90.387C103.555 90.4175 103.689 90.4437 103.781 90.4655C103.862 90.4786 103.911 90.4917 103.908 90.4982Z" fill="#263238"/>
<g opacity="0.3">
<path d="M90.976 91.1755C90.6097 92.1796 90.5999 93.4225 91.3423 94.1911C91.9441 94.8191 92.9155 94.976 93.7692 94.806C94.6146 94.5883 95.4166 94.2277 96.1404 93.7397C98.0178 92.6244 99.9279 91.4666 102.06 90.9923C102.2 90.9757 102.333 90.9202 102.443 90.8321C102.469 90.8085 102.489 90.7799 102.503 90.7481C102.517 90.7163 102.524 90.682 102.524 90.6473C102.524 90.6126 102.517 90.5782 102.503 90.5464C102.489 90.5146 102.469 90.4861 102.443 90.4625C102.389 90.431 102.329 90.4141 102.266 90.4134C100.379 90.2237 98.5052 90.7405 96.6572 91.1722C94.8093 91.604 92.8305 91.882 91.048 91.2376" fill="black"/>
</g>
<path d="M93.5799 87.4959C93.3879 87.6008 93.2266 87.7542 93.1122 87.9408C92.8964 88.2875 92.9094 88.8762 92.9258 89.5107C92.9618 90.783 93.1711 91.8002 93.122 91.8002C93.0267 91.593 92.9638 91.3724 92.9356 91.146C92.8322 90.6066 92.772 90.0597 92.7557 89.5107C92.7439 89.2064 92.7504 88.9017 92.7753 88.5982C92.7937 88.3416 92.8746 88.0935 93.0108 87.8753C93.1042 87.7277 93.2367 87.6088 93.3935 87.5319C93.508 87.4861 93.5767 87.4861 93.5799 87.4959Z" fill="#263238"/>
<path d="M97.1867 91.2345C97.1906 90.5398 97.1578 89.8455 97.0886 89.1543C96.9316 88.0128 96.5522 87.1461 96.6045 87.1265C96.7285 87.2932 96.8226 87.4802 96.8825 87.6792C97.0612 88.1468 97.1873 88.6327 97.2587 89.1281C97.3294 89.6242 97.3436 90.1268 97.3012 90.6261C97.2978 90.8339 97.2591 91.0396 97.1867 91.2345Z" fill="#263238"/>
<path d="M101.579 86.7637C101.7 86.9123 101.788 87.0851 101.837 87.2706C101.985 87.7093 102.046 88.1725 102.017 88.6345C101.986 89.0976 101.864 89.55 101.657 89.9657C101.584 90.1438 101.472 90.3035 101.33 90.4334C101.626 89.8732 101.801 89.2569 101.843 88.6247C101.886 87.9924 101.794 87.3583 101.575 86.7637H101.579Z" fill="#263238"/>
<path d="M82.4528 94.7651C82.4528 94.7651 77.8019 97.8783 76.5656 103.503C75.604 107.924 72.9678 131.28 72.9678 131.28L68.3594 140.246L71.3684 147.401C73.9454 147.583 76.5043 146.853 78.5967 145.338L80.6212 143.866L84.3335 138.363L82.4528 94.7651Z" fill="#EBEBEB"/>
<path d="M90.3347 90.6387L82.4523 94.7656L80.5913 100.878L78.933 118.598L82.0533 139.374L76.5781 156.781L86.0206 156.849L86.2463 146.647L87.1883 113.618L88.1139 92.5779L90.3347 90.6387Z" fill="#EBEBEB"/>
<path d="M86.5173 118.173C86.4617 118.094 86.4125 118.011 86.3701 117.924L85.9776 117.202C85.8141 116.875 85.6506 116.476 85.451 116.011C85.3562 115.776 85.2744 115.517 85.1796 115.246C85.0847 114.975 84.9801 114.687 84.8983 114.379C84.1558 111.93 83.6652 108.395 83.7699 104.497C83.7699 104.196 83.7928 103.899 83.8124 103.601V103.549L83.8615 103.529L85.2417 102.947L85.2221 103.091L83.8419 101.982L83.8124 101.959V101.927C83.7989 100.587 84.0112 99.2551 84.4404 97.9861C84.7871 96.8318 85.1665 95.8376 85.5001 95.0201C85.8337 94.2026 86.1248 93.5649 86.3309 93.1332C86.4355 92.9141 86.5173 92.7473 86.5729 92.6394C86.5997 92.5812 86.6314 92.5254 86.6677 92.4727C86.652 92.534 86.6289 92.5933 86.5991 92.6492L86.3799 93.1561C86.1902 93.5943 85.9155 94.2385 85.595 95.0593C85.2744 95.8802 84.9081 96.8743 84.5745 98.0254C84.1618 99.2795 83.9595 100.593 83.976 101.914L83.9433 101.858L85.3268 102.96L85.4347 103.048L85.3071 103.104L83.9269 103.686L83.9792 103.614C83.9596 103.905 83.9465 104.203 83.9367 104.504C83.8353 108.385 84.303 111.904 85.0128 114.343C85.088 114.654 85.1894 114.939 85.2777 115.21C85.366 115.481 85.4445 115.743 85.5393 115.979C85.7323 116.443 85.8664 116.852 86.0365 117.172L86.3963 117.908C86.4425 117.993 86.483 118.082 86.5173 118.173Z" fill="#263238"/>
<path d="M80.3293 130.58C80.2996 130.496 80.2745 130.411 80.2541 130.325C80.2083 130.14 80.1462 129.891 80.0677 129.579C79.9859 129.252 79.8943 128.86 79.8028 128.399C79.7112 127.938 79.5902 127.418 79.4986 126.819C79.407 126.221 79.2827 125.59 79.1944 124.896C79.1061 124.203 79.0178 123.458 78.936 122.676C78.7921 121.106 78.6973 119.376 78.6973 117.558C78.6973 115.74 78.8052 114.01 78.9524 112.444C79.0407 111.662 79.1159 110.916 79.2238 110.223C79.3318 109.53 79.4266 108.886 79.5313 108.3C79.636 107.715 79.7472 107.189 79.8584 106.724C79.9696 106.26 80.0481 105.864 80.1298 105.544C80.2116 105.223 80.2705 104.984 80.3195 104.801C80.3384 104.713 80.3635 104.627 80.3948 104.543C80.3885 104.632 80.3743 104.721 80.3522 104.808L80.1952 105.557C80.1233 105.884 80.035 106.279 79.9532 106.744C79.8715 107.208 79.7537 107.725 79.6654 108.323C79.5771 108.922 79.4626 109.55 79.3808 110.243C79.2991 110.936 79.2075 111.678 79.1257 112.457C78.9884 114.023 78.8902 115.747 78.8837 117.561C78.8772 119.376 78.9753 121.096 79.1061 122.663C79.1879 123.441 79.2533 124.187 79.3514 124.877C79.4495 125.567 79.5378 126.214 79.6327 126.8C79.7275 127.385 79.8289 127.915 79.9107 128.379C79.9925 128.843 80.0775 129.242 80.1495 129.566C80.2214 129.89 80.2672 130.129 80.3032 130.315C80.3213 130.402 80.3301 130.491 80.3293 130.58Z" fill="#263238"/>
<path d="M82.4625 146.532C82.3703 146.812 82.2417 147.08 82.0798 147.327C81.7265 147.942 81.3229 148.527 80.873 149.076C80.4239 149.626 79.9293 150.137 79.3946 150.604C79.1833 150.81 78.9471 150.989 78.6914 151.137C78.8838 150.916 79.0915 150.708 79.3128 150.515C79.8174 150.026 80.2946 149.51 80.7421 148.968C81.1857 148.424 81.5985 147.855 81.9785 147.264C82.1226 147.009 82.2844 146.764 82.4625 146.532Z" fill="#263238"/>
<path d="M118.695 94.2586C120.351 94.9019 121.824 95.9422 122.984 97.2878C124.144 98.6335 124.955 100.243 125.347 101.976C127.928 113.343 132.34 128.464 132.412 133.347C132.497 139.56 129.796 143.811 126.234 144.596C123.427 145.217 98.0011 143.824 98.0011 143.824L96.8105 134.341L117.416 131.309L114.597 115.587L117.387 93.7681L118.695 94.2586Z" fill="#EBEBEB"/>
<path d="M117.386 93.7515L111.692 91.4264L105.69 87.9077L105.654 88.9378C106.391 90.1958 106.648 91.678 106.377 93.1105L101.373 119.161L102.505 138.196L104.83 156.836H122.888L114.596 137.33L117.524 111.041L117.386 93.7515Z" fill="#EBEBEB"/>
<path d="M122.662 144.756L122.538 144.773L122.175 144.809C121.848 144.841 121.38 144.838 120.765 144.854C119.542 144.854 117.763 144.828 115.549 144.756C111.123 144.609 104.965 144.312 98.0079 143.909H97.9392V143.837C97.7986 142.709 97.6481 141.519 97.4977 140.312C97.2393 138.268 96.9907 136.273 96.752 134.367V134.285H96.8304L112.556 131.996L117.174 131.342L118.414 131.175L118.741 131.133H118.852L118.744 131.156L118.417 131.211L117.181 131.408L112.572 132.111L96.873 134.455L96.9416 134.36C97.1837 136.27 97.4355 138.262 97.6906 140.306C97.8444 141.516 97.9915 142.706 98.1322 143.834L98.0537 143.762C105.007 144.168 111.169 144.485 115.591 144.665C117.802 144.75 119.578 144.799 120.801 144.815C121.413 144.815 121.891 144.815 122.208 144.796L122.571 144.776L122.662 144.756Z" fill="#263238"/>
<path d="M114.429 113.978C114.452 114.034 114.467 114.093 114.474 114.154C114.501 114.288 114.533 114.452 114.573 114.658C114.658 115.119 114.772 115.75 114.9 116.518C115.178 118.114 115.554 120.276 115.972 122.666C116.391 125.057 116.731 127.225 116.999 128.824C117.12 129.596 117.219 130.227 117.29 130.691C117.32 130.897 117.343 131.067 117.362 131.201C117.37 131.261 117.37 131.322 117.362 131.381C117.338 131.326 117.321 131.268 117.313 131.208C117.287 131.074 117.254 130.907 117.212 130.704C117.127 130.24 117.009 129.612 116.865 128.844C116.581 127.271 116.211 125.099 115.792 122.696C115.374 120.292 115.021 118.118 114.769 116.538C114.651 115.766 114.553 115.132 114.481 114.668C114.455 114.463 114.432 114.293 114.412 114.157C114.411 114.097 114.417 114.037 114.429 113.978Z" fill="#263238"/>
<path d="M108.308 89.752C108.308 89.752 108.308 89.7748 108.331 89.8174L108.383 90.007C108.426 90.1771 108.498 90.4223 108.567 90.7494C108.766 91.6741 108.91 92.6099 108.998 93.5519C109.132 94.9735 109.168 96.4026 109.106 97.8292C109.051 99.4643 108.881 101.253 108.635 103.16V103.218H108.576L106.702 103.565L106.764 103.451C106.872 103.738 106.98 104.046 107.065 104.363C107.581 106.447 107.507 108.633 106.853 110.678C106.335 112.337 105.6 113.92 104.668 115.387C103.889 116.649 103.19 117.617 102.705 118.287L102.14 119.053C102.081 119.134 102.028 119.196 101.989 119.249C101.974 119.273 101.956 119.295 101.934 119.314C101.934 119.314 101.934 119.288 101.976 119.239L102.113 119.033C102.244 118.843 102.441 118.582 102.65 118.248C103.118 117.568 103.804 116.59 104.563 115.325C105.474 113.859 106.193 112.283 106.702 110.635C107.242 108.781 107.497 106.577 106.902 104.422C106.819 104.118 106.721 103.819 106.607 103.526L106.571 103.431L106.673 103.411L108.534 103.068L108.465 103.14C108.714 101.24 108.894 99.448 108.956 97.826C109.025 96.4089 109.002 94.9889 108.887 93.5748C108.81 92.6344 108.683 91.6988 108.504 90.7722C108.446 90.4452 108.38 90.1967 108.351 90.0266C108.334 89.9482 108.321 89.886 108.311 89.8337C108.305 89.8069 108.304 89.7792 108.308 89.752Z" fill="#263238"/>
<path d="M108.31 116.466V112.316C108.31 112.316 108.362 111.293 107.499 111.508C106.635 111.724 106.796 113.343 106.796 113.343C106.796 113.343 106.635 119.658 107.012 119.605C107.388 119.553 107.535 119.066 107.535 119.066V116.636L108.31 116.466Z" fill="#71AEF3"/>
<path d="M111.902 116.725C111.163 116.811 110.418 116.839 109.675 116.81C108.931 116.839 108.186 116.811 107.447 116.725C108.187 116.64 108.931 116.612 109.675 116.64C110.418 116.612 111.163 116.64 111.902 116.725Z" fill="#263238"/>
<path d="M120.113 96.7236C119.964 96.7938 119.808 96.8518 119.649 96.897C119.226 97.048 118.813 97.226 118.413 97.43C117.094 98.1088 115.949 99.0837 115.07 100.278C114.821 100.615 114.602 100.973 114.416 101.348C114.254 101.702 114.123 102.07 114.023 102.446C113.854 103.089 113.745 103.746 113.696 104.408C113.651 104.974 113.641 105.439 113.637 105.756C113.647 105.921 113.647 106.087 113.637 106.253C113.596 106.097 113.575 105.937 113.572 105.775C113.546 105.323 113.546 104.87 113.572 104.418C113.604 103.745 113.704 103.077 113.87 102.424C113.968 102.036 114.101 101.657 114.265 101.292C114.456 100.907 114.68 100.539 114.936 100.193C115.828 98.9759 117.005 97.9957 118.364 97.3384C118.772 97.1416 119.195 96.9775 119.629 96.8479C119.786 96.7901 119.948 96.7484 120.113 96.7236Z" fill="#263238"/>
<path d="M46.8301 131.28L76.5771 142.294L101.654 146.126L71.8378 131.594L46.8301 131.28Z" fill="#263238"/>
<path d="M59.5602 143.157C59.3212 141.568 58.7818 140.038 57.9706 138.651C57.7954 138.389 57.6588 138.104 57.565 137.804C57.5182 137.654 57.509 137.494 57.5381 137.34C57.5672 137.185 57.6337 137.04 57.7318 136.918C58.1145 136.502 58.8112 136.685 59.2822 136.999C60.2355 137.693 60.9378 138.678 61.2838 139.805C61.6247 140.924 61.844 142.076 61.938 143.242" fill="#FFBE9D"/>
<path d="M71.1544 140.325H69.676C69.3132 139.966 68.8619 139.708 68.3677 139.579C68.1849 139.549 67.9971 139.568 67.8243 139.635C67.6516 139.703 67.5003 139.816 67.3865 139.962C68.0406 138.873 68.7602 137.673 68.8976 137.346C69.1625 136.708 68.5705 136.231 67.6187 136.231C66.667 136.231 62.4543 142.192 62.4543 142.192C62.4543 142.192 65.0709 137.395 65.3227 136.662C65.9572 134.831 63.9523 134.7 63.2262 135.58C62.3235 136.676 58.6766 142.192 58.6766 142.192C58.6766 142.192 57.9833 143.311 58.4608 144.373C58.9383 145.436 60.3251 145.028 60.3251 145.028C60.3456 145.338 60.447 145.638 60.6191 145.897C60.7912 146.156 61.0281 146.366 61.3063 146.506C62.3725 147.101 63.7789 146.411 63.7789 146.411L69.2312 147.634L71.1936 147.438C72.5329 147.304 73.7892 146.726 74.7633 145.798C75.7373 144.869 76.3734 143.641 76.5706 142.31L71.1544 140.325Z" fill="#FFBE9D"/>
<path d="M67.4874 139.877C67.5495 139.916 66.8332 141.054 65.8847 142.422C65.4137 143.105 64.9787 143.73 64.6549 144.155C64.4955 144.402 64.3114 144.632 64.1055 144.842C64.2305 144.576 64.3817 144.323 64.5568 144.086C64.8545 143.632 65.2731 143.007 65.7441 142.323C66.2151 141.64 66.6468 141.015 66.9608 140.583L67.3402 140.063C67.3836 139.997 67.4329 139.935 67.4874 139.877Z" fill="#EB996E"/>
<path d="M67.1602 145.947C67.2932 145.636 67.4553 145.338 67.6442 145.057C67.9713 144.521 68.4226 143.792 68.9263 142.981C69.1782 142.578 69.4202 142.192 69.6165 141.836C69.7023 141.684 69.7571 141.516 69.7779 141.343C69.7987 141.169 69.7849 140.994 69.7375 140.826C69.6413 140.509 69.4834 140.214 69.273 139.959C69.273 139.959 69.3613 140.005 69.4824 140.136C69.653 140.323 69.7793 140.547 69.8519 140.79C69.9127 140.972 69.9357 141.165 69.9194 141.357C69.9031 141.549 69.8478 141.735 69.7571 141.905C69.5608 142.274 69.3221 142.663 69.0735 143.069C68.5666 143.88 68.0923 144.599 67.7456 145.119C67.5703 145.409 67.3746 145.685 67.1602 145.947Z" fill="#EB996E"/>
<path d="M70.0228 146.49C70.0776 146.195 70.1757 145.909 70.3139 145.643L70.7031 144.753C70.8652 144.399 70.9987 144.033 71.1022 143.658C71.1516 143.478 71.1618 143.291 71.1319 143.107C71.1019 142.924 71.0327 142.749 70.9288 142.595C70.8234 142.472 70.6898 142.377 70.5396 142.317C70.4133 142.252 70.2754 142.213 70.134 142.202C69.9275 142.233 69.7288 142.303 69.5486 142.408C69.4803 142.451 69.4051 142.482 69.3262 142.5C69.3262 142.5 69.3883 142.438 69.5159 142.349C69.595 142.296 69.6768 142.247 69.7612 142.202C69.8758 142.137 70.0028 142.095 70.134 142.081C70.2943 142.085 70.4521 142.12 70.5985 142.186C70.7723 142.249 70.9275 142.355 71.0498 142.493C71.1738 142.664 71.2576 142.861 71.295 143.069C71.3324 143.276 71.3224 143.49 71.2657 143.694C71.1615 144.081 71.0202 144.458 70.8438 144.819C70.6901 145.146 70.5429 145.443 70.4219 145.692C70.303 145.965 70.1698 146.231 70.0228 146.49Z" fill="#EB996E"/>
<path d="M71.0254 141.342C71.1056 141.349 71.1836 141.372 71.2543 141.41C71.4568 141.496 71.6479 141.606 71.8234 141.738C72.4175 142.181 72.8329 142.823 72.9943 143.547C73.1557 144.27 73.0524 145.028 72.7033 145.682C72.6031 145.879 72.479 146.062 72.3337 146.228C72.229 146.343 72.1603 146.395 72.1538 146.388C72.1472 146.382 72.3696 146.12 72.5953 145.63C72.8992 144.993 72.9809 144.273 72.8273 143.585C72.6737 142.896 72.2938 142.279 71.7482 141.832C71.5165 141.656 71.2752 141.492 71.0254 141.342Z" fill="#EB996E"/>
<path d="M61.4433 138.212C61.0804 138.896 60.6683 139.551 60.2103 140.175C59.8014 140.841 59.3433 141.477 58.8398 142.075C59.2009 141.392 59.6119 140.736 60.0696 140.113C60.4802 139.446 60.9393 138.811 61.4433 138.212Z" fill="#EB996E"/>
<path d="M96.7326 134.707L93.331 133.938L90.0603 130.861C89.6622 130.488 89.1462 130.266 88.6016 130.233L82.6587 129.906C82.064 129.869 81.478 130.064 81.0234 130.449L76.7715 134.046L95.3196 143.056L97.8642 143.281L96.7326 134.707Z" fill="#FFBE9D"/>
<path d="M86.6563 133.121C86.6563 133.147 86.218 133.069 85.5115 132.977C84.8051 132.885 83.7977 132.804 82.8198 133.258C82.3645 133.478 81.9346 133.747 81.5376 134.06C81.1615 134.341 80.8246 134.603 80.527 134.802C80.2934 134.964 80.0473 135.107 79.7911 135.231C79.6999 135.281 79.6018 135.317 79.5 135.339C79.5 135.312 79.8892 135.132 80.4583 134.704C80.7429 134.495 81.0699 134.223 81.4395 133.932C81.8423 133.606 82.2812 133.327 82.7478 133.101C83.2262 132.89 83.7426 132.779 84.2654 132.774C84.6873 132.768 85.1089 132.8 85.5246 132.872C85.8811 132.928 86.1788 132.993 86.3554 133.042C86.4594 133.051 86.5612 133.078 86.6563 133.121Z" fill="#EB996E"/>
<path d="M87.8771 136.431C87.8771 136.457 87.6351 136.349 87.223 136.31C86.7043 136.262 86.1816 136.335 85.6956 136.522C85.2062 136.713 84.7372 136.953 84.2957 137.238C84.1158 137.369 83.9216 137.479 83.7168 137.565C83.8662 137.401 84.0379 137.258 84.227 137.14C84.6602 136.82 85.1343 136.559 85.6367 136.365C86.1466 136.168 86.6992 136.109 87.2393 136.192C87.4704 136.209 87.6917 136.292 87.8771 136.431Z" fill="#EB996E"/>
<path d="M95.5275 136.98C95.485 137.007 95.0075 136.294 94.3762 135.45C93.745 134.606 93.202 133.942 93.238 133.909C93.721 134.333 94.1485 134.817 94.5103 135.348C94.918 135.846 95.2599 136.395 95.5275 136.98Z" fill="#EB996E"/>
<path d="M86.1664 130.243L93.689 123.229C93.7658 123.158 93.8261 123.07 93.8657 122.973C93.9053 122.876 93.9232 122.772 93.9183 122.667C93.9133 122.563 93.8855 122.46 93.8369 122.367C93.7882 122.275 93.7199 122.194 93.6367 122.13C93.5034 122.028 93.3385 121.975 93.1706 121.982C93.0028 121.989 92.8425 122.054 92.7176 122.166L83.8867 130.086" fill="#71AEF3"/>
<g opacity="0.3">
<path d="M86.1644 130.244L93.687 123.229C93.7639 123.158 93.8242 123.071 93.8638 122.974C93.9034 122.877 93.9213 122.772 93.9163 122.668C93.9113 122.563 93.8835 122.461 93.8349 122.368C93.7863 122.275 93.7179 122.194 93.6347 122.13C93.5014 122.028 93.3365 121.976 93.1687 121.982C93.0008 121.989 92.8406 122.054 92.7157 122.166L83.8848 130.087" fill="black"/>
</g>
<path d="M147.73 62.6365C147.612 62.5907 143.05 61.3938 143.324 66.008C143.599 70.6222 148.175 69.3926 148.178 69.2585C148.181 69.1244 147.73 62.6365 147.73 62.6365Z" fill="#F7D4C6"/>
<path d="M146.664 67.5976C146.641 67.5813 146.586 67.6565 146.455 67.7284C146.268 67.8219 146.052 67.8383 145.853 67.7742C145.356 67.6271 144.898 66.8781 144.826 66.0473C144.79 65.6587 144.84 65.267 144.97 64.8993C145.005 64.7522 145.074 64.6157 145.174 64.5017C145.273 64.3878 145.398 64.2997 145.539 64.2452C145.63 64.2151 145.729 64.218 145.818 64.2533C145.907 64.2885 145.981 64.354 146.027 64.4381C146.095 64.5624 146.072 64.6573 146.095 64.6638C146.118 64.6703 146.19 64.5788 146.141 64.3923C146.11 64.279 146.039 64.1805 145.942 64.1143C145.876 64.0698 145.803 64.0388 145.725 64.0231C145.648 64.0074 145.568 64.0073 145.49 64.0227C145.303 64.0716 145.132 64.1676 144.993 64.3016C144.854 64.4357 144.751 64.6032 144.695 64.7881C144.52 65.2005 144.45 65.6502 144.493 66.0964C144.578 67.0252 145.107 67.8658 145.785 68.0195C145.911 68.0482 146.042 68.0481 146.168 68.0192C146.294 67.9904 146.413 67.9335 146.514 67.8527C146.661 67.7088 146.681 67.6042 146.664 67.5976Z" fill="#AA6550"/>
<path d="M159.25 46.1582C161.595 46.1582 163.983 46.1582 166.917 47.6919C168.768 48.6729 169.919 50.187 170.884 52.0379C171.653 53.5427 172.029 55.2179 171.976 56.9072C171.891 58.503 171.885 59.6181 171.247 61.0832" fill="#263238"/>
<path d="M158.312 46.5217C159.961 46.4042 161.616 46.6166 163.181 47.1464C164.746 47.6762 166.19 48.5127 167.428 49.6071C168.666 50.7015 169.673 52.0317 170.391 53.5199C171.109 55.0082 171.522 56.6246 171.608 58.2746C171.909 64.0529 172.174 70.3022 172.111 73.4481C171.974 80.2042 165.207 81.2016 165.207 81.2016C165.207 81.2016 165.357 83.2029 165.534 85.6883C165.613 86.8755 165.453 88.0665 165.063 89.1908C164.673 90.3151 164.062 91.3499 163.266 92.2341C162.469 93.1182 161.504 93.8337 160.426 94.3382C159.348 94.8428 158.18 95.1262 156.991 95.1717C155.823 95.2163 154.657 95.0302 153.56 94.624C152.464 94.2177 151.458 93.5994 150.601 92.8042C149.744 92.0091 149.052 91.0528 148.564 89.99C148.077 88.9272 147.804 87.7788 147.761 86.6104L146.757 59.3832C146.635 56.1562 147.773 53.0084 149.932 50.6065C152.091 48.2045 155.1 46.7371 158.322 46.5151L158.312 46.5217Z" fill="#FFBE9D"/>
<path d="M165.206 81.202C165.206 81.202 161.053 81.4178 156.539 78.5298C156.539 78.5298 158.583 83.4358 165.327 82.8929L165.206 81.202Z" fill="#D1A394"/>
<path d="M169.016 62.0318C169.022 62.2858 168.926 62.5315 168.751 62.7153C168.576 62.8991 168.335 63.0062 168.081 63.013C167.959 63.0214 167.836 63.0053 167.72 62.9655C167.604 62.9258 167.497 62.8632 167.405 62.7815C167.314 62.6998 167.24 62.6007 167.187 62.4899C167.135 62.3791 167.105 62.259 167.1 62.1365C167.099 61.884 167.196 61.6411 167.371 61.4584C167.545 61.2756 167.783 61.1671 168.035 61.1553C168.157 61.1473 168.28 61.1638 168.396 61.2037C168.511 61.2436 168.618 61.3062 168.709 61.3878C168.801 61.4694 168.875 61.5684 168.928 61.679C168.98 61.7895 169.01 61.9095 169.016 62.0318Z" fill="#263238"/>
<path d="M169.956 60.6648C169.835 60.7891 169.109 60.2429 168.069 60.2363C167.029 60.2298 166.267 60.7465 166.155 60.619C166.1 60.5601 166.224 60.3344 166.558 60.0957C167.009 59.7865 167.545 59.6264 168.092 59.6378C168.631 59.6382 169.157 59.8126 169.59 60.1349C169.907 60.3802 170.015 60.6092 169.956 60.6648Z" fill="#263238"/>
<path d="M158.836 62.0316C158.841 62.2861 158.745 62.5323 158.569 62.7162C158.393 62.9002 158.152 63.0068 157.897 63.0128C157.775 63.0208 157.652 63.0043 157.537 62.9644C157.421 62.9245 157.314 62.8619 157.223 62.7803C157.132 62.6987 157.057 62.5997 157.005 62.4891C156.952 62.3786 156.922 62.2586 156.916 62.1363C156.916 61.8832 157.013 61.6399 157.188 61.4571C157.363 61.2742 157.602 61.166 157.855 61.1551C157.977 61.1476 158.099 61.1643 158.215 61.2044C158.33 61.2445 158.437 61.3071 158.528 61.3886C158.619 61.4702 158.694 61.569 158.746 61.6793C158.799 61.7897 158.83 61.9094 158.836 62.0316Z" fill="#263238"/>
<path d="M159.747 60.7787C159.626 60.903 158.897 60.3568 157.86 60.3502C156.823 60.3437 156.058 60.8572 155.943 60.7296C155.891 60.674 156.012 60.4451 156.349 60.2063C156.801 59.899 157.337 59.739 157.883 59.7484C158.422 59.7521 158.946 59.9261 159.381 60.2456C159.688 60.4942 159.806 60.7198 159.747 60.7787Z" fill="#263238"/>
<path d="M163.455 68.4962C163.455 68.4373 164.109 68.3327 165.142 68.2051C165.407 68.179 165.659 68.1299 165.705 67.9501C165.731 67.6761 165.672 67.4007 165.535 67.162C165.293 66.5079 165.034 65.8539 164.766 65.1377C163.7 62.2535 162.931 59.8859 163.049 59.8434C163.167 59.8008 164.125 62.103 165.188 64.9873C165.446 65.6969 165.692 66.3738 165.924 67.0246C166.088 67.3451 166.135 67.7133 166.055 68.0645C166.014 68.1576 165.954 68.2405 165.878 68.3072C165.801 68.3739 165.711 68.4229 165.613 68.4504C165.467 68.4868 165.316 68.5065 165.165 68.5093C164.112 68.5648 163.458 68.5648 163.455 68.4962Z" fill="#263238"/>
<path d="M160.393 69.1993C160.563 69.1993 160.553 70.3179 161.511 71.1258C162.47 71.9336 163.673 71.8192 163.68 71.9762C163.68 72.0481 163.408 72.1953 162.902 72.2051C162.24 72.2064 161.6 71.9748 161.093 71.551C160.607 71.144 160.296 70.5653 160.226 69.9352C160.187 69.4773 160.314 69.1928 160.393 69.1993Z" fill="#263238"/>
<path d="M160.046 56.7242C159.941 57.0054 158.907 56.8648 157.687 57.0022C156.467 57.1395 155.48 57.4633 155.319 57.2082C155.251 57.0872 155.424 56.8223 155.823 56.5541C156.356 56.2242 156.956 56.0198 157.58 55.9563C158.203 55.8928 158.833 55.972 159.421 56.1878C159.869 56.3546 160.091 56.577 160.046 56.7242Z" fill="#263238"/>
<path d="M169.807 56.9689C169.624 57.2044 168.911 56.9525 168.05 56.9362C167.19 56.9198 166.461 57.0801 166.294 56.8315C166.222 56.7105 166.337 56.475 166.657 56.2559C167.087 55.991 167.586 55.8601 168.09 55.8799C168.595 55.8997 169.082 56.0693 169.49 56.3671C169.791 56.6124 169.889 56.8544 169.807 56.9689Z" fill="#263238"/>
<path d="M146.825 61.4983C146.825 61.4983 147.119 63.0615 147.198 63.7645C147.227 64.0229 147.198 66.8843 147.888 67.0347C148.486 67.159 149.674 66.6129 150.203 65.4291C150.733 64.2453 151.741 61.4035 151.629 60.1118C151.482 58.3525 151.401 56.5604 151.754 54.8272C152.107 53.094 152.934 51.4067 154.325 50.3144C155.715 49.2222 157.726 48.8461 159.309 49.6375C160.29 50.128 161.013 50.9946 161.926 51.5996C162.735 52.1728 163.726 52.4299 164.712 52.3223C165.201 52.2609 165.663 52.0625 166.045 51.7501C166.426 51.4377 166.711 51.0239 166.868 50.5564C167.155 49.5263 166.626 48.3981 165.798 47.7147C164.971 47.0312 163.908 46.7173 162.855 46.508C159.931 45.8803 156.89 46.0935 154.082 47.1228C151.312 48.1986 148.849 50.2654 147.672 52.9894C146.305 56.1386 146.462 58.0712 146.825 61.4918" fill="#263238"/>
<path d="M162.271 62.0744C162.239 61.7001 162.18 61.3286 162.095 60.9626C161.833 59.969 161.244 59.0925 160.423 58.474C159.862 58.0495 159.209 57.7628 158.516 57.6368C157.721 57.4915 156.902 57.5604 156.142 57.8363C155.733 57.9822 155.349 58.1907 155.004 58.4544C154.635 58.7194 154.312 59.0431 154.049 59.4125C153.481 60.1848 153.176 61.1179 153.176 62.0761C153.176 63.0342 153.481 63.9674 154.049 64.7396C154.314 65.1076 154.637 65.431 155.004 65.6978C155.349 65.9604 155.733 66.1678 156.142 66.3126C156.901 66.5894 157.721 66.6594 158.516 66.5153C159.209 66.3889 159.863 66.1009 160.423 65.6749C161.245 65.0577 161.834 64.1824 162.098 63.1896C162.181 62.8223 162.239 62.4497 162.271 62.0744C162.276 62.0993 162.276 62.1248 162.271 62.1496V62.3687C162.273 62.4882 162.263 62.6076 162.242 62.7252C162.226 62.8864 162.198 63.046 162.157 63.2026C161.913 64.2251 161.326 65.1326 160.492 65.773C159.875 66.2486 159.147 66.5608 158.377 66.6809C157.607 66.8009 156.819 66.7248 156.086 66.4597C155.661 66.3123 155.262 66.0994 154.902 65.8286C154.525 65.5557 154.194 65.2246 153.921 64.8475C153.33 64.0473 153.012 63.0788 153.012 62.0842C153.012 61.0896 153.33 60.1212 153.921 59.321C154.47 58.5741 155.226 58.0054 156.096 57.6859C156.881 57.4057 157.727 57.3391 158.546 57.493C159.26 57.6287 159.933 57.9312 160.508 58.3759C161.341 59.0154 161.929 59.9217 162.173 60.943C162.214 61.1007 162.243 61.2614 162.258 61.4237C162.279 61.5402 162.289 61.6585 162.288 61.7768V61.9959C162.278 62.0515 162.275 62.0744 162.271 62.0744Z" fill="#263238"/>
<path d="M174.166 62.0739C174.131 61.6998 174.072 61.3284 173.989 60.962C173.726 59.968 173.136 59.0914 172.315 58.4734C171.754 58.0484 171.1 57.7616 170.408 57.6363C169.614 57.4909 168.795 57.5598 168.036 57.8358C167.199 58.1442 166.471 58.6924 165.943 59.412C165.374 60.1834 165.067 61.1169 165.067 62.0755C165.067 63.0342 165.374 63.9676 165.943 64.7391C166.208 65.1069 166.529 65.4304 166.895 65.6972C167.241 65.9606 167.626 66.168 168.036 66.312C168.795 66.5889 169.613 66.6589 170.408 66.5147C171.101 66.3883 171.754 66.1004 172.315 65.6743C173.136 65.0572 173.726 64.1818 173.989 63.189C174.072 62.8216 174.131 62.4491 174.166 62.0739C174.167 62.0989 174.167 62.124 174.166 62.1491C174.166 62.208 174.166 62.2799 174.166 62.3682C174.167 62.4875 174.158 62.6068 174.14 62.7246C174.123 62.8859 174.093 63.0455 174.051 63.2021C173.81 64.2256 173.222 65.1339 172.387 65.7724C171.811 66.2165 171.139 66.518 170.424 66.6521C169.604 66.8093 168.757 66.7426 167.971 66.4592C167.1 66.1438 166.343 65.5742 165.799 64.8241C165.207 64.0247 164.887 63.0559 164.887 62.0608C164.887 61.0657 165.207 60.097 165.799 59.2975C166.072 58.9202 166.403 58.5889 166.781 58.3165C167.141 58.0459 167.54 57.832 167.965 57.6821C168.751 57.4017 169.597 57.3351 170.418 57.4891C171.132 57.6244 171.805 57.9269 172.38 58.3721C173.215 59.0099 173.803 59.9169 174.045 60.9391C174.087 61.0968 174.116 61.2575 174.133 61.4199C174.152 61.5366 174.16 61.6548 174.159 61.773C174.159 61.8613 174.159 61.9333 174.159 61.9921C174.163 62.0192 174.165 62.0465 174.166 62.0739Z" fill="#263238"/>
<path d="M165.089 61.5836C165.089 61.6098 164.922 61.5248 164.664 61.4397C164.326 61.3261 163.969 61.2795 163.614 61.3024C163.262 61.3285 162.918 61.4194 162.6 61.5706C162.354 61.6916 162.217 61.7962 162.201 61.7733C162.184 61.7504 162.299 61.6196 162.528 61.4659C162.85 61.2716 163.214 61.1572 163.59 61.1322C163.965 61.1072 164.341 61.1722 164.686 61.322C164.971 61.4463 165.102 61.5705 165.089 61.5836Z" fill="#263238"/>
<path d="M166.93 50.1836C166.999 49.8337 166.881 49.6374 167.081 49.4935C167.28 49.3496 167.735 49.7617 167.885 49.9318C167.938 49.9874 168.095 49.7715 168.157 49.7323C168.225 49.592 168.265 49.4398 168.275 49.2842C168.245 49.0389 167.863 48.9571 167.683 48.8067C167.497 48.6436 167.28 48.52 167.045 48.4436C166.949 48.3962 166.843 48.3746 166.736 48.381C166.629 48.3873 166.526 48.4213 166.437 48.4796C166.383 48.5424 166.344 48.6155 166.32 48.6943C166.297 48.773 166.289 48.8558 166.299 48.9375C166.298 49.1011 166.329 49.2634 166.391 49.415C166.452 49.5676 166.569 49.6914 166.718 49.7617" fill="#263238"/>
<path d="M146.572 57.9074C146.572 57.9074 149.886 59.1208 151.609 59.8535L151.511 58.1593L146.693 56.2524C146.693 56.2524 146.569 57.5117 146.572 57.9074Z" fill="#EBEBEB"/>
<path d="M146.883 55.2754C147.683 55.5233 148.467 55.8238 149.228 56.1748C150.014 56.4745 150.779 56.8274 151.517 57.2313C150.717 56.9833 149.933 56.6829 149.172 56.3318C148.386 56.0322 147.621 55.6792 146.883 55.2754Z" fill="#EBEBEB"/>
<path d="M147.88 90.959L147.625 82.9438C147.625 82.9438 149.218 90.2788 157.562 90.184C165.532 90.0924 165.388 83.7221 165.388 83.7221L165.673 86.9531V100.004L160.472 121.296L153.83 122.127L146.49 93.0225L147.88 90.959Z" fill="#71AEF3"/>
<path d="M164.647 88.3959C164.622 88.4562 164.591 88.5132 164.552 88.566C164.452 88.7271 164.343 88.8821 164.225 89.0304C163.806 89.5823 163.305 90.0675 162.74 90.4695C161.902 91.0693 160.963 91.5126 159.967 91.7778C158.747 92.1051 157.475 92.1928 156.222 92.0362C154.974 91.8643 153.76 91.499 152.624 90.9536C151.702 90.5125 150.826 89.9823 150.007 89.3706C149.454 88.9643 148.923 88.5275 148.418 88.0623C148.238 87.8987 148.107 87.7614 148.016 87.6698C147.967 87.6268 147.923 87.5785 147.885 87.5259C147.94 87.5605 147.992 87.6011 148.038 87.6469L148.464 88.0132C148.83 88.3403 149.373 88.7753 150.079 89.2822C150.902 89.8749 151.778 90.3895 152.696 90.8195C153.818 91.3489 155.015 91.7041 156.245 91.8726C157.475 92.0271 158.724 91.9461 159.924 91.6339C160.905 91.3791 161.835 90.9564 162.672 90.3845C163.234 89.9962 163.739 89.5317 164.173 89.0042C164.487 88.6118 164.634 88.3861 164.647 88.3959Z" fill="#263238"/>
<path d="M158.857 156.827L158.736 118.991L147.988 91.3876L147.629 83.0781L141.087 88.0291C141.087 88.0291 131.56 120.819 131.399 119.687C131.239 118.556 131.399 156.827 131.399 156.827H158.857Z" fill="#EBEBEB"/>
<path d="M158.599 156.722C158.553 156.722 158.514 148.197 158.514 137.68C158.514 127.163 158.553 118.638 158.599 118.638C158.645 118.638 158.684 127.163 158.684 137.68C158.684 148.197 158.645 156.722 158.599 156.722Z" fill="#263238"/>
<path d="M141.178 93.4185L142.506 94.4257L141.573 100.547L157.26 116.977L143.013 98.2681L144.226 93.4185H141.178Z" fill="#E0E0E0"/>
<path d="M159.448 137.444L135.372 130.387L134.574 112.104L141.178 88.0161C141.178 88.0161 125.439 95.8677 124.366 100.871C123.294 105.874 120.713 118.013 120.442 126.794C120.196 134.642 120.16 139.874 121.953 142.395C127.088 149.57 160.92 150.852 174.434 142.395" fill="#EBEBEB"/>
<path d="M157.564 117.372C157.564 117.372 157.534 117.346 157.485 117.284C157.436 117.221 157.358 117.127 157.269 117.015L156.452 115.969C155.739 115.047 154.721 113.726 153.469 112.097L143.68 99.2879L142.944 98.3069L142.918 98.2742V98.2349C143.336 96.5606 143.745 94.9353 144.134 93.3853L144.213 93.4899H141.164H141.086V93.4114C141.086 91.4494 141.086 89.6181 141.086 88.0092V87.9765L141.112 87.9568L145.845 84.3597L147.153 83.3786L147.48 83.1268C147.517 83.0961 147.558 83.0697 147.601 83.0483L147.493 83.1432L147.166 83.4081L145.887 84.4087L141.191 88.0517L141.217 87.9993C141.217 89.6083 141.217 91.4232 141.217 93.4016L141.138 93.3264H144.187H144.317L144.291 93.4311L143.081 98.2807L143.065 98.2088L143.804 99.1735L153.551 112.015L156.494 115.917C156.821 116.374 157.099 116.731 157.286 116.983C157.371 117.1 157.436 117.195 157.488 117.264L157.564 117.372Z" fill="#263238"/>
<path d="M168.295 86.59C166.375 83.2348 165.377 83.5815 165.377 83.5815L165.479 84.7783V87.2931L164.566 98.0846L158.734 121.528L158.855 156.826H180.903L183.647 113.739L183.399 95.1741L168.295 86.59Z" fill="#EBEBEB"/>
<path d="M183.403 95.1743C183.403 95.1743 189.111 99.3863 189.618 106.165C190.02 111.669 190.926 126.741 191.106 130.021C191.368 135.129 187.387 147.095 177.026 143.707C170.811 141.673 147.857 133.873 147.857 133.873L149.385 124.125L176.63 125.76L177.173 103.039L183.403 95.1743Z" fill="#EBEBEB"/>
<path d="M149.059 125.247C149.059 125.247 141.347 124.413 139.574 124.845C137.857 125.26 135.414 127.359 135.414 127.359L135.45 130.404L147.856 133.874L149.059 125.247Z" fill="#FFBE9D"/>
<path d="M158.736 118.003C158.745 117.967 158.757 117.932 158.772 117.898C158.798 117.823 158.838 117.722 158.887 117.598C158.995 117.323 159.152 116.944 159.348 116.447L161.075 112.221L163.652 105.962C163.897 105.377 164.14 104.766 164.444 104.167C164.748 103.569 165.078 102.97 165.425 102.372C166.177 101.152 166.993 99.9727 167.871 98.84C168.316 98.2677 168.764 97.7085 169.229 97.1722V97.2605L168.267 94.8177L168.234 94.736L168.316 94.7065L172.329 93.3494L172.287 93.4606C170.423 90.3474 168.849 87.7182 167.731 85.8543C167.181 84.9321 166.71 84.193 166.21 83.8922C166.021 83.7785 165.816 83.6957 165.602 83.6469C165.525 83.6326 165.45 83.614 165.376 83.5913C165.453 83.5965 165.529 83.6063 165.605 83.6207C165.827 83.6608 166.041 83.7394 166.236 83.8529C166.539 84.0501 166.802 84.3045 167.008 84.6018C167.297 84.988 167.564 85.3897 167.809 85.8052L172.421 93.3854L172.47 93.4672L172.378 93.4966L168.365 94.8733L168.414 94.7654L169.379 97.2082L169.399 97.254L169.363 97.2932C168.905 97.823 168.457 98.3822 168.015 98.9545C167.141 100.079 166.326 101.249 165.575 102.46C165.225 103.055 164.882 103.641 164.594 104.239C164.306 104.837 164.051 105.433 163.806 106.021C162.825 108.369 161.935 110.485 161.189 112.267C160.444 114.049 159.835 115.469 159.413 116.469C159.204 116.957 159.037 117.339 158.923 117.611C158.867 117.735 158.825 117.83 158.789 117.905C158.776 117.94 158.758 117.973 158.736 118.003Z" fill="#263238"/>
<path d="M186.53 141.81C186.502 141.847 186.47 141.881 186.435 141.911L186.141 142.196C185.754 142.55 185.334 142.868 184.888 143.144C184.177 143.577 183.405 143.901 182.599 144.106C181.53 144.37 180.422 144.441 179.328 144.315C178.69 144.241 178.06 144.107 177.447 143.916C176.793 143.713 176.165 143.461 175.485 143.226C174.141 142.735 172.695 142.245 171.177 141.695C168.136 140.629 164.783 139.491 161.251 138.33C154.186 136.012 147.743 134.056 143.072 132.66L137.538 131.025L136.034 130.577L135.644 130.459C135.599 130.447 135.556 130.43 135.514 130.41L135.651 130.44L136.044 130.544L137.558 130.96C138.866 131.326 140.766 131.865 143.118 132.546C147.795 133.909 154.238 135.848 161.313 138.17C164.849 139.328 168.201 140.459 171.24 141.545C172.757 142.085 174.199 142.598 175.544 143.092C176.218 143.334 176.852 143.589 177.506 143.792C178.11 143.983 178.731 144.118 179.361 144.194C180.444 144.327 181.543 144.266 182.605 144.014C183.409 143.817 184.18 143.505 184.895 143.089C185.341 142.818 185.763 142.511 186.157 142.17L186.461 141.898C186.482 141.867 186.505 141.838 186.53 141.81Z" fill="#263238"/>
<path d="M135.436 130.459C135.436 130.495 135.001 130.401 134.311 130.43C133.908 130.447 133.508 130.512 133.121 130.626C132.648 130.768 132.197 130.974 131.78 131.238C131.026 131.735 130.389 132.389 129.912 133.154C129.549 133.743 129.389 134.136 129.359 134.136C129.377 134.035 129.408 133.937 129.451 133.845C129.55 133.584 129.67 133.333 129.811 133.092C130.269 132.287 130.913 131.602 131.688 131.094C132.119 130.822 132.587 130.614 133.078 130.476C133.479 130.367 133.893 130.311 134.308 130.309C134.587 130.305 134.865 130.33 135.139 130.384C135.241 130.395 135.341 130.421 135.436 130.459Z" fill="#263238"/>
<path d="M127.852 128.072C127.852 128.072 127.852 128.04 127.881 127.984C127.92 127.906 127.971 127.834 128.031 127.772C128.265 127.543 128.565 127.394 128.888 127.346C129.356 127.269 129.833 127.269 130.301 127.346C130.874 127.422 131.436 127.559 131.979 127.755C132.972 128.104 133.879 128.662 134.638 129.391C134.865 129.613 135.071 129.855 135.256 130.113C135.328 130.205 135.389 130.305 135.436 130.411C135.407 130.434 135.139 130.015 134.556 129.479C133.789 128.792 132.893 128.264 131.92 127.925C131.39 127.735 130.842 127.596 130.285 127.51C129.832 127.428 129.369 127.415 128.911 127.471C128.607 127.506 128.319 127.628 128.084 127.824C127.92 127.965 127.865 128.079 127.852 128.072Z" fill="#263238"/>
<path d="M136.84 107.084C136.787 106.924 136.75 106.758 136.729 106.59C136.68 106.433 136.612 106.247 136.536 106.031C136.461 105.815 136.33 105.58 136.18 105.331C135.828 104.746 135.417 104.198 134.953 103.696C134.38 103.087 133.75 102.533 133.073 102.042C131.843 101.143 130.445 100.501 128.961 100.155C128.51 100.059 128.052 100 127.591 99.9782C127.421 99.9791 127.252 99.966 127.084 99.9389C127.253 99.9149 127.424 99.9062 127.594 99.9128C128.061 99.9076 128.526 99.9492 128.984 100.037C130.497 100.353 131.925 100.989 133.171 101.904C133.859 102.399 134.495 102.964 135.068 103.588C135.534 104.102 135.942 104.666 136.284 105.269C136.432 105.528 136.526 105.779 136.612 105.992C136.697 106.205 136.742 106.411 136.782 106.571C136.814 106.74 136.834 106.912 136.84 107.084Z" fill="#263238"/>
<path d="M182.549 135.031C182.545 134.992 182.545 134.953 182.549 134.914V134.57C182.549 134.269 182.526 133.828 182.483 133.262C182.365 131.655 182.035 130.071 181.502 128.55C181.342 128.046 181.122 127.563 180.848 127.111C180.542 126.63 180.097 126.252 179.572 126.029C178.477 125.558 177.159 125.62 175.818 125.545L167.039 125.175C159.785 124.848 153.332 124.586 149.276 124.371L149.331 124.325C149.086 125.816 148.89 126.997 148.756 127.817C148.687 128.213 148.635 128.52 148.596 128.74C148.579 128.838 148.563 128.916 148.553 128.978L148.533 129.057C148.531 129.03 148.531 129.002 148.533 128.975L148.566 128.736C148.596 128.517 148.641 128.206 148.697 127.808C148.821 126.987 148.998 125.803 149.224 124.308V124.263H149.273L167.036 125.002L175.814 125.397C176.488 125.43 177.146 125.446 177.777 125.499C178.406 125.534 179.025 125.673 179.608 125.911C180.158 126.142 180.625 126.532 180.949 127.033C181.226 127.495 181.446 127.989 181.603 128.504C182.129 130.035 182.441 131.63 182.532 133.246C182.568 133.815 182.568 134.26 182.565 134.554C182.565 134.698 182.565 134.812 182.565 134.897C182.552 134.989 182.549 135.031 182.549 135.031Z" fill="#263238"/>
<path d="M177.351 113.704C177.396 113.704 177.436 116.343 177.436 119.59C177.436 122.837 177.396 125.476 177.351 125.476C177.305 125.476 177.266 122.837 177.266 119.59C177.266 116.343 177.305 113.704 177.351 113.704Z" fill="#263238"/>
<path d="M124.555 100.272C124.555 100.272 124.535 100.347 124.49 100.488C124.444 100.628 124.362 100.841 124.293 101.142C124.133 101.708 123.93 102.551 123.705 103.653C123.25 105.857 122.691 109.082 122.069 113.117C121.759 115.138 121.415 117.368 121.088 119.759C120.921 120.959 120.817 122.208 120.732 123.503C120.647 124.798 120.578 126.119 120.526 127.506C120.427 130.256 120.369 133.16 120.447 136.185C120.473 136.94 120.499 137.705 120.562 138.474C120.581 138.86 120.647 139.239 120.692 139.622C120.762 140.004 120.855 140.382 120.97 140.753C121.203 141.504 121.571 142.205 122.056 142.823C122.543 143.452 123.182 143.945 123.914 144.256C125.471 145.019 127.095 145.639 128.764 146.106C130.455 146.613 132.202 147.022 133.975 147.385C137.832 148.181 141.748 148.658 145.684 148.811C147.548 148.859 149.414 148.811 151.273 148.667C153.095 148.539 154.871 148.34 156.588 148.095C159.826 147.636 163.018 146.894 166.126 145.877C168.787 144.999 171.367 143.892 173.838 142.568V142.676L163.287 138.925L160.438 137.908L159.702 137.64C159.535 137.578 159.453 137.542 159.453 137.542L159.705 137.624L160.448 137.875L163.306 138.856L173.903 142.552L174.031 142.594L173.913 142.66C171.438 143.994 168.852 145.111 166.185 145.998C163.07 147.024 159.871 147.774 156.624 148.239C154.904 148.497 153.125 148.69 151.3 148.817C149.435 148.963 147.564 149.014 145.694 148.968C141.748 148.817 137.822 148.34 133.955 147.542C132.176 147.176 130.426 146.767 128.722 146.26C127.042 145.786 125.409 145.161 123.842 144.393C123.08 144.072 122.413 143.561 121.906 142.908C121.41 142.273 121.034 141.553 120.797 140.783C120.678 140.405 120.583 140.021 120.513 139.632C120.463 139.239 120.401 138.853 120.382 138.467C120.32 137.696 120.293 136.927 120.27 136.178C120.192 133.144 120.27 130.24 120.362 127.486C120.414 126.113 120.485 124.777 120.575 123.48C120.663 122.172 120.771 120.93 120.941 119.729C121.268 117.326 121.615 115.105 121.922 113.088C122.576 109.052 123.145 105.831 123.62 103.63C123.855 102.528 124.064 101.685 124.235 101.119C124.307 100.834 124.398 100.625 124.444 100.485C124.49 100.344 124.555 100.272 124.555 100.272Z" fill="#263238"/>
<path d="M135.4 128.2C139.427 123.743 139.25 115.819 136.938 110.198C136.725 116.287 136.005 121.689 135.456 127.608" fill="#E0E0E0"/>
<path d="M136.949 111.335C136.956 111.401 136.956 111.466 136.949 111.532C136.949 111.679 136.929 111.859 136.913 112.088C136.873 112.594 136.821 113.288 136.752 114.131C136.608 115.878 136.425 118.249 136.2 120.871L135.67 127.614C135.608 128.458 135.555 129.151 135.516 129.658L135.467 130.211C135.463 130.276 135.454 130.34 135.441 130.404C135.431 130.34 135.431 130.275 135.441 130.211C135.441 130.064 135.441 129.884 135.457 129.652C135.473 129.168 135.509 128.468 135.555 127.604C135.657 125.878 135.82 123.491 136.036 120.858C136.252 118.226 136.468 115.845 136.641 114.122C136.729 113.278 136.801 112.588 136.854 112.081C136.883 111.855 136.906 111.672 136.922 111.528C136.922 111.463 136.931 111.398 136.949 111.335Z" fill="#263238"/>
<path d="M146.87 103.284C146.956 104.434 146.985 105.588 146.955 106.741C146.985 107.894 146.956 109.047 146.87 110.197C146.824 110.197 146.785 108.647 146.785 106.741C146.785 104.834 146.824 103.284 146.87 103.284Z" fill="#263238"/>
<path d="M144.248 114.766C144.317 115.434 144.574 116.07 144.99 116.597C145.37 117.091 146.139 117.578 146.757 117.536C147.222 117.559 147.686 117.462 148.103 117.253C148.52 117.043 148.875 116.73 149.134 116.342C149.887 115.145 150.073 112.65 149.462 111.175C149.046 110.161 148.114 109.213 147.018 109.19C145.579 109.158 144.677 110.197 144.369 111.25" fill="#E0E0E0"/>
<path d="M144.375 111.25C144.422 111.002 144.512 110.763 144.64 110.544C144.782 110.281 144.964 110.042 145.179 109.834C145.468 109.558 145.818 109.354 146.2 109.239C146.422 109.171 146.652 109.134 146.884 109.128C147.137 109.114 147.391 109.147 147.633 109.226C148.159 109.412 148.622 109.745 148.967 110.184C149.356 110.659 149.626 111.219 149.755 111.819C149.891 112.456 149.939 113.109 149.899 113.759C149.834 114.782 149.631 115.802 149.065 116.581C148.784 116.946 148.408 117.229 147.979 117.398C147.589 117.555 147.169 117.625 146.749 117.604C146.443 117.607 146.14 117.533 145.87 117.388C145.631 117.264 145.411 117.108 145.215 116.924C144.908 116.617 144.663 116.253 144.496 115.851C144.384 115.598 144.307 115.331 144.267 115.057C144.256 114.985 144.249 114.913 144.247 114.841C144.243 114.816 144.243 114.791 144.247 114.766C144.314 115.129 144.424 115.482 144.574 115.819C144.749 116.203 144.996 116.55 145.301 116.842C145.498 117.015 145.718 117.16 145.955 117.274C146.207 117.404 146.488 117.471 146.772 117.467C147.187 117.488 147.6 117.409 147.978 117.239C148.356 117.068 148.689 116.81 148.947 116.486C149.474 115.757 149.677 114.753 149.739 113.752C149.811 112.444 149.592 111.156 148.856 110.286C148.527 109.869 148.087 109.552 147.587 109.373C147.36 109.298 147.122 109.264 146.884 109.272C146.662 109.274 146.442 109.306 146.229 109.367C145.864 109.472 145.528 109.661 145.248 109.919C145.034 110.115 144.85 110.341 144.702 110.59C144.581 110.804 144.471 111.024 144.375 111.25Z" fill="#263238"/>
<path d="M143.484 114.831C143.553 115.499 143.811 116.135 144.227 116.662C144.603 117.156 145.375 117.643 145.993 117.601C146.459 117.624 146.923 117.527 147.339 117.317C147.756 117.108 148.111 116.795 148.371 116.407C149.123 115.207 149.309 112.715 148.698 111.24C148.282 110.223 147.35 109.278 146.255 109.255C145.646 109.25 145.053 109.451 144.573 109.824C144.092 110.197 143.751 110.722 143.605 111.312" fill="#E0E0E0"/>
<path d="M143.61 111.312C143.658 111.065 143.748 110.827 143.875 110.609C144.017 110.347 144.199 110.107 144.415 109.9C144.873 109.458 145.482 109.206 146.119 109.193C146.372 109.18 146.626 109.213 146.868 109.291C147.394 109.478 147.857 109.81 148.202 110.25C148.591 110.724 148.861 111.284 148.987 111.885C149.126 112.521 149.175 113.174 149.134 113.824C149.069 114.847 148.866 115.864 148.3 116.646C148.019 117.012 147.644 117.294 147.214 117.464C146.824 117.62 146.405 117.69 145.985 117.67C145.678 117.671 145.375 117.596 145.105 117.451C144.866 117.328 144.646 117.173 144.451 116.989C144.141 116.683 143.896 116.317 143.731 115.914C143.619 115.661 143.542 115.395 143.502 115.122C143.502 115.027 143.482 114.955 143.479 114.906C143.476 114.881 143.476 114.856 143.479 114.831C143.546 115.193 143.656 115.545 143.806 115.881C143.979 116.267 144.226 116.616 144.532 116.908C144.73 117.081 144.95 117.226 145.187 117.339C145.44 117.468 145.72 117.534 146.004 117.532C146.418 117.552 146.831 117.474 147.208 117.303C147.586 117.133 147.917 116.875 148.176 116.551C148.706 115.819 148.909 114.818 148.971 113.817C149.043 112.509 148.824 111.221 148.088 110.351C147.764 109.93 147.327 109.611 146.828 109.429C146.603 109.354 146.366 109.32 146.128 109.327C145.521 109.337 144.939 109.57 144.493 109.981C144.279 110.177 144.095 110.403 143.947 110.652C143.821 110.865 143.708 111.085 143.61 111.312Z" fill="#263238"/>
<path d="M144.872 110.947C144.509 110.901 144.141 110.975 143.824 111.157C143.507 111.34 143.258 111.621 143.116 111.958C142.844 112.644 142.844 113.407 143.116 114.093C143.228 114.449 143.414 114.776 143.662 115.055C143.914 115.336 144.267 115.506 144.643 115.529C144.916 115.514 145.181 115.433 145.416 115.295C145.651 115.156 145.849 114.962 145.994 114.731C146.247 114.371 146.419 113.96 146.499 113.527C146.579 113.094 146.564 112.649 146.455 112.223C146.305 111.653 145.886 111.074 145.301 111.058" fill="#E0E0E0"/>
<path d="M145.298 111.058C145.298 111.058 145.344 111.058 145.429 111.058C145.555 111.072 145.676 111.113 145.785 111.179C145.978 111.307 146.143 111.473 146.271 111.666C146.399 111.859 146.488 112.076 146.531 112.304C146.69 112.975 146.619 113.68 146.328 114.306C146.165 114.68 145.914 115.01 145.595 115.267C145.424 115.415 145.221 115.519 145.001 115.572C144.781 115.625 144.552 115.625 144.333 115.571C143.904 115.435 143.544 115.14 143.326 114.747C143.125 114.395 142.984 114.013 142.907 113.615C142.825 113.283 142.812 112.938 142.868 112.601C142.924 112.263 143.049 111.941 143.234 111.653C143.367 111.463 143.535 111.301 143.731 111.176C143.926 111.052 144.144 110.967 144.372 110.927C144.497 110.908 144.624 110.908 144.748 110.927C144.83 110.943 144.873 110.956 144.873 110.963C144.71 110.957 144.546 110.967 144.385 110.992C143.954 111.092 143.577 111.353 143.332 111.722C143.163 112 143.051 112.309 143.005 112.631C142.958 112.953 142.977 113.281 143.061 113.596C143.137 113.974 143.275 114.338 143.47 114.672C143.667 115.027 143.992 115.294 144.379 115.418C144.573 115.465 144.775 115.465 144.969 115.419C145.163 115.372 145.343 115.28 145.494 115.149C145.791 114.908 146.028 114.601 146.187 114.253C146.471 113.659 146.55 112.987 146.413 112.343C146.344 111.907 146.11 111.515 145.759 111.247C145.618 111.156 145.462 111.092 145.298 111.058Z" fill="#263238"/>
<path d="M146.52 116.323C146.494 116.323 146.458 116.218 146.347 116.087C146.197 115.919 146.003 115.796 145.787 115.731C145.564 115.667 145.333 115.63 145.1 115.623C144.92 115.623 144.803 115.594 144.803 115.571C144.803 115.548 144.914 115.522 145.1 115.502C145.349 115.476 145.6 115.498 145.84 115.567C146.089 115.639 146.305 115.8 146.445 116.019C146.546 116.189 146.539 116.32 146.52 116.323Z" fill="#263238"/>
<path d="M146.779 110.502C146.779 110.502 146.726 110.616 146.576 110.737C146.374 110.892 146.137 110.995 145.886 111.038C145.635 111.084 145.378 111.071 145.133 110.999C144.95 110.937 144.852 110.865 144.862 110.845C145.187 110.896 145.516 110.905 145.843 110.872C146.169 110.787 146.483 110.663 146.779 110.502Z" fill="#263238"/>
<path d="M169.254 87.0776C169.254 87.0776 169.293 87.0776 169.362 87.1169C169.462 87.1614 169.559 87.2116 169.653 87.2673C170.004 87.4656 170.332 87.7002 170.634 87.9671C171.64 88.8528 172.371 90.0081 172.74 91.2961C173.128 92.5612 173.396 93.8596 173.542 95.1745C173.601 95.6781 173.63 96.0869 173.65 96.3681C173.666 96.5148 173.666 96.6629 173.65 96.8096C173.613 96.667 173.589 96.5215 173.578 96.3747C173.535 96.064 173.48 95.6651 173.418 95.1909C173.237 93.8887 172.953 92.6029 172.57 91.3452C172.207 90.086 171.508 88.9491 170.549 88.0554C170.142 87.6979 169.709 87.3711 169.254 87.0776Z" fill="#263238"/>
<path d="M165.178 123.073C166.126 123.037 166.885 122.091 167.833 122.144C168.005 122.158 168.173 122.207 168.326 122.286C168.479 122.365 168.615 122.474 168.726 122.606C168.837 122.737 168.921 122.89 168.974 123.054C169.026 123.218 169.045 123.391 169.031 123.563C169.016 123.735 168.968 123.902 168.888 124.055C168.809 124.209 168.701 124.345 168.569 124.456C168.437 124.567 168.284 124.651 168.12 124.703C167.956 124.755 167.783 124.775 167.611 124.76C166.613 124.646 166.031 123.478 165.057 123.256" fill="#263238"/>
<path d="M173.215 123.879C172.919 123.879 172.622 123.855 172.329 123.807L172.381 123.48C173.552 123.667 174.537 123.48 175.305 122.908C176.287 122.198 176.898 120.926 177.16 119.128V119.059C177.268 118.346 177.415 104.36 177.415 101.704C177.415 97.5545 173.775 96.9887 173.618 96.9658C173.461 96.943 170.161 96.387 168.404 100.916C166.566 105.661 163.626 114.805 163.433 115.877C163.407 116.008 163.371 116.171 163.331 116.358C163.024 117.731 162.389 120.586 164.293 122.228C166.416 124.062 168.09 123.353 168.159 123.323L168.293 123.621C168.215 123.654 166.37 124.455 164.08 122.476C162.026 120.704 162.69 117.722 163.011 116.286C163.053 116.103 163.086 115.959 163.109 115.818C163.305 114.739 166.255 105.557 168.1 100.798C169.945 96.0404 173.634 96.6356 173.66 96.6454C173.686 96.6552 177.729 97.2667 177.729 101.704C177.729 103.892 177.585 118.349 177.471 119.108V119.173C177.196 121.064 176.529 122.408 175.485 123.173C174.825 123.647 174.029 123.895 173.215 123.879Z" fill="#263238"/>
<path d="M177.589 104.384C177.444 103.808 177.214 103.257 176.908 102.749C176.56 102.212 176.124 101.739 175.616 101.349C174.992 100.877 174.276 100.543 173.513 100.368C172.114 100.059 170.65 100.25 169.376 100.907C168.856 101.192 168.371 101.537 167.934 101.937C167.954 101.902 167.98 101.869 168.009 101.839C168.084 101.746 168.166 101.658 168.254 101.578C168.572 101.273 168.93 101.012 169.317 100.803C170.609 100.095 172.115 99.8813 173.553 100.201C174.338 100.386 175.074 100.739 175.711 101.234C176.233 101.638 176.676 102.134 177.02 102.696C177.25 103.073 177.42 103.484 177.523 103.913C177.554 104.029 177.577 104.147 177.592 104.266C177.592 104.338 177.595 104.384 177.589 104.384Z" fill="#263238"/>
<path d="M185.921 130.526C185.8 130.052 185.65 129.587 185.47 129.132C185.005 128.048 184.234 127.123 183.252 126.47C182.702 126.134 182.091 125.911 181.453 125.816C180.928 125.734 180.398 125.679 179.867 125.652L178.791 125.577C178.659 125.573 178.527 125.556 178.398 125.525C178.53 125.509 178.663 125.509 178.794 125.525L179.874 125.544C180.41 125.556 180.945 125.6 181.476 125.675C182.137 125.761 182.773 125.984 183.344 126.329C184.355 126.999 185.136 127.962 185.581 129.09C185.717 129.426 185.818 129.776 185.882 130.133C185.912 130.262 185.925 130.394 185.921 130.526Z" fill="#263238"/>
<path d="M169.418 125.07C169.418 125.07 172.636 120.201 173.457 119.563C174.278 118.925 181.307 115.753 182.121 116.263C182.936 116.773 182.448 117.879 182.448 117.879C182.448 117.879 185.418 116.839 185.735 117.248C185.906 117.493 185.998 117.786 185.998 118.085C185.998 118.384 185.906 118.676 185.735 118.922C185.735 118.922 187.371 118.67 187.371 119.177C187.364 119.517 187.274 119.851 187.109 120.149C186.944 120.446 186.708 120.699 186.422 120.884C185.664 121.453 180.728 124.736 180.332 125.645L178.733 125.547L169.418 125.07Z" fill="#FFBE9D"/>
<path d="M178.676 123.675C178.712 123.566 178.762 123.463 178.823 123.367C178.98 123.101 179.157 122.847 179.353 122.608C180.011 121.824 180.8 121.16 181.685 120.646C182.565 120.131 183.489 119.693 184.445 119.338C184.808 119.197 185.099 119.092 185.312 119.011C185.417 118.967 185.527 118.936 185.639 118.919C185.545 118.984 185.443 119.036 185.335 119.073L184.488 119.436C183.554 119.818 182.647 120.263 181.773 120.767C180.904 121.274 180.118 121.913 179.444 122.661C178.934 123.266 178.705 123.691 178.676 123.675Z" fill="#AA6550"/>
<path d="M174.596 123.596C174.634 123.471 174.687 123.352 174.753 123.239C174.864 123.014 175.024 122.69 175.247 122.297C175.503 121.836 175.8 121.398 176.133 120.989C176.331 120.74 176.557 120.515 176.807 120.319C177.078 120.135 177.363 119.965 177.66 119.789C178.666 119.189 179.716 118.667 180.8 118.225C181.129 118.095 181.465 117.986 181.808 117.898C181.933 117.862 182.063 117.839 182.194 117.83C182.194 117.859 181.66 117.983 180.846 118.35C179.782 118.821 178.747 119.355 177.745 119.949C177.451 120.122 177.166 120.296 176.902 120.469C176.661 120.654 176.441 120.866 176.247 121.1C175.912 121.5 175.61 121.927 175.345 122.376L174.802 123.285C174.744 123.396 174.675 123.5 174.596 123.596Z" fill="#AA6550"/>
</svg>
