<svg width="288" height="158" viewBox="0 0 288 158" fill="none" xmlns="http://www.w3.org/2000/svg">
<path d="M0 5C0 2.23857 2.23858 0 5 0H283C285.761 0 288 2.23858 288 5V157H0V5Z" fill="#ABCBB8"/>
<path d="M50.3441 116.971L46.2729 117.058L44.2079 117.092C43.5196 117.092 42.825 117.092 42.1335 117.092H41.994V116.953L41.9785 113.478V113.323H42.1367L46.2419 113.342C47.6093 113.342 48.9767 113.379 50.3472 113.395H50.4341V113.478C50.4341 114.068 50.4061 114.655 50.3937 115.233L50.3441 116.971ZM50.3441 116.971L50.2976 115.217C50.2976 114.637 50.2635 114.065 50.2573 113.497L50.3441 113.581C48.9736 113.581 47.6062 113.631 46.2388 113.634L42.1335 113.652L42.2886 113.497L42.27 116.971L42.1335 116.831C42.8095 116.831 43.4823 116.831 44.1614 116.85L46.2016 116.884L50.3441 116.971Z" fill="#EBEBEB"/>
<path d="M45.7622 121.352L41.6941 121.448L39.6291 121.482C38.9376 121.498 38.2462 121.482 37.5516 121.498H37.4121V121.358V117.878V117.723H37.5671L41.6724 117.741C43.0429 117.741 44.4103 117.775 45.7777 117.794H45.8645V117.878C45.8645 118.468 45.8366 119.055 45.8242 119.632L45.7622 121.352ZM45.7622 121.352L45.7188 119.585C45.7188 119.008 45.6847 118.437 45.6785 117.869L45.7622 117.952C44.3948 117.968 43.0274 118.002 41.6569 118.005L37.5516 118.033L37.7067 117.878L37.6912 121.352L37.5516 121.212C38.2307 121.212 38.9035 121.212 39.5826 121.231L41.6228 121.265L45.7622 121.352Z" fill="#EBEBEB"/>
<path d="M55.1358 121.352L51.0553 121.448L48.9903 121.482C48.2988 121.498 47.6074 121.482 46.9128 121.498H46.7764V121.358L46.7578 117.884V117.723H46.9128L51.0181 117.741C52.3886 117.741 53.756 117.775 55.1234 117.794H55.2102V117.878C55.2102 118.468 55.1823 119.055 55.1699 119.632L55.1358 121.352ZM55.1358 121.352L55.0862 119.585C55.0862 119.008 55.0521 118.437 55.0459 117.869L55.1296 117.952C53.7622 117.968 52.3948 118.002 51.0243 118.005L46.9252 118.033L47.0803 117.878L47.0648 121.352L46.9252 121.212C47.6043 121.212 48.2771 121.212 48.9562 121.231L50.9964 121.265L55.1358 121.352Z" fill="#EBEBEB"/>
<path d="M96.8801 80.0756L92.812 80.1625L90.7439 80.1967C90.0555 80.2122 89.361 80.1967 88.6695 80.2153H88.5331V80.0756L88.5176 76.6015V76.4463H88.6726L92.7779 76.4649C94.1453 76.4649 95.5158 76.5022 96.8832 76.5177H96.97V76.6015C96.97 77.1914 96.9452 77.7782 96.9297 78.3556L96.8801 80.0756ZM96.8801 80.0756L96.8367 78.3215C96.8212 77.7409 96.8026 77.1697 96.7964 76.6015L96.8801 76.6853C95.5127 76.7009 94.1422 76.735 92.7748 76.7381L88.6695 76.7568L88.8245 76.6015L88.809 80.0756L88.6695 79.9359C89.3455 79.9359 90.0214 79.9359 90.7005 79.9545L92.7376 79.9887L96.8801 80.0756Z" fill="#EBEBEB"/>
<path d="M163.848 121.352L159.78 121.439L157.715 121.473C157.023 121.489 156.329 121.473 155.637 121.489H155.501V121.349L155.482 117.875V117.723H155.637L159.743 117.741C161.113 117.741 162.481 117.775 163.848 117.794H163.935V117.878C163.935 118.468 163.91 119.055 163.895 119.632L163.848 121.352ZM163.848 121.352L163.805 119.595C163.789 119.017 163.771 118.446 163.764 117.878L163.848 117.962C162.481 117.977 161.113 118.011 159.743 118.014L155.637 118.033L155.792 117.878L155.777 121.352L155.637 121.212C156.313 121.212 156.989 121.212 157.668 121.231L159.709 121.265L163.848 121.352Z" fill="#EBEBEB"/>
<path d="M159.268 38.2006L155.2 38.2875L153.132 38.3217C152.444 38.3217 151.749 38.3217 151.058 38.3403H150.921V38.2006L150.896 34.7265V34.5713H151.052L155.157 34.593C156.524 34.593 157.895 34.6272 159.262 34.6427H159.349V34.7265C159.349 35.3164 159.324 35.9032 159.309 36.4837L159.268 38.2006ZM159.268 38.2006L159.225 36.4465C159.209 35.869 159.191 35.2978 159.185 34.7265L159.268 34.829C157.901 34.829 156.53 34.8786 155.163 34.8786L151.058 34.8973L151.213 34.742V38.2161L151.073 38.0795C151.749 38.0795 152.425 38.0795 153.104 38.0795L155.141 38.1137L159.268 38.2006Z" fill="#EBEBEB"/>
<path d="M163.848 42.5902L159.78 42.6772L157.715 42.7113C157.023 42.7113 156.329 42.7113 155.637 42.73H155.501V42.5902L155.482 39.1162V38.9609H155.637L159.743 38.9827C161.113 38.9827 162.481 39.0168 163.848 39.0323H163.935V39.1162C163.935 39.706 163.91 40.2928 163.895 40.8734L163.848 42.5902ZM163.848 42.5902L163.805 40.8361C163.789 40.2587 163.771 39.6843 163.764 39.1162L163.848 39.2031C162.481 39.2031 161.113 39.2528 159.743 39.2528L155.637 39.2714L155.792 39.1162L155.777 42.5902L155.637 42.4536C156.313 42.4536 156.989 42.4536 157.668 42.4536L159.709 42.4878L163.848 42.5902Z" fill="#EBEBEB"/>
<path d="M50.3441 38.2006L46.2729 38.2875L44.2079 38.3217C43.5196 38.3217 42.825 38.3217 42.1335 38.3403H41.994V38.2006L41.9785 34.7265V34.5713H42.1367L46.2419 34.593C47.6093 34.593 48.9767 34.6272 50.3472 34.6427H50.4341V34.7265C50.4341 35.3164 50.4061 35.9032 50.3937 36.4837L50.3441 38.2006ZM50.3441 38.2006L50.2976 36.4465C50.2976 35.869 50.2635 35.2978 50.2573 34.7265L50.3441 34.8135C48.9736 34.8135 47.6062 34.8631 46.2388 34.8631L42.1335 34.8818L42.2886 34.7265L42.27 38.2006L42.1335 38.064C42.8095 38.064 43.4823 38.064 44.1614 38.064L46.2016 38.0981L50.3441 38.2006Z" fill="#EBEBEB"/>
<path d="M46.6736 156.984H80.0059L80.0059 76.605H46.6736L46.6736 156.984Z" fill="#EBEBEB"/>
<path d="M45.3618 76.605H81.3203V75.211H45.3618V76.605Z" fill="#DBDBDB"/>
<path d="M36.0035 76.605H45.3613V75.211H36.0035V76.605Z" fill="#EBEBEB"/>
<path d="M37.4834 156.984H46.6738L46.6738 76.605H37.4834L37.4834 156.984Z" fill="#DBDBDB"/>
<path d="M77.101 138.999H49.5918V126.943H77.101V138.999ZM49.6817 138.921H77.0235V127.036H49.6693L49.6817 138.921Z" fill="#C7C7C7"/>
<path d="M62.1649 132.851H66.3105V130.467H62.1649V132.851Z" fill="#C7C7C7"/>
<path d="M65.1255 132.712H60.9023V130.61H65.1255V132.712ZM60.9768 132.625H65.0448V130.678H60.9768V132.625Z" fill="#C7C7C7"/>
<path d="M77.101 154.133H49.5918V142.078H77.101V154.133ZM49.6693 154.046H77.0111V142.156H49.6693V154.046Z" fill="#C7C7C7"/>
<path d="M62.1649 147.99H66.3105V145.605H62.1649V147.99Z" fill="#C7C7C7"/>
<path d="M65.1255 147.838H60.9023V145.736H65.1255V147.838ZM60.9768 147.769H65.0448V145.823H60.9768V147.769Z" fill="#C7C7C7"/>
<path d="M77.101 123.867H49.5918V111.824H77.101V123.867ZM49.6817 123.789H77.0235V111.886H49.6693L49.6817 123.789Z" fill="#C7C7C7"/>
<path d="M62.1649 117.719H66.3105V115.335H62.1649V117.719Z" fill="#C7C7C7"/>
<path d="M65.1255 117.58H60.9023V115.475H65.1255V117.58ZM60.9768 117.502H65.0448V115.55H60.9768V117.502Z" fill="#C7C7C7"/>
<path d="M77.101 108.719H49.5918V96.6763H77.101V108.719ZM49.6817 108.642H77.0235V96.7539H49.6693L49.6817 108.642Z" fill="#C7C7C7"/>
<path d="M62.1649 102.587H66.3105V100.203H62.1649V102.587Z" fill="#C7C7C7"/>
<path d="M65.1255 102.445H60.9023V100.337H65.1255V102.445ZM60.9768 102.367H65.0448V100.421H60.9768V102.367Z" fill="#C7C7C7"/>
<path d="M49.6275 93.6025H73.9492V81.6249H49.6275V93.6025Z" fill="#A6A6A6"/>
<path d="M70.9514 78.5576H54.7969V90.2807H70.9514V78.5576Z" fill="#C7C7C7"/>
<path d="M65.2427 77.3438H70.9511V78.5577H64.9141L65.2427 77.3438Z" fill="#C7C7C7"/>
<path d="M54.8379 90.2806H70.9924L72.2389 79.5293H56.0844L54.8379 90.2806Z" fill="#A6A6A6"/>
<path d="M66.6609 78.415H72.3692L72.239 79.5296H66.2051L66.6609 78.415Z" fill="#A6A6A6"/>
<path d="M62.9526 93.6025H90.375V81.6249H62.9526V93.6025Z" fill="#EBEBEB"/>
<path d="M90.4108 93.6433H62.9141V81.585H90.4108V93.6433ZM62.9916 93.5657H90.3333V81.6626H62.9916V93.5657Z" fill="#C7C7C7"/>
<path d="M75.2021 87.4961H79.3477V85.1117H75.2021V87.4961Z" fill="#C7C7C7"/>
<path d="M78.1614 87.3562H73.9414V85.2544H78.1614V87.3562ZM74.0189 87.2786H78.0839V85.332H74.0189V87.2786Z" fill="#C7C7C7"/>
<path d="M49.6315 93.6025H62.9023V83.4194H49.6315V93.6025Z" fill="#DBDBDB"/>
<path d="M61.6123 62.6094H45.709V75.2173H61.6123V62.6094Z" fill="#EBEBEB"/>
<path d="M61.6123 62.6094H45.709V75.2173H61.6123V62.6094Z" fill="#EBEBEB"/>
<path d="M67.6584 62.6152H61.6152V75.2231H67.6584V62.6152Z" fill="#C7C7C7"/>
<path d="M45.709 68.9087L61.6154 68.9149L49.1941 69.2347L45.709 68.9087Z" fill="#C7C7C7"/>
<path d="M61.6123 73.6957L45.709 73.6895L58.1272 74.0185L61.6123 73.6957Z" fill="#C7C7C7"/>
<path d="M45.7129 65.3848L55.787 65.391L46.8322 65.6518L45.7129 65.3848Z" fill="#C7C7C7"/>
<path d="M61.6132 71.8421L51.5391 71.8359L60.4938 72.106L61.6132 71.8421Z" fill="#C7C7C7"/>
<path d="M49.5293 63.9844L60.8902 63.9875L58.9957 64.1458L49.5293 63.9844Z" fill="#C7C7C7"/>
<path d="M47.2559 70.2622L58.6167 70.2684L56.7253 70.4236L47.2559 70.2622Z" fill="#C7C7C7"/>
<path d="M54.2461 66.5894L61.6164 66.5925L62.9342 67.0178L54.2461 66.5894Z" fill="#EBEBEB"/>
<path d="M54.2461 66.5894L61.6164 66.5925L62.9342 67.0178L54.2461 66.5894Z" fill="#EBEBEB"/>
<path d="M43.6816 66.583L51.0519 66.5861L52.3697 67.0114L43.6816 66.583Z" fill="#DBDBDB"/>
<path d="M53.1354 72.2555L45.7651 72.2524L44.4473 72.6747L53.1354 72.2555Z" fill="#DBDBDB"/>
<path d="M61.6152 70.8208L67.5313 70.8239L68.8491 71.2461L61.6152 70.8208Z" fill="#C7C7C7"/>
<path d="M63.6797 68.9179L68.2687 68.921L67.6579 68.5732L63.6797 68.9179Z" fill="#C7C7C7"/>
<path d="M126.516 43.9038H108.188V55.8846H126.516V43.9038Z" fill="#DBDBDB"/>
<path d="M126.516 56.5894H108.188V68.5701H126.516V56.5894Z" fill="#EBEBEB"/>
<path d="M111.785 58.8931H110.002V60.6782H111.785V58.8931Z" fill="white"/>
<path d="M113.937 58.8931H112.154V60.6782H113.937V58.8931Z" fill="#C7C7C7"/>
<path d="M116.091 58.8931H114.309V60.6782H116.091V58.8931Z" fill="white"/>
<path d="M118.244 58.8931H116.461V60.6782H118.244V58.8931Z" fill="white"/>
<path d="M120.398 58.8931H118.615V60.6782H120.398V58.8931Z" fill="white"/>
<path d="M122.55 58.8931H120.768V60.6782H122.55V58.8931Z" fill="white"/>
<path d="M124.701 58.8931H122.918V60.6782H124.701V58.8931Z" fill="white"/>
<path d="M111.785 61.063H110.002V62.8481H111.785V61.063Z" fill="white"/>
<path d="M113.937 61.063H112.154V62.8481H113.937V61.063Z" fill="white"/>
<path d="M116.091 61.063H114.309V62.8481H116.091V61.063Z" fill="white"/>
<path d="M118.244 61.063H116.461V62.8481H118.244V61.063Z" fill="white"/>
<path d="M120.398 61.063H118.615V62.8481H120.398V61.063Z" fill="#C7C7C7"/>
<path d="M122.55 61.063H120.768V62.8481H122.55V61.063Z" fill="white"/>
<path d="M124.701 61.063H122.918V62.8481H124.701V61.063Z" fill="white"/>
<path d="M111.785 63.2334H110.002V65.0186H111.785V63.2334Z" fill="white"/>
<path d="M113.937 63.2334H112.154V65.0186H113.937V63.2334Z" fill="white"/>
<path d="M116.091 63.2334H114.309V65.0186H116.091V63.2334Z" fill="white"/>
<path d="M118.244 63.2334H116.461V65.0186H118.244V63.2334Z" fill="white"/>
<path d="M120.398 63.2334H118.615V65.0186H120.398V63.2334Z" fill="white"/>
<path d="M122.55 63.2334H120.768V65.0186H122.55V63.2334Z" fill="white"/>
<path d="M124.701 63.2334H122.918V65.0186H124.701V63.2334Z" fill="white"/>
<path d="M111.785 65.4067H110.002V67.1919H111.785V65.4067Z" fill="white"/>
<path d="M113.937 65.4067H112.154V67.1919H113.937V65.4067Z" fill="white"/>
<path d="M116.091 65.4067H114.309V67.1919H116.091V65.4067Z" fill="#C7C7C7"/>
<path d="M118.244 65.4067H116.461V67.1919H118.244V65.4067Z" fill="white"/>
<path d="M120.398 65.4067H118.615V67.1919H120.398V65.4067Z" fill="white"/>
<path d="M122.55 65.4067H120.768V67.1919H122.55V65.4067Z" fill="white"/>
<path d="M124.701 65.4067H122.918V67.1919H124.701V65.4067Z" fill="white"/>
<path d="M109.601 55.3164H108.906V57.1575H109.601V55.3164Z" fill="#C7C7C7"/>
<path d="M111.22 55.3164H110.525V57.1575H111.22V55.3164Z" fill="#C7C7C7"/>
<path d="M112.839 55.3164H112.145V57.1575H112.839V55.3164Z" fill="#C7C7C7"/>
<path d="M114.46 55.3164H113.766V57.1575H114.46V55.3164Z" fill="#C7C7C7"/>
<path d="M116.079 55.3164H115.385V57.1575H116.079V55.3164Z" fill="#C7C7C7"/>
<path d="M117.697 55.3164H117.002V57.1575H117.697V55.3164Z" fill="#C7C7C7"/>
<path d="M119.32 55.3164H118.625V57.1575H119.32V55.3164Z" fill="#C7C7C7"/>
<path d="M120.937 55.3164H120.242V57.1575H120.937V55.3164Z" fill="#C7C7C7"/>
<path d="M122.556 55.3164H121.861V57.1575H122.556V55.3164Z" fill="#C7C7C7"/>
<path d="M124.177 55.3164H123.482V57.1575H124.177V55.3164Z" fill="#C7C7C7"/>
<path d="M125.796 55.3164H125.102V57.1575H125.796V55.3164Z" fill="#C7C7C7"/>
<path d="M117.354 45.4221C117.515 45.4221 117.645 45.2914 117.645 45.1302C117.645 44.969 117.515 44.8384 117.354 44.8384C117.193 44.8384 117.062 44.969 117.062 45.1302C117.062 45.2914 117.193 45.4221 117.354 45.4221Z" fill="#263238"/>
<path d="M177.071 125.287C177.308 126.937 177.222 128.618 176.82 130.236C176.631 130.986 176.378 131.718 176.064 132.424C175.67 133.328 175.261 134.213 175.357 135.203C175.453 135.268 175.127 135.259 175.115 135.163C172.47 133.654 169.081 133.377 167.053 130.912C166.089 129.745 165.605 128.267 165.372 126.786C165.121 125.175 165.062 123.39 165.469 121.803C165.819 120.459 166.603 119.164 167.862 118.506C169.121 117.848 170.867 117.885 172.237 118.311C175.183 119.227 176.653 122.424 177.071 125.287Z" fill="#FFC727"/>
<path d="M178.439 144.886C178.076 143.682 177.716 142.477 177.344 141.275C176.619 138.922 175.865 136.578 175.031 134.262C174.531 132.873 174.003 131.498 173.447 130.136C173.507 129.279 173.611 128.425 173.757 127.578C173.98 126.55 174.299 125.56 174.6 124.554C174.616 124.495 174.516 124.461 174.492 124.52C173.899 125.904 173.124 127.674 173.106 129.313C172.458 127.761 171.769 126.255 171.025 124.759C170.942 123.493 170.981 122.223 171.143 120.965C171.143 120.906 171.062 120.89 171.053 120.946C170.827 122.048 170.741 123.173 170.796 124.296C170.225 123.172 169.627 122.064 168.991 120.968C168.932 120.872 168.796 120.968 168.845 121.067C169.841 122.986 170.762 124.942 171.636 126.923C170.419 125.865 169.012 125.049 167.49 124.52C167.425 124.495 167.376 124.591 167.441 124.619C169.103 125.338 170.623 126.351 171.927 127.609C172.548 129.058 173.14 130.52 173.704 131.996C172.048 130.372 169.785 129.304 167.596 128.73C167.521 128.711 167.5 128.826 167.571 128.848C170.107 129.611 172.076 131.049 174.005 132.778C174.228 133.374 174.448 133.973 174.662 134.569C175.481 136.839 176.253 139.124 176.997 141.418C177.35 142.52 177.701 143.619 178.045 144.725C178.417 145.911 178.705 147.165 179.186 148.314C179.233 148.422 179.428 148.397 179.403 148.264C179.139 147.122 178.817 145.995 178.439 144.886Z" fill="#263238"/>
<path d="M174.042 122.968C173.571 123.69 173.248 124.498 173.09 125.346C173.09 125.351 173.092 125.355 173.095 125.359C173.099 125.362 173.104 125.364 173.108 125.364C173.113 125.364 173.118 125.362 173.122 125.359C173.125 125.355 173.127 125.351 173.127 125.346C173.423 124.548 173.768 123.769 174.16 123.014C174.2 122.952 174.098 122.899 174.042 122.968Z" fill="#263238"/>
<path d="M169.323 128.485C168.587 128.077 167.783 127.805 166.951 127.684C166.929 127.684 166.917 127.715 166.951 127.724C167.332 127.882 167.732 127.991 168.12 128.14C168.507 128.289 168.886 128.472 169.276 128.609C169.292 128.611 169.307 128.607 169.32 128.599C169.333 128.591 169.343 128.579 169.348 128.565C169.354 128.551 169.354 128.535 169.349 128.52C169.345 128.506 169.335 128.493 169.323 128.485Z" fill="#263238"/>
<path d="M167.996 121.847C167.757 121.666 167.502 121.508 167.233 121.375C167.225 121.372 167.215 121.372 167.206 121.376C167.198 121.379 167.19 121.384 167.185 121.392C167.18 121.4 167.177 121.409 167.178 121.418C167.178 121.427 167.181 121.436 167.187 121.443C167.421 121.63 167.674 121.793 167.94 121.931C167.99 121.962 168.043 121.881 167.996 121.847Z" fill="#263238"/>
<path d="M185.986 134.278C184.082 134.846 182.166 135.368 180.262 135.929C180.097 135.976 176.879 129.801 178.042 126.616C178.596 125.173 179.465 123.873 180.585 122.809C181.705 121.746 183.048 120.946 184.516 120.468C185.874 120.006 187.545 119.615 188.984 119.934C190.261 120.217 191.154 121.263 191.579 122.465C192.144 124.101 191.954 126.051 191.647 127.721C191.406 129.286 190.765 130.763 189.787 132.008C188.761 133.213 187.471 133.837 185.986 134.278Z" fill="#FFC727"/>
<path d="M188.748 128.407C187.544 128.996 186.295 129.488 185.012 129.878C184.161 130.11 183.331 130.413 182.531 130.785C183.338 128.987 184.218 127.23 185.155 125.488C186.395 125.131 187.682 124.575 188.609 123.703C188.619 123.694 188.626 123.681 188.627 123.667C188.628 123.653 188.624 123.639 188.615 123.629C188.606 123.618 188.593 123.611 188.579 123.61C188.565 123.609 188.551 123.613 188.541 123.622C187.524 124.343 186.404 124.771 185.282 125.259C185.536 124.79 185.79 124.327 186.051 123.855C186.125 123.725 185.945 123.594 185.858 123.722C184.857 125.177 183.952 126.698 183.152 128.273C182.947 126.893 182.882 125.496 182.956 124.104C182.956 124.096 182.953 124.089 182.948 124.084C182.943 124.079 182.936 124.076 182.928 124.076C182.921 124.076 182.914 124.079 182.909 124.084C182.903 124.089 182.9 124.096 182.9 124.104C182.663 125.623 182.679 127.172 182.947 128.686C182.28 130.021 181.673 131.387 181.124 132.772C180.907 131.94 180.625 131.123 180.435 130.288C180.148 129.086 180.056 127.846 180.163 126.615C180.163 126.581 180.113 126.578 180.107 126.615C179.771 128.892 180.047 131.218 180.907 133.352C180.597 134.187 180.287 135.023 180.008 135.861C178.571 140.137 177.721 144.588 177.48 149.093C177.484 149.111 177.494 149.128 177.508 149.139C177.523 149.151 177.541 149.158 177.56 149.158C177.578 149.158 177.596 149.151 177.611 149.139C177.625 149.128 177.635 149.111 177.639 149.093C178.138 144.648 179.089 140.267 180.479 136.016C181.031 134.355 181.666 132.741 182.364 131.157C183.49 130.822 184.609 130.372 185.716 129.987C186.821 129.656 187.863 129.144 188.801 128.472C188.826 128.444 188.786 128.388 188.748 128.407Z" fill="#263238"/>
<path d="M190.532 126.612C189.369 127.028 188.265 127.609 187.099 128.028C187.047 128.05 187.078 128.137 187.134 128.124C188.374 127.87 189.586 127.488 190.578 126.681C190.606 126.65 190.563 126.6 190.532 126.612Z" fill="#263238"/>
<path d="M181.014 124.098C181.014 124.036 180.936 123.998 180.918 124.064C180.608 125.138 180.378 126.28 180.688 127.379C180.688 127.42 180.769 127.423 180.772 127.379C180.828 126.265 180.766 125.187 181.014 124.098Z" fill="#263238"/>
<path d="M185.825 121.614C185.453 122.148 185.274 122.793 185.319 123.443C185.319 123.483 185.388 123.508 185.397 123.458C185.539 122.837 185.778 122.282 185.964 121.685C185.968 121.668 185.967 121.649 185.959 121.633C185.952 121.616 185.939 121.603 185.923 121.595C185.906 121.587 185.888 121.584 185.87 121.587C185.853 121.591 185.837 121.6 185.825 121.614Z" fill="#263238"/>
<path d="M163.333 137.004C163.891 138.779 165.218 141.232 167.317 141.251C168.681 141.251 170.052 141.102 171.416 141.083C172.88 141.058 174.343 141.064 175.804 141.151C175.925 141.151 175.63 136.768 172.114 134.632C171.131 134.032 169.925 133.843 168.809 133.601C167.53 133.298 166.218 133.162 164.905 133.197C164.096 133.228 163.426 133.399 163.137 134.228C162.849 135.057 163.063 136.159 163.333 137.004Z" fill="#FFC727"/>
<path d="M164.843 134.784C165.699 135.004 166.561 135.256 167.417 135.529C167.194 135.286 166.958 135.055 166.71 134.837C166.341 134.526 165.935 134.284 165.541 134.017C165.507 133.995 165.541 133.93 165.569 133.949C166.4 134.294 167.119 134.865 167.643 135.597C168.71 135.945 169.767 136.324 170.787 136.743C171.49 137.032 172.164 137.387 172.8 137.805C172.596 137.36 172.352 136.935 172.071 136.535C171.606 135.929 170.973 135.603 170.362 135.163C170.354 135.154 170.348 135.142 170.346 135.13C170.345 135.117 170.347 135.105 170.354 135.094C170.36 135.083 170.37 135.075 170.382 135.071C170.393 135.066 170.406 135.066 170.418 135.069C171.057 135.347 171.631 135.756 172.103 136.268C172.575 136.781 172.934 137.387 173.159 138.047C173.891 138.572 174.56 139.179 175.153 139.857C177.475 142.502 179.308 146.019 179.314 149.611C179.314 149.695 179.178 149.72 179.162 149.63C178.561 146.111 177.027 142.818 174.719 140.096C174.551 139.899 174.381 139.713 174.207 139.537C173.57 139.45 172.928 139.403 172.285 139.394C171.538 139.394 170.797 139.503 170.049 139.565C168.809 139.664 167.466 139.68 166.36 139.062C166.313 139.034 166.344 138.947 166.4 138.969C168.88 139.866 171.454 138.727 173.925 139.279C172.873 138.27 171.639 137.47 170.288 136.923L170.062 136.833C168.48 137.022 166.809 137.435 165.265 136.92C165.256 136.917 165.248 136.91 165.243 136.902C165.238 136.893 165.237 136.883 165.24 136.873C165.243 136.864 165.25 136.856 165.258 136.851C165.267 136.846 165.277 136.845 165.287 136.848C166.775 137.221 168.204 136.752 169.674 136.678C168.074 136.057 166.443 135.557 164.837 134.936C164.701 134.871 164.698 134.75 164.843 134.784Z" fill="#263238"/>
<path d="M164.146 136.342C164.91 136.445 165.679 136.504 166.449 136.519C166.468 136.519 166.474 136.547 166.449 136.55C165.674 136.694 164.875 136.643 164.124 136.401C164.093 136.392 164.108 136.336 164.146 136.342Z" fill="#263238"/>
<path d="M169.347 134.821C169.774 135.013 170.161 135.282 170.488 135.616C170.529 135.653 170.488 135.725 170.433 135.69C170.237 135.551 170.039 135.417 169.837 135.287C169.645 135.181 169.46 135.064 169.282 134.936C169.271 134.925 169.264 134.912 169.262 134.897C169.26 134.882 169.263 134.867 169.271 134.853C169.278 134.84 169.29 134.83 169.303 134.824C169.317 134.818 169.333 134.817 169.347 134.821Z" fill="#263238"/>
<path d="M181.756 140.534C181.732 140.593 181.815 140.648 181.846 140.586C181.86 140.605 181.88 140.618 181.902 140.624C183.315 140.958 184.747 141.207 186.19 141.369C187.35 141.471 188.69 141.536 189.707 140.863C191.086 139.947 191.992 137.5 191.257 135.945C190.376 134.101 187.719 135.104 186.386 135.759C184.334 136.761 182.696 138.45 181.756 140.534Z" fill="#FFC727"/>
<path d="M180.728 141.387C181.503 140.638 182.363 139.982 183.292 139.434C183.958 138.374 184.844 137.47 185.89 136.783C185.94 136.746 185.983 136.826 185.937 136.864C185.105 137.529 184.369 138.305 183.748 139.17C184.782 138.603 185.856 138.113 186.963 137.705C187.357 136.971 187.958 136.369 188.69 135.973C188.706 135.973 188.724 135.973 188.709 135.994C188.108 136.455 187.585 137.008 187.158 137.634C187.809 137.391 188.47 137.162 189.13 136.944C189.189 136.926 189.211 137.016 189.155 137.038C187.983 137.497 186.78 137.969 185.617 138.54C187.037 138.765 188.483 138.765 189.902 138.54C189.943 138.54 189.958 138.59 189.918 138.599C188.438 139.039 186.865 139.063 185.372 138.667C184.631 139.029 183.912 139.433 183.217 139.878C183.802 139.829 184.391 139.877 184.96 140.021C185.964 140.254 186.992 140.371 188.023 140.369C188.061 140.369 188.07 140.431 188.023 140.437C186.247 140.748 184.566 139.934 182.805 140.145C180.852 141.463 179.294 143.287 178.297 145.423C177.556 146.935 177.152 148.528 176.554 150.096C176.55 150.11 176.54 150.122 176.527 150.129C176.514 150.137 176.499 150.139 176.484 150.134C176.47 150.13 176.458 150.121 176.45 150.108C176.443 150.094 176.441 150.079 176.446 150.065C176.957 146.975 178.489 143.582 180.728 141.387Z" fill="#263238"/>
<path d="M186.085 137.168C186.203 136.958 186.357 136.771 186.541 136.615C186.69 136.453 186.868 136.319 187.065 136.221C187.084 136.221 187.093 136.24 187.084 136.252C186.938 136.417 186.733 136.538 186.575 136.696C186.417 136.855 186.287 137.044 186.126 137.199C186.122 137.205 186.115 137.208 186.109 137.209C186.102 137.21 186.095 137.208 186.09 137.204C186.085 137.2 186.081 137.194 186.08 137.187C186.079 137.18 186.081 137.173 186.085 137.168Z" fill="#263238"/>
<path d="M189.016 138.124C189.279 138.056 189.558 138.062 189.825 138.006C190.091 137.942 190.354 137.863 190.612 137.771C190.647 137.771 190.665 137.811 190.637 137.829C190.152 138.129 189.583 138.261 189.016 138.205C189.008 138.202 189.001 138.196 188.996 138.189C188.991 138.182 188.988 138.173 188.988 138.165C188.988 138.156 188.991 138.148 188.996 138.14C189.001 138.133 189.008 138.128 189.016 138.124Z" fill="#263238"/>
<path d="M173.406 146.262L173.639 148.913L174.429 157.867H181.434L182.423 148.913L182.714 146.262H173.406Z" fill="#37474F"/>
<path d="M173.406 146.262L173.639 148.913H182.423L182.714 146.262H173.406Z" fill="#263238"/>
<path d="M172.716 147.69H183.41V145.538H172.716V147.69Z" fill="#37474F"/>
<path d="M69.3295 56.8094C75.8077 56.8094 81.0593 51.5511 81.0593 45.0646C81.0593 38.5782 75.8077 33.3198 69.3295 33.3198C62.8512 33.3198 57.5996 38.5782 57.5996 45.0646C57.5996 51.5511 62.8512 56.8094 69.3295 56.8094Z" fill="#FFC727"/>
<path opacity="0.1" d="M71.2241 56.4502C77.3605 55.7002 81.7278 50.1112 80.9787 43.967C80.2296 37.8228 74.6477 33.4499 68.5113 34.2C62.3749 34.9501 58.0077 40.539 58.7568 46.6832C59.5059 52.8275 65.0877 57.2003 71.2241 56.4502Z" fill="black"/>
<path d="M70.5217 55.809C76.3019 55.4469 80.6946 50.4615 80.3329 44.674C79.9713 38.8864 74.9923 34.4881 69.2121 34.8502C63.4319 35.2123 59.0393 40.1976 59.4009 45.9852C59.7625 51.7728 64.7415 56.1711 70.5217 55.809Z" fill="white"/>
<path opacity="0.5" d="M80.1156 43.0994C75.3405 45.996 67.4927 50.7492 63.1053 53.3446C61.8655 52.2971 60.8848 50.9762 60.2402 49.4856L74.7483 36.0239C76.1043 36.7398 77.2875 37.7441 78.2147 38.9664C79.1419 40.1887 79.7907 41.5993 80.1156 43.0994Z" fill="#EBEBEB"/>
<path opacity="0.5" d="M80.3446 45.6948C80.3068 46.8642 80.072 48.0188 79.6501 49.1099L66.5745 55.3005C66.004 55.1123 65.451 54.8744 64.9219 54.5896C68.8721 52.3015 76.0905 48.1444 80.3446 45.6948Z" fill="#EBEBEB"/>
<path d="M69.9672 35.5894H69.7656V37.182H69.9672V35.5894Z" fill="#263238"/>
<path d="M65.0906 36.8429L64.916 36.9438L65.7113 38.3231L65.8859 38.2222L65.0906 36.8429Z" fill="#263238"/>
<path d="M61.4914 40.3687L61.3906 40.5435L62.7682 41.3398L62.8689 41.165L61.4914 40.3687Z" fill="#263238"/>
<path d="M61.7313 45.2261H60.1406V45.4279H61.7313V45.2261Z" fill="#263238"/>
<path d="M62.7721 49.314L61.3945 50.1104L61.4953 50.2851L62.8728 49.4888L62.7721 49.314Z" fill="#263238"/>
<path d="M65.7126 52.3327L64.918 53.7124L65.0926 53.8132L65.8872 52.4335L65.7126 52.3327Z" fill="#263238"/>
<path d="M69.9672 53.4722H69.7656V55.0648H69.9672V53.4722Z" fill="#263238"/>
<path d="M74.0222 52.3312L73.8477 52.4321L74.643 53.8114L74.8175 53.7105L74.0222 52.3312Z" fill="#263238"/>
<path d="M76.9582 49.3106L76.8574 49.4854L78.235 50.2817L78.3357 50.1069L76.9582 49.3106Z" fill="#263238"/>
<path d="M79.5926 45.2261H78.002V45.4279H79.5926V45.2261Z" fill="#263238"/>
<path d="M78.2369 40.3755L76.8594 41.1719L76.9601 41.3466L78.3377 40.5503L78.2369 40.3755Z" fill="#263238"/>
<path d="M74.6384 36.8415L73.8438 38.2212L74.0183 38.322L74.8129 36.9423L74.6384 36.8415Z" fill="#263238"/>
<path d="M77.6102 49.9327L69.0059 45.4093L69.5082 44.5493L77.7467 49.6999L77.6102 49.9327Z" fill="#FFC727"/>
<path d="M69.7786 52.4041L69.3477 44.6519L70.343 44.6674L70.0484 52.4072L69.7786 52.4041Z" fill="#455A64"/>
<path d="M70.2056 45.3283C70.2056 45.396 70.1855 45.4622 70.1479 45.5184C70.1103 45.5746 70.0568 45.6184 69.9943 45.6441C69.9318 45.6699 69.8631 45.6765 69.7968 45.663C69.7306 45.6496 69.6698 45.6168 69.6222 45.5687C69.5747 45.5206 69.5424 45.4595 69.5296 45.393C69.5168 45.3266 69.524 45.2578 69.5503 45.1955C69.5766 45.1331 69.6208 45.08 69.6773 45.0429C69.7338 45.0057 69.8 44.9862 69.8676 44.9868C69.9123 44.9868 69.9565 44.9957 69.9977 45.0129C70.0389 45.0301 70.0763 45.0553 70.1077 45.087C70.1391 45.1188 70.164 45.1565 70.1808 45.1979C70.1976 45.2393 70.206 45.2836 70.2056 45.3283Z" fill="#263238"/>
<path d="M237.073 88.5234H188.467V93.6678H237.073V88.5234Z" fill="#455A64"/>
<path d="M236.211 93.6675H189.332V95.3378H236.211V93.6675Z" fill="#455A64"/>
<path d="M236.211 93.6675H189.332V94.2201H236.211V93.6675Z" fill="#263238"/>
<path d="M189.669 156.983H188.289L192.304 95.3379H195.821L189.669 156.983Z" fill="#455A64"/>
<path d="M195.821 95.3413L195.409 99.4643H192.035L192.305 95.3413H195.821Z" fill="#263238"/>
<path d="M235.869 156.983H237.248L233.236 95.3379H229.717L235.869 156.983Z" fill="#455A64"/>
<path d="M229.717 95.3413L230.129 99.4643H233.503L233.236 95.3413H229.717Z" fill="#263238"/>
<path d="M199.584 87.7472L194.676 87.7549L194.677 88.5217L199.585 88.514L199.584 87.7472Z" fill="#DBDBDB"/>
<path d="M199.582 87.7501L194.674 87.7578L194.675 88.2639L199.583 88.2561L199.582 87.7501Z" fill="#C7C7C7"/>
<path d="M188.845 85.7012C189.145 86.1417 189.565 86.4869 190.055 86.6959C190.545 86.905 191.085 86.9692 191.61 86.881C191.781 86.8488 191.948 86.7999 192.11 86.7351C192.354 86.6401 192.587 86.5172 192.804 86.3687L192.184 85.4373C192.067 85.5175 191.944 85.5872 191.815 85.6454C191.458 85.8112 191.053 85.842 190.675 85.7318C190.297 85.6216 189.972 85.378 189.759 85.0462C189.086 84.0992 188.829 81.9415 189.52 81.1033C189.567 81.0443 189.762 80.9449 190.553 81.1033C190.702 81.1374 190.863 81.1716 191.052 81.2244C191.198 81.2728 191.349 81.3051 191.502 81.3206L191.52 80.7649L191.576 80.2091C191.497 80.1926 191.418 80.1719 191.341 80.1471C190.975 80.0424 190.602 79.9656 190.224 79.9173C189.641 79.8583 189.031 79.9173 188.658 80.3892C187.548 81.7677 188.001 84.5029 188.845 85.7012Z" fill="#DBDBDB"/>
<path d="M192.178 85.4341C192.061 85.5143 191.938 85.5839 191.809 85.6421L192.119 86.7225C192.363 86.6276 192.597 86.5046 192.813 86.3562L192.178 85.4341Z" fill="#C7C7C7"/>
<path d="M190.219 79.936L190.547 81.122C190.696 81.1562 190.857 81.1903 191.047 81.2431C191.193 81.2915 191.343 81.3238 191.496 81.3393L191.515 80.7836L191.571 80.2279C191.491 80.2114 191.412 80.1906 191.335 80.1658C190.969 80.0612 190.596 79.9844 190.219 79.936Z" fill="#C7C7C7"/>
<path d="M203.648 78.4673C203.648 78.4673 203.065 83.4751 202.042 85.5893C201.019 87.7036 199.608 87.9333 198.727 87.9364H195.53C194.647 87.9364 193.227 87.7067 192.206 85.6017C191.186 83.4968 190.588 78.4828 190.588 78.4828L203.648 78.4673Z" fill="#DBDBDB"/>
<path d="M236.896 88.5231H206.689L207.669 83.9127H225.61V78.2344H234.707L236.896 88.5231Z" fill="#FFC727"/>
<path d="M239.19 57.2039H205.743L205.234 55.0244H239.695L239.19 57.2039Z" fill="#FFC727"/>
<path d="M225.609 57.2041L223.125 66.5397L221.693 68.3528H210.741L209.312 66.5397L206.828 57.2041H225.609Z" fill="#FFC727"/>
<path d="M225.609 57.2041L223.125 66.5397L221.693 68.3528H210.741L209.312 66.5397L206.828 57.2041H225.609Z" fill="#FFC727"/>
<path opacity="0.3" d="M223.126 66.5396L221.693 68.3527H210.742L209.312 66.5396H223.126Z" fill="white"/>
<path opacity="0.2" d="M212.493 66.5397H210.865L209.631 57.2041H211.677L212.493 66.5397Z" fill="white"/>
<path opacity="0.2" d="M213.513 68.3527H211.885L210.865 66.5396H212.493L213.513 68.3527Z" fill="white"/>
<path opacity="0.2" d="M213.703 66.5397H213.282L212.494 57.2041H212.888L213.703 66.5397Z" fill="white"/>
<path opacity="0.2" d="M214.723 68.3527H214.301L213.281 66.5396H213.703L214.723 68.3527Z" fill="white"/>
<path opacity="0.3" d="M228.617 80.6528H232.192L233.352 86.1015H228.617V80.6528Z" fill="white"/>
<path d="M231.702 83.3787C231.701 83.5898 231.638 83.796 231.52 83.9712C231.403 84.1464 231.236 84.2828 231.041 84.3632C230.846 84.4436 230.632 84.4643 230.425 84.4227C230.218 84.3811 230.029 84.2792 229.88 84.1297C229.731 83.9802 229.63 83.7899 229.589 83.5828C229.548 83.3757 229.569 83.1612 229.65 82.9662C229.731 82.7712 229.867 82.6046 230.043 82.4874C230.218 82.3702 230.424 82.3076 230.635 82.3076C230.775 82.3076 230.914 82.3353 231.044 82.3892C231.174 82.4431 231.291 82.522 231.39 82.6215C231.489 82.721 231.568 82.8391 231.621 82.9691C231.675 83.099 231.702 83.2382 231.702 83.3787Z" fill="#263238"/>
<path d="M225.609 78.2349V57.2041H238.077L234.707 78.2349H225.609Z" fill="#FFC727"/>
<path opacity="0.3" d="M228.617 72.8637V60.8115H233.622L231.693 72.8637H228.617Z" fill="white"/>
<path d="M232.288 62.2798H229.805V62.7796H232.288V62.2798Z" fill="#263238"/>
<path d="M231.625 66.6323H229.805V67.1322H231.625V66.6323Z" fill="#263238"/>
<path d="M230.89 70.9883H229.805V71.4881H230.89V70.9883Z" fill="#263238"/>
<path opacity="0.1" d="M206.828 57.2041H238.077L237.844 58.6415L207.002 57.8623L206.828 57.2041Z" fill="black"/>
<path opacity="0.1" d="M225.609 78.2344H234.707L234.874 79.0198L225.609 79.6749V78.2344Z" fill="black"/>
<path d="M222.01 71.4384V71.8948H211.803V71.4384L212.891 70.4604H220.919L222.01 71.4384Z" fill="#455A64"/>
<path d="M222.01 71.4385H211.803V71.8949H222.01V71.4385Z" fill="#37474F"/>
<path d="M211.801 73.6367H208.623C208.623 73.6367 206.142 75.9062 206.142 78.3154V82.28H208.471V83.9037H204.57V78.2347C204.57 73.9813 208.362 71.895 208.362 71.895H211.801V73.6367Z" fill="#37474F"/>
<path opacity="0.7" d="M225.326 79.3803V83.913H208.48V79.3803C208.48 76.5551 211.801 73.646 211.801 73.646V71.895H223.023L222.009 73.0313V73.6522C222.009 73.6522 225.326 76.5551 225.326 79.3803Z" fill="#EBEBEB"/>
<path d="M224.579 79.3959V83.5251H209.231V79.3959C209.229 79.1781 209.25 78.9607 209.293 78.7471H224.517C224.559 78.9607 224.58 79.1781 224.579 79.3959Z" fill="#FFC727"/>
<path opacity="0.6" d="M224.579 79.3959V83.5251H209.231V79.3959C209.229 79.1781 209.25 78.9607 209.293 78.7471H224.517C224.559 78.9607 224.58 79.1781 224.579 79.3959Z" fill="black"/>
<path d="M225.326 82.3076H208.48V83.9096H225.326V82.3076Z" fill="#C7C7C7"/>
<path opacity="0.2" d="M212.192 82.3076H210.865V83.9096H212.192V82.3076Z" fill="white"/>
<path opacity="0.2" d="M213.4 82.3076H212.795V83.9096H213.4V82.3076Z" fill="white"/>
<path opacity="0.2" d="M210.866 82.3077H212.193V78.9547C212.193 76.3624 214.984 73.6769 214.984 73.6769V71.9072H213.921V73.6365C213.921 73.6365 210.863 76.6542 210.863 78.8492L210.866 82.3077Z" fill="white"/>
<path opacity="0.2" d="M212.794 82.3077H213.399V78.9547C213.399 76.3624 216.189 73.6769 216.189 73.6769V71.9072H215.848V73.6365C215.848 73.6365 212.791 76.6542 212.791 78.8492L212.794 82.3077Z" fill="white"/>
<path d="M72.0384 139.396L50.4453 156.828H51.6639L76.5995 139.396H72.0384Z" fill="#C7C7C7"/>
<path d="M74.0679 139.396L63.3984 156.828H64.617L77.6925 139.396H74.0679Z" fill="#C7C7C7"/>
<path d="M79.2974 139.396L89.9668 156.828H88.7513L75.6758 139.396H79.2974Z" fill="#C7C7C7"/>
<path d="M81.1638 139.396L102.757 156.828H101.538L76.5996 139.396H81.1638Z" fill="#C7C7C7"/>
<path d="M117.2 133V127.899L87.5487 126.682L71.8872 84.8101H36L48.6973 133L79.0343 141.525H80.935L117.2 133Z" fill="#FFC727"/>
<path opacity="0.1" d="M36 84.8101H40.1053L53.3359 128.737L80.1753 136.35L117.2 127.899V133L80.935 141.525H79.0343L48.6973 133L36 84.8101Z" fill="black"/>
<path d="M141.693 156.654C140.738 156.676 115.923 148.995 115.163 148.104C115.08 148.005 115.473 144.326 116.109 141.407C116.14 141.268 107.297 129.666 107.297 129.666L123.299 123.441L130.946 139.306L132.912 143.432C132.912 143.432 141.19 151.764 141.922 152.832C142.654 153.9 142.651 156.632 141.693 156.654Z" fill="#EBEBEB"/>
<path d="M142.394 156.794C141.395 156.819 115.489 148.902 114.692 147.974C114.382 147.626 114.85 146.021 116.109 141.407L133.092 143.453C133.092 143.453 141.857 151.696 142.623 152.807C143.389 153.919 143.389 156.766 142.394 156.794Z" fill="#FFC727"/>
<path opacity="0.2" d="M142.394 156.794C141.395 156.819 115.489 148.902 114.692 147.974C114.382 147.626 114.85 146.021 116.109 141.407L133.092 143.453C133.092 143.453 141.857 151.696 142.623 152.807C143.389 153.919 143.389 156.766 142.394 156.794Z" fill="black"/>
<path d="M142.337 155.642C138.027 154.208 120.509 148.83 116.14 147.741C116.102 147.741 116.096 147.756 116.14 147.769C120.381 149.284 137.944 154.518 142.325 155.713C142.409 155.738 142.427 155.673 142.337 155.642Z" fill="#263238"/>
<path d="M141.244 151.364C140.765 151.204 140.257 151.145 139.754 151.191C139.251 151.237 138.763 151.387 138.32 151.631C137.522 152.065 136.922 152.79 136.643 153.655C136.643 153.683 136.683 153.699 136.695 153.674C137.105 152.857 137.768 152.196 138.585 151.79C139.402 151.383 140.328 151.253 141.225 151.42C141.232 151.42 141.238 151.418 141.244 151.414C141.249 151.41 141.253 151.405 141.255 151.399C141.257 151.392 141.257 151.386 141.255 151.38C141.253 151.373 141.249 151.368 141.244 151.364Z" fill="#263238"/>
<path d="M134.847 145.17C133.117 144.615 130.916 144.611 129.399 145.704C129.34 145.748 129.399 145.832 129.461 145.819C131.225 145.487 133.019 145.344 134.813 145.394C134.84 145.393 134.866 145.383 134.886 145.365C134.906 145.347 134.919 145.323 134.924 145.296C134.928 145.27 134.922 145.242 134.908 145.219C134.894 145.196 134.873 145.179 134.847 145.17Z" fill="#263238"/>
<path d="M136.028 146.105C134.298 145.549 132.096 145.546 130.583 146.639C130.524 146.682 130.583 146.766 130.645 146.754C132.407 146.42 134.201 146.276 135.994 146.325C136.022 146.328 136.05 146.319 136.072 146.302C136.095 146.284 136.109 146.259 136.114 146.231C136.118 146.203 136.112 146.174 136.096 146.151C136.08 146.127 136.055 146.111 136.028 146.105Z" fill="#263238"/>
<path d="M137.212 147.036C135.479 146.48 133.278 146.48 131.765 147.573C131.706 147.616 131.765 147.697 131.827 147.688C133.589 147.354 135.382 147.21 137.175 147.259C137.202 147.259 137.229 147.25 137.249 147.232C137.27 147.215 137.284 147.19 137.288 147.163C137.293 147.137 137.288 147.109 137.274 147.086C137.26 147.062 137.238 147.045 137.212 147.036Z" fill="#263238"/>
<path d="M138.394 147.97C136.664 147.415 134.459 147.415 132.946 148.507C132.887 148.548 132.946 148.632 133.008 148.622C134.771 148.289 136.564 148.145 138.357 148.194C138.384 148.194 138.41 148.184 138.431 148.167C138.452 148.149 138.466 148.125 138.47 148.098C138.475 148.071 138.469 148.044 138.455 148.02C138.442 147.997 138.42 147.979 138.394 147.97Z" fill="#263238"/>
<path d="M138.139 141.1C137.485 140.1 136.158 140.479 135.382 141.069C134.072 142.113 133.059 143.483 132.446 145.043C132.444 145.05 132.443 145.057 132.444 145.064C132.445 145.072 132.447 145.079 132.451 145.085C132.455 145.091 132.46 145.097 132.466 145.101C132.472 145.105 132.479 145.107 132.486 145.108C132.486 145.245 132.601 145.394 132.756 145.344C134.254 144.866 135.916 144.54 137.224 143.615C137.987 143.068 138.762 142.044 138.139 141.1ZM134.88 144.146C134.148 144.4 133.41 144.614 132.688 144.897C133.237 144.108 133.826 143.347 134.452 142.618C134.761 142.27 135.092 141.942 135.444 141.637C135.999 141.178 138.148 140.243 137.745 142.19C137.522 143.264 135.751 143.844 134.88 144.146Z" fill="#263238"/>
<path d="M127.932 144.36C129.374 145.055 131.066 145.102 132.626 145.326C132.661 145.327 132.695 145.32 132.727 145.306C132.758 145.292 132.786 145.271 132.808 145.244C132.83 145.217 132.846 145.186 132.853 145.152C132.861 145.118 132.861 145.083 132.852 145.049C132.86 145.047 132.867 145.043 132.872 145.038C132.878 145.033 132.882 145.026 132.885 145.019C132.888 145.012 132.889 145.004 132.888 144.996C132.887 144.989 132.885 144.981 132.88 144.975C132.015 143.545 130.789 142.367 129.327 141.56C128.465 141.103 127.098 140.954 126.614 142.047C126.158 143.075 127.091 143.956 127.932 144.36ZM127.184 143.05C126.465 141.187 128.735 141.761 129.355 142.118C129.752 142.361 130.133 142.629 130.496 142.919C131.234 143.536 131.941 144.188 132.614 144.875C131.854 144.72 131.091 144.627 130.325 144.5C129.423 144.351 127.581 144.071 127.184 143.05Z" fill="#263238"/>
<path d="M131.739 140.048L114.117 142.652C114.117 142.652 104.499 125.173 100.614 120.827C100.396 120.577 100.158 120.344 99.904 120.131C99.5025 119.952 99.0717 119.847 98.6327 119.821C93.4236 119.2 75.8862 120.895 63.7656 120.11L69.4244 112.534L71.9328 109.175C85.5758 107.623 102.341 102.035 109.901 105.825C118.089 109.92 131.739 140.048 131.739 140.048Z" fill="#263238"/>
<path d="M129.531 137.048C126.536 137.436 127.389 137.284 124.4 137.703C122.933 137.908 115.575 138.917 114.242 139.336C114.236 139.338 114.23 139.342 114.227 139.348C114.223 139.353 114.221 139.359 114.221 139.366C114.221 139.372 114.223 139.379 114.227 139.384C114.23 139.389 114.236 139.393 114.242 139.395C115.64 139.395 122.977 138.234 124.437 138.005C127.42 137.533 126.558 137.638 129.538 137.132C129.547 137.129 129.554 137.123 129.56 137.115C129.565 137.107 129.568 137.097 129.567 137.088C129.566 137.078 129.562 137.069 129.556 137.062C129.549 137.055 129.541 137.05 129.531 137.048Z" fill="#37474F"/>
<path d="M114.207 139.091C112.214 135.751 103.144 119.275 101.324 118.623C99.6808 118.033 66.764 118.719 66.2865 118.722C66.2524 118.722 66.2493 118.775 66.2865 118.775C70.1841 118.725 100.27 118.616 101.129 118.958C102.912 119.663 113.77 138.781 114.037 139.181C114.096 139.287 114.276 139.206 114.207 139.091Z" fill="#37474F"/>
<path d="M54.5359 113.189C54.5359 113.189 53.4971 123.124 58.5326 128.07C64.5573 133.987 104.333 132.494 110.497 130.498C116.661 128.501 116.853 118.545 110.115 116.235C103.706 114.04 75.2856 112.779 74.6127 112.509C73.9399 112.239 71.9679 109.094 71.9679 109.094L54.5359 113.189Z" fill="#263238"/>
<path d="M62.9534 112.91C62.9534 112.864 62.8696 112.879 62.8696 112.91C62.8756 114.204 62.4241 115.457 61.5953 116.45C60.6651 117.542 59.2605 118.154 57.9985 118.79C57.8776 118.853 57.9675 119.042 58.0946 119.005C58.8696 118.768 59.6162 118.446 60.3209 118.045C60.9674 117.699 61.5371 117.225 61.9953 116.651C62.4048 116.128 62.7015 115.525 62.8664 114.881C63.0313 114.237 63.0609 113.566 62.9534 112.91Z" fill="#37474F"/>
<path d="M74.3401 111.892C74.0611 111.532 73.7541 111.19 73.4595 110.839C72.765 110.013 72.0673 109.181 71.3387 108.384C71.2705 108.306 71.1371 108.415 71.1991 108.498C71.6891 109.138 72.21 109.759 72.7185 110.386L73.5061 111.345C73.7833 111.63 74.0306 111.942 74.244 112.277C74.4331 112.631 74.182 112.935 73.8161 112.975C73.4899 112.983 73.1728 112.867 72.9293 112.649C72.3787 112.161 71.8752 111.621 71.4255 111.038C71.1309 110.709 70.8395 110.38 70.5418 110.054C70.2441 109.728 69.8907 109.38 69.5744 109.036C69.5558 109.014 69.5155 109.036 69.5341 109.07C69.81 109.445 70.0643 109.843 70.3403 110.218C70.6162 110.594 70.8953 110.973 71.1774 111.345C71.4596 111.718 71.7263 112.041 72.0115 112.379C72.2512 112.677 72.5382 112.933 72.8611 113.137C73.3882 113.447 74.3029 113.512 74.582 112.826C74.6281 112.663 74.63 112.49 74.5875 112.326C74.545 112.162 74.4596 112.012 74.3401 111.892Z" fill="#37474F"/>
<path d="M109.657 130.535C107.533 130.575 105.413 130.7 103.292 130.743C101.171 130.786 99.0811 130.802 96.9757 130.78C92.7464 130.741 88.5212 130.576 84.3001 130.287C80.0367 129.976 75.4384 129.566 71.2029 128.98C69.1751 128.697 67.1224 128.464 65.1194 128.033C63.3186 127.69 61.6532 126.839 60.3195 125.58C57.5785 122.916 56.5119 118.998 56.0716 115.257C56.0127 114.754 55.9662 114.251 55.9259 113.748C55.9259 113.714 55.8701 113.714 55.8732 113.748C56.1212 117.586 56.7166 121.587 59.1258 124.67C60.1444 126.015 61.4982 127.067 63.0512 127.722C64.9488 128.483 67.0542 128.654 69.0572 128.933C73.3083 129.51 77.9252 129.958 82.201 130.29C86.4768 130.622 90.8209 130.833 95.137 130.895C99.4531 130.957 103.769 130.895 108.082 130.687C108.606 130.659 109.133 130.628 109.657 130.585C109.685 130.582 109.685 130.535 109.657 130.535Z" fill="#37474F"/>
<path d="M115.318 121.249C114.914 119.584 113.901 118.131 112.477 117.179C110.949 116.133 109.122 115.658 107.312 115.394C105.265 115.083 103.194 114.944 101.135 114.745C96.9141 114.331 92.6889 113.951 88.4596 113.605C84.2365 113.258 75.1267 112.55 74.6244 112.531C74.5779 112.531 74.5686 112.606 74.6244 112.609C78.7018 113.062 82.4133 113.453 86.5 113.826C90.5867 114.198 94.7137 114.59 98.8158 114.996C100.862 115.203 102.907 115.41 104.949 115.617C106.843 115.813 108.791 116.005 110.567 116.738C112.093 117.359 113.463 118.377 114.239 119.861C114.967 121.323 115.185 122.986 114.859 124.587C114.573 126.078 113.885 127.462 112.868 128.588C111.899 129.7 110.607 130.481 109.172 130.821C108.8 130.901 108.347 130.96 108.003 131.029C107.978 131.029 107.95 131.091 107.978 131.091C111.032 131.168 113.87 128.933 114.961 126.139C115.577 124.584 115.701 122.877 115.318 121.249Z" fill="#37474F"/>
<path d="M69.6399 88.694C71.9313 95.3038 76.6257 105.223 78.7218 106.139C82.2132 107.663 90.3307 108.7 95.1368 108.477C96.653 108.405 95.5833 97.1634 93.9368 97.0982C89.692 96.9306 83.3697 96.8747 82.9294 96.766C82.1325 96.5736 77.3017 90.9697 73.6274 86.6108C70.1763 82.4972 68.5609 85.577 69.6399 88.694Z" fill="#EB9481"/>
<path d="M100.317 106.729C99.6597 106.937 99.7651 107.284 100.915 107.716C102.066 108.147 106.984 108.877 106.584 110.572C106.184 112.267 99.2597 111.14 97.3993 110.262C95.5389 109.383 92.832 107.346 92.832 107.346C94.2242 107.309 97.5885 106.856 100.317 106.729Z" fill="#EB9481"/>
<path d="M93.5852 97.1201C97.5106 97.1201 102.397 96.8811 106.211 99.1319C106.643 99.3698 106.98 99.7475 107.169 100.203C108.899 101.181 108.955 102.292 108.955 102.292C110.288 103.696 110.195 104.838 110.195 104.838C110.195 104.838 112.214 106.009 111.709 107.347C111.147 108.849 108.425 106.912 106.279 106.763C101.359 106.422 94.2673 107.316 92.8379 107.359L93.5852 97.1201Z" fill="#EB9481"/>
<path d="M101.365 102.776C102.806 102.861 104.239 103.042 105.656 103.32C107.187 103.726 108.685 104.245 110.14 104.872C110.149 104.877 110.159 104.877 110.169 104.874C110.178 104.871 110.186 104.864 110.191 104.855C110.195 104.846 110.196 104.835 110.193 104.826C110.19 104.816 110.183 104.808 110.174 104.804C107.656 103.329 104.282 102.584 101.371 102.724C101.3 102.714 101.284 102.77 101.365 102.776Z" fill="#263238"/>
<path d="M101.142 99.7743C102.541 99.9761 105 100.352 108.937 102.333C108.937 102.333 108.965 102.333 108.937 102.311C106.632 100.74 103.937 99.8417 101.152 99.7153C101.062 99.7153 101.049 99.7588 101.142 99.7743Z" fill="#263238"/>
<path d="M101.048 98.1633C103.417 98.601 104.853 99.1785 107.157 100.215C107.157 100.215 107.185 100.215 107.157 100.191C104.676 98.7376 103.594 98.4923 101.039 98.0794C100.974 98.0608 100.955 98.1415 101.048 98.1633Z" fill="#263238"/>
<path d="M93.0239 96.9368L92.4038 109.197C92.4038 109.197 79.5918 108.067 77.7996 106.123C76.0074 104.18 70.4355 92.9195 69.3472 88.337C68.2589 83.7546 71.0836 83.3696 73.6354 86.2911C76.1873 89.2125 82.7111 96.2818 83.0522 96.3532C83.3932 96.4246 93.0239 96.9368 93.0239 96.9368Z" fill="#455A64"/>
<path d="M89.9698 105.797C90.007 105.131 90.0453 104.464 90.0845 103.798C90.1621 102.494 90.2582 101.193 90.3543 99.8922C90.407 99.175 90.4721 98.4547 90.5031 97.7345C90.5031 97.691 90.438 97.6879 90.4318 97.7345C90.2148 99.0167 90.1031 100.318 89.9977 101.612C89.8923 102.907 89.8117 104.183 89.7714 105.471C89.7497 106.21 89.7714 106.946 89.7714 107.688C89.7714 107.713 89.8179 107.716 89.821 107.688C89.8613 107.055 89.9326 106.427 89.9698 105.797Z" fill="#263238"/>
<path d="M86.4224 108.489C82.8163 107.961 78.742 107.157 77.787 106.123C75.9917 104.177 70.4353 92.9193 69.3346 88.3369C68.9346 86.6635 69.0555 85.5427 69.502 84.9497L86.4224 108.489Z" fill="#263238"/>
<path d="M53.6582 116.067L77.8435 110.088C78.169 109.715 74.8668 90.0786 70.6933 84.5524C69.6515 83.1708 66.1074 83.0777 64.4547 84.335C56.2814 90.5567 53.6706 115.748 53.6582 116.067Z" fill="#455A64"/>
<path opacity="0.6" d="M95.5539 95.3069C95.5539 95.3069 100.71 92.9163 100.707 89.7185C100.704 86.5208 94.0066 84.5028 94.0004 81.9973C93.9942 79.4919 96.9151 78.0327 96.9151 78.0327C96.9151 78.0327 92.3074 79.6161 92.3105 82.7704C92.3136 85.9247 96.7321 88.0482 97.1569 90.0632C97.746 92.848 95.5539 95.3069 95.5539 95.3069Z" fill="#EBEBEB"/>
<path opacity="0.6" d="M95.8083 95.3068C95.8083 95.3068 90.6457 93.4441 90.6426 90.9324C90.6395 88.4208 97.3276 86.797 97.3245 84.838C97.3214 82.879 94.4006 81.7334 94.4006 81.7334C94.4006 81.7334 99.0144 82.9752 99.0175 85.459C99.0206 87.9427 93.9572 89.6533 93.5975 91.6682C93.2378 93.6831 95.8083 95.3068 95.8083 95.3068Z" fill="#EBEBEB"/>
<path d="M98.0783 103.323L93.1699 103.331L93.1711 104.097L98.0795 104.09L98.0783 103.323Z" fill="#FFC727"/>
<path opacity="0.1" d="M98.0783 103.323L93.1699 103.331L93.1707 103.837L98.0791 103.829L98.0783 103.323Z" fill="black"/>
<path d="M87.3311 101.267C87.6731 101.789 88.1841 102.177 88.7781 102.366C89.3722 102.555 90.013 102.533 90.593 102.304C90.8375 102.209 91.0705 102.086 91.2875 101.938L90.6674 101.007C90.5508 101.087 90.4274 101.157 90.2984 101.215C89.9469 101.378 89.5486 101.411 89.1752 101.307C88.8017 101.203 88.4777 100.969 88.2613 100.647C87.5853 99.7152 87.3311 97.5419 88.0225 96.7068C88.069 96.6447 88.2644 96.5454 89.055 96.7068C89.2008 96.7409 89.3651 96.7751 89.5543 96.8279C89.6997 96.8778 89.8507 96.9101 90.0039 96.9241L90.0225 96.3684L90.0752 95.8127L89.8395 95.7537C89.4743 95.6461 89.101 95.5682 88.7233 95.5208C88.1434 95.4618 87.5326 95.5208 87.1729 95.9927C86.0381 97.3495 86.4908 100.094 87.3311 101.267Z" fill="#FFC727"/>
<path opacity="0.1" d="M90.6717 101.025C90.5552 101.106 90.4317 101.175 90.3027 101.233L90.6128 102.317C90.8573 102.221 91.0903 102.098 91.3074 101.951L90.6717 101.025Z" fill="black"/>
<path opacity="0.1" d="M88.709 95.5146L89.0408 96.7006C89.1865 96.7348 89.3508 96.7689 89.54 96.8217C89.6855 96.8716 89.8364 96.904 89.9896 96.9179L90.0082 96.3622L90.0609 95.8065L89.8252 95.7475C89.46 95.6399 89.0867 95.562 88.709 95.5146Z" fill="black"/>
<path d="M102.138 94.0464C102.138 94.0464 101.558 99.0573 100.544 101.168C99.5305 103.28 98.1104 103.516 97.2267 103.516H94.0175C93.1369 103.516 91.7168 103.283 90.6967 101.178C89.6766 99.0728 89.0781 94.0588 89.0781 94.0588L102.138 94.0464Z" fill="#FFC727"/>
<g opacity="0.1">
<path opacity="0.1" d="M101.446 98.2065C101.347 98.6691 101.235 99.1379 101.114 99.554L90.1192 99.5726C89.9952 99.1441 89.8836 98.6878 89.7812 98.2252L101.446 98.2065Z" fill="black"/>
<path opacity="0.1" d="M100.975 100.066C100.901 100.305 100.823 100.532 100.742 100.74L90.5102 100.756C90.4265 100.548 90.349 100.321 90.2715 100.082L100.975 100.066Z" fill="black"/>
<path opacity="0.1" d="M101.697 96.9399C101.657 97.1604 101.617 97.3839 101.57 97.6136L89.6607 97.6323C89.6111 97.4025 89.5677 97.179 89.5273 96.9586L101.697 96.9399Z" fill="black"/>
</g>
<path d="M61.7549 89.9324C58.2604 99.4947 58.3969 107.852 59.7612 109.231C62.7347 112.236 75.6583 108.92 78.8892 108.458C80.1946 108.275 76.2506 97.8213 74.8863 98.1783C71.674 99.0228 67.1005 100.609 66.9361 100.563C66.6075 100.47 66.9361 97.5791 66.5113 89.9293C66.1765 83.7387 63.1843 86.0237 61.7549 89.9324Z" fill="#EB9481"/>
<path d="M91.2132 96.2662C91.3001 97.5608 88.094 97.508 88.094 97.508C88.5785 97.7863 88.9504 98.2257 89.1451 98.7499C89.4552 99.6813 88.1064 100.575 88.1064 100.575C88.5503 100.968 88.8658 101.485 89.0118 102.059C89.2071 102.991 87.9823 104.074 87.9823 104.074C88.1808 104.662 88.1709 105.3 87.9544 105.881C86.9002 108.436 79.7563 108.914 77.6912 108.619L74.3301 98.5791C74.3301 98.5791 80.0601 94.3289 82.9531 94.0246C84.5592 93.857 91.0768 94.2885 91.2132 96.2662Z" fill="#EB9481"/>
<path d="M88.064 97.4739C86.3431 97.0889 84.5323 97.1169 82.7928 97.1634C82.7866 97.1655 82.7812 97.1694 82.7774 97.1747C82.7735 97.18 82.7715 97.1864 82.7715 97.1929C82.7715 97.1995 82.7735 97.2058 82.7774 97.2111C82.7812 97.2164 82.7866 97.2204 82.7928 97.2224C84.5323 97.2783 86.3276 97.5546 88.064 97.5577C88.0731 97.5552 88.0812 97.5497 88.087 97.5422C88.0927 97.5346 88.0959 97.5253 88.0959 97.5158C88.0959 97.5063 88.0927 97.497 88.087 97.4895C88.0812 97.4819 88.0731 97.4764 88.064 97.4739Z" fill="#263238"/>
<path d="M88.0788 100.52C87.6795 100.467 87.275 100.467 86.8757 100.52C86.4509 100.554 86.0262 100.594 85.6045 100.641C84.7549 100.734 83.9084 100.846 83.065 100.982C83.0278 100.982 83.0278 101.047 83.065 101.044C83.9115 100.951 84.758 100.873 85.6076 100.818L86.8819 100.743C87.2839 100.75 87.6854 100.711 88.0788 100.628C88.0885 100.623 88.0966 100.615 88.1022 100.605C88.1078 100.596 88.1108 100.585 88.1108 100.574C88.1108 100.563 88.1078 100.552 88.1022 100.542C88.0966 100.533 88.0885 100.525 88.0788 100.52Z" fill="#263238"/>
<path d="M87.9523 104.077C87.5905 104.037 87.2245 104.059 86.8702 104.142L85.7136 104.288C84.9415 104.381 84.1633 104.471 83.3943 104.537C83.354 104.537 83.3571 104.602 83.3943 104.599C84.1819 104.537 84.9726 104.484 85.757 104.416L86.9167 104.307C87.2726 104.305 87.6252 104.239 87.9585 104.114C87.9709 104.108 87.9523 104.08 87.9523 104.077Z" fill="#263238"/>
<path d="M88.1283 104.95C88.1764 105.463 88.0389 105.976 87.7408 106.396C87.431 106.81 87.0213 107.138 86.5501 107.35C85.6381 107.79 84.6775 108.121 83.6882 108.337C82.7062 108.564 81.7077 108.712 80.7022 108.781C79.6955 108.85 78.6847 108.827 77.6822 108.713H77.7194C76.969 108.846 76.2124 108.97 75.459 109.085C76.1969 108.891 76.938 108.705 77.6822 108.529H77.7101C78.7022 108.585 79.6971 108.567 80.6867 108.477C81.6759 108.391 82.6587 108.243 83.6293 108.033C84.5988 107.827 85.5474 107.533 86.4633 107.154C86.9168 106.971 87.3206 106.682 87.6415 106.313C87.9546 105.927 88.1264 105.446 88.1283 104.95Z" fill="#263238"/>
<path d="M74.4451 97.9829L76.6001 109.74C76.6001 109.74 60.6657 112.876 59.1154 109.094C57.565 105.313 59.5805 93.239 62.1913 88.4827C64.802 83.7264 66.3741 86.2908 66.6655 89.7246C66.957 93.1583 67.0872 100.051 67.1585 100.047C67.2298 100.044 74.4451 97.9829 74.4451 97.9829Z" fill="#455A64"/>
<path d="M73.3784 107.477L73.0683 105.499C72.8616 104.212 72.6714 102.921 72.4978 101.628C72.3985 100.913 72.3055 100.199 72.1877 99.4884C72.1877 99.4785 72.1838 99.4691 72.1768 99.4621C72.1698 99.4551 72.1604 99.4512 72.1505 99.4512C72.1406 99.4512 72.1312 99.4551 72.1242 99.4621C72.1172 99.4691 72.1133 99.4785 72.1133 99.4884C72.1753 100.789 72.3458 102.084 72.5195 103.372C72.6931 104.661 72.8915 105.921 73.1241 107.188C73.2605 107.914 73.4342 108.632 73.6016 109.361C73.6016 109.386 73.6543 109.38 73.6512 109.361C73.5396 108.718 73.4745 108.098 73.3784 107.477Z" fill="#263238"/>
<path d="M76.7898 109.861C76.7185 109.457 76.6472 109.057 76.551 108.656C76.5462 108.641 76.5358 108.627 76.5218 108.619C76.5078 108.61 76.4912 108.607 76.475 108.609C76.4587 108.612 76.444 108.62 76.4335 108.633C76.423 108.646 76.4174 108.662 76.4177 108.678C76.4177 109.051 76.4642 109.42 76.5014 109.79C74.2923 110.239 72.0542 110.53 69.804 110.662C67.5161 110.777 65.2225 110.696 62.9484 110.42C62.3934 110.355 61.8352 110.289 61.2864 110.181C60.8027 110.106 60.3517 109.89 59.9903 109.56C59.2555 108.855 59.0601 107.812 58.9764 106.834C58.8958 105.707 58.9113 104.568 58.9423 103.438C58.9733 102.307 59.0508 101.153 59.1656 100.022C59.2927 98.7465 59.4756 97.4798 59.6958 96.2162C59.9159 94.9526 60.1547 93.6673 60.4678 92.413C60.4678 92.3851 60.4306 92.3727 60.4213 92.413C60.225 93.0981 60.043 93.7873 59.8756 94.4807C59.8756 94.4186 59.8756 94.3596 59.8756 94.3006C59.8756 94.0678 59.8756 93.835 59.8756 93.6052C59.8756 93.5986 59.873 93.5923 59.8683 93.5876C59.8637 93.583 59.8574 93.5804 59.8508 93.5804C59.8442 93.5804 59.8379 93.583 59.8333 93.5876C59.8286 93.5923 59.826 93.5986 59.826 93.6052C59.7663 93.8302 59.734 94.0616 59.7299 94.2944C59.7299 94.4124 59.7299 94.5273 59.7299 94.6453C59.7299 94.7167 59.7299 94.7943 59.7516 94.8688C59.4043 96.3446 59.1362 97.838 58.9485 99.3426C58.6664 101.672 58.5452 104.019 58.5857 106.365C58.6012 107.39 58.7067 108.464 59.2865 109.343C59.5337 109.732 59.875 110.052 60.2787 110.274C60.7816 110.498 61.318 110.638 61.8662 110.687C64.1666 111.032 66.493 111.171 68.818 111.103C71.4649 111.054 74.0978 110.704 76.6658 110.06C76.6884 110.058 76.7104 110.051 76.7298 110.039C76.7492 110.027 76.7656 110.011 76.7777 109.992C76.7897 109.972 76.7971 109.95 76.7992 109.928C76.8013 109.905 76.7981 109.882 76.7898 109.861Z" fill="#263238"/>
<path d="M74.4856 97.9581C74.485 97.9459 74.4817 97.9339 74.476 97.9231C74.4703 97.9123 74.4623 97.9028 74.4525 97.8954C74.4428 97.888 74.4315 97.8828 74.4196 97.8803C74.4076 97.8777 74.3952 97.8778 74.3833 97.8805C73.7631 98.0171 73.143 98.191 72.5229 98.3648C71.9027 98.5387 71.2826 98.6753 70.6842 98.8523C69.5307 99.1627 68.3804 99.5104 67.2455 99.8923C67.2889 99.3032 67.2889 98.7117 67.2455 98.1227C67.2176 97.4397 67.1835 96.7597 67.1432 96.0767C67.1029 95.3937 67.0626 94.6703 67.0192 93.9687C67.0715 93.7945 67.1129 93.6172 67.1432 93.4378C67.1773 93.1836 67.1835 92.9265 67.1618 92.6709C67.1618 92.6554 67.1339 92.6492 67.1308 92.6709C67.1029 92.9224 67.0502 93.1739 67.0161 93.4254C67.0161 93.4813 66.9975 93.5402 66.9913 93.5961C66.951 93.0466 66.9076 92.4971 66.8517 91.9476C66.8517 91.9289 66.8207 91.9289 66.8207 91.9476C66.799 93.326 66.8455 94.7014 66.8859 96.0829C66.9045 96.766 66.9262 97.449 66.9572 98.132C66.9664 98.7356 67.0223 99.3377 67.1246 99.9327H67.0905C66.4406 100.154 65.8075 100.422 65.196 100.734C65.1712 100.734 65.196 100.783 65.2146 100.777C66.7339 100.333 68.2346 99.8209 69.754 99.3831C70.5229 99.1627 71.3043 98.9485 72.0609 98.725C72.8174 98.5014 73.6112 98.3058 74.3554 98.0544C74.3771 98.1382 74.3957 98.2251 74.4236 98.309C74.4256 98.3213 74.4325 98.3323 74.4427 98.3396C74.4529 98.3469 74.4655 98.3498 74.4779 98.3478C74.4902 98.3457 74.5012 98.3388 74.5085 98.3286C74.5157 98.3184 74.5187 98.3058 74.5166 98.2934C74.5073 98.1879 74.4949 98.073 74.4856 97.9581Z" fill="#263238"/>
<path d="M64.9451 77.4331C64.9809 78.0848 64.958 78.7383 64.8769 79.3859C64.7497 79.8858 63.6211 80.4136 63.6211 80.4136C63.6211 80.4136 64.9048 80.8699 65.2707 80.783C65.6365 80.6961 66.2257 79.7585 66.2257 79.7585C66.2257 79.7585 65.683 81.258 65.1621 81.3356C64.8366 81.3853 65.9559 81.3977 65.9559 81.3977C66.3271 81.3727 66.676 81.2112 66.9357 80.9444C67.3171 80.5129 64.9451 77.4331 64.9451 77.4331Z" fill="#263238"/>
<path d="M69.7392 88.2281C68.657 88.2653 66.437 86.2194 65.5781 84.5025C65.5192 84.3845 65.7393 83.1768 65.9378 81.7083C66.0556 80.8111 66.1641 79.8083 66.1951 78.8862L71.9221 80.4665C71.5519 81.6079 71.3218 82.7901 71.2368 83.9871C71.2347 84.114 71.2441 84.2407 71.2647 84.3659C71.2647 84.3845 71.2647 84.4063 71.2647 84.4311C71.3608 85.1669 71.429 88.1535 69.7392 88.2281Z" fill="#EB9481"/>
<path d="M71.2599 84.3785C71.2621 84.4002 71.2621 84.422 71.2599 84.4437C71.0618 84.4595 70.8627 84.4595 70.6646 84.4437C67.381 84.2481 66.7205 80.2121 66.5996 78.9702L71.9235 80.4666C71.5518 81.6088 71.3206 82.7922 71.2351 83.9904C71.2332 84.1202 71.2415 84.25 71.2599 84.3785Z" fill="#263238"/>
<path d="M65.3177 71.5936C64.5859 73.6116 65.3518 79.5911 66.7409 80.9882C68.7501 83.0124 72.195 83.3787 73.953 80.923C75.6584 78.5448 74.5205 70.7708 72.9546 69.4855C70.6663 67.5917 66.4122 68.6162 65.3177 71.5936Z" fill="#EB9481"/>
<path d="M69.6574 74.3972C69.8234 74.3299 69.9859 74.2543 70.1443 74.1706C70.3264 74.1139 70.4853 73.9995 70.5969 73.8446C70.6228 73.789 70.6292 73.7263 70.6151 73.6666C70.6011 73.6069 70.5674 73.5537 70.5194 73.5155C70.4141 73.4539 70.2942 73.4214 70.1722 73.4214C70.0501 73.4214 69.9303 73.4539 69.8249 73.5155C69.5922 73.6078 69.4013 73.7824 69.2885 74.0061C69.2728 74.0583 69.2712 74.1138 69.2837 74.1669C69.2963 74.2199 69.3226 74.2688 69.36 74.3084C69.3974 74.3481 69.4446 74.3772 69.4968 74.3928C69.5491 74.4084 69.6045 74.4099 69.6574 74.3972Z" fill="#263238"/>
<path d="M73.6425 74.006C73.4644 73.9863 73.2874 73.9573 73.1123 73.919C72.922 73.9161 72.7379 73.8507 72.5883 73.7328C72.5486 73.6862 72.5253 73.6278 72.5219 73.5667C72.5185 73.5056 72.5353 73.445 72.5697 73.3944C72.6538 73.305 72.7602 73.2397 72.878 73.2053C72.9957 73.1709 73.1205 73.1687 73.2394 73.1988C73.486 73.2199 73.7164 73.3302 73.8875 73.5092C73.9219 73.5551 73.9429 73.6097 73.9482 73.6668C73.9535 73.724 73.9428 73.7815 73.9175 73.833C73.8921 73.8844 73.853 73.9278 73.8044 73.9584C73.7559 73.9889 73.6999 74.0054 73.6425 74.006Z" fill="#263238"/>
<path d="M70.4081 79.0665C70.5135 79.1503 70.622 79.2714 70.7677 79.2714C70.9182 79.2539 71.0631 79.2042 71.1925 79.1254C71.1955 79.1232 71.1992 79.1221 71.2029 79.1224C71.2067 79.1226 71.2102 79.1242 71.2128 79.1269C71.2154 79.1295 71.217 79.133 71.2173 79.1368C71.2176 79.1405 71.2165 79.1442 71.2142 79.1472C71.1636 79.2319 71.0911 79.3015 71.0043 79.3484C70.9176 79.3954 70.8198 79.4181 70.7212 79.4142C70.6367 79.4018 70.558 79.3639 70.4954 79.3057C70.4328 79.2475 70.3894 79.1717 70.3708 79.0882C70.3615 79.0665 70.3926 79.054 70.4081 79.0665Z" fill="#263238"/>
<path d="M70.716 77.8152C70.8337 77.9654 70.9813 78.0893 71.1495 78.1791C71.3176 78.2689 71.5027 78.3226 71.6927 78.3368C71.8584 78.3532 72.0256 78.3449 72.1888 78.3119C72.2204 78.309 72.2516 78.3028 72.2819 78.2933L72.3687 78.2716C72.3899 78.2654 72.4085 78.2522 72.4214 78.2342C72.4343 78.2162 72.4409 78.1944 72.44 78.1722C72.4415 78.1588 72.4415 78.1453 72.44 78.1319V78.0977C72.4183 77.7873 72.3439 77.3154 72.3439 77.3154C72.4617 77.3588 73.0663 77.5637 73.0415 77.4023C72.872 76.004 72.5604 74.6266 72.1113 73.2918C72.109 73.2841 72.1043 73.2773 72.0979 73.2725C72.0915 73.2677 72.0837 73.2651 72.0757 73.2651C72.0677 73.2651 72.0599 73.2677 72.0534 73.2725C72.047 73.2773 72.0423 73.2841 72.04 73.2918C72.1888 74.5864 72.5671 75.8438 72.7408 77.1415C72.5259 77.0658 72.3015 77.0208 72.0741 77.008C72.0307 77.0235 72.2354 77.9145 72.2354 78.0543C72.2361 78.0594 72.2361 78.0646 72.2354 78.0698C71.9831 78.1193 71.7235 78.1173 71.472 78.064C71.2205 78.0106 70.9824 77.907 70.7718 77.7593C70.716 77.7562 70.6881 77.7842 70.716 77.8152Z" fill="#263238"/>
<path d="M71.9895 78.1724C71.8355 78.4132 71.6218 78.61 71.3694 78.7436C71.2321 78.8115 71.0776 78.8363 70.926 78.8151C70.5973 78.7592 70.5601 78.4642 70.5942 78.1941C70.6138 78.056 70.6492 77.9206 70.6996 77.7905C71.0766 78.055 71.5295 78.1891 71.9895 78.1724Z" fill="#263238"/>
<path d="M71.385 78.7432C71.2477 78.8111 71.0932 78.8359 70.9416 78.8146C70.6129 78.7588 70.5757 78.4638 70.6098 78.1937C70.7822 78.1835 70.9528 78.2323 71.0938 78.3322C71.2347 78.4321 71.3374 78.5771 71.385 78.7432Z" fill="#FF9BBC"/>
<path d="M69.8905 75.7663C69.9127 75.8741 69.9655 75.9732 70.0424 76.0519C70.0856 76.0941 70.1372 76.1268 70.1938 76.1476C70.2504 76.1685 70.3109 76.1771 70.3711 76.173C70.434 76.1695 70.4951 76.1507 70.5491 76.1183C70.6032 76.0858 70.6485 76.0406 70.6811 75.9867C70.7381 75.8927 70.7711 75.786 70.7773 75.6762C70.7819 75.6132 70.7819 75.5499 70.7773 75.4869C70.7706 75.3525 70.7324 75.2217 70.6656 75.105C70.6749 75.201 70.6749 75.2977 70.6656 75.3937C70.6572 75.4803 70.6438 75.5664 70.6253 75.6514C70.5819 75.8253 70.492 75.9619 70.3587 75.9619C70.2253 75.9619 70.1044 75.8656 70.0486 75.7011C69.9822 75.5274 69.9333 75.3474 69.9029 75.164C69.8494 75.3607 69.8452 75.5675 69.8905 75.7663Z" fill="#263238"/>
<path d="M72.978 75.4621C72.9866 75.5738 73.0252 75.681 73.0897 75.7726C73.1271 75.8201 73.174 75.8593 73.2273 75.8876C73.2807 75.9159 73.3395 75.9328 73.3997 75.9371C73.4614 75.9408 73.5231 75.9297 73.5797 75.9049C73.6363 75.8801 73.6862 75.8422 73.7253 75.7943C73.7925 75.7103 73.8383 75.6112 73.8586 75.5056C73.8725 75.4432 73.8818 75.3799 73.8865 75.3162C73.8961 75.1827 73.8749 75.0489 73.8245 74.925C73.8241 75.0212 73.8126 75.117 73.7904 75.2106C73.7722 75.2963 73.7473 75.3803 73.716 75.4621C73.6509 75.6266 73.5455 75.7725 73.4059 75.7446C73.2664 75.7167 73.1672 75.6173 73.1207 75.4341C73.0865 75.2509 73.0688 75.0649 73.068 74.8784C72.9901 75.0625 72.9592 75.2631 72.978 75.4621Z" fill="#263238"/>
<path d="M65.4654 76.9024C66.5445 76.5268 66.8917 72.8136 66.8917 72.8136L67.2018 74.8254C67.6973 74.3586 68.0892 73.7927 68.3521 73.1644C68.5342 72.5071 68.5256 71.8115 68.3273 71.1588C69.1713 71.7326 70.1096 72.153 71.0993 72.4007C71.6203 72.5094 74.9597 72.3821 74.9473 72.1461C74.907 71.4414 73.7535 69.0912 72.7613 68.4951C71.6172 67.809 68.9785 66.9676 66.7584 67.9673C64.9848 68.7652 65.2391 70.1592 64.898 71.1651C64.898 71.1651 63.6391 72.3014 63.605 72.8478C63.5492 74.0213 65.0716 77.0514 65.4654 76.9024Z" fill="#263238"/>
<path d="M66.3399 76.4867C66.3399 76.4867 65.0625 74.5277 64.1695 74.9778C63.2765 75.428 64.2005 78.2377 65.2082 78.6506C65.3337 78.7124 65.4704 78.7481 65.6101 78.7557C65.7498 78.7632 65.8895 78.7425 66.021 78.6946C66.1525 78.6468 66.2729 78.5728 66.3751 78.4773C66.4774 78.3817 66.5593 78.2664 66.6159 78.1384L66.3399 76.4867Z" fill="#EB9481"/>
<path d="M64.462 75.7754C64.4465 75.7754 64.4434 75.7971 64.462 75.8033C65.169 76.1138 65.5225 76.7937 65.7643 77.4891C65.7248 77.4163 65.67 77.3528 65.6038 77.3031C65.5376 77.2533 65.4614 77.2184 65.3805 77.2007C65.2996 77.183 65.2159 77.183 65.135 77.2006C65.0541 77.2183 64.9779 77.2531 64.9116 77.3029C64.9063 77.3053 64.9021 77.3098 64.9001 77.3154C64.8981 77.3209 64.8983 77.327 64.9008 77.3324C64.9032 77.3377 64.9077 77.3419 64.9133 77.3439C64.9188 77.3459 64.9249 77.3457 64.9302 77.3432C65.0571 77.3069 65.1921 77.3109 65.3166 77.3549C65.4411 77.3988 65.5488 77.4805 65.6248 77.5885C65.7484 77.7705 65.8523 77.9651 65.9349 78.1691C65.969 78.2343 66.0837 78.2032 66.062 78.1287C66.0636 78.1237 66.0636 78.1182 66.062 78.1132C66.1054 77.2004 65.4387 75.8996 64.462 75.7754Z" fill="#263238"/>
<path d="M71.2549 83.6954L70.2595 87.2968L65.5062 83.416L64.4551 84.9466C64.4551 84.9466 69.3976 91.3918 69.3883 91.0751L70.4735 87.9705L72.7587 89.7805L72.0176 84.6237L71.2549 83.6954Z" fill="#EBEBEB"/>
<path d="M72.5233 87.2161C72.3713 86.3685 72.2442 85.5116 72.0551 84.6734C72.0551 84.6423 71.9993 84.633 71.9962 84.6734C71.9155 85.5178 72.5109 88.756 72.5946 89.5383C72.4985 89.4607 70.4985 87.9363 70.483 87.9674C70.2288 88.4703 69.4319 90.746 69.3823 90.9509C68.6009 89.9264 65.6243 86.2164 64.7313 85.2664C64.7261 85.2618 64.7195 85.259 64.7126 85.2586C64.7057 85.2582 64.6988 85.2601 64.6931 85.264C64.6874 85.2679 64.6832 85.2736 64.6811 85.2803C64.679 85.2869 64.6792 85.294 64.6817 85.3005C65.3948 86.3964 69.3327 91.3949 69.3916 91.3763C69.8249 90.2963 70.2027 89.1948 70.5233 88.076C70.8706 88.4176 72.914 90.1624 72.9047 90.032C72.8275 89.0872 72.7001 88.1473 72.5233 87.2161Z" fill="#263238"/>
</svg>
